%
M48
M72
T01C0.01575
T02C0.03150
T03C0.03200
T04C0.03937
T05C0.04331
T06C0.05118
T07C0.05512
T08C0.05906
%
T01
X102699Y49431
X121799Y66781
X142049Y60181
X145949Y52081
X175299Y61231
X150249Y73731
X160799Y82431
X174999Y87281
X186999Y80481
X212799Y81331
X237549Y82531
X241899Y84681
X237849Y89531
X240749Y94281
X231549Y93881
X241899Y104531
X240649Y109781
X236649Y109981
X241399Y115531
X240049Y122031
X236649Y125731
X252049Y129181
X256099Y124931
X260049Y114531
X259749Y109531
X252049Y109531
X263899Y99531
X273599Y104531
X286349Y97831
X289399Y97831
X306999Y96381
X311499Y94531
X318549Y94531
X318599Y101081
X326349Y105881
X324649Y110181
X312299Y111281
X295949Y120331
X289799Y125181
X283599Y125081
X284499Y116681
X302649Y125181
X311049Y133831
X321299Y136781
X335649Y139181
X348249Y140331
X354999Y140331
X353099Y146381
X370249Y145531
X374799Y146331
X380999Y145181
X383999Y140331
X377249Y140331
X370499Y154281
X367399Y158281
X363949Y163231
X352049Y167881
X349149Y170781
X349149Y175981
X352049Y178831
X358999Y183131
X355049Y184181
X364349Y184081
X369499Y178431
X377449Y182731
X381499Y178831
X384499Y175931
X384499Y170731
X381499Y167881
X388949Y165031
X392249Y167881
X402449Y162331
X412999Y158281
X406149Y154281
X403049Y145881
X398999Y143081
X409249Y137331
X416999Y137631
X416999Y150281
X421849Y158281
X432549Y159731
X449499Y159581
X458049Y158081
X468049Y154281
X475999Y163731
X481549Y167731
X503749Y151631
X503749Y138681
X484599Y132631
X475999Y137581
X455299Y137631
X455199Y142631
X444149Y142631
X455049Y132631
X438849Y125531
X421849Y120631
X407349Y113431
X407349Y110331
X399499Y106281
X409549Y103981
X402849Y97181
X416399Y97281
X412249Y87231
X410399Y79181
X400999Y75631
X392649Y69131
X396199Y58131
X393399Y50731
X384749Y50231
X384799Y57081
X370099Y57481
X353299Y62331
X349299Y50281
X344999Y50231
X319549Y57881
X305199Y61131
X294299Y50681
X277699Y50731
X283849Y60831
X273599Y64281
X263899Y59281
X259749Y69281
X260199Y75031
X252049Y69281
X241849Y64281
X239149Y69631
X229949Y65981
X227249Y59281
X240149Y55331
X236299Y50831
X225049Y51281
X225049Y48131
X212699Y51981
X212649Y61381
X237499Y76431
X261549Y85831
X294599Y86681
X302649Y86881
X310149Y78531
X331149Y89681
X351199Y93081
X351149Y99031
X337599Y102831
X337399Y109931
X338599Y124731
X326749Y125181
X285599Y142481
X281099Y137481
X280249Y133131
X264399Y138431
X271349Y146581
X271349Y153331
X271549Y157581
X271649Y162781
X271049Y167881
X264399Y183481
X263749Y192181
X249599Y191231
X245599Y191231
X241199Y192531
X237249Y191281
X232099Y194831
X228949Y194831
X224899Y191731
X224899Y188581
X244299Y199181
X238299Y208231
X255399Y209681
X267999Y209681
X267999Y199181
X275749Y199181
X289049Y209531
X302649Y209031
X318049Y208981
X325249Y209681
X336699Y209731
X346349Y209881
X358049Y212481
X364349Y209381
X374399Y214081
X379399Y214081
X392999Y211031
X397199Y210981
X398049Y203281
X409849Y199781
X421849Y199431
X421749Y194781
X424899Y194781
X424899Y191581
X424899Y188431
X424899Y185281
X416999Y189481
X392249Y178781
X388949Y181481
X381749Y192181
X384299Y200131
X374349Y200181
X341499Y178831
X330749Y181031
X324149Y182581
X322149Y178931
X327299Y177281
X317799Y174131
X317949Y182681
X311049Y188181
X327349Y188181
X285649Y181831
X306999Y159031
X318949Y154281
X326749Y154281
X332249Y158281
X341449Y162281
X335599Y146231
X406149Y174081
X499799Y126181
X486099Y122481
X489249Y118231
X491799Y109181
X501049Y106231
X481545Y101181
X468049Y97131
X473449Y92281
X489699Y85581
X489749Y78881
X513499Y72931
X516599Y72931
X514999Y84331
X526599Y94431
X532349Y104331
X553249Y126131
X537649Y148181
X537649Y151281
X547249Y176931
X557549Y185281
X553249Y193881
X542349Y231231
X440899Y241481
X440899Y244431
X440899Y247431
X437799Y247431
X437799Y244431
X437799Y241481
X434649Y241481
X434649Y244431
X434649Y247431
X431499Y247431
X431499Y244431
X431499Y241481
X429799Y255631
X425549Y255781
X421299Y255881
X404049Y262781
X397449Y256081
X397599Y251881
X385999Y250481
X382849Y250481
X381699Y258831
X381949Y267581
X386049Y267131
X389999Y270281
X393199Y273831
X366849Y257231
X354499Y254131
X350499Y254081
X363649Y250681
X333099Y251981
X304549Y258981
X297849Y254131
X293599Y254081
X276449Y255131
X272349Y255181
X268249Y254831
X264249Y254731
X260199Y254781
X255099Y261181
X244299Y254581
X215749Y248231
X189099Y275031
X215749Y211581
X220549Y211581
X208099Y146581
X204249Y142481
X212699Y123181
X175799Y112731
X175099Y103431
X212699Y103931
X212649Y93931
X137349Y97381
X108249Y79581
X343749Y73431
X360849Y73281
X364699Y76931
X367899Y76931
X371099Y76931
X371099Y80131
X367899Y80131
X364699Y80131
X383999Y84181
X384399Y89181
X398799Y87181
X424399Y83031
X420249Y70081
X446149Y76981
X449649Y66581
X454449Y57881
X467499Y62881
X478149Y47981
X455299Y32781
X463249Y28731
X440349Y28731
X424799Y44881
X421649Y44881
X418499Y44881
X424849Y48231
X424849Y51381
X424849Y54531
X450249Y101181
X440299Y104281
X447249Y114381
X452249Y121431
X463399Y117631
X473449Y109181
X547249Y65231
X550349Y65231
X362199Y269381
T02
X82249Y147818
X82249Y139944
X82249Y132868
X82249Y124994
X157462Y98781
X165336Y98781
X165336Y66181
X157462Y66181
T03
X506249Y56681
X506249Y36681
T04
X345473Y38461
X335473Y38461
X325473Y38461
X315473Y38461
X305473Y38461
X295473Y38461
X285473Y38461
X275473Y38461
X265473Y38461
X255473Y38461
X245473Y38461
X235473Y38461
X225473Y38461
X215473Y38461
X215473Y28461
X225473Y28461
X235473Y28461
X245473Y28461
X255473Y28461
X265473Y28461
X275473Y28461
X285473Y28461
X295473Y28461
X305473Y28461
X315473Y28461
X325473Y28461
X335473Y28461
X345473Y28461
X345473Y272713
X335473Y272713
X325473Y272713
X315473Y272713
X305473Y272713
X295473Y272713
X285473Y272713
X275473Y272713
X265473Y272713
X255473Y272713
X245473Y272713
X235473Y272713
X225473Y272713
X215473Y272713
X215473Y282713
X225473Y282713
X235473Y282713
X245473Y282713
X255473Y282713
X265473Y282713
X275473Y282713
X285473Y282713
X295473Y282713
X305473Y282713
X315473Y282713
X325473Y282713
X335473Y282713
X345473Y282713
T05
X410399Y35081
T06
X170263Y162067
X140735Y162067
X140735Y181910
X170263Y181910
X170263Y201752
X140735Y201752
X140735Y261831
X155499Y261831
X170263Y261831
X453335Y238995
X473178Y238995
X493020Y238995
X493020Y209467
X473178Y209467
X453335Y209467
X553099Y209467
X553099Y224231
X553099Y238995
T07
X32796Y45016
X32796Y60016
X32796Y75016
X32796Y90016
X32796Y105016
X32796Y120016
X32796Y135016
X32796Y150016
T08
X111949Y163690
X199249Y163690
X199249Y252272
X111949Y252272
X446257Y268431
X534840Y268431
X534840Y179281
X446257Y179281
M30
