%
M48
M72
T01C0.01575
T02C0.03150
T03C0.03200
T04C0.03937
T05C0.04331
T06C0.05118
T07C0.05512
T08C0.05906
%
T01
X102699Y49431
X121749Y64531
X142049Y60181
X145949Y52081
X175299Y61231
X154749Y73731
X160799Y82431
X174999Y87281
X186999Y80481
X212799Y81331
X212649Y93931
X212699Y103931
X231549Y93881
X240749Y94281
X237849Y89531
X241899Y84681
X237549Y82531
X237499Y76431
X239149Y69631
X241849Y64281
X252049Y69281
X259749Y69281
X260199Y75031
X273599Y64281
X283849Y60831
X277699Y50731
X263899Y59281
X240149Y55331
X236299Y50831
X225049Y51281
X225049Y48131
X212699Y51981
X227249Y59281
X229949Y65981
X212649Y61381
X261549Y85831
X263899Y99531
X273599Y104531
X259749Y109531
X252049Y109531
X260049Y114531
X256099Y124931
X252049Y129181
X240049Y122031
X236649Y125731
X241399Y115531
X240649Y109781
X236649Y109981
X241899Y104531
X212699Y123181
X204249Y142481
X208099Y146581
X264399Y138431
X271349Y146581
X271349Y153331
X271549Y157581
X271649Y162781
X271049Y167881
X264399Y183481
X263749Y192181
X267999Y196231
X263599Y200081
X275749Y196231
X267999Y209681
X263699Y209681
X255399Y209681
X241599Y200081
X241199Y192531
X237249Y191281
X232099Y194831
X228949Y194831
X224899Y191731
X224899Y188581
X208999Y190531
X245599Y191231
X249599Y191231
X281149Y183381
X311049Y188181
X317949Y182681
X322149Y178931
X324149Y182581
X330749Y181031
X327299Y177281
X317799Y174131
X341499Y178831
X349149Y175981
X352049Y178831
X355049Y184181
X358999Y183131
X364349Y184081
X369499Y178431
X377449Y182731
X381499Y178831
X384499Y175931
X392249Y178781
X388949Y181481
X381749Y192181
X384299Y200131
X374349Y200181
X358049Y212481
X374399Y214081
X379399Y214081
X392999Y211031
X397199Y210981
X398049Y203281
X414499Y190131
X421749Y194781
X424899Y194781
X424899Y191581
X424899Y188431
X424899Y185281
X406149Y174081
X392249Y167881
X388949Y165031
X381499Y167881
X384499Y170731
X402449Y162331
X412999Y158281
X406149Y154281
X402049Y150281
X392749Y145431
X374799Y146331
X365399Y144381
X370249Y140331
X353849Y136231
X341449Y140131
X335599Y146231
X326749Y154281
X318949Y154281
X306999Y159031
X302649Y159031
X332249Y158281
X341449Y162281
X352049Y167881
X349149Y170781
X363949Y163231
X367399Y158281
X370499Y154281
X353099Y146381
X339949Y132181
X340049Y124581
X328999Y120481
X333699Y111931
X326199Y104931
X318599Y101081
X318549Y94531
X311499Y94531
X326149Y87931
X331099Y96481
X346499Y96281
X363399Y95531
X367249Y99181
X370449Y99181
X373649Y99181
X373649Y102381
X370449Y102381
X367249Y102381
X386549Y106431
X386949Y111431
X401349Y109431
X405399Y119431
X418949Y119531
X421199Y125181
X412099Y126231
X402049Y129281
X409799Y133081
X409799Y136181
X444149Y142631
X455199Y142631
X455299Y137631
X455049Y132631
X473549Y132631
X474949Y137631
X466249Y154281
X449899Y159581
X442249Y158931
X430349Y167731
X421199Y158281
X470699Y167731
X510249Y168631
X560149Y168831
X557299Y132581
X547849Y119681
X526899Y123281
X506649Y132631
X495699Y113881
X490499Y109031
X497349Y102381
X459449Y114981
X455749Y111731
X452249Y121431
X414949Y109481
X414899Y101431
X403549Y97881
X395199Y91381
X386249Y83481
X377949Y77481
X395149Y77381
X398749Y80381
X376199Y63531
X358899Y59981
X344699Y69731
X351849Y72531
X329799Y75031
X310149Y78531
X302649Y86881
X294599Y86681
X287949Y103381
X306999Y106031
X284499Y116681
X283599Y125081
X289799Y125181
X295949Y120331
X311049Y133831
X285599Y142481
X281099Y137481
X280249Y133131
X353699Y121331
X353749Y115331
X369349Y129281
X355849Y84581
X305199Y61131
X294299Y50681
X396199Y57331
X418499Y44881
X421649Y44881
X424799Y44881
X424849Y48231
X424849Y51381
X424849Y54531
X437249Y39281
X486049Y75031
X485999Y81731
X421849Y199431
X433049Y237931
X433049Y240881
X433049Y243881
X436199Y243881
X436199Y240881
X436199Y237931
X439349Y237931
X439349Y240881
X439349Y243881
X442449Y243881
X442449Y240881
X442449Y237931
X433949Y255631
X429699Y255781
X425449Y255881
X408199Y262781
X401599Y256081
X401749Y251881
X393249Y250481
X390149Y250481
X386999Y250481
X371499Y250331
X362249Y255531
X358099Y255431
X370999Y257231
X385849Y258831
X386099Y267581
X390199Y267131
X394149Y270281
X397349Y273831
X366349Y269381
X333099Y251981
X304549Y258981
X297849Y254131
X293599Y254081
X276449Y255131
X272349Y255181
X268249Y254831
X264249Y254731
X260199Y254781
X255099Y261181
X215749Y248231
X208999Y261681
X189099Y275031
X215749Y211581
X220549Y211581
X289049Y209531
X302649Y209031
X318049Y208981
X325249Y209681
X338149Y209731
X462049Y281031
X462049Y284081
X175799Y112731
X175099Y103431
X137349Y97381
X113499Y82481
T02
X157462Y66181
X165336Y66181
X165336Y98781
X157462Y98781
X82249Y124994
X82249Y132868
X82249Y141644
X82249Y149518
T03
X451199Y90281
X451199Y70281
T04
X345473Y38461
X335473Y38461
X325473Y38461
X315473Y38461
X305473Y38461
X295473Y38461
X285473Y38461
X275473Y38461
X265473Y38461
X255473Y38461
X245473Y38461
X235473Y38461
X225473Y38461
X215473Y38461
X215473Y28461
X225473Y28461
X235473Y28461
X245473Y28461
X255473Y28461
X265473Y28461
X275473Y28461
X285473Y28461
X295473Y28461
X305473Y28461
X315473Y28461
X325473Y28461
X335473Y28461
X345473Y28461
X345473Y272713
X335473Y272713
X325473Y272713
X315473Y272713
X305473Y272713
X295473Y272713
X285473Y272713
X275473Y272713
X265473Y272713
X255473Y272713
X245473Y272713
X235473Y272713
X225473Y272713
X215473Y272713
X215473Y282713
X225473Y282713
X235473Y282713
X245473Y282713
X255473Y282713
X265473Y282713
X275473Y282713
X285473Y282713
X295473Y282713
X305473Y282713
X315473Y282713
X325473Y282713
X335473Y282713
X345473Y282713
T05
X410399Y35081
T06
X170263Y162067
X140735Y162067
X140735Y181910
X170263Y181910
X170263Y201752
X140735Y201752
X140735Y261831
X155499Y261831
X170263Y261831
X493685Y278731
X508449Y278731
X523213Y278731
X523213Y218652
X493685Y218652
X493685Y198810
X523213Y198810
X523213Y178967
X493685Y178967
T07
X32796Y45016
X32796Y60016
X32796Y75016
X32796Y90016
X32796Y105016
X32796Y120016
X32796Y135016
X32796Y150016
T08
X111949Y163690
X199249Y163690
X199249Y252272
X111949Y252272
X464749Y269122
X552149Y269272
X552149Y180690
X464749Y180540
M30
