G75*
%MOIN*%
%OFA0B0*%
%FSLAX25Y25*%
%IPPOS*%
%LPD*%
%AMOC8*
5,1,8,0,0,1.08239X$1,22.5*
%
%ADD10C,0.00394*%
D10*
X0016261Y0020744D02*
X0562324Y0020744D01*
X0562471Y0020746D01*
X0562617Y0020752D01*
X0562764Y0020762D01*
X0562910Y0020775D01*
X0563056Y0020793D01*
X0563201Y0020814D01*
X0563345Y0020839D01*
X0563489Y0020869D01*
X0563632Y0020901D01*
X0563774Y0020938D01*
X0563915Y0020979D01*
X0564055Y0021023D01*
X0564194Y0021071D01*
X0564331Y0021122D01*
X0564467Y0021178D01*
X0564602Y0021237D01*
X0564734Y0021299D01*
X0564866Y0021365D01*
X0564995Y0021434D01*
X0565122Y0021507D01*
X0565248Y0021583D01*
X0565371Y0021663D01*
X0565492Y0021746D01*
X0565611Y0021831D01*
X0565728Y0021921D01*
X0565842Y0022013D01*
X0565954Y0022108D01*
X0566063Y0022206D01*
X0566169Y0022307D01*
X0566273Y0022411D01*
X0566374Y0022517D01*
X0566472Y0022626D01*
X0566567Y0022738D01*
X0566659Y0022852D01*
X0566749Y0022969D01*
X0566834Y0023088D01*
X0566917Y0023209D01*
X0566997Y0023332D01*
X0567073Y0023458D01*
X0567146Y0023585D01*
X0567215Y0023714D01*
X0567281Y0023846D01*
X0567343Y0023978D01*
X0567402Y0024113D01*
X0567458Y0024249D01*
X0567509Y0024386D01*
X0567557Y0024525D01*
X0567601Y0024665D01*
X0567642Y0024806D01*
X0567679Y0024948D01*
X0567711Y0025091D01*
X0567741Y0025235D01*
X0567766Y0025379D01*
X0567787Y0025524D01*
X0567805Y0025670D01*
X0567818Y0025816D01*
X0567828Y0025963D01*
X0567834Y0026109D01*
X0567836Y0026256D01*
X0567835Y0026256D02*
X0567835Y0284917D01*
X0567836Y0284917D02*
X0567834Y0285064D01*
X0567828Y0285210D01*
X0567818Y0285357D01*
X0567805Y0285503D01*
X0567787Y0285649D01*
X0567766Y0285794D01*
X0567741Y0285938D01*
X0567711Y0286082D01*
X0567679Y0286225D01*
X0567642Y0286367D01*
X0567601Y0286508D01*
X0567557Y0286648D01*
X0567509Y0286787D01*
X0567458Y0286924D01*
X0567402Y0287060D01*
X0567343Y0287195D01*
X0567281Y0287327D01*
X0567215Y0287459D01*
X0567146Y0287588D01*
X0567073Y0287715D01*
X0566997Y0287841D01*
X0566917Y0287964D01*
X0566834Y0288085D01*
X0566749Y0288204D01*
X0566659Y0288321D01*
X0566567Y0288435D01*
X0566472Y0288547D01*
X0566374Y0288656D01*
X0566273Y0288762D01*
X0566169Y0288866D01*
X0566063Y0288967D01*
X0565954Y0289065D01*
X0565842Y0289160D01*
X0565728Y0289252D01*
X0565611Y0289342D01*
X0565492Y0289427D01*
X0565371Y0289510D01*
X0565248Y0289590D01*
X0565122Y0289666D01*
X0564995Y0289739D01*
X0564866Y0289808D01*
X0564734Y0289874D01*
X0564602Y0289936D01*
X0564467Y0289995D01*
X0564331Y0290051D01*
X0564194Y0290102D01*
X0564055Y0290150D01*
X0563915Y0290194D01*
X0563774Y0290235D01*
X0563632Y0290272D01*
X0563489Y0290304D01*
X0563345Y0290334D01*
X0563201Y0290359D01*
X0563056Y0290380D01*
X0562910Y0290398D01*
X0562764Y0290411D01*
X0562617Y0290421D01*
X0562471Y0290427D01*
X0562324Y0290429D01*
X0016261Y0290429D01*
X0016114Y0290427D01*
X0015968Y0290421D01*
X0015821Y0290411D01*
X0015675Y0290398D01*
X0015529Y0290380D01*
X0015384Y0290359D01*
X0015240Y0290334D01*
X0015096Y0290304D01*
X0014953Y0290272D01*
X0014811Y0290235D01*
X0014670Y0290194D01*
X0014530Y0290150D01*
X0014391Y0290102D01*
X0014254Y0290051D01*
X0014118Y0289995D01*
X0013983Y0289936D01*
X0013851Y0289874D01*
X0013719Y0289808D01*
X0013590Y0289739D01*
X0013463Y0289666D01*
X0013337Y0289590D01*
X0013214Y0289510D01*
X0013093Y0289427D01*
X0012974Y0289342D01*
X0012857Y0289252D01*
X0012743Y0289160D01*
X0012631Y0289065D01*
X0012522Y0288967D01*
X0012416Y0288866D01*
X0012312Y0288762D01*
X0012211Y0288656D01*
X0012113Y0288547D01*
X0012018Y0288435D01*
X0011926Y0288321D01*
X0011836Y0288204D01*
X0011751Y0288085D01*
X0011668Y0287964D01*
X0011588Y0287841D01*
X0011512Y0287715D01*
X0011439Y0287588D01*
X0011370Y0287459D01*
X0011304Y0287327D01*
X0011242Y0287195D01*
X0011183Y0287060D01*
X0011127Y0286924D01*
X0011076Y0286787D01*
X0011028Y0286648D01*
X0010984Y0286508D01*
X0010943Y0286367D01*
X0010906Y0286225D01*
X0010874Y0286082D01*
X0010844Y0285938D01*
X0010819Y0285794D01*
X0010798Y0285649D01*
X0010780Y0285503D01*
X0010767Y0285357D01*
X0010757Y0285210D01*
X0010751Y0285064D01*
X0010749Y0284917D01*
X0010749Y0026256D01*
X0010751Y0026109D01*
X0010757Y0025963D01*
X0010767Y0025816D01*
X0010780Y0025670D01*
X0010798Y0025524D01*
X0010819Y0025379D01*
X0010844Y0025235D01*
X0010874Y0025091D01*
X0010906Y0024948D01*
X0010943Y0024806D01*
X0010984Y0024665D01*
X0011028Y0024525D01*
X0011076Y0024386D01*
X0011127Y0024249D01*
X0011183Y0024113D01*
X0011242Y0023978D01*
X0011304Y0023846D01*
X0011370Y0023714D01*
X0011439Y0023585D01*
X0011512Y0023458D01*
X0011588Y0023332D01*
X0011668Y0023209D01*
X0011751Y0023088D01*
X0011836Y0022969D01*
X0011926Y0022852D01*
X0012018Y0022738D01*
X0012113Y0022626D01*
X0012211Y0022517D01*
X0012312Y0022411D01*
X0012416Y0022307D01*
X0012522Y0022206D01*
X0012631Y0022108D01*
X0012743Y0022013D01*
X0012857Y0021921D01*
X0012974Y0021831D01*
X0013093Y0021746D01*
X0013214Y0021663D01*
X0013337Y0021583D01*
X0013463Y0021507D01*
X0013590Y0021434D01*
X0013719Y0021365D01*
X0013851Y0021299D01*
X0013983Y0021237D01*
X0014118Y0021178D01*
X0014254Y0021122D01*
X0014391Y0021071D01*
X0014530Y0021023D01*
X0014670Y0020979D01*
X0014811Y0020938D01*
X0014953Y0020901D01*
X0015096Y0020869D01*
X0015240Y0020839D01*
X0015384Y0020814D01*
X0015529Y0020793D01*
X0015675Y0020775D01*
X0015821Y0020762D01*
X0015968Y0020752D01*
X0016114Y0020746D01*
X0016261Y0020744D01*
M02*
