G75*
%MOIN*%
%OFA0B0*%
%FSLAX25Y25*%
%IPPOS*%
%LPD*%
%AMOC8*
5,1,8,0,0,1.08239X$1,22.5*
%
%ADD10R,0.10000X0.20000*%
%ADD11C,0.04724*%
%ADD12C,0.08858*%
%ADD13C,0.07677*%
%ADD14C,0.05906*%
%ADD15C,0.08268*%
%ADD16C,0.06496*%
%ADD17C,0.04800*%
%ADD18C,0.03175*%
%ADD19C,0.02400*%
%ADD20C,0.03200*%
%ADD21C,0.02000*%
%ADD22C,0.01600*%
%ADD23C,0.00800*%
%ADD24C,0.01000*%
%ADD25C,0.28000*%
%ADD26C,0.22500*%
D10*
X0025749Y0178681D03*
X0055749Y0178681D03*
X0085749Y0178681D03*
X0065749Y0208681D03*
X0035749Y0208681D03*
X0025749Y0238681D03*
X0055749Y0238681D03*
X0085749Y0238681D03*
X0065749Y0268681D03*
X0035749Y0268681D03*
X0505749Y0068681D03*
X0530749Y0068681D03*
X0555749Y0068681D03*
X0545749Y0038681D03*
X0520749Y0038681D03*
X0495749Y0038681D03*
X0470749Y0038681D03*
D11*
X0165336Y0066181D03*
X0157462Y0066181D03*
X0157462Y0098781D03*
X0165336Y0098781D03*
X0082249Y0124994D03*
X0082249Y0132868D03*
X0082249Y0141644D03*
X0082249Y0149518D03*
D12*
X0111949Y0163690D03*
X0199249Y0163690D03*
X0199249Y0252272D03*
X0111949Y0252272D03*
X0464749Y0269122D03*
X0552149Y0269272D03*
X0552149Y0180690D03*
X0464749Y0180540D03*
D13*
X0493685Y0178967D03*
X0523213Y0178967D03*
X0523213Y0198810D03*
X0493685Y0198810D03*
X0493685Y0218652D03*
X0523213Y0218652D03*
X0523213Y0278731D03*
X0508449Y0278731D03*
X0493685Y0278731D03*
X0170263Y0261831D03*
X0155499Y0261831D03*
X0140735Y0261831D03*
X0140735Y0201752D03*
X0170263Y0201752D03*
X0170263Y0181910D03*
X0140735Y0181910D03*
X0140735Y0162067D03*
X0170263Y0162067D03*
D14*
X0215473Y0272713D03*
X0225473Y0272713D03*
X0235473Y0272713D03*
X0245473Y0272713D03*
X0255473Y0272713D03*
X0265473Y0272713D03*
X0275473Y0272713D03*
X0285473Y0272713D03*
X0295473Y0272713D03*
X0305473Y0272713D03*
X0315473Y0272713D03*
X0325473Y0272713D03*
X0335473Y0272713D03*
X0345473Y0272713D03*
X0345473Y0282713D03*
X0335473Y0282713D03*
X0325473Y0282713D03*
X0315473Y0282713D03*
X0305473Y0282713D03*
X0295473Y0282713D03*
X0285473Y0282713D03*
X0275473Y0282713D03*
X0265473Y0282713D03*
X0255473Y0282713D03*
X0245473Y0282713D03*
X0235473Y0282713D03*
X0225473Y0282713D03*
X0215473Y0282713D03*
X0215473Y0038461D03*
X0225473Y0038461D03*
X0235473Y0038461D03*
X0245473Y0038461D03*
X0255473Y0038461D03*
X0265473Y0038461D03*
X0275473Y0038461D03*
X0285473Y0038461D03*
X0295473Y0038461D03*
X0305473Y0038461D03*
X0315473Y0038461D03*
X0325473Y0038461D03*
X0335473Y0038461D03*
X0345473Y0038461D03*
X0345473Y0028461D03*
X0335473Y0028461D03*
X0325473Y0028461D03*
X0315473Y0028461D03*
X0305473Y0028461D03*
X0295473Y0028461D03*
X0285473Y0028461D03*
X0275473Y0028461D03*
X0265473Y0028461D03*
X0255473Y0028461D03*
X0245473Y0028461D03*
X0235473Y0028461D03*
X0225473Y0028461D03*
X0215473Y0028461D03*
D15*
X0032796Y0045016D03*
X0032796Y0060016D03*
X0032796Y0075016D03*
X0032796Y0090016D03*
X0032796Y0105016D03*
X0032796Y0120016D03*
X0032796Y0135016D03*
X0032796Y0150016D03*
D16*
X0410399Y0035081D03*
D17*
X0451199Y0070281D03*
X0451199Y0090281D03*
D18*
X0485999Y0081731D03*
X0486049Y0075031D03*
X0497349Y0102381D03*
X0490499Y0109031D03*
X0495699Y0113881D03*
X0526899Y0123281D03*
X0506649Y0132631D03*
X0474949Y0137631D03*
X0473549Y0132631D03*
X0455049Y0132631D03*
X0455299Y0137631D03*
X0455199Y0142631D03*
X0444149Y0142631D03*
X0466249Y0154281D03*
X0449899Y0159581D03*
X0442249Y0158931D03*
X0430349Y0167731D03*
X0421199Y0158281D03*
X0412999Y0158281D03*
X0402449Y0162331D03*
X0392249Y0167881D03*
X0388949Y0165031D03*
X0381499Y0167881D03*
X0384499Y0170731D03*
X0384499Y0175931D03*
X0381499Y0178831D03*
X0377449Y0182731D03*
X0388949Y0181481D03*
X0392249Y0178781D03*
X0406149Y0174081D03*
X0424899Y0185281D03*
X0424899Y0188431D03*
X0424899Y0191581D03*
X0424899Y0194781D03*
X0421749Y0194781D03*
X0414499Y0190131D03*
X0421849Y0199431D03*
X0398049Y0203281D03*
X0384299Y0200131D03*
X0374349Y0200181D03*
X0381749Y0192181D03*
X0364349Y0184081D03*
X0358999Y0183131D03*
X0355049Y0184181D03*
X0352049Y0178831D03*
X0349149Y0175981D03*
X0341499Y0178831D03*
X0330749Y0181031D03*
X0324149Y0182581D03*
X0322149Y0178931D03*
X0327299Y0177281D03*
X0317799Y0174131D03*
X0317949Y0182681D03*
X0311049Y0188181D03*
X0281149Y0183381D03*
X0264399Y0183481D03*
X0263749Y0192181D03*
X0267999Y0196231D03*
X0263599Y0200081D03*
X0275749Y0196231D03*
X0267999Y0209681D03*
X0263699Y0209681D03*
X0255399Y0209681D03*
X0241599Y0200081D03*
X0241199Y0192531D03*
X0237249Y0191281D03*
X0232099Y0194831D03*
X0228949Y0194831D03*
X0224899Y0191731D03*
X0224899Y0188581D03*
X0208999Y0190531D03*
X0245599Y0191231D03*
X0249599Y0191231D03*
X0289049Y0209531D03*
X0302649Y0209031D03*
X0318049Y0208981D03*
X0325249Y0209681D03*
X0338149Y0209731D03*
X0358049Y0212481D03*
X0374399Y0214081D03*
X0379399Y0214081D03*
X0392999Y0211031D03*
X0397199Y0210981D03*
X0433049Y0237931D03*
X0433049Y0240881D03*
X0433049Y0243881D03*
X0436199Y0243881D03*
X0436199Y0240881D03*
X0436199Y0237931D03*
X0439349Y0237931D03*
X0439349Y0240881D03*
X0439349Y0243881D03*
X0442449Y0243881D03*
X0442449Y0240881D03*
X0442449Y0237931D03*
X0433949Y0255631D03*
X0429699Y0255781D03*
X0425449Y0255881D03*
X0408199Y0262781D03*
X0401599Y0256081D03*
X0401749Y0251881D03*
X0393249Y0250481D03*
X0390149Y0250481D03*
X0386999Y0250481D03*
X0371499Y0250331D03*
X0362249Y0255531D03*
X0358099Y0255431D03*
X0370999Y0257231D03*
X0385849Y0258831D03*
X0386099Y0267581D03*
X0390199Y0267131D03*
X0394149Y0270281D03*
X0397349Y0273831D03*
X0366349Y0269381D03*
X0333099Y0251981D03*
X0304549Y0258981D03*
X0297849Y0254131D03*
X0293599Y0254081D03*
X0276449Y0255131D03*
X0272349Y0255181D03*
X0268249Y0254831D03*
X0264249Y0254731D03*
X0260199Y0254781D03*
X0255099Y0261181D03*
X0215749Y0248231D03*
X0208999Y0261681D03*
X0189099Y0275031D03*
X0215749Y0211581D03*
X0220549Y0211581D03*
X0271049Y0167881D03*
X0271649Y0162781D03*
X0271549Y0157581D03*
X0271349Y0153331D03*
X0271349Y0146581D03*
X0285599Y0142481D03*
X0281099Y0137481D03*
X0280249Y0133131D03*
X0283599Y0125081D03*
X0289799Y0125181D03*
X0295949Y0120331D03*
X0284499Y0116681D03*
X0260049Y0114531D03*
X0259749Y0109531D03*
X0252049Y0109531D03*
X0241899Y0104531D03*
X0240649Y0109781D03*
X0236649Y0109981D03*
X0241399Y0115531D03*
X0240049Y0122031D03*
X0236649Y0125731D03*
X0252049Y0129181D03*
X0256099Y0124931D03*
X0264399Y0138431D03*
X0302649Y0159031D03*
X0306999Y0159031D03*
X0318949Y0154281D03*
X0326749Y0154281D03*
X0332249Y0158281D03*
X0341449Y0162281D03*
X0352049Y0167881D03*
X0349149Y0170781D03*
X0363949Y0163231D03*
X0367399Y0158281D03*
X0370499Y0154281D03*
X0374799Y0146331D03*
X0365399Y0144381D03*
X0370249Y0140331D03*
X0353849Y0136231D03*
X0341449Y0140131D03*
X0335599Y0146231D03*
X0353099Y0146381D03*
X0339949Y0132181D03*
X0340049Y0124581D03*
X0328999Y0120481D03*
X0333699Y0111931D03*
X0326199Y0104931D03*
X0318599Y0101081D03*
X0318549Y0094531D03*
X0311499Y0094531D03*
X0326149Y0087931D03*
X0331099Y0096481D03*
X0346499Y0096281D03*
X0363399Y0095531D03*
X0367249Y0099181D03*
X0370449Y0099181D03*
X0373649Y0099181D03*
X0373649Y0102381D03*
X0370449Y0102381D03*
X0367249Y0102381D03*
X0386549Y0106431D03*
X0386949Y0111431D03*
X0401349Y0109431D03*
X0405399Y0119431D03*
X0418949Y0119531D03*
X0421199Y0125181D03*
X0412099Y0126231D03*
X0402049Y0129281D03*
X0409799Y0133081D03*
X0409799Y0136181D03*
X0392749Y0145431D03*
X0402049Y0150281D03*
X0406149Y0154281D03*
X0369349Y0129281D03*
X0353699Y0121331D03*
X0353749Y0115331D03*
X0311049Y0133831D03*
X0306999Y0106031D03*
X0287949Y0103381D03*
X0273599Y0104531D03*
X0263899Y0099531D03*
X0240749Y0094281D03*
X0231549Y0093881D03*
X0237849Y0089531D03*
X0241899Y0084681D03*
X0237549Y0082531D03*
X0237499Y0076431D03*
X0239149Y0069631D03*
X0241849Y0064281D03*
X0252049Y0069281D03*
X0259749Y0069281D03*
X0260199Y0075031D03*
X0273599Y0064281D03*
X0283849Y0060831D03*
X0277699Y0050731D03*
X0263899Y0059281D03*
X0240149Y0055331D03*
X0236299Y0050831D03*
X0225049Y0051281D03*
X0225049Y0048131D03*
X0212699Y0051981D03*
X0227249Y0059281D03*
X0229949Y0065981D03*
X0212649Y0061381D03*
X0212799Y0081331D03*
X0186999Y0080481D03*
X0174999Y0087281D03*
X0160799Y0082431D03*
X0154749Y0073731D03*
X0142049Y0060181D03*
X0145949Y0052081D03*
X0121749Y0064531D03*
X0113499Y0082481D03*
X0137349Y0097381D03*
X0175099Y0103431D03*
X0175799Y0112731D03*
X0212699Y0103931D03*
X0212649Y0093931D03*
X0261549Y0085831D03*
X0294599Y0086681D03*
X0302649Y0086881D03*
X0310149Y0078531D03*
X0329799Y0075031D03*
X0344699Y0069731D03*
X0351849Y0072531D03*
X0355849Y0084581D03*
X0377949Y0077481D03*
X0386249Y0083481D03*
X0395149Y0077381D03*
X0398749Y0080381D03*
X0395199Y0091381D03*
X0403549Y0097881D03*
X0414899Y0101431D03*
X0414949Y0109481D03*
X0452249Y0121431D03*
X0459449Y0114981D03*
X0455749Y0111731D03*
X0547849Y0119681D03*
X0557299Y0132581D03*
X0560149Y0168831D03*
X0510249Y0168631D03*
X0470699Y0167731D03*
X0369499Y0178431D03*
X0208099Y0146581D03*
X0204249Y0142481D03*
X0212699Y0123181D03*
X0175299Y0061231D03*
X0102699Y0049431D03*
X0294299Y0050681D03*
X0305199Y0061131D03*
X0358899Y0059981D03*
X0376199Y0063531D03*
X0396199Y0057331D03*
X0418499Y0044881D03*
X0421649Y0044881D03*
X0424799Y0044881D03*
X0424849Y0048231D03*
X0424849Y0051381D03*
X0424849Y0054531D03*
X0437249Y0039281D03*
X0462049Y0281031D03*
X0462049Y0284081D03*
D19*
X0267999Y0209681D02*
X0267999Y0196231D01*
X0208999Y0190531D02*
X0208999Y0261681D01*
X0271349Y0153331D02*
X0271349Y0146581D01*
X0208099Y0146581D02*
X0208099Y0095281D01*
X0188249Y0075431D01*
X0166712Y0075431D01*
X0157462Y0066181D01*
X0186999Y0080481D02*
X0204249Y0097731D01*
X0204249Y0142481D01*
X0175799Y0112731D02*
X0172799Y0109731D01*
X0079199Y0109731D01*
X0044399Y0074931D01*
X0032881Y0074931D01*
X0032796Y0075016D01*
X0137349Y0097381D02*
X0145499Y0105531D01*
X0172999Y0105531D01*
X0175099Y0103431D01*
X0260499Y0041231D02*
X0260499Y0033486D01*
X0255473Y0028461D01*
X0270449Y0033485D02*
X0270449Y0041131D01*
X0270449Y0033485D02*
X0275473Y0028461D01*
D20*
X0275473Y0038461D02*
X0275473Y0043756D01*
X0277699Y0045981D01*
X0277699Y0050731D01*
X0277699Y0130581D01*
X0280249Y0133131D01*
X0273599Y0142431D02*
X0275749Y0144581D01*
X0275749Y0196231D01*
X0263749Y0192181D02*
X0260149Y0188581D01*
X0260149Y0120331D01*
X0256049Y0116231D01*
X0256049Y0109581D01*
X0256049Y0069531D01*
X0256049Y0050531D01*
X0260499Y0046081D01*
X0260499Y0041231D01*
X0255473Y0038461D02*
X0255473Y0045007D01*
X0252049Y0048431D01*
X0252049Y0069281D01*
X0252049Y0109531D01*
X0252049Y0129181D01*
X0273599Y0142431D02*
X0273599Y0104531D01*
X0273599Y0064281D01*
X0273599Y0047581D01*
X0270449Y0044431D01*
X0270449Y0041131D01*
X0302649Y0086881D02*
X0302649Y0159031D01*
X0302649Y0209031D01*
X0306999Y0197931D02*
X0318049Y0208981D01*
X0306999Y0197931D02*
X0306999Y0159031D01*
X0306999Y0106031D01*
X0311049Y0133831D02*
X0311049Y0188181D01*
X0421199Y0158281D02*
X0421199Y0125181D01*
X0430349Y0108731D02*
X0437249Y0101831D01*
X0437249Y0039281D01*
X0485999Y0081731D02*
X0466249Y0101481D01*
X0466249Y0154281D01*
X0470699Y0167731D02*
X0470699Y0135031D01*
X0473099Y0132631D01*
X0473549Y0132631D01*
X0430349Y0108731D02*
X0430349Y0167731D01*
D21*
X0259749Y0109531D02*
X0256099Y0109531D01*
X0256049Y0109581D01*
X0256049Y0069531D02*
X0256299Y0069281D01*
X0259749Y0069281D01*
D22*
X0175299Y0061231D02*
X0174049Y0059981D01*
X0151549Y0059981D01*
X0146999Y0064531D01*
X0121749Y0064531D01*
X0121699Y0064481D01*
X0150149Y0069131D02*
X0154749Y0073731D01*
X0150149Y0069131D02*
X0063264Y0069131D01*
X0039149Y0045016D01*
X0032796Y0045016D01*
X0327299Y0177281D02*
X0332249Y0172331D01*
X0332249Y0158281D01*
X0367399Y0158281D02*
X0367399Y0176331D01*
X0369499Y0178431D01*
X0398649Y0181481D02*
X0398649Y0157581D01*
X0402049Y0154181D01*
X0402049Y0150281D01*
X0406149Y0154281D02*
X0406149Y0174081D01*
X0398649Y0181481D02*
X0405249Y0188081D01*
X0405249Y0204281D01*
X0402699Y0206831D01*
X0386649Y0206831D01*
X0379399Y0214081D01*
D23*
X0384849Y0219181D02*
X0365649Y0219181D01*
X0333099Y0251731D01*
X0333099Y0251981D01*
X0310499Y0260131D02*
X0293949Y0243581D01*
X0293949Y0133381D01*
X0286599Y0126031D01*
X0286599Y0118781D01*
X0284499Y0116681D01*
X0290732Y0114114D02*
X0299849Y0114114D01*
X0299849Y0114381D02*
X0299849Y0086324D01*
X0300275Y0085295D01*
X0301063Y0084507D01*
X0302092Y0084081D01*
X0303206Y0084081D01*
X0304235Y0084507D01*
X0305023Y0085295D01*
X0305449Y0086324D01*
X0305449Y0103642D01*
X0306442Y0103231D01*
X0307556Y0103231D01*
X0308585Y0103657D01*
X0309373Y0104445D01*
X0309799Y0105474D01*
X0309799Y0116031D01*
X0319399Y0125631D01*
X0384949Y0125631D01*
X0397799Y0138481D01*
X0408157Y0138481D01*
X0407436Y0137760D01*
X0407011Y0136736D01*
X0407011Y0135627D01*
X0407424Y0134631D01*
X0407011Y0133636D01*
X0407011Y0132527D01*
X0407436Y0131502D01*
X0408220Y0130718D01*
X0409244Y0130294D01*
X0410353Y0130294D01*
X0411378Y0130718D01*
X0412162Y0131502D01*
X0412586Y0132527D01*
X0412586Y0133636D01*
X0412174Y0134631D01*
X0412586Y0135627D01*
X0412586Y0136736D01*
X0412162Y0137760D01*
X0411441Y0138481D01*
X0416999Y0138481D01*
X0418099Y0137381D01*
X0418099Y0122196D01*
X0417370Y0121894D01*
X0416586Y0121110D01*
X0416161Y0120086D01*
X0416161Y0118977D01*
X0416586Y0117952D01*
X0417370Y0117168D01*
X0418099Y0116866D01*
X0418099Y0095881D01*
X0416499Y0094281D01*
X0404099Y0094281D01*
X0402349Y0096031D01*
X0402349Y0103481D01*
X0400649Y0105181D01*
X0389048Y0105181D01*
X0389336Y0105877D01*
X0389336Y0106986D01*
X0388912Y0108010D01*
X0388128Y0108794D01*
X0387103Y0109218D01*
X0385994Y0109218D01*
X0384970Y0108794D01*
X0384186Y0108010D01*
X0383761Y0106986D01*
X0383761Y0105877D01*
X0384050Y0105181D01*
X0352799Y0105181D01*
X0351099Y0103481D01*
X0351099Y0098781D01*
X0349247Y0096930D01*
X0348862Y0097860D01*
X0348078Y0098644D01*
X0347053Y0099068D01*
X0345944Y0099068D01*
X0344920Y0098644D01*
X0344136Y0097860D01*
X0343711Y0096836D01*
X0343711Y0095727D01*
X0344136Y0094702D01*
X0344357Y0094481D01*
X0343799Y0094481D01*
X0313199Y0063881D01*
X0305844Y0063881D01*
X0305753Y0063918D01*
X0304644Y0063918D01*
X0304554Y0063881D01*
X0282799Y0063881D01*
X0281999Y0064681D01*
X0281999Y0105381D01*
X0290999Y0114381D01*
X0299849Y0114381D01*
X0299849Y0113316D02*
X0289934Y0113316D01*
X0289135Y0112517D02*
X0299849Y0112517D01*
X0299849Y0111719D02*
X0288337Y0111719D01*
X0287538Y0110920D02*
X0299849Y0110920D01*
X0299849Y0110122D02*
X0286740Y0110122D01*
X0285941Y0109323D02*
X0299849Y0109323D01*
X0299849Y0108525D02*
X0285143Y0108525D01*
X0284344Y0107726D02*
X0299849Y0107726D01*
X0299849Y0106928D02*
X0283545Y0106928D01*
X0282747Y0106129D02*
X0287300Y0106129D01*
X0287394Y0106168D02*
X0286370Y0105744D01*
X0285586Y0104960D01*
X0285161Y0103936D01*
X0285161Y0102827D01*
X0285586Y0101802D01*
X0286370Y0101018D01*
X0287394Y0100594D01*
X0288503Y0100594D01*
X0289528Y0101018D01*
X0290312Y0101802D01*
X0290736Y0102827D01*
X0290736Y0103936D01*
X0290312Y0104960D01*
X0289528Y0105744D01*
X0288503Y0106168D01*
X0287394Y0106168D01*
X0288598Y0106129D02*
X0299849Y0106129D01*
X0299849Y0105331D02*
X0289941Y0105331D01*
X0290489Y0104532D02*
X0299849Y0104532D01*
X0299849Y0103734D02*
X0290736Y0103734D01*
X0290736Y0102935D02*
X0299849Y0102935D01*
X0299849Y0102137D02*
X0290450Y0102137D01*
X0289848Y0101338D02*
X0299849Y0101338D01*
X0299849Y0100540D02*
X0281999Y0100540D01*
X0281999Y0101338D02*
X0286050Y0101338D01*
X0285447Y0102137D02*
X0281999Y0102137D01*
X0281999Y0102935D02*
X0285161Y0102935D01*
X0285161Y0103734D02*
X0281999Y0103734D01*
X0281999Y0104532D02*
X0285409Y0104532D01*
X0285956Y0105331D02*
X0281999Y0105331D01*
X0281999Y0099741D02*
X0299849Y0099741D01*
X0299849Y0098943D02*
X0281999Y0098943D01*
X0281999Y0098144D02*
X0299849Y0098144D01*
X0299849Y0097346D02*
X0281999Y0097346D01*
X0281999Y0096547D02*
X0299849Y0096547D01*
X0299849Y0095749D02*
X0281999Y0095749D01*
X0281999Y0094950D02*
X0299849Y0094950D01*
X0299849Y0094152D02*
X0281999Y0094152D01*
X0281999Y0093353D02*
X0299849Y0093353D01*
X0299849Y0092555D02*
X0281999Y0092555D01*
X0281999Y0091756D02*
X0299849Y0091756D01*
X0299849Y0090958D02*
X0281999Y0090958D01*
X0281999Y0090159D02*
X0299849Y0090159D01*
X0299849Y0089361D02*
X0295414Y0089361D01*
X0295153Y0089468D02*
X0294044Y0089468D01*
X0293020Y0089044D01*
X0292236Y0088260D01*
X0291811Y0087236D01*
X0291811Y0086127D01*
X0292236Y0085102D01*
X0293020Y0084318D01*
X0294044Y0083894D01*
X0295153Y0083894D01*
X0296178Y0084318D01*
X0296962Y0085102D01*
X0297386Y0086127D01*
X0297386Y0087236D01*
X0296962Y0088260D01*
X0296178Y0089044D01*
X0295153Y0089468D01*
X0293784Y0089361D02*
X0281999Y0089361D01*
X0281999Y0088562D02*
X0292538Y0088562D01*
X0292030Y0087763D02*
X0281999Y0087763D01*
X0281999Y0086965D02*
X0291811Y0086965D01*
X0291811Y0086166D02*
X0281999Y0086166D01*
X0281999Y0085368D02*
X0292126Y0085368D01*
X0292768Y0084569D02*
X0281999Y0084569D01*
X0281999Y0083771D02*
X0333089Y0083771D01*
X0333887Y0084569D02*
X0304297Y0084569D01*
X0305053Y0085368D02*
X0325053Y0085368D01*
X0324570Y0085568D02*
X0325594Y0085144D01*
X0326703Y0085144D01*
X0327728Y0085568D01*
X0328512Y0086352D01*
X0328936Y0087377D01*
X0328936Y0088486D01*
X0328512Y0089510D01*
X0327728Y0090294D01*
X0326703Y0090718D01*
X0325594Y0090718D01*
X0324570Y0090294D01*
X0323786Y0089510D01*
X0323361Y0088486D01*
X0323361Y0087377D01*
X0323786Y0086352D01*
X0324570Y0085568D01*
X0323971Y0086166D02*
X0305383Y0086166D01*
X0305449Y0086965D02*
X0323532Y0086965D01*
X0323361Y0087763D02*
X0305449Y0087763D01*
X0305449Y0088562D02*
X0323393Y0088562D01*
X0323724Y0089361D02*
X0305449Y0089361D01*
X0305449Y0090159D02*
X0324435Y0090159D01*
X0327863Y0090159D02*
X0339477Y0090159D01*
X0340275Y0090958D02*
X0305449Y0090958D01*
X0305449Y0091756D02*
X0310915Y0091756D01*
X0310944Y0091744D02*
X0312053Y0091744D01*
X0313078Y0092168D01*
X0313862Y0092952D01*
X0314286Y0093977D01*
X0314286Y0095086D01*
X0313862Y0096110D01*
X0313078Y0096894D01*
X0312053Y0097318D01*
X0310944Y0097318D01*
X0309920Y0096894D01*
X0309136Y0096110D01*
X0308711Y0095086D01*
X0308711Y0093977D01*
X0309136Y0092952D01*
X0309920Y0092168D01*
X0310944Y0091744D01*
X0312083Y0091756D02*
X0341074Y0091756D01*
X0341872Y0092555D02*
X0313464Y0092555D01*
X0314028Y0093353D02*
X0342671Y0093353D01*
X0343469Y0094152D02*
X0332711Y0094152D01*
X0332678Y0094118D02*
X0333462Y0094902D01*
X0333886Y0095927D01*
X0333886Y0097036D01*
X0333462Y0098060D01*
X0332678Y0098844D01*
X0331653Y0099268D01*
X0330544Y0099268D01*
X0329520Y0098844D01*
X0328736Y0098060D01*
X0328311Y0097036D01*
X0328311Y0095927D01*
X0328736Y0094902D01*
X0329520Y0094118D01*
X0330544Y0093694D01*
X0331653Y0093694D01*
X0332678Y0094118D01*
X0333482Y0094950D02*
X0344033Y0094950D01*
X0343711Y0095749D02*
X0333812Y0095749D01*
X0333886Y0096547D02*
X0343711Y0096547D01*
X0343923Y0097346D02*
X0333758Y0097346D01*
X0333378Y0098144D02*
X0344420Y0098144D01*
X0345641Y0098943D02*
X0332440Y0098943D01*
X0329758Y0098943D02*
X0305449Y0098943D01*
X0305449Y0099741D02*
X0351099Y0099741D01*
X0351099Y0098943D02*
X0347357Y0098943D01*
X0348578Y0098144D02*
X0350462Y0098144D01*
X0349663Y0097346D02*
X0349075Y0097346D01*
X0351482Y0095749D02*
X0360611Y0095749D01*
X0360611Y0096086D02*
X0360611Y0094977D01*
X0361036Y0093952D01*
X0361820Y0093168D01*
X0362844Y0092744D01*
X0363953Y0092744D01*
X0364978Y0093168D01*
X0365762Y0093952D01*
X0366186Y0094977D01*
X0366186Y0096086D01*
X0365927Y0096712D01*
X0366694Y0096394D01*
X0367803Y0096394D01*
X0368828Y0096818D01*
X0368849Y0096839D01*
X0368870Y0096818D01*
X0369894Y0096394D01*
X0371003Y0096394D01*
X0372028Y0096818D01*
X0372049Y0096839D01*
X0372070Y0096818D01*
X0373094Y0096394D01*
X0374203Y0096394D01*
X0375228Y0096818D01*
X0376012Y0097602D01*
X0376436Y0098627D01*
X0376436Y0099736D01*
X0376012Y0100760D01*
X0375991Y0100781D01*
X0376012Y0100802D01*
X0376436Y0101827D01*
X0376436Y0102936D01*
X0376252Y0103381D01*
X0399899Y0103381D01*
X0400499Y0102781D01*
X0400449Y0095181D01*
X0403499Y0092131D01*
X0419849Y0092131D01*
X0421199Y0090781D01*
X0421199Y0047668D01*
X0421094Y0047668D01*
X0420074Y0047246D01*
X0419053Y0047668D01*
X0417944Y0047668D01*
X0416920Y0047244D01*
X0416136Y0046460D01*
X0415711Y0045436D01*
X0415711Y0044327D01*
X0416136Y0043302D01*
X0416920Y0042518D01*
X0417944Y0042094D01*
X0419053Y0042094D01*
X0420074Y0042516D01*
X0421094Y0042094D01*
X0421199Y0042094D01*
X0421199Y0024341D01*
X0346379Y0024341D01*
X0347826Y0024940D01*
X0348994Y0026108D01*
X0349626Y0027635D01*
X0349626Y0029287D01*
X0348994Y0030813D01*
X0347826Y0031981D01*
X0346299Y0032613D01*
X0344647Y0032613D01*
X0343121Y0031981D01*
X0341953Y0030813D01*
X0341320Y0029287D01*
X0341320Y0027635D01*
X0341953Y0026108D01*
X0343121Y0024940D01*
X0344567Y0024341D01*
X0336379Y0024341D01*
X0337826Y0024940D01*
X0338994Y0026108D01*
X0339626Y0027635D01*
X0339626Y0029287D01*
X0338994Y0030813D01*
X0337826Y0031981D01*
X0336299Y0032613D01*
X0334647Y0032613D01*
X0333121Y0031981D01*
X0331953Y0030813D01*
X0331320Y0029287D01*
X0331320Y0027635D01*
X0331953Y0026108D01*
X0333121Y0024940D01*
X0334567Y0024341D01*
X0326379Y0024341D01*
X0327826Y0024940D01*
X0328994Y0026108D01*
X0329626Y0027635D01*
X0329626Y0029287D01*
X0328994Y0030813D01*
X0327826Y0031981D01*
X0326299Y0032613D01*
X0324647Y0032613D01*
X0323121Y0031981D01*
X0321953Y0030813D01*
X0321320Y0029287D01*
X0321320Y0027635D01*
X0321953Y0026108D01*
X0323121Y0024940D01*
X0324567Y0024341D01*
X0316379Y0024341D01*
X0317826Y0024940D01*
X0318994Y0026108D01*
X0319626Y0027635D01*
X0319626Y0029287D01*
X0318994Y0030813D01*
X0317826Y0031981D01*
X0316299Y0032613D01*
X0314647Y0032613D01*
X0313121Y0031981D01*
X0311953Y0030813D01*
X0311320Y0029287D01*
X0311320Y0027635D01*
X0311953Y0026108D01*
X0313121Y0024940D01*
X0314567Y0024341D01*
X0306379Y0024341D01*
X0307826Y0024940D01*
X0308994Y0026108D01*
X0309626Y0027635D01*
X0309626Y0029287D01*
X0308994Y0030813D01*
X0307826Y0031981D01*
X0306299Y0032613D01*
X0304647Y0032613D01*
X0303121Y0031981D01*
X0301953Y0030813D01*
X0301320Y0029287D01*
X0301320Y0027635D01*
X0301953Y0026108D01*
X0303121Y0024940D01*
X0304567Y0024341D01*
X0296379Y0024341D01*
X0297826Y0024940D01*
X0298994Y0026108D01*
X0299626Y0027635D01*
X0299626Y0029287D01*
X0298994Y0030813D01*
X0297826Y0031981D01*
X0296299Y0032613D01*
X0294647Y0032613D01*
X0293121Y0031981D01*
X0291953Y0030813D01*
X0291320Y0029287D01*
X0291320Y0027635D01*
X0291953Y0026108D01*
X0293121Y0024940D01*
X0294567Y0024341D01*
X0286379Y0024341D01*
X0287826Y0024940D01*
X0288994Y0026108D01*
X0289626Y0027635D01*
X0289626Y0029287D01*
X0288994Y0030813D01*
X0287826Y0031981D01*
X0286299Y0032613D01*
X0284647Y0032613D01*
X0283121Y0031981D01*
X0281953Y0030813D01*
X0281320Y0029287D01*
X0281320Y0027635D01*
X0281953Y0026108D01*
X0283121Y0024940D01*
X0284567Y0024341D01*
X0280649Y0024341D01*
X0280649Y0041481D01*
X0283749Y0044681D01*
X0306249Y0044681D01*
X0306249Y0054331D01*
X0316949Y0065031D01*
X0344549Y0092681D01*
X0348449Y0092681D01*
X0352899Y0097181D01*
X0352899Y0102681D01*
X0353599Y0103381D01*
X0364646Y0103381D01*
X0364461Y0102936D01*
X0364461Y0101827D01*
X0364886Y0100802D01*
X0364907Y0100781D01*
X0364886Y0100760D01*
X0364461Y0099736D01*
X0364461Y0098627D01*
X0364721Y0098001D01*
X0363953Y0098318D01*
X0362844Y0098318D01*
X0361820Y0097894D01*
X0361036Y0097110D01*
X0360611Y0096086D01*
X0360803Y0096547D02*
X0352272Y0096547D01*
X0352899Y0097346D02*
X0361271Y0097346D01*
X0362423Y0098144D02*
X0352899Y0098144D01*
X0352899Y0098943D02*
X0364461Y0098943D01*
X0364464Y0099741D02*
X0352899Y0099741D01*
X0352899Y0100540D02*
X0364795Y0100540D01*
X0364664Y0101338D02*
X0352899Y0101338D01*
X0352899Y0102137D02*
X0364461Y0102137D01*
X0364461Y0102935D02*
X0353153Y0102935D01*
X0352150Y0104532D02*
X0328986Y0104532D01*
X0328986Y0104377D02*
X0328562Y0103352D01*
X0327778Y0102568D01*
X0326753Y0102144D01*
X0325644Y0102144D01*
X0324620Y0102568D01*
X0323836Y0103352D01*
X0323411Y0104377D01*
X0323411Y0105486D01*
X0323836Y0106510D01*
X0324620Y0107294D01*
X0325644Y0107718D01*
X0326753Y0107718D01*
X0327778Y0107294D01*
X0328562Y0106510D01*
X0328986Y0105486D01*
X0328986Y0104377D01*
X0328720Y0103734D02*
X0351351Y0103734D01*
X0351099Y0102935D02*
X0328145Y0102935D01*
X0328986Y0105331D02*
X0383988Y0105331D01*
X0383761Y0106129D02*
X0328720Y0106129D01*
X0328144Y0106928D02*
X0383761Y0106928D01*
X0384068Y0107726D02*
X0309799Y0107726D01*
X0309799Y0106928D02*
X0324254Y0106928D01*
X0323678Y0106129D02*
X0309799Y0106129D01*
X0309739Y0105331D02*
X0323411Y0105331D01*
X0323411Y0104532D02*
X0309409Y0104532D01*
X0308661Y0103734D02*
X0323678Y0103734D01*
X0324253Y0102935D02*
X0305449Y0102935D01*
X0305449Y0102137D02*
X0351099Y0102137D01*
X0351099Y0101338D02*
X0305449Y0101338D01*
X0305449Y0100540D02*
X0351099Y0100540D01*
X0350693Y0094950D02*
X0360622Y0094950D01*
X0360953Y0094152D02*
X0349903Y0094152D01*
X0349113Y0093353D02*
X0361635Y0093353D01*
X0365163Y0093353D02*
X0402277Y0093353D01*
X0403075Y0092555D02*
X0344423Y0092555D01*
X0343625Y0091756D02*
X0420224Y0091756D01*
X0421022Y0090958D02*
X0342828Y0090958D01*
X0342031Y0090159D02*
X0421199Y0090159D01*
X0421199Y0089361D02*
X0341234Y0089361D01*
X0340437Y0088562D02*
X0421199Y0088562D01*
X0421199Y0087763D02*
X0339640Y0087763D01*
X0338843Y0086965D02*
X0354320Y0086965D01*
X0354270Y0086944D02*
X0353486Y0086160D01*
X0353061Y0085136D01*
X0353061Y0084027D01*
X0353486Y0083002D01*
X0354270Y0082218D01*
X0355294Y0081794D01*
X0356403Y0081794D01*
X0357428Y0082218D01*
X0358212Y0083002D01*
X0358636Y0084027D01*
X0358636Y0085136D01*
X0358212Y0086160D01*
X0357428Y0086944D01*
X0356403Y0087368D01*
X0355294Y0087368D01*
X0354270Y0086944D01*
X0353492Y0086166D02*
X0338046Y0086166D01*
X0337249Y0085368D02*
X0353158Y0085368D01*
X0353061Y0084569D02*
X0336452Y0084569D01*
X0335655Y0083771D02*
X0353167Y0083771D01*
X0353516Y0082972D02*
X0334858Y0082972D01*
X0334061Y0082174D02*
X0354376Y0082174D01*
X0357321Y0082174D02*
X0396600Y0082174D01*
X0396386Y0081960D02*
X0395961Y0080936D01*
X0395961Y0080062D01*
X0395703Y0080168D01*
X0394594Y0080168D01*
X0393570Y0079744D01*
X0392786Y0078960D01*
X0392361Y0077936D01*
X0392361Y0076827D01*
X0392786Y0075802D01*
X0393570Y0075018D01*
X0394594Y0074594D01*
X0395703Y0074594D01*
X0396728Y0075018D01*
X0397512Y0075802D01*
X0397936Y0076827D01*
X0397936Y0077701D01*
X0398194Y0077594D01*
X0399303Y0077594D01*
X0400328Y0078018D01*
X0401112Y0078802D01*
X0401536Y0079827D01*
X0401536Y0080936D01*
X0401112Y0081960D01*
X0400328Y0082744D01*
X0399303Y0083168D01*
X0398194Y0083168D01*
X0397170Y0082744D01*
X0396386Y0081960D01*
X0396144Y0081375D02*
X0333264Y0081375D01*
X0332466Y0080577D02*
X0395961Y0080577D01*
X0393653Y0079778D02*
X0379593Y0079778D01*
X0379528Y0079844D02*
X0378503Y0080268D01*
X0377394Y0080268D01*
X0376370Y0079844D01*
X0375586Y0079060D01*
X0375161Y0078036D01*
X0375161Y0076927D01*
X0375586Y0075902D01*
X0376370Y0075118D01*
X0377394Y0074694D01*
X0378503Y0074694D01*
X0379528Y0075118D01*
X0380312Y0075902D01*
X0380736Y0076927D01*
X0380736Y0078036D01*
X0380312Y0079060D01*
X0379528Y0079844D01*
X0380345Y0078980D02*
X0392806Y0078980D01*
X0392463Y0078181D02*
X0380676Y0078181D01*
X0380736Y0077383D02*
X0392361Y0077383D01*
X0392462Y0076584D02*
X0380594Y0076584D01*
X0380196Y0075786D02*
X0392802Y0075786D01*
X0393644Y0074987D02*
X0379212Y0074987D01*
X0376686Y0074987D02*
X0353203Y0074987D01*
X0353428Y0074894D02*
X0352403Y0075318D01*
X0351294Y0075318D01*
X0350270Y0074894D01*
X0349486Y0074110D01*
X0349061Y0073086D01*
X0349061Y0071977D01*
X0349486Y0070952D01*
X0350270Y0070168D01*
X0351294Y0069744D01*
X0352403Y0069744D01*
X0353428Y0070168D01*
X0354212Y0070952D01*
X0354636Y0071977D01*
X0354636Y0073086D01*
X0354212Y0074110D01*
X0353428Y0074894D01*
X0354133Y0074189D02*
X0421199Y0074189D01*
X0421199Y0074987D02*
X0396654Y0074987D01*
X0397496Y0075786D02*
X0421199Y0075786D01*
X0421199Y0076584D02*
X0397836Y0076584D01*
X0397936Y0077383D02*
X0421199Y0077383D01*
X0421199Y0078181D02*
X0400491Y0078181D01*
X0401185Y0078980D02*
X0421199Y0078980D01*
X0421199Y0079778D02*
X0401516Y0079778D01*
X0401536Y0080577D02*
X0421199Y0080577D01*
X0421199Y0081375D02*
X0401354Y0081375D01*
X0400898Y0082174D02*
X0421199Y0082174D01*
X0421199Y0082972D02*
X0399777Y0082972D01*
X0397721Y0082972D02*
X0358182Y0082972D01*
X0358530Y0083771D02*
X0421199Y0083771D01*
X0421199Y0084569D02*
X0358636Y0084569D01*
X0358540Y0085368D02*
X0421199Y0085368D01*
X0421199Y0086166D02*
X0358205Y0086166D01*
X0357377Y0086965D02*
X0421199Y0086965D01*
X0417168Y0094950D02*
X0403430Y0094950D01*
X0402631Y0095749D02*
X0417966Y0095749D01*
X0418099Y0096547D02*
X0402349Y0096547D01*
X0402349Y0097346D02*
X0418099Y0097346D01*
X0418099Y0098144D02*
X0402349Y0098144D01*
X0402349Y0098943D02*
X0413623Y0098943D01*
X0413320Y0099068D02*
X0414344Y0098644D01*
X0415453Y0098644D01*
X0416478Y0099068D01*
X0417262Y0099852D01*
X0417686Y0100877D01*
X0417686Y0101986D01*
X0417262Y0103010D01*
X0416478Y0103794D01*
X0415453Y0104218D01*
X0414344Y0104218D01*
X0413320Y0103794D01*
X0412536Y0103010D01*
X0412111Y0101986D01*
X0412111Y0100877D01*
X0412536Y0099852D01*
X0413320Y0099068D01*
X0412647Y0099741D02*
X0402349Y0099741D01*
X0402349Y0100540D02*
X0412251Y0100540D01*
X0412111Y0101338D02*
X0402349Y0101338D01*
X0402349Y0102137D02*
X0412174Y0102137D01*
X0412505Y0102935D02*
X0402349Y0102935D01*
X0402096Y0103734D02*
X0413259Y0103734D01*
X0414394Y0106694D02*
X0413370Y0107118D01*
X0412586Y0107902D01*
X0412161Y0108927D01*
X0412161Y0110036D01*
X0412586Y0111060D01*
X0413370Y0111844D01*
X0414394Y0112268D01*
X0415503Y0112268D01*
X0416528Y0111844D01*
X0417312Y0111060D01*
X0417736Y0110036D01*
X0417736Y0108927D01*
X0417312Y0107902D01*
X0416528Y0107118D01*
X0415503Y0106694D01*
X0414394Y0106694D01*
X0413829Y0106928D02*
X0402589Y0106928D01*
X0402928Y0107068D02*
X0403712Y0107852D01*
X0404136Y0108877D01*
X0404136Y0109986D01*
X0403712Y0111010D01*
X0402928Y0111794D01*
X0401903Y0112218D01*
X0400794Y0112218D01*
X0399770Y0111794D01*
X0398986Y0111010D01*
X0398561Y0109986D01*
X0398561Y0108877D01*
X0398986Y0107852D01*
X0399770Y0107068D01*
X0400794Y0106644D01*
X0401903Y0106644D01*
X0402928Y0107068D01*
X0403586Y0107726D02*
X0412762Y0107726D01*
X0412328Y0108525D02*
X0403990Y0108525D01*
X0404136Y0109323D02*
X0412161Y0109323D01*
X0412197Y0110122D02*
X0404080Y0110122D01*
X0403749Y0110920D02*
X0412528Y0110920D01*
X0413245Y0111719D02*
X0403003Y0111719D01*
X0399695Y0111719D02*
X0336486Y0111719D01*
X0336486Y0111377D02*
X0336062Y0110352D01*
X0335278Y0109568D01*
X0334253Y0109144D01*
X0333144Y0109144D01*
X0332120Y0109568D01*
X0331336Y0110352D01*
X0330911Y0111377D01*
X0330911Y0112486D01*
X0331336Y0113510D01*
X0332120Y0114294D01*
X0333144Y0114718D01*
X0334253Y0114718D01*
X0335278Y0114294D01*
X0336062Y0113510D01*
X0336486Y0112486D01*
X0336486Y0111377D01*
X0336297Y0110920D02*
X0398949Y0110920D01*
X0398618Y0110122D02*
X0335831Y0110122D01*
X0334687Y0109323D02*
X0398561Y0109323D01*
X0398707Y0108525D02*
X0388397Y0108525D01*
X0389029Y0107726D02*
X0399112Y0107726D01*
X0400109Y0106928D02*
X0389336Y0106928D01*
X0389336Y0106129D02*
X0418099Y0106129D01*
X0418099Y0105331D02*
X0389110Y0105331D01*
X0384701Y0108525D02*
X0309799Y0108525D01*
X0309799Y0109323D02*
X0332711Y0109323D01*
X0331566Y0110122D02*
X0309799Y0110122D01*
X0309799Y0110920D02*
X0331100Y0110920D01*
X0330911Y0111719D02*
X0309799Y0111719D01*
X0309799Y0112517D02*
X0330925Y0112517D01*
X0331255Y0113316D02*
X0309799Y0113316D01*
X0309799Y0114114D02*
X0331940Y0114114D01*
X0335458Y0114114D02*
X0351236Y0114114D01*
X0351386Y0113752D02*
X0350961Y0114777D01*
X0350961Y0115886D01*
X0351386Y0116910D01*
X0352170Y0117694D01*
X0353194Y0118118D01*
X0354303Y0118118D01*
X0355328Y0117694D01*
X0356112Y0116910D01*
X0356536Y0115886D01*
X0356536Y0114777D01*
X0356112Y0113752D01*
X0355328Y0112968D01*
X0354303Y0112544D01*
X0353194Y0112544D01*
X0352170Y0112968D01*
X0351386Y0113752D01*
X0351822Y0113316D02*
X0336142Y0113316D01*
X0336473Y0112517D02*
X0418099Y0112517D01*
X0418099Y0111719D02*
X0416653Y0111719D01*
X0417370Y0110920D02*
X0418099Y0110920D01*
X0418099Y0110122D02*
X0417700Y0110122D01*
X0417736Y0109323D02*
X0418099Y0109323D01*
X0418099Y0108525D02*
X0417570Y0108525D01*
X0417136Y0107726D02*
X0418099Y0107726D01*
X0418099Y0106928D02*
X0416068Y0106928D01*
X0418099Y0104532D02*
X0401298Y0104532D01*
X0400345Y0102935D02*
X0376436Y0102935D01*
X0376436Y0102137D02*
X0400495Y0102137D01*
X0400489Y0101338D02*
X0376234Y0101338D01*
X0376103Y0100540D02*
X0400484Y0100540D01*
X0400479Y0099741D02*
X0376434Y0099741D01*
X0376436Y0098943D02*
X0400474Y0098943D01*
X0400468Y0098144D02*
X0376236Y0098144D01*
X0375755Y0097346D02*
X0400463Y0097346D01*
X0400458Y0096547D02*
X0374574Y0096547D01*
X0372724Y0096547D02*
X0371374Y0096547D01*
X0369524Y0096547D02*
X0368174Y0096547D01*
X0366324Y0096547D02*
X0365995Y0096547D01*
X0366186Y0095749D02*
X0400453Y0095749D01*
X0400680Y0094950D02*
X0366175Y0094950D01*
X0365844Y0094152D02*
X0401478Y0094152D01*
X0416175Y0098943D02*
X0418099Y0098943D01*
X0418099Y0099741D02*
X0417151Y0099741D01*
X0417547Y0100540D02*
X0418099Y0100540D01*
X0418099Y0101338D02*
X0417686Y0101338D01*
X0417624Y0102137D02*
X0418099Y0102137D01*
X0418099Y0102935D02*
X0417293Y0102935D01*
X0416538Y0103734D02*
X0418099Y0103734D01*
X0418099Y0113316D02*
X0355676Y0113316D01*
X0356262Y0114114D02*
X0418099Y0114114D01*
X0418099Y0114913D02*
X0356536Y0114913D01*
X0356536Y0115711D02*
X0418099Y0115711D01*
X0418099Y0116510D02*
X0356278Y0116510D01*
X0355713Y0117308D02*
X0417230Y0117308D01*
X0416522Y0118107D02*
X0354331Y0118107D01*
X0354253Y0118544D02*
X0355278Y0118968D01*
X0356062Y0119752D01*
X0356486Y0120777D01*
X0356486Y0121886D01*
X0356062Y0122910D01*
X0355278Y0123694D01*
X0354253Y0124118D01*
X0353144Y0124118D01*
X0352120Y0123694D01*
X0351336Y0122910D01*
X0350911Y0121886D01*
X0350911Y0120777D01*
X0351336Y0119752D01*
X0352120Y0118968D01*
X0353144Y0118544D01*
X0354253Y0118544D01*
X0355127Y0118905D02*
X0416191Y0118905D01*
X0416161Y0119704D02*
X0356014Y0119704D01*
X0356373Y0120502D02*
X0416334Y0120502D01*
X0416777Y0121301D02*
X0356486Y0121301D01*
X0356398Y0122099D02*
X0417866Y0122099D01*
X0418099Y0122898D02*
X0356067Y0122898D01*
X0355272Y0123697D02*
X0410934Y0123697D01*
X0410520Y0123868D02*
X0411544Y0123444D01*
X0412653Y0123444D01*
X0413678Y0123868D01*
X0414462Y0124652D01*
X0414886Y0125677D01*
X0414886Y0126786D01*
X0414462Y0127810D01*
X0413678Y0128594D01*
X0412653Y0129018D01*
X0411544Y0129018D01*
X0410520Y0128594D01*
X0409736Y0127810D01*
X0409311Y0126786D01*
X0409311Y0125677D01*
X0409736Y0124652D01*
X0410520Y0123868D01*
X0409893Y0124495D02*
X0318263Y0124495D01*
X0319061Y0125294D02*
X0409470Y0125294D01*
X0409311Y0126092D02*
X0385410Y0126092D01*
X0386208Y0126891D02*
X0400536Y0126891D01*
X0400470Y0126918D02*
X0401494Y0126494D01*
X0402603Y0126494D01*
X0403628Y0126918D01*
X0404412Y0127702D01*
X0404836Y0128727D01*
X0404836Y0129836D01*
X0404412Y0130860D01*
X0403628Y0131644D01*
X0402603Y0132068D01*
X0401494Y0132068D01*
X0400470Y0131644D01*
X0399686Y0130860D01*
X0399261Y0129836D01*
X0399261Y0128727D01*
X0399686Y0127702D01*
X0400470Y0126918D01*
X0399699Y0127689D02*
X0387007Y0127689D01*
X0387805Y0128488D02*
X0399360Y0128488D01*
X0399261Y0129286D02*
X0388604Y0129286D01*
X0389402Y0130085D02*
X0399365Y0130085D01*
X0399709Y0130883D02*
X0390201Y0130883D01*
X0390999Y0131682D02*
X0400560Y0131682D01*
X0403537Y0131682D02*
X0407361Y0131682D01*
X0407031Y0132480D02*
X0391798Y0132480D01*
X0392596Y0133279D02*
X0407011Y0133279D01*
X0407194Y0134077D02*
X0393395Y0134077D01*
X0394193Y0134876D02*
X0407322Y0134876D01*
X0407011Y0135674D02*
X0394992Y0135674D01*
X0395790Y0136473D02*
X0407011Y0136473D01*
X0407233Y0137271D02*
X0396589Y0137271D01*
X0397387Y0138070D02*
X0407745Y0138070D01*
X0411852Y0138070D02*
X0417410Y0138070D01*
X0418099Y0137271D02*
X0412364Y0137271D01*
X0412586Y0136473D02*
X0418099Y0136473D01*
X0418099Y0135674D02*
X0412586Y0135674D01*
X0412275Y0134876D02*
X0418099Y0134876D01*
X0418099Y0134077D02*
X0412403Y0134077D01*
X0412586Y0133279D02*
X0418099Y0133279D01*
X0418099Y0132480D02*
X0412567Y0132480D01*
X0412236Y0131682D02*
X0418099Y0131682D01*
X0418099Y0130883D02*
X0411543Y0130883D01*
X0410413Y0128488D02*
X0404737Y0128488D01*
X0404836Y0129286D02*
X0418099Y0129286D01*
X0418099Y0128488D02*
X0413784Y0128488D01*
X0414512Y0127689D02*
X0418099Y0127689D01*
X0418099Y0126891D02*
X0414843Y0126891D01*
X0414886Y0126092D02*
X0418099Y0126092D01*
X0418099Y0125294D02*
X0414728Y0125294D01*
X0414305Y0124495D02*
X0418099Y0124495D01*
X0418099Y0123697D02*
X0413264Y0123697D01*
X0409355Y0126891D02*
X0403561Y0126891D01*
X0404399Y0127689D02*
X0409686Y0127689D01*
X0408055Y0130883D02*
X0404389Y0130883D01*
X0404733Y0130085D02*
X0418099Y0130085D01*
X0448349Y0119131D02*
X0455749Y0111731D01*
X0459449Y0114981D02*
X0461399Y0116931D01*
X0461399Y0158731D01*
X0457599Y0162531D01*
X0447099Y0162531D01*
X0433649Y0175981D01*
X0433649Y0199231D01*
X0404599Y0228281D01*
X0404599Y0252981D01*
X0401599Y0255981D01*
X0401599Y0256081D01*
X0401749Y0251881D02*
X0401749Y0228831D01*
X0432049Y0198531D01*
X0432049Y0175331D01*
X0447799Y0159581D01*
X0449899Y0159581D01*
X0448349Y0156781D02*
X0448349Y0119131D01*
X0373699Y0152681D02*
X0365399Y0144381D01*
X0373699Y0152681D02*
X0373699Y0183431D01*
X0378799Y0188531D01*
X0383299Y0188531D01*
X0398049Y0203281D01*
X0384299Y0200131D02*
X0380699Y0203731D01*
X0347649Y0203731D01*
X0341649Y0209731D01*
X0338149Y0209731D01*
X0328449Y0195881D02*
X0328449Y0268631D01*
X0330699Y0270881D01*
X0330699Y0275331D01*
X0335473Y0280106D01*
X0335473Y0282713D01*
X0325473Y0282713D02*
X0320449Y0277688D01*
X0320449Y0265481D01*
X0297149Y0242181D01*
X0297149Y0121531D01*
X0295949Y0120331D01*
X0289799Y0125181D02*
X0295549Y0130931D01*
X0295549Y0242881D01*
X0315473Y0262806D01*
X0315473Y0272713D01*
X0322349Y0269588D02*
X0322349Y0192081D01*
X0317949Y0187681D01*
X0317949Y0182681D01*
X0321299Y0179781D02*
X0322149Y0178931D01*
X0321299Y0179781D02*
X0321299Y0188731D01*
X0328449Y0195881D01*
X0330099Y0195181D02*
X0330099Y0267338D01*
X0335473Y0272713D01*
X0325473Y0272713D02*
X0322349Y0269588D01*
X0305473Y0272713D02*
X0304549Y0271788D01*
X0304549Y0258981D01*
X0310499Y0260131D02*
X0310499Y0277738D01*
X0315473Y0282713D01*
X0305473Y0282713D02*
X0300499Y0277738D01*
X0300499Y0252381D01*
X0292349Y0244231D01*
X0292349Y0134031D01*
X0283599Y0125281D01*
X0283599Y0125081D01*
X0256099Y0124931D02*
X0256099Y0191081D01*
X0260049Y0195031D01*
X0260049Y0250531D01*
X0264249Y0254731D01*
X0268249Y0254831D02*
X0257349Y0265731D01*
X0252455Y0265731D01*
X0245473Y0272713D01*
X0240449Y0269681D02*
X0249599Y0260531D01*
X0249599Y0191231D01*
X0245599Y0191231D02*
X0244399Y0190031D01*
X0244399Y0113531D01*
X0240649Y0109781D01*
X0237849Y0106981D01*
X0237849Y0089531D01*
X0263899Y0099531D02*
X0267449Y0103081D01*
X0267449Y0143831D01*
X0266499Y0144781D01*
X0266499Y0157631D01*
X0271649Y0162781D01*
X0271549Y0157581D02*
X0268399Y0154431D01*
X0268399Y0145281D01*
X0269149Y0144531D01*
X0269149Y0064531D01*
X0263899Y0059281D01*
X0282073Y0064607D02*
X0313924Y0064607D01*
X0314723Y0065405D02*
X0281999Y0065405D01*
X0281999Y0066204D02*
X0315521Y0066204D01*
X0316320Y0067002D02*
X0281999Y0067002D01*
X0281999Y0067801D02*
X0317118Y0067801D01*
X0317917Y0068599D02*
X0281999Y0068599D01*
X0281999Y0069398D02*
X0318715Y0069398D01*
X0319514Y0070196D02*
X0281999Y0070196D01*
X0281999Y0070995D02*
X0320312Y0070995D01*
X0321111Y0071793D02*
X0281999Y0071793D01*
X0281999Y0072592D02*
X0321909Y0072592D01*
X0322708Y0073390D02*
X0281999Y0073390D01*
X0281999Y0074189D02*
X0323507Y0074189D01*
X0324305Y0074987D02*
X0281999Y0074987D01*
X0281999Y0075786D02*
X0309493Y0075786D01*
X0309594Y0075744D02*
X0310703Y0075744D01*
X0311728Y0076168D01*
X0312512Y0076952D01*
X0312936Y0077977D01*
X0312936Y0079086D01*
X0312512Y0080110D01*
X0311728Y0080894D01*
X0310703Y0081318D01*
X0309594Y0081318D01*
X0308570Y0080894D01*
X0307786Y0080110D01*
X0307361Y0079086D01*
X0307361Y0077977D01*
X0307786Y0076952D01*
X0308570Y0076168D01*
X0309594Y0075744D01*
X0310805Y0075786D02*
X0325104Y0075786D01*
X0325902Y0076584D02*
X0312144Y0076584D01*
X0312690Y0077383D02*
X0326701Y0077383D01*
X0327499Y0078181D02*
X0312936Y0078181D01*
X0312936Y0078980D02*
X0328298Y0078980D01*
X0329096Y0079778D02*
X0312649Y0079778D01*
X0312045Y0080577D02*
X0329895Y0080577D01*
X0330693Y0081375D02*
X0281999Y0081375D01*
X0281999Y0080577D02*
X0308253Y0080577D01*
X0307648Y0079778D02*
X0281999Y0079778D01*
X0281999Y0078980D02*
X0307361Y0078980D01*
X0307361Y0078181D02*
X0281999Y0078181D01*
X0281999Y0077383D02*
X0307607Y0077383D01*
X0308154Y0076584D02*
X0281999Y0076584D01*
X0281999Y0082174D02*
X0331492Y0082174D01*
X0332290Y0082972D02*
X0281999Y0082972D01*
X0296429Y0084569D02*
X0301001Y0084569D01*
X0300245Y0085368D02*
X0297072Y0085368D01*
X0297386Y0086166D02*
X0299914Y0086166D01*
X0299849Y0086965D02*
X0297386Y0086965D01*
X0297168Y0087763D02*
X0299849Y0087763D01*
X0299849Y0088562D02*
X0296660Y0088562D01*
X0305449Y0092555D02*
X0309533Y0092555D01*
X0308970Y0093353D02*
X0305449Y0093353D01*
X0305449Y0094152D02*
X0308711Y0094152D01*
X0308711Y0094950D02*
X0305449Y0094950D01*
X0305449Y0095749D02*
X0308986Y0095749D01*
X0309573Y0096547D02*
X0305449Y0096547D01*
X0305449Y0097346D02*
X0328440Y0097346D01*
X0328311Y0096547D02*
X0313425Y0096547D01*
X0314012Y0095749D02*
X0328385Y0095749D01*
X0328716Y0094950D02*
X0314286Y0094950D01*
X0314286Y0094152D02*
X0329486Y0094152D01*
X0328820Y0098144D02*
X0305449Y0098144D01*
X0328574Y0089361D02*
X0338678Y0089361D01*
X0337880Y0088562D02*
X0328905Y0088562D01*
X0328936Y0087763D02*
X0337081Y0087763D01*
X0336283Y0086965D02*
X0328766Y0086965D01*
X0328326Y0086166D02*
X0335484Y0086166D01*
X0334686Y0085368D02*
X0327245Y0085368D01*
X0331669Y0079778D02*
X0376304Y0079778D01*
X0375553Y0078980D02*
X0330872Y0078980D01*
X0330075Y0078181D02*
X0375222Y0078181D01*
X0375161Y0077383D02*
X0329278Y0077383D01*
X0328481Y0076584D02*
X0375303Y0076584D01*
X0375702Y0075786D02*
X0327684Y0075786D01*
X0326887Y0074987D02*
X0350495Y0074987D01*
X0349565Y0074189D02*
X0326090Y0074189D01*
X0325293Y0073390D02*
X0349188Y0073390D01*
X0349061Y0072592D02*
X0324496Y0072592D01*
X0323699Y0071793D02*
X0342819Y0071793D01*
X0343120Y0072094D02*
X0342336Y0071310D01*
X0341911Y0070286D01*
X0341911Y0069177D01*
X0342336Y0068152D01*
X0343120Y0067368D01*
X0344144Y0066944D01*
X0345253Y0066944D01*
X0346278Y0067368D01*
X0347062Y0068152D01*
X0347486Y0069177D01*
X0347486Y0070286D01*
X0347062Y0071310D01*
X0346278Y0072094D01*
X0345253Y0072518D01*
X0344144Y0072518D01*
X0343120Y0072094D01*
X0342205Y0070995D02*
X0322902Y0070995D01*
X0322105Y0070196D02*
X0341911Y0070196D01*
X0341911Y0069398D02*
X0321308Y0069398D01*
X0320510Y0068599D02*
X0342151Y0068599D01*
X0342687Y0067801D02*
X0319713Y0067801D01*
X0318916Y0067002D02*
X0344003Y0067002D01*
X0345394Y0067002D02*
X0421199Y0067002D01*
X0421199Y0066204D02*
X0377030Y0066204D01*
X0376753Y0066318D02*
X0375644Y0066318D01*
X0374620Y0065894D01*
X0373836Y0065110D01*
X0373411Y0064086D01*
X0373411Y0062977D01*
X0373836Y0061952D01*
X0374620Y0061168D01*
X0375644Y0060744D01*
X0376753Y0060744D01*
X0377778Y0061168D01*
X0378562Y0061952D01*
X0378986Y0062977D01*
X0378986Y0064086D01*
X0378562Y0065110D01*
X0377778Y0065894D01*
X0376753Y0066318D01*
X0375367Y0066204D02*
X0318119Y0066204D01*
X0317322Y0065405D02*
X0374131Y0065405D01*
X0373627Y0064607D02*
X0316524Y0064607D01*
X0315726Y0063808D02*
X0373411Y0063808D01*
X0373411Y0063010D02*
X0314927Y0063010D01*
X0314129Y0062211D02*
X0357187Y0062211D01*
X0357320Y0062344D02*
X0356536Y0061560D01*
X0356111Y0060536D01*
X0356111Y0059427D01*
X0356536Y0058402D01*
X0357320Y0057618D01*
X0358344Y0057194D01*
X0359453Y0057194D01*
X0360478Y0057618D01*
X0361262Y0058402D01*
X0361686Y0059427D01*
X0361686Y0060536D01*
X0361262Y0061560D01*
X0360478Y0062344D01*
X0359453Y0062768D01*
X0358344Y0062768D01*
X0357320Y0062344D01*
X0356475Y0061413D02*
X0313330Y0061413D01*
X0312532Y0060614D02*
X0356144Y0060614D01*
X0356111Y0059816D02*
X0311733Y0059816D01*
X0310935Y0059017D02*
X0356281Y0059017D01*
X0356719Y0058219D02*
X0310136Y0058219D01*
X0309338Y0057420D02*
X0357798Y0057420D01*
X0360000Y0057420D02*
X0421199Y0057420D01*
X0421199Y0056622D02*
X0308539Y0056622D01*
X0307741Y0055823D02*
X0421199Y0055823D01*
X0421199Y0055025D02*
X0306942Y0055025D01*
X0306249Y0054226D02*
X0421199Y0054226D01*
X0421199Y0053428D02*
X0306249Y0053428D01*
X0306249Y0052629D02*
X0421199Y0052629D01*
X0421199Y0051830D02*
X0306249Y0051830D01*
X0306249Y0051032D02*
X0421199Y0051032D01*
X0421199Y0050233D02*
X0306249Y0050233D01*
X0306249Y0049435D02*
X0421199Y0049435D01*
X0421199Y0048636D02*
X0306249Y0048636D01*
X0306249Y0047838D02*
X0421199Y0047838D01*
X0416715Y0047039D02*
X0306249Y0047039D01*
X0306249Y0046241D02*
X0416045Y0046241D01*
X0415714Y0045442D02*
X0306249Y0045442D01*
X0306299Y0042613D02*
X0304647Y0042613D01*
X0303121Y0041981D01*
X0301953Y0040813D01*
X0301320Y0039287D01*
X0301320Y0037635D01*
X0301953Y0036108D01*
X0303121Y0034940D01*
X0304647Y0034308D01*
X0306299Y0034308D01*
X0307826Y0034940D01*
X0308994Y0036108D01*
X0309626Y0037635D01*
X0309626Y0039287D01*
X0308994Y0040813D01*
X0307826Y0041981D01*
X0306299Y0042613D01*
X0307180Y0042248D02*
X0313766Y0042248D01*
X0313121Y0041981D02*
X0311953Y0040813D01*
X0311320Y0039287D01*
X0311320Y0037635D01*
X0311953Y0036108D01*
X0313121Y0034940D01*
X0314647Y0034308D01*
X0316299Y0034308D01*
X0317826Y0034940D01*
X0318994Y0036108D01*
X0319626Y0037635D01*
X0319626Y0039287D01*
X0318994Y0040813D01*
X0317826Y0041981D01*
X0316299Y0042613D01*
X0314647Y0042613D01*
X0313121Y0041981D01*
X0312590Y0041450D02*
X0308357Y0041450D01*
X0309061Y0040651D02*
X0311886Y0040651D01*
X0311555Y0039853D02*
X0309391Y0039853D01*
X0309626Y0039054D02*
X0311320Y0039054D01*
X0311320Y0038256D02*
X0309626Y0038256D01*
X0309553Y0037457D02*
X0311394Y0037457D01*
X0311725Y0036659D02*
X0309222Y0036659D01*
X0308746Y0035860D02*
X0312201Y0035860D01*
X0312999Y0035062D02*
X0307947Y0035062D01*
X0302999Y0035062D02*
X0297947Y0035062D01*
X0297826Y0034940D02*
X0298994Y0036108D01*
X0299626Y0037635D01*
X0299626Y0039287D01*
X0298994Y0040813D01*
X0297826Y0041981D01*
X0296299Y0042613D01*
X0294647Y0042613D01*
X0293121Y0041981D01*
X0291953Y0040813D01*
X0291320Y0039287D01*
X0291320Y0037635D01*
X0291953Y0036108D01*
X0293121Y0034940D01*
X0294647Y0034308D01*
X0296299Y0034308D01*
X0297826Y0034940D01*
X0298746Y0035860D02*
X0302201Y0035860D01*
X0301725Y0036659D02*
X0299222Y0036659D01*
X0299553Y0037457D02*
X0301394Y0037457D01*
X0301320Y0038256D02*
X0299626Y0038256D01*
X0299626Y0039054D02*
X0301320Y0039054D01*
X0301555Y0039853D02*
X0299391Y0039853D01*
X0299061Y0040651D02*
X0301886Y0040651D01*
X0302590Y0041450D02*
X0298357Y0041450D01*
X0297180Y0042248D02*
X0303766Y0042248D01*
X0293766Y0042248D02*
X0287187Y0042248D01*
X0287067Y0042309D02*
X0286446Y0042511D01*
X0285873Y0042602D01*
X0285873Y0038861D01*
X0285073Y0038861D01*
X0285073Y0042602D01*
X0284501Y0042511D01*
X0283879Y0042309D01*
X0283297Y0042012D01*
X0282768Y0041628D01*
X0282306Y0041166D01*
X0281921Y0040637D01*
X0281625Y0040055D01*
X0281423Y0039433D01*
X0281332Y0038861D01*
X0285073Y0038861D01*
X0285073Y0038061D01*
X0281332Y0038061D01*
X0281423Y0037488D01*
X0281625Y0036867D01*
X0281921Y0036284D01*
X0282306Y0035755D01*
X0282768Y0035293D01*
X0283297Y0034909D01*
X0283879Y0034612D01*
X0284501Y0034410D01*
X0285073Y0034319D01*
X0285073Y0038061D01*
X0285873Y0038061D01*
X0285873Y0038861D01*
X0289614Y0038861D01*
X0289524Y0039433D01*
X0289322Y0040055D01*
X0289025Y0040637D01*
X0288641Y0041166D01*
X0288179Y0041628D01*
X0287650Y0042012D01*
X0287067Y0042309D01*
X0285873Y0042248D02*
X0285073Y0042248D01*
X0285073Y0041450D02*
X0285873Y0041450D01*
X0285873Y0040651D02*
X0285073Y0040651D01*
X0285073Y0039853D02*
X0285873Y0039853D01*
X0285873Y0039054D02*
X0285073Y0039054D01*
X0285073Y0038256D02*
X0280649Y0038256D01*
X0280649Y0039054D02*
X0281363Y0039054D01*
X0281559Y0039853D02*
X0280649Y0039853D01*
X0280649Y0040651D02*
X0281932Y0040651D01*
X0282590Y0041450D02*
X0280649Y0041450D01*
X0281392Y0042248D02*
X0283760Y0042248D01*
X0282166Y0043047D02*
X0416391Y0043047D01*
X0415911Y0043845D02*
X0282939Y0043845D01*
X0283713Y0044644D02*
X0415711Y0044644D01*
X0417571Y0042248D02*
X0347180Y0042248D01*
X0347826Y0041981D02*
X0346299Y0042613D01*
X0344647Y0042613D01*
X0343121Y0041981D01*
X0341953Y0040813D01*
X0341320Y0039287D01*
X0341320Y0037635D01*
X0341953Y0036108D01*
X0343121Y0034940D01*
X0344647Y0034308D01*
X0346299Y0034308D01*
X0347826Y0034940D01*
X0348994Y0036108D01*
X0349626Y0037635D01*
X0349626Y0039287D01*
X0348994Y0040813D01*
X0347826Y0041981D01*
X0348357Y0041450D02*
X0421199Y0041450D01*
X0421199Y0040651D02*
X0349061Y0040651D01*
X0349391Y0039853D02*
X0421199Y0039853D01*
X0421199Y0039054D02*
X0412430Y0039054D01*
X0412918Y0038852D02*
X0411284Y0039529D01*
X0409514Y0039529D01*
X0407879Y0038852D01*
X0406628Y0037601D01*
X0405951Y0035966D01*
X0405951Y0034196D01*
X0406628Y0032561D01*
X0407879Y0031310D01*
X0409514Y0030633D01*
X0411284Y0030633D01*
X0412918Y0031310D01*
X0414170Y0032561D01*
X0414847Y0034196D01*
X0414847Y0035966D01*
X0414170Y0037601D01*
X0412918Y0038852D01*
X0413515Y0038256D02*
X0421199Y0038256D01*
X0421199Y0037457D02*
X0414229Y0037457D01*
X0414560Y0036659D02*
X0421199Y0036659D01*
X0421199Y0035860D02*
X0414847Y0035860D01*
X0414847Y0035062D02*
X0421199Y0035062D01*
X0421199Y0034263D02*
X0414847Y0034263D01*
X0414544Y0033465D02*
X0421199Y0033465D01*
X0421199Y0032666D02*
X0414213Y0032666D01*
X0413476Y0031868D02*
X0421199Y0031868D01*
X0421199Y0031069D02*
X0412336Y0031069D01*
X0408461Y0031069D02*
X0348738Y0031069D01*
X0349218Y0030271D02*
X0421199Y0030271D01*
X0421199Y0029472D02*
X0349549Y0029472D01*
X0349626Y0028674D02*
X0421199Y0028674D01*
X0421199Y0027875D02*
X0349626Y0027875D01*
X0349395Y0027077D02*
X0421199Y0027077D01*
X0421199Y0026278D02*
X0349064Y0026278D01*
X0348365Y0025480D02*
X0421199Y0025480D01*
X0421199Y0024681D02*
X0347200Y0024681D01*
X0343746Y0024681D02*
X0337200Y0024681D01*
X0338365Y0025480D02*
X0342581Y0025480D01*
X0341882Y0026278D02*
X0339064Y0026278D01*
X0339395Y0027077D02*
X0341552Y0027077D01*
X0341320Y0027875D02*
X0339626Y0027875D01*
X0339626Y0028674D02*
X0341320Y0028674D01*
X0341397Y0029472D02*
X0339549Y0029472D01*
X0339218Y0030271D02*
X0341728Y0030271D01*
X0342209Y0031069D02*
X0338738Y0031069D01*
X0337939Y0031868D02*
X0343007Y0031868D01*
X0347939Y0031868D02*
X0407322Y0031868D01*
X0406585Y0032666D02*
X0280649Y0032666D01*
X0280649Y0031868D02*
X0283007Y0031868D01*
X0282209Y0031069D02*
X0280649Y0031069D01*
X0280649Y0030271D02*
X0281728Y0030271D01*
X0281397Y0029472D02*
X0280649Y0029472D01*
X0280649Y0028674D02*
X0281320Y0028674D01*
X0281320Y0027875D02*
X0280649Y0027875D01*
X0280649Y0027077D02*
X0281552Y0027077D01*
X0281882Y0026278D02*
X0280649Y0026278D01*
X0280649Y0025480D02*
X0282581Y0025480D01*
X0283746Y0024681D02*
X0280649Y0024681D01*
X0287200Y0024681D02*
X0293746Y0024681D01*
X0292581Y0025480D02*
X0288365Y0025480D01*
X0289064Y0026278D02*
X0291882Y0026278D01*
X0291552Y0027077D02*
X0289395Y0027077D01*
X0289626Y0027875D02*
X0291320Y0027875D01*
X0291320Y0028674D02*
X0289626Y0028674D01*
X0289549Y0029472D02*
X0291397Y0029472D01*
X0291728Y0030271D02*
X0289218Y0030271D01*
X0288738Y0031069D02*
X0292209Y0031069D01*
X0293007Y0031868D02*
X0287939Y0031868D01*
X0287067Y0034612D02*
X0287650Y0034909D01*
X0288179Y0035293D01*
X0288641Y0035755D01*
X0289025Y0036284D01*
X0289322Y0036867D01*
X0289524Y0037488D01*
X0289614Y0038061D01*
X0285873Y0038061D01*
X0285873Y0034319D01*
X0286446Y0034410D01*
X0287067Y0034612D01*
X0287860Y0035062D02*
X0292999Y0035062D01*
X0292201Y0035860D02*
X0288717Y0035860D01*
X0289216Y0036659D02*
X0291725Y0036659D01*
X0291394Y0037457D02*
X0289514Y0037457D01*
X0289584Y0039054D02*
X0291320Y0039054D01*
X0291320Y0038256D02*
X0285873Y0038256D01*
X0285873Y0037457D02*
X0285073Y0037457D01*
X0285073Y0036659D02*
X0285873Y0036659D01*
X0285873Y0035860D02*
X0285073Y0035860D01*
X0285073Y0035062D02*
X0285873Y0035062D01*
X0283086Y0035062D02*
X0280649Y0035062D01*
X0280649Y0035860D02*
X0282229Y0035860D01*
X0281731Y0036659D02*
X0280649Y0036659D01*
X0280649Y0037457D02*
X0281433Y0037457D01*
X0280649Y0034263D02*
X0405951Y0034263D01*
X0405951Y0035062D02*
X0347947Y0035062D01*
X0348746Y0035860D02*
X0405951Y0035860D01*
X0406238Y0036659D02*
X0349222Y0036659D01*
X0349553Y0037457D02*
X0406569Y0037457D01*
X0407283Y0038256D02*
X0349626Y0038256D01*
X0349626Y0039054D02*
X0408368Y0039054D01*
X0419427Y0042248D02*
X0420721Y0042248D01*
X0406254Y0033465D02*
X0280649Y0033465D01*
X0289387Y0039853D02*
X0291555Y0039853D01*
X0291886Y0040651D02*
X0289015Y0040651D01*
X0288357Y0041450D02*
X0292590Y0041450D01*
X0297939Y0031868D02*
X0303007Y0031868D01*
X0302209Y0031069D02*
X0298738Y0031069D01*
X0299218Y0030271D02*
X0301728Y0030271D01*
X0301397Y0029472D02*
X0299549Y0029472D01*
X0299626Y0028674D02*
X0301320Y0028674D01*
X0301320Y0027875D02*
X0299626Y0027875D01*
X0299395Y0027077D02*
X0301552Y0027077D01*
X0301882Y0026278D02*
X0299064Y0026278D01*
X0298365Y0025480D02*
X0302581Y0025480D01*
X0303746Y0024681D02*
X0297200Y0024681D01*
X0307200Y0024681D02*
X0313746Y0024681D01*
X0312581Y0025480D02*
X0308365Y0025480D01*
X0309064Y0026278D02*
X0311882Y0026278D01*
X0311552Y0027077D02*
X0309395Y0027077D01*
X0309626Y0027875D02*
X0311320Y0027875D01*
X0311320Y0028674D02*
X0309626Y0028674D01*
X0309549Y0029472D02*
X0311397Y0029472D01*
X0311728Y0030271D02*
X0309218Y0030271D01*
X0308738Y0031069D02*
X0312209Y0031069D01*
X0313007Y0031868D02*
X0307939Y0031868D01*
X0317939Y0031868D02*
X0323007Y0031868D01*
X0322209Y0031069D02*
X0318738Y0031069D01*
X0319218Y0030271D02*
X0321728Y0030271D01*
X0321397Y0029472D02*
X0319549Y0029472D01*
X0319626Y0028674D02*
X0321320Y0028674D01*
X0321320Y0027875D02*
X0319626Y0027875D01*
X0319395Y0027077D02*
X0321552Y0027077D01*
X0321882Y0026278D02*
X0319064Y0026278D01*
X0318365Y0025480D02*
X0322581Y0025480D01*
X0323746Y0024681D02*
X0317200Y0024681D01*
X0327200Y0024681D02*
X0333746Y0024681D01*
X0332581Y0025480D02*
X0328365Y0025480D01*
X0329064Y0026278D02*
X0331882Y0026278D01*
X0331552Y0027077D02*
X0329395Y0027077D01*
X0329626Y0027875D02*
X0331320Y0027875D01*
X0331320Y0028674D02*
X0329626Y0028674D01*
X0329549Y0029472D02*
X0331397Y0029472D01*
X0331728Y0030271D02*
X0329218Y0030271D01*
X0328738Y0031069D02*
X0332209Y0031069D01*
X0333007Y0031868D02*
X0327939Y0031868D01*
X0326299Y0034308D02*
X0327826Y0034940D01*
X0328994Y0036108D01*
X0329626Y0037635D01*
X0329626Y0039287D01*
X0328994Y0040813D01*
X0327826Y0041981D01*
X0326299Y0042613D01*
X0324647Y0042613D01*
X0323121Y0041981D01*
X0321953Y0040813D01*
X0321320Y0039287D01*
X0321320Y0037635D01*
X0321953Y0036108D01*
X0323121Y0034940D01*
X0324647Y0034308D01*
X0326299Y0034308D01*
X0327947Y0035062D02*
X0332999Y0035062D01*
X0333121Y0034940D02*
X0331953Y0036108D01*
X0331320Y0037635D01*
X0331320Y0039287D01*
X0331953Y0040813D01*
X0333121Y0041981D01*
X0334647Y0042613D01*
X0336299Y0042613D01*
X0337826Y0041981D01*
X0338994Y0040813D01*
X0339626Y0039287D01*
X0339626Y0037635D01*
X0338994Y0036108D01*
X0337826Y0034940D01*
X0336299Y0034308D01*
X0334647Y0034308D01*
X0333121Y0034940D01*
X0332201Y0035860D02*
X0328746Y0035860D01*
X0329222Y0036659D02*
X0331725Y0036659D01*
X0331394Y0037457D02*
X0329553Y0037457D01*
X0329626Y0038256D02*
X0331320Y0038256D01*
X0331320Y0039054D02*
X0329626Y0039054D01*
X0329391Y0039853D02*
X0331555Y0039853D01*
X0331886Y0040651D02*
X0329061Y0040651D01*
X0328357Y0041450D02*
X0332590Y0041450D01*
X0333766Y0042248D02*
X0327180Y0042248D01*
X0323766Y0042248D02*
X0317180Y0042248D01*
X0318357Y0041450D02*
X0322590Y0041450D01*
X0321886Y0040651D02*
X0319061Y0040651D01*
X0319391Y0039853D02*
X0321555Y0039853D01*
X0321320Y0039054D02*
X0319626Y0039054D01*
X0319626Y0038256D02*
X0321320Y0038256D01*
X0321394Y0037457D02*
X0319553Y0037457D01*
X0319222Y0036659D02*
X0321725Y0036659D01*
X0322201Y0035860D02*
X0318746Y0035860D01*
X0317947Y0035062D02*
X0322999Y0035062D01*
X0337947Y0035062D02*
X0342999Y0035062D01*
X0342201Y0035860D02*
X0338746Y0035860D01*
X0339222Y0036659D02*
X0341725Y0036659D01*
X0341394Y0037457D02*
X0339553Y0037457D01*
X0339626Y0038256D02*
X0341320Y0038256D01*
X0341320Y0039054D02*
X0339626Y0039054D01*
X0339391Y0039853D02*
X0341555Y0039853D01*
X0341886Y0040651D02*
X0339061Y0040651D01*
X0338357Y0041450D02*
X0342590Y0041450D01*
X0343766Y0042248D02*
X0337180Y0042248D01*
X0361078Y0058219D02*
X0421199Y0058219D01*
X0421199Y0059017D02*
X0361517Y0059017D01*
X0361686Y0059816D02*
X0421199Y0059816D01*
X0421199Y0060614D02*
X0361654Y0060614D01*
X0361323Y0061413D02*
X0374375Y0061413D01*
X0373729Y0062211D02*
X0360611Y0062211D01*
X0347247Y0068599D02*
X0421199Y0068599D01*
X0421199Y0067801D02*
X0346710Y0067801D01*
X0347486Y0069398D02*
X0421199Y0069398D01*
X0421199Y0070196D02*
X0353456Y0070196D01*
X0354229Y0070995D02*
X0421199Y0070995D01*
X0421199Y0071793D02*
X0354560Y0071793D01*
X0354636Y0072592D02*
X0421199Y0072592D01*
X0421199Y0073390D02*
X0354510Y0073390D01*
X0350242Y0070196D02*
X0347486Y0070196D01*
X0347192Y0070995D02*
X0349468Y0070995D01*
X0349137Y0071793D02*
X0346579Y0071793D01*
X0378267Y0065405D02*
X0421199Y0065405D01*
X0421199Y0064607D02*
X0378770Y0064607D01*
X0378986Y0063808D02*
X0421199Y0063808D01*
X0421199Y0063010D02*
X0378986Y0063010D01*
X0378669Y0062211D02*
X0421199Y0062211D01*
X0421199Y0061413D02*
X0378022Y0061413D01*
X0364661Y0098144D02*
X0364374Y0098144D01*
X0350961Y0114913D02*
X0309799Y0114913D01*
X0309799Y0115711D02*
X0350961Y0115711D01*
X0351220Y0116510D02*
X0310278Y0116510D01*
X0311076Y0117308D02*
X0351784Y0117308D01*
X0353166Y0118107D02*
X0330551Y0118107D01*
X0330578Y0118118D02*
X0331362Y0118902D01*
X0331786Y0119927D01*
X0331786Y0121036D01*
X0331362Y0122060D01*
X0330578Y0122844D01*
X0329553Y0123268D01*
X0328444Y0123268D01*
X0327420Y0122844D01*
X0326636Y0122060D01*
X0326211Y0121036D01*
X0326211Y0119927D01*
X0326636Y0118902D01*
X0327420Y0118118D01*
X0328444Y0117694D01*
X0329553Y0117694D01*
X0330578Y0118118D01*
X0331363Y0118905D02*
X0352271Y0118905D01*
X0351384Y0119704D02*
X0331694Y0119704D01*
X0331786Y0120502D02*
X0351025Y0120502D01*
X0350911Y0121301D02*
X0331676Y0121301D01*
X0331322Y0122099D02*
X0351000Y0122099D01*
X0351331Y0122898D02*
X0330448Y0122898D01*
X0327550Y0122898D02*
X0316666Y0122898D01*
X0317464Y0123697D02*
X0352126Y0123697D01*
X0327447Y0118107D02*
X0311875Y0118107D01*
X0312673Y0118905D02*
X0326634Y0118905D01*
X0326304Y0119704D02*
X0313472Y0119704D01*
X0314270Y0120502D02*
X0326211Y0120502D01*
X0326321Y0121301D02*
X0315069Y0121301D01*
X0315867Y0122099D02*
X0326675Y0122099D01*
X0335599Y0146231D02*
X0335599Y0176181D01*
X0330749Y0181031D01*
X0324149Y0182581D02*
X0324149Y0189231D01*
X0330099Y0195181D01*
X0384849Y0219181D02*
X0392999Y0211031D01*
X0408199Y0226931D02*
X0408199Y0262781D01*
X0425449Y0255881D02*
X0430149Y0251181D01*
X0519049Y0251181D01*
X0561399Y0208831D01*
X0561399Y0170081D01*
X0560149Y0168831D01*
X0510249Y0168631D02*
X0507899Y0170981D01*
X0440949Y0170981D01*
X0435249Y0176681D01*
X0435249Y0199881D01*
X0408199Y0226931D01*
X0436199Y0237931D02*
X0437249Y0236881D01*
X0437499Y0236881D01*
X0432649Y0252831D02*
X0497313Y0252831D01*
X0523213Y0278731D01*
X0493685Y0278731D02*
X0469385Y0254431D01*
X0435149Y0254431D01*
X0433949Y0255631D01*
X0432649Y0252831D02*
X0429699Y0255781D01*
X0383149Y0245181D02*
X0372599Y0245181D01*
X0362249Y0255531D01*
X0358099Y0255431D02*
X0369949Y0243581D01*
X0382499Y0243581D01*
X0428849Y0197231D01*
X0428849Y0174031D01*
X0442249Y0160631D01*
X0442249Y0158931D01*
X0448349Y0156781D02*
X0430449Y0174681D01*
X0430449Y0197881D01*
X0383149Y0245181D01*
X0297849Y0254131D02*
X0290499Y0261481D01*
X0290499Y0277738D01*
X0295473Y0282713D01*
X0285473Y0282713D02*
X0280499Y0277738D01*
X0280499Y0267181D01*
X0293599Y0254081D01*
X0276449Y0255131D02*
X0275473Y0256107D01*
X0275473Y0272713D01*
X0265473Y0272713D02*
X0265473Y0262057D01*
X0272349Y0255181D01*
X0260199Y0254781D02*
X0255399Y0249981D01*
X0255399Y0209681D01*
X0263699Y0209681D02*
X0263699Y0200181D01*
X0263599Y0200081D01*
X0241599Y0200081D02*
X0225599Y0200081D01*
X0221099Y0195581D01*
X0221099Y0042835D01*
X0225473Y0038461D01*
X0220399Y0041231D02*
X0219499Y0042131D01*
X0219499Y0207831D01*
X0215749Y0211581D01*
X0215749Y0248231D01*
X0240449Y0269681D02*
X0240449Y0277737D01*
X0235473Y0282713D01*
X0225473Y0282713D02*
X0220549Y0277788D01*
X0220549Y0211581D01*
X0241199Y0192531D02*
X0241199Y0189581D01*
X0236649Y0185031D01*
X0236649Y0125731D01*
X0236649Y0109981D01*
X0239149Y0069631D02*
X0236299Y0066781D01*
X0236299Y0050831D01*
X0220399Y0041231D02*
X0220399Y0034731D01*
X0225473Y0029657D01*
X0225473Y0028461D01*
X0229949Y0065981D02*
X0227849Y0068081D01*
X0227849Y0181881D01*
X0237249Y0191281D01*
D24*
X0341449Y0178781D02*
X0341449Y0162281D01*
X0341449Y0140131D01*
X0353849Y0136231D02*
X0354349Y0136731D01*
X0373449Y0136731D01*
X0381499Y0144781D01*
X0381499Y0167881D01*
X0381499Y0178831D01*
X0377449Y0182708D02*
X0377449Y0182731D01*
X0375749Y0181031D01*
X0375749Y0147281D01*
X0374799Y0146331D01*
X0356049Y0149331D02*
X0353099Y0146381D01*
X0356049Y0149331D02*
X0356049Y0180181D01*
X0358999Y0183131D01*
X0352049Y0178831D02*
X0352049Y0167881D01*
X0341449Y0178781D02*
X0341499Y0178831D01*
X0388949Y0181481D02*
X0388949Y0165031D01*
X0392249Y0167881D02*
X0392249Y0178781D01*
D25*
X0111949Y0201631D02*
X0111949Y0252272D01*
D26*
X0111949Y0201631D02*
X0131670Y0181910D01*
X0136420Y0181910D01*
X0169335Y0181960D01*
X0140735Y0181910D02*
X0136420Y0181910D01*
M02*
