G75*
%MOIN*%
%OFA0B0*%
%FSLAX25Y25*%
%IPPOS*%
%LPD*%
%AMOC8*
5,1,8,0,0,1.08239X$1,22.5*
%
%ADD10R,0.10000X0.20000*%
%ADD11C,0.04724*%
%ADD12C,0.08858*%
%ADD13C,0.07677*%
%ADD14C,0.05906*%
%ADD15C,0.08268*%
%ADD16C,0.06496*%
%ADD17C,0.04800*%
%ADD18C,0.03175*%
%ADD19C,0.02400*%
%ADD20C,0.03200*%
%ADD21C,0.02000*%
%ADD22C,0.00800*%
%ADD23C,0.01600*%
%ADD24C,0.01000*%
%ADD25C,0.05000*%
%ADD26C,0.28000*%
%ADD27C,0.22500*%
D10*
X0025749Y0178681D03*
X0055749Y0178681D03*
X0085749Y0178681D03*
X0065749Y0208681D03*
X0035749Y0208681D03*
X0025749Y0238681D03*
X0055749Y0238681D03*
X0085749Y0238681D03*
X0065749Y0268681D03*
X0035749Y0268681D03*
X0495749Y0038681D03*
X0520749Y0038681D03*
X0545749Y0038681D03*
D11*
X0165336Y0066181D03*
X0157462Y0066181D03*
X0157462Y0098781D03*
X0165336Y0098781D03*
X0082249Y0124994D03*
X0082249Y0132868D03*
X0082249Y0139944D03*
X0082249Y0147818D03*
D12*
X0111949Y0163690D03*
X0199249Y0163690D03*
X0199249Y0252272D03*
X0111949Y0252272D03*
X0446257Y0268431D03*
X0534840Y0268431D03*
X0534840Y0179281D03*
X0446257Y0179281D03*
D13*
X0453335Y0209467D03*
X0473178Y0209467D03*
X0493020Y0209467D03*
X0493020Y0238995D03*
X0473178Y0238995D03*
X0453335Y0238995D03*
X0553099Y0238995D03*
X0553099Y0224231D03*
X0553099Y0209467D03*
X0170263Y0201752D03*
X0140735Y0201752D03*
X0140735Y0181910D03*
X0170263Y0181910D03*
X0170263Y0162067D03*
X0140735Y0162067D03*
X0140735Y0261831D03*
X0155499Y0261831D03*
X0170263Y0261831D03*
D14*
X0215473Y0272713D03*
X0225473Y0272713D03*
X0235473Y0272713D03*
X0245473Y0272713D03*
X0255473Y0272713D03*
X0265473Y0272713D03*
X0275473Y0272713D03*
X0285473Y0272713D03*
X0295473Y0272713D03*
X0305473Y0272713D03*
X0315473Y0272713D03*
X0325473Y0272713D03*
X0335473Y0272713D03*
X0345473Y0272713D03*
X0345473Y0282713D03*
X0335473Y0282713D03*
X0325473Y0282713D03*
X0315473Y0282713D03*
X0305473Y0282713D03*
X0295473Y0282713D03*
X0285473Y0282713D03*
X0275473Y0282713D03*
X0265473Y0282713D03*
X0255473Y0282713D03*
X0245473Y0282713D03*
X0235473Y0282713D03*
X0225473Y0282713D03*
X0215473Y0282713D03*
X0215473Y0038461D03*
X0225473Y0038461D03*
X0235473Y0038461D03*
X0245473Y0038461D03*
X0255473Y0038461D03*
X0265473Y0038461D03*
X0275473Y0038461D03*
X0285473Y0038461D03*
X0295473Y0038461D03*
X0305473Y0038461D03*
X0315473Y0038461D03*
X0325473Y0038461D03*
X0335473Y0038461D03*
X0345473Y0038461D03*
X0345473Y0028461D03*
X0335473Y0028461D03*
X0325473Y0028461D03*
X0315473Y0028461D03*
X0305473Y0028461D03*
X0295473Y0028461D03*
X0285473Y0028461D03*
X0275473Y0028461D03*
X0265473Y0028461D03*
X0255473Y0028461D03*
X0245473Y0028461D03*
X0235473Y0028461D03*
X0225473Y0028461D03*
X0215473Y0028461D03*
D15*
X0032796Y0045016D03*
X0032796Y0060016D03*
X0032796Y0075016D03*
X0032796Y0090016D03*
X0032796Y0105016D03*
X0032796Y0120016D03*
X0032796Y0135016D03*
X0032796Y0150016D03*
D16*
X0410399Y0035081D03*
D17*
X0506249Y0036681D03*
X0506249Y0056681D03*
D18*
X0478149Y0047981D03*
X0454449Y0057881D03*
X0467499Y0062881D03*
X0449649Y0066581D03*
X0446149Y0076981D03*
X0424399Y0083031D03*
X0412249Y0087231D03*
X0410399Y0079181D03*
X0400999Y0075631D03*
X0392649Y0069131D03*
X0396199Y0058131D03*
X0393399Y0050731D03*
X0384749Y0050231D03*
X0384799Y0057081D03*
X0370099Y0057481D03*
X0353299Y0062331D03*
X0349299Y0050281D03*
X0344999Y0050231D03*
X0319549Y0057881D03*
X0305199Y0061131D03*
X0294299Y0050681D03*
X0277699Y0050731D03*
X0283849Y0060831D03*
X0273599Y0064281D03*
X0263899Y0059281D03*
X0259749Y0069281D03*
X0260199Y0075031D03*
X0252049Y0069281D03*
X0241849Y0064281D03*
X0239149Y0069631D03*
X0229949Y0065981D03*
X0227249Y0059281D03*
X0240149Y0055331D03*
X0236299Y0050831D03*
X0225049Y0051281D03*
X0225049Y0048131D03*
X0212699Y0051981D03*
X0212649Y0061381D03*
X0237499Y0076431D03*
X0237549Y0082531D03*
X0241899Y0084681D03*
X0237849Y0089531D03*
X0240749Y0094281D03*
X0231549Y0093881D03*
X0241899Y0104531D03*
X0240649Y0109781D03*
X0236649Y0109981D03*
X0241399Y0115531D03*
X0240049Y0122031D03*
X0236649Y0125731D03*
X0252049Y0129181D03*
X0256099Y0124931D03*
X0260049Y0114531D03*
X0259749Y0109531D03*
X0252049Y0109531D03*
X0263899Y0099531D03*
X0273599Y0104531D03*
X0286349Y0097831D03*
X0289399Y0097831D03*
X0306999Y0096381D03*
X0311499Y0094531D03*
X0318549Y0094531D03*
X0318599Y0101081D03*
X0326349Y0105881D03*
X0324649Y0110181D03*
X0312299Y0111281D03*
X0295949Y0120331D03*
X0289799Y0125181D03*
X0283599Y0125081D03*
X0284499Y0116681D03*
X0302649Y0125181D03*
X0311049Y0133831D03*
X0321299Y0136781D03*
X0335649Y0139181D03*
X0348249Y0140331D03*
X0354999Y0140331D03*
X0353099Y0146381D03*
X0370249Y0145531D03*
X0374799Y0146331D03*
X0380999Y0145181D03*
X0383999Y0140331D03*
X0377249Y0140331D03*
X0370499Y0154281D03*
X0367399Y0158281D03*
X0363949Y0163231D03*
X0352049Y0167881D03*
X0349149Y0170781D03*
X0349149Y0175981D03*
X0352049Y0178831D03*
X0358999Y0183131D03*
X0355049Y0184181D03*
X0364349Y0184081D03*
X0369499Y0178431D03*
X0377449Y0182731D03*
X0381499Y0178831D03*
X0384499Y0175931D03*
X0384499Y0170731D03*
X0381499Y0167881D03*
X0388949Y0165031D03*
X0392249Y0167881D03*
X0402449Y0162331D03*
X0412999Y0158281D03*
X0406149Y0154281D03*
X0403049Y0145881D03*
X0398999Y0143081D03*
X0409249Y0137331D03*
X0416999Y0137631D03*
X0416999Y0150281D03*
X0421849Y0158281D03*
X0432549Y0159731D03*
X0449499Y0159581D03*
X0458049Y0158081D03*
X0468049Y0154281D03*
X0475999Y0163731D03*
X0481549Y0167731D03*
X0503749Y0151631D03*
X0503749Y0138681D03*
X0484599Y0132631D03*
X0475999Y0137581D03*
X0455299Y0137631D03*
X0455199Y0142631D03*
X0444149Y0142631D03*
X0455049Y0132631D03*
X0438849Y0125531D03*
X0421849Y0120631D03*
X0407349Y0113431D03*
X0407349Y0110331D03*
X0399499Y0106281D03*
X0409549Y0103981D03*
X0402849Y0097181D03*
X0416399Y0097281D03*
X0398799Y0087181D03*
X0384399Y0089181D03*
X0383999Y0084181D03*
X0371099Y0080131D03*
X0371099Y0076931D03*
X0367899Y0076931D03*
X0367899Y0080131D03*
X0364699Y0080131D03*
X0364699Y0076931D03*
X0360849Y0073281D03*
X0343749Y0073431D03*
X0331149Y0089681D03*
X0351199Y0093081D03*
X0351149Y0099031D03*
X0337599Y0102831D03*
X0337399Y0109931D03*
X0338599Y0124731D03*
X0326749Y0125181D03*
X0285599Y0142481D03*
X0281099Y0137481D03*
X0280249Y0133131D03*
X0264399Y0138431D03*
X0271349Y0146581D03*
X0271349Y0153331D03*
X0271549Y0157581D03*
X0271649Y0162781D03*
X0271049Y0167881D03*
X0264399Y0183481D03*
X0263749Y0192181D03*
X0249599Y0191231D03*
X0245599Y0191231D03*
X0241199Y0192531D03*
X0237249Y0191281D03*
X0232099Y0194831D03*
X0228949Y0194831D03*
X0224899Y0191731D03*
X0224899Y0188581D03*
X0244299Y0199181D03*
X0238299Y0208231D03*
X0255399Y0209681D03*
X0267999Y0209681D03*
X0267999Y0199181D03*
X0275749Y0199181D03*
X0289049Y0209531D03*
X0302649Y0209031D03*
X0318049Y0208981D03*
X0325249Y0209681D03*
X0336699Y0209731D03*
X0346349Y0209881D03*
X0358049Y0212481D03*
X0364349Y0209381D03*
X0374399Y0214081D03*
X0379399Y0214081D03*
X0392999Y0211031D03*
X0397199Y0210981D03*
X0398049Y0203281D03*
X0409849Y0199781D03*
X0421849Y0199431D03*
X0421749Y0194781D03*
X0424899Y0194781D03*
X0424899Y0191581D03*
X0424899Y0188431D03*
X0424899Y0185281D03*
X0416999Y0189481D03*
X0392249Y0178781D03*
X0388949Y0181481D03*
X0381749Y0192181D03*
X0384299Y0200131D03*
X0374349Y0200181D03*
X0341499Y0178831D03*
X0330749Y0181031D03*
X0324149Y0182581D03*
X0322149Y0178931D03*
X0327299Y0177281D03*
X0317799Y0174131D03*
X0317949Y0182681D03*
X0311049Y0188181D03*
X0327349Y0188181D03*
X0285649Y0181831D03*
X0306999Y0159031D03*
X0318949Y0154281D03*
X0326749Y0154281D03*
X0332249Y0158281D03*
X0341449Y0162281D03*
X0335599Y0146231D03*
X0406149Y0174081D03*
X0499799Y0126181D03*
X0486099Y0122481D03*
X0489249Y0118231D03*
X0491799Y0109181D03*
X0501049Y0106231D03*
X0481545Y0101181D03*
X0468049Y0097131D03*
X0473449Y0092281D03*
X0489699Y0085581D03*
X0489749Y0078881D03*
X0513499Y0072931D03*
X0516599Y0072931D03*
X0514999Y0084331D03*
X0526599Y0094431D03*
X0532349Y0104331D03*
X0553249Y0126131D03*
X0537649Y0148181D03*
X0537649Y0151281D03*
X0547249Y0176931D03*
X0557549Y0185281D03*
X0553249Y0193881D03*
X0542349Y0231231D03*
X0440899Y0241481D03*
X0440899Y0244431D03*
X0440899Y0247431D03*
X0437799Y0247431D03*
X0437799Y0244431D03*
X0437799Y0241481D03*
X0434649Y0241481D03*
X0434649Y0244431D03*
X0434649Y0247431D03*
X0431499Y0247431D03*
X0431499Y0244431D03*
X0431499Y0241481D03*
X0429799Y0255631D03*
X0425549Y0255781D03*
X0421299Y0255881D03*
X0404049Y0262781D03*
X0397449Y0256081D03*
X0397599Y0251881D03*
X0385999Y0250481D03*
X0382849Y0250481D03*
X0381699Y0258831D03*
X0381949Y0267581D03*
X0386049Y0267131D03*
X0389999Y0270281D03*
X0393199Y0273831D03*
X0366849Y0257231D03*
X0354499Y0254131D03*
X0350499Y0254081D03*
X0363649Y0250681D03*
X0333099Y0251981D03*
X0304549Y0258981D03*
X0297849Y0254131D03*
X0293599Y0254081D03*
X0276449Y0255131D03*
X0272349Y0255181D03*
X0268249Y0254831D03*
X0264249Y0254731D03*
X0260199Y0254781D03*
X0255099Y0261181D03*
X0244299Y0254581D03*
X0215749Y0248231D03*
X0189099Y0275031D03*
X0215749Y0211581D03*
X0220549Y0211581D03*
X0208099Y0146581D03*
X0204249Y0142481D03*
X0212699Y0123181D03*
X0175799Y0112731D03*
X0175099Y0103431D03*
X0174999Y0087281D03*
X0186999Y0080481D03*
X0212799Y0081331D03*
X0212649Y0093931D03*
X0212699Y0103931D03*
X0261549Y0085831D03*
X0294599Y0086681D03*
X0302649Y0086881D03*
X0310149Y0078531D03*
X0420249Y0070081D03*
X0424849Y0054531D03*
X0424849Y0051381D03*
X0424849Y0048231D03*
X0424799Y0044881D03*
X0421649Y0044881D03*
X0418499Y0044881D03*
X0440349Y0028731D03*
X0455299Y0032781D03*
X0463249Y0028731D03*
X0547249Y0065231D03*
X0550349Y0065231D03*
X0473449Y0109181D03*
X0463399Y0117631D03*
X0452249Y0121431D03*
X0447249Y0114381D03*
X0440299Y0104281D03*
X0450249Y0101181D03*
X0175299Y0061231D03*
X0150249Y0073731D03*
X0160799Y0082431D03*
X0137349Y0097381D03*
X0108249Y0079581D03*
X0121799Y0066781D03*
X0142049Y0060181D03*
X0145949Y0052081D03*
X0102699Y0049431D03*
X0362199Y0269381D03*
D19*
X0553249Y0193881D02*
X0553249Y0126131D01*
X0271349Y0146581D02*
X0271349Y0153331D01*
X0208099Y0146581D02*
X0208099Y0095281D01*
X0188249Y0075431D01*
X0166712Y0075431D01*
X0157462Y0066181D01*
X0153649Y0059981D02*
X0174049Y0059981D01*
X0175299Y0061231D01*
X0153649Y0059981D02*
X0146799Y0066831D01*
X0121849Y0066831D01*
X0121799Y0066781D01*
X0098899Y0072181D02*
X0086699Y0059981D01*
X0047761Y0059981D01*
X0032796Y0045016D01*
X0032796Y0075016D02*
X0084483Y0075016D01*
X0119199Y0109731D01*
X0172799Y0109731D01*
X0175799Y0112731D01*
X0172999Y0105531D02*
X0145499Y0105531D01*
X0137349Y0097381D01*
X0172999Y0105531D02*
X0175099Y0103431D01*
X0186999Y0080481D02*
X0204249Y0097731D01*
X0204249Y0142481D01*
X0150249Y0073731D02*
X0148699Y0072181D01*
X0098899Y0072181D01*
X0255473Y0028461D02*
X0260499Y0033486D01*
X0260499Y0041231D01*
X0270449Y0041131D02*
X0270449Y0033485D01*
X0275473Y0028461D01*
D20*
X0275473Y0038461D02*
X0275473Y0043756D01*
X0277699Y0045981D01*
X0277699Y0050731D01*
X0277699Y0130581D01*
X0280249Y0133131D01*
X0273599Y0142431D02*
X0275749Y0144581D01*
X0275749Y0199181D01*
X0263749Y0192181D02*
X0260149Y0188581D01*
X0260149Y0120331D01*
X0256049Y0116231D01*
X0256049Y0109581D01*
X0256049Y0069531D01*
X0256049Y0050531D01*
X0260499Y0046081D01*
X0260499Y0041231D01*
X0255473Y0038461D02*
X0255473Y0045007D01*
X0252049Y0048431D01*
X0252049Y0069281D01*
X0252049Y0109531D01*
X0252049Y0129181D01*
X0273599Y0142431D02*
X0273599Y0104531D01*
X0273599Y0064281D01*
X0273599Y0047581D01*
X0270449Y0044431D01*
X0270449Y0041131D01*
X0302649Y0086881D02*
X0302649Y0125181D01*
X0302649Y0209031D01*
X0306999Y0197931D02*
X0318049Y0208981D01*
X0306999Y0197931D02*
X0306999Y0159031D01*
X0306999Y0096381D01*
X0326749Y0125181D02*
X0326749Y0154281D01*
X0311049Y0133831D02*
X0311049Y0188181D01*
X0244299Y0199181D02*
X0244299Y0254581D01*
X0409849Y0199781D02*
X0409849Y0184381D01*
X0416999Y0177231D01*
X0416999Y0150281D01*
X0416999Y0137631D01*
X0421849Y0120631D02*
X0421849Y0158281D01*
X0432549Y0159731D02*
X0432549Y0090581D01*
X0446149Y0076981D01*
X0463249Y0067481D02*
X0463249Y0028731D01*
X0463249Y0067481D02*
X0481545Y0085778D01*
X0481545Y0101181D01*
X0481545Y0136728D01*
X0481549Y0136731D01*
X0481549Y0167731D01*
X0475999Y0163731D02*
X0475999Y0137581D01*
X0481549Y0136731D02*
X0481549Y0132631D01*
X0484599Y0132631D01*
X0468049Y0154281D02*
X0468049Y0097131D01*
X0473449Y0092281D02*
X0473449Y0109181D01*
D21*
X0259749Y0109531D02*
X0256099Y0109531D01*
X0256049Y0109581D01*
X0256049Y0069531D02*
X0256299Y0069281D01*
X0259749Y0069281D01*
D22*
X0269149Y0064531D02*
X0263899Y0059281D01*
X0269149Y0064531D02*
X0269149Y0144531D01*
X0268399Y0145281D01*
X0268399Y0154431D01*
X0271549Y0157581D01*
X0266499Y0157631D02*
X0271649Y0162781D01*
X0266499Y0157631D02*
X0266499Y0144781D01*
X0267449Y0143831D01*
X0267449Y0103081D01*
X0263899Y0099531D01*
X0281999Y0099741D02*
X0284317Y0099741D01*
X0283986Y0099410D02*
X0283561Y0098386D01*
X0283561Y0097277D01*
X0283986Y0096252D01*
X0284770Y0095468D01*
X0285794Y0095044D01*
X0286903Y0095044D01*
X0287874Y0095446D01*
X0288844Y0095044D01*
X0289953Y0095044D01*
X0290978Y0095468D01*
X0291762Y0096252D01*
X0292186Y0097277D01*
X0292186Y0098386D01*
X0291762Y0099410D01*
X0290978Y0100194D01*
X0289953Y0100618D01*
X0288844Y0100618D01*
X0287874Y0100216D01*
X0286903Y0100618D01*
X0285794Y0100618D01*
X0284770Y0100194D01*
X0283986Y0099410D01*
X0283792Y0098943D02*
X0281999Y0098943D01*
X0281999Y0098144D02*
X0283561Y0098144D01*
X0283561Y0097346D02*
X0281999Y0097346D01*
X0281999Y0096547D02*
X0283864Y0096547D01*
X0284489Y0095749D02*
X0281999Y0095749D01*
X0281999Y0094950D02*
X0299849Y0094950D01*
X0299849Y0094152D02*
X0281999Y0094152D01*
X0281999Y0093353D02*
X0299849Y0093353D01*
X0299849Y0092555D02*
X0281999Y0092555D01*
X0281999Y0091756D02*
X0299849Y0091756D01*
X0299849Y0090958D02*
X0281999Y0090958D01*
X0281999Y0090159D02*
X0299849Y0090159D01*
X0299849Y0089361D02*
X0295414Y0089361D01*
X0295153Y0089468D02*
X0296178Y0089044D01*
X0296962Y0088260D01*
X0297386Y0087236D01*
X0297386Y0086127D01*
X0296962Y0085102D01*
X0296178Y0084318D01*
X0295153Y0083894D01*
X0294044Y0083894D01*
X0293020Y0084318D01*
X0292236Y0085102D01*
X0291811Y0086127D01*
X0291811Y0087236D01*
X0292236Y0088260D01*
X0293020Y0089044D01*
X0294044Y0089468D01*
X0295153Y0089468D01*
X0293784Y0089361D02*
X0281999Y0089361D01*
X0281999Y0088562D02*
X0292538Y0088562D01*
X0292030Y0087763D02*
X0281999Y0087763D01*
X0281999Y0086965D02*
X0291811Y0086965D01*
X0291811Y0086166D02*
X0281999Y0086166D01*
X0281999Y0085368D02*
X0292126Y0085368D01*
X0292768Y0084569D02*
X0281999Y0084569D01*
X0281999Y0083771D02*
X0381211Y0083771D01*
X0381211Y0083627D02*
X0381500Y0082931D01*
X0350249Y0082931D01*
X0348549Y0081231D01*
X0348549Y0076531D01*
X0346380Y0074362D01*
X0346112Y0075010D01*
X0345328Y0075794D01*
X0344303Y0076218D01*
X0343194Y0076218D01*
X0342170Y0075794D01*
X0341386Y0075010D01*
X0340961Y0073986D01*
X0340961Y0072877D01*
X0341235Y0072217D01*
X0331699Y0062681D01*
X0309449Y0062681D01*
X0308249Y0063881D01*
X0305844Y0063881D01*
X0305753Y0063918D01*
X0304644Y0063918D01*
X0304554Y0063881D01*
X0282799Y0063881D01*
X0281999Y0064681D01*
X0281999Y0105381D01*
X0283549Y0106931D01*
X0299849Y0106931D01*
X0299849Y0086324D01*
X0300275Y0085295D01*
X0301063Y0084507D01*
X0302092Y0084081D01*
X0303206Y0084081D01*
X0304235Y0084507D01*
X0305023Y0085295D01*
X0305449Y0086324D01*
X0305449Y0093992D01*
X0306442Y0093581D01*
X0307556Y0093581D01*
X0308585Y0094007D01*
X0308711Y0094134D01*
X0308711Y0093977D01*
X0309136Y0092952D01*
X0309920Y0092168D01*
X0310944Y0091744D01*
X0312053Y0091744D01*
X0313078Y0092168D01*
X0313862Y0092952D01*
X0314286Y0093977D01*
X0314286Y0095086D01*
X0313862Y0096110D01*
X0313078Y0096894D01*
X0312053Y0097318D01*
X0310944Y0097318D01*
X0309920Y0096894D01*
X0309799Y0096773D01*
X0309799Y0106931D01*
X0323767Y0106931D01*
X0323561Y0106436D01*
X0323561Y0105327D01*
X0323986Y0104302D01*
X0324770Y0103518D01*
X0325794Y0103094D01*
X0326903Y0103094D01*
X0327928Y0103518D01*
X0328712Y0104302D01*
X0329136Y0105327D01*
X0329136Y0106436D01*
X0328931Y0106931D01*
X0385949Y0106931D01*
X0395249Y0116231D01*
X0414449Y0116231D01*
X0415549Y0115131D01*
X0415549Y0099946D01*
X0414820Y0099644D01*
X0414036Y0098860D01*
X0413611Y0097836D01*
X0413611Y0096727D01*
X0414036Y0095702D01*
X0414820Y0094918D01*
X0415549Y0094616D01*
X0415549Y0073631D01*
X0413949Y0072031D01*
X0401549Y0072031D01*
X0399799Y0073781D01*
X0399799Y0081231D01*
X0398099Y0082931D01*
X0386498Y0082931D01*
X0386786Y0083627D01*
X0386786Y0084736D01*
X0386362Y0085760D01*
X0385578Y0086544D01*
X0384553Y0086968D01*
X0383444Y0086968D01*
X0382420Y0086544D01*
X0381636Y0085760D01*
X0381211Y0084736D01*
X0381211Y0083627D01*
X0381482Y0082972D02*
X0281999Y0082972D01*
X0281999Y0082174D02*
X0349492Y0082174D01*
X0348693Y0081375D02*
X0281999Y0081375D01*
X0281999Y0080577D02*
X0308253Y0080577D01*
X0308570Y0080894D02*
X0307786Y0080110D01*
X0307361Y0079086D01*
X0307361Y0077977D01*
X0307786Y0076952D01*
X0308570Y0076168D01*
X0309594Y0075744D01*
X0310703Y0075744D01*
X0311728Y0076168D01*
X0312512Y0076952D01*
X0312936Y0077977D01*
X0312936Y0079086D01*
X0312512Y0080110D01*
X0311728Y0080894D01*
X0310703Y0081318D01*
X0309594Y0081318D01*
X0308570Y0080894D01*
X0307648Y0079778D02*
X0281999Y0079778D01*
X0281999Y0078980D02*
X0307361Y0078980D01*
X0307361Y0078181D02*
X0281999Y0078181D01*
X0281999Y0077383D02*
X0307607Y0077383D01*
X0308154Y0076584D02*
X0281999Y0076584D01*
X0281999Y0075786D02*
X0309493Y0075786D01*
X0310805Y0075786D02*
X0342162Y0075786D01*
X0341376Y0074987D02*
X0281999Y0074987D01*
X0281999Y0074189D02*
X0341046Y0074189D01*
X0340961Y0073390D02*
X0281999Y0073390D01*
X0281999Y0072592D02*
X0341079Y0072592D01*
X0340811Y0071793D02*
X0281999Y0071793D01*
X0281999Y0070995D02*
X0340012Y0070995D01*
X0339214Y0070196D02*
X0281999Y0070196D01*
X0281999Y0069398D02*
X0338415Y0069398D01*
X0337617Y0068599D02*
X0281999Y0068599D01*
X0281999Y0067801D02*
X0336818Y0067801D01*
X0336020Y0067002D02*
X0281999Y0067002D01*
X0281999Y0066204D02*
X0335221Y0066204D01*
X0334423Y0065405D02*
X0281999Y0065405D01*
X0282073Y0064607D02*
X0333624Y0064607D01*
X0332826Y0063808D02*
X0308322Y0063808D01*
X0309120Y0063010D02*
X0332027Y0063010D01*
X0338399Y0063010D02*
X0350563Y0063010D01*
X0350511Y0062886D02*
X0350511Y0061777D01*
X0350936Y0060752D01*
X0351720Y0059968D01*
X0352744Y0059544D01*
X0353853Y0059544D01*
X0354878Y0059968D01*
X0355662Y0060752D01*
X0356086Y0061777D01*
X0356086Y0062886D01*
X0355662Y0063910D01*
X0354878Y0064694D01*
X0353853Y0065118D01*
X0352744Y0065118D01*
X0351720Y0064694D01*
X0350936Y0063910D01*
X0350511Y0062886D01*
X0350511Y0062211D02*
X0338399Y0062211D01*
X0338399Y0061413D02*
X0350662Y0061413D01*
X0351074Y0060614D02*
X0338399Y0060614D01*
X0338399Y0060331D02*
X0338399Y0067131D01*
X0341849Y0070581D01*
X0344899Y0070581D01*
X0350149Y0075831D01*
X0350149Y0080581D01*
X0350899Y0081331D01*
X0362179Y0081331D01*
X0361911Y0080686D01*
X0361911Y0079577D01*
X0362336Y0078552D01*
X0362357Y0078531D01*
X0362336Y0078510D01*
X0361911Y0077486D01*
X0361911Y0076377D01*
X0362171Y0075751D01*
X0361403Y0076068D01*
X0360294Y0076068D01*
X0359270Y0075644D01*
X0358486Y0074860D01*
X0358061Y0073836D01*
X0358061Y0072727D01*
X0358486Y0071702D01*
X0359270Y0070918D01*
X0360294Y0070494D01*
X0361403Y0070494D01*
X0362428Y0070918D01*
X0363212Y0071702D01*
X0363636Y0072727D01*
X0363636Y0073836D01*
X0363377Y0074462D01*
X0364144Y0074144D01*
X0365253Y0074144D01*
X0366278Y0074568D01*
X0366299Y0074589D01*
X0366320Y0074568D01*
X0367344Y0074144D01*
X0368453Y0074144D01*
X0369478Y0074568D01*
X0369499Y0074589D01*
X0369520Y0074568D01*
X0370544Y0074144D01*
X0371653Y0074144D01*
X0372678Y0074568D01*
X0373462Y0075352D01*
X0373886Y0076377D01*
X0373886Y0077486D01*
X0373462Y0078510D01*
X0373441Y0078531D01*
X0373462Y0078552D01*
X0373886Y0079577D01*
X0373886Y0080686D01*
X0373619Y0081331D01*
X0397099Y0081331D01*
X0397899Y0080531D01*
X0397899Y0060373D01*
X0397778Y0060494D01*
X0396753Y0060918D01*
X0395644Y0060918D01*
X0394620Y0060494D01*
X0393836Y0059710D01*
X0393411Y0058686D01*
X0393411Y0057577D01*
X0393836Y0056552D01*
X0394620Y0055768D01*
X0395644Y0055344D01*
X0396753Y0055344D01*
X0397778Y0055768D01*
X0397899Y0055889D01*
X0397899Y0049581D01*
X0393599Y0045281D01*
X0341099Y0045281D01*
X0338399Y0042631D01*
X0338399Y0041408D01*
X0337826Y0041981D01*
X0336299Y0042613D01*
X0334647Y0042613D01*
X0333121Y0041981D01*
X0331953Y0040813D01*
X0331320Y0039287D01*
X0331320Y0037635D01*
X0331953Y0036108D01*
X0333121Y0034940D01*
X0334647Y0034308D01*
X0336299Y0034308D01*
X0337826Y0034940D01*
X0338399Y0035513D01*
X0338399Y0031408D01*
X0337826Y0031981D01*
X0336299Y0032613D01*
X0334647Y0032613D01*
X0333121Y0031981D01*
X0331953Y0030813D01*
X0331320Y0029287D01*
X0331320Y0027635D01*
X0331953Y0026108D01*
X0333121Y0024940D01*
X0334567Y0024341D01*
X0326379Y0024341D01*
X0327826Y0024940D01*
X0328994Y0026108D01*
X0329626Y0027635D01*
X0329626Y0029287D01*
X0328994Y0030813D01*
X0327826Y0031981D01*
X0326299Y0032613D01*
X0324647Y0032613D01*
X0323121Y0031981D01*
X0321953Y0030813D01*
X0321320Y0029287D01*
X0321320Y0027635D01*
X0321953Y0026108D01*
X0323121Y0024940D01*
X0324567Y0024341D01*
X0316379Y0024341D01*
X0317826Y0024940D01*
X0318994Y0026108D01*
X0319626Y0027635D01*
X0319626Y0029287D01*
X0318994Y0030813D01*
X0317826Y0031981D01*
X0316299Y0032613D01*
X0314647Y0032613D01*
X0313121Y0031981D01*
X0311953Y0030813D01*
X0311320Y0029287D01*
X0311320Y0027635D01*
X0311953Y0026108D01*
X0313121Y0024940D01*
X0314567Y0024341D01*
X0306379Y0024341D01*
X0307826Y0024940D01*
X0308994Y0026108D01*
X0309626Y0027635D01*
X0309626Y0029287D01*
X0308994Y0030813D01*
X0307826Y0031981D01*
X0306299Y0032613D01*
X0304647Y0032613D01*
X0303121Y0031981D01*
X0301953Y0030813D01*
X0301320Y0029287D01*
X0301320Y0027635D01*
X0301953Y0026108D01*
X0303121Y0024940D01*
X0304567Y0024341D01*
X0296379Y0024341D01*
X0297826Y0024940D01*
X0298994Y0026108D01*
X0299626Y0027635D01*
X0299626Y0029287D01*
X0298994Y0030813D01*
X0297826Y0031981D01*
X0296299Y0032613D01*
X0294647Y0032613D01*
X0293121Y0031981D01*
X0291953Y0030813D01*
X0291320Y0029287D01*
X0291320Y0027635D01*
X0291953Y0026108D01*
X0293121Y0024940D01*
X0294567Y0024341D01*
X0286379Y0024341D01*
X0287826Y0024940D01*
X0288994Y0026108D01*
X0289626Y0027635D01*
X0289626Y0029287D01*
X0288994Y0030813D01*
X0287826Y0031981D01*
X0286299Y0032613D01*
X0284647Y0032613D01*
X0283121Y0031981D01*
X0281953Y0030813D01*
X0281320Y0029287D01*
X0281320Y0027635D01*
X0281953Y0026108D01*
X0283121Y0024940D01*
X0284567Y0024341D01*
X0280649Y0024341D01*
X0280649Y0041481D01*
X0283749Y0044631D01*
X0306199Y0044631D01*
X0321899Y0060331D01*
X0338399Y0060331D01*
X0338399Y0063808D02*
X0350894Y0063808D01*
X0351632Y0064607D02*
X0338399Y0064607D01*
X0338399Y0065405D02*
X0397899Y0065405D01*
X0397899Y0064607D02*
X0354965Y0064607D01*
X0355704Y0063808D02*
X0397899Y0063808D01*
X0397899Y0063010D02*
X0356035Y0063010D01*
X0356086Y0062211D02*
X0397899Y0062211D01*
X0397899Y0061413D02*
X0355935Y0061413D01*
X0355524Y0060614D02*
X0394910Y0060614D01*
X0393941Y0059816D02*
X0371706Y0059816D01*
X0371678Y0059844D02*
X0370653Y0060268D01*
X0369544Y0060268D01*
X0368520Y0059844D01*
X0367736Y0059060D01*
X0367311Y0058036D01*
X0367311Y0056927D01*
X0367736Y0055902D01*
X0368520Y0055118D01*
X0369544Y0054694D01*
X0370653Y0054694D01*
X0371678Y0055118D01*
X0372462Y0055902D01*
X0372886Y0056927D01*
X0372886Y0058036D01*
X0372462Y0059060D01*
X0371678Y0059844D01*
X0372480Y0059017D02*
X0393549Y0059017D01*
X0393411Y0058219D02*
X0372810Y0058219D01*
X0372886Y0057420D02*
X0393476Y0057420D01*
X0393807Y0056622D02*
X0372760Y0056622D01*
X0372383Y0055823D02*
X0394565Y0055823D01*
X0393953Y0053518D02*
X0392844Y0053518D01*
X0391820Y0053094D01*
X0391036Y0052310D01*
X0390611Y0051286D01*
X0390611Y0050177D01*
X0391036Y0049152D01*
X0391820Y0048368D01*
X0392844Y0047944D01*
X0393953Y0047944D01*
X0394978Y0048368D01*
X0395762Y0049152D01*
X0396186Y0050177D01*
X0396186Y0051286D01*
X0395762Y0052310D01*
X0394978Y0053094D01*
X0393953Y0053518D01*
X0394173Y0053428D02*
X0397899Y0053428D01*
X0397899Y0054226D02*
X0315794Y0054226D01*
X0316592Y0055025D02*
X0368746Y0055025D01*
X0367815Y0055823D02*
X0317391Y0055823D01*
X0318189Y0056622D02*
X0367438Y0056622D01*
X0367311Y0057420D02*
X0318988Y0057420D01*
X0319786Y0058219D02*
X0367387Y0058219D01*
X0367718Y0059017D02*
X0320585Y0059017D01*
X0321383Y0059816D02*
X0352088Y0059816D01*
X0354510Y0059816D02*
X0368491Y0059816D01*
X0371452Y0055025D02*
X0397899Y0055025D01*
X0397899Y0055823D02*
X0397833Y0055823D01*
X0397899Y0052629D02*
X0395443Y0052629D01*
X0395960Y0051830D02*
X0397899Y0051830D01*
X0397899Y0051032D02*
X0396186Y0051032D01*
X0396186Y0050233D02*
X0397899Y0050233D01*
X0397753Y0049435D02*
X0395879Y0049435D01*
X0395246Y0048636D02*
X0396954Y0048636D01*
X0396156Y0047838D02*
X0386255Y0047838D01*
X0386328Y0047868D02*
X0387112Y0048652D01*
X0387536Y0049677D01*
X0387536Y0050786D01*
X0387112Y0051810D01*
X0386328Y0052594D01*
X0385303Y0053018D01*
X0384194Y0053018D01*
X0383170Y0052594D01*
X0382386Y0051810D01*
X0381961Y0050786D01*
X0381961Y0049677D01*
X0382386Y0048652D01*
X0383170Y0047868D01*
X0384194Y0047444D01*
X0385303Y0047444D01*
X0386328Y0047868D01*
X0387096Y0048636D02*
X0391552Y0048636D01*
X0390919Y0049435D02*
X0387436Y0049435D01*
X0387536Y0050233D02*
X0390611Y0050233D01*
X0390611Y0051032D02*
X0387434Y0051032D01*
X0387091Y0051830D02*
X0390837Y0051830D01*
X0391355Y0052629D02*
X0386244Y0052629D01*
X0383254Y0052629D02*
X0350893Y0052629D01*
X0350878Y0052644D02*
X0349853Y0053068D01*
X0348744Y0053068D01*
X0347720Y0052644D01*
X0347124Y0052048D01*
X0346578Y0052594D01*
X0345553Y0053018D01*
X0344444Y0053018D01*
X0343420Y0052594D01*
X0342636Y0051810D01*
X0342211Y0050786D01*
X0342211Y0049677D01*
X0342636Y0048652D01*
X0343420Y0047868D01*
X0344444Y0047444D01*
X0345553Y0047444D01*
X0346578Y0047868D01*
X0347174Y0048464D01*
X0347720Y0047918D01*
X0348744Y0047494D01*
X0349853Y0047494D01*
X0350878Y0047918D01*
X0351662Y0048702D01*
X0352086Y0049727D01*
X0352086Y0050836D01*
X0351662Y0051860D01*
X0350878Y0052644D01*
X0351674Y0051830D02*
X0382406Y0051830D01*
X0382063Y0051032D02*
X0352005Y0051032D01*
X0352086Y0050233D02*
X0381961Y0050233D01*
X0382062Y0049435D02*
X0351965Y0049435D01*
X0351596Y0048636D02*
X0382402Y0048636D01*
X0383243Y0047838D02*
X0350684Y0047838D01*
X0347913Y0047838D02*
X0346505Y0047838D01*
X0343493Y0047838D02*
X0309406Y0047838D01*
X0310204Y0048636D02*
X0342652Y0048636D01*
X0342312Y0049435D02*
X0311003Y0049435D01*
X0311801Y0050233D02*
X0342211Y0050233D01*
X0342313Y0051032D02*
X0312600Y0051032D01*
X0313398Y0051830D02*
X0342656Y0051830D01*
X0343504Y0052629D02*
X0314197Y0052629D01*
X0314995Y0053428D02*
X0392625Y0053428D01*
X0395357Y0047039D02*
X0308607Y0047039D01*
X0307809Y0046241D02*
X0394559Y0046241D01*
X0393760Y0045442D02*
X0307010Y0045442D01*
X0306212Y0044644D02*
X0340450Y0044644D01*
X0339636Y0043845D02*
X0282976Y0043845D01*
X0282190Y0043047D02*
X0338822Y0043047D01*
X0338399Y0042248D02*
X0337180Y0042248D01*
X0338357Y0041450D02*
X0338399Y0041450D01*
X0333766Y0042248D02*
X0327180Y0042248D01*
X0327826Y0041981D02*
X0326299Y0042613D01*
X0324647Y0042613D01*
X0323121Y0041981D01*
X0321953Y0040813D01*
X0321320Y0039287D01*
X0321320Y0037635D01*
X0321953Y0036108D01*
X0323121Y0034940D01*
X0324647Y0034308D01*
X0326299Y0034308D01*
X0327826Y0034940D01*
X0328994Y0036108D01*
X0329626Y0037635D01*
X0329626Y0039287D01*
X0328994Y0040813D01*
X0327826Y0041981D01*
X0328357Y0041450D02*
X0332590Y0041450D01*
X0331886Y0040651D02*
X0329061Y0040651D01*
X0329391Y0039853D02*
X0331555Y0039853D01*
X0331320Y0039054D02*
X0329626Y0039054D01*
X0329626Y0038256D02*
X0331320Y0038256D01*
X0331394Y0037457D02*
X0329553Y0037457D01*
X0329222Y0036659D02*
X0331725Y0036659D01*
X0332201Y0035860D02*
X0328746Y0035860D01*
X0327947Y0035062D02*
X0332999Y0035062D01*
X0337947Y0035062D02*
X0338399Y0035062D01*
X0338399Y0034263D02*
X0280649Y0034263D01*
X0280649Y0033465D02*
X0338399Y0033465D01*
X0338399Y0032666D02*
X0280649Y0032666D01*
X0280649Y0031868D02*
X0283007Y0031868D01*
X0282209Y0031069D02*
X0280649Y0031069D01*
X0280649Y0030271D02*
X0281728Y0030271D01*
X0281397Y0029472D02*
X0280649Y0029472D01*
X0280649Y0028674D02*
X0281320Y0028674D01*
X0281320Y0027875D02*
X0280649Y0027875D01*
X0280649Y0027077D02*
X0281552Y0027077D01*
X0281882Y0026278D02*
X0280649Y0026278D01*
X0280649Y0025480D02*
X0282581Y0025480D01*
X0283746Y0024681D02*
X0280649Y0024681D01*
X0287200Y0024681D02*
X0293746Y0024681D01*
X0292581Y0025480D02*
X0288365Y0025480D01*
X0289064Y0026278D02*
X0291882Y0026278D01*
X0291552Y0027077D02*
X0289395Y0027077D01*
X0289626Y0027875D02*
X0291320Y0027875D01*
X0291320Y0028674D02*
X0289626Y0028674D01*
X0289549Y0029472D02*
X0291397Y0029472D01*
X0291728Y0030271D02*
X0289218Y0030271D01*
X0288738Y0031069D02*
X0292209Y0031069D01*
X0293007Y0031868D02*
X0287939Y0031868D01*
X0287067Y0034612D02*
X0287650Y0034909D01*
X0288179Y0035293D01*
X0288641Y0035755D01*
X0289025Y0036284D01*
X0289322Y0036867D01*
X0289524Y0037488D01*
X0289614Y0038061D01*
X0285873Y0038061D01*
X0285873Y0038861D01*
X0285073Y0038861D01*
X0285073Y0042602D01*
X0284501Y0042511D01*
X0283879Y0042309D01*
X0283297Y0042012D01*
X0282768Y0041628D01*
X0282306Y0041166D01*
X0281921Y0040637D01*
X0281625Y0040055D01*
X0281423Y0039433D01*
X0281332Y0038861D01*
X0285073Y0038861D01*
X0285073Y0038061D01*
X0281332Y0038061D01*
X0281423Y0037488D01*
X0281625Y0036867D01*
X0281921Y0036284D01*
X0282306Y0035755D01*
X0282768Y0035293D01*
X0283297Y0034909D01*
X0283879Y0034612D01*
X0284501Y0034410D01*
X0285073Y0034319D01*
X0285073Y0038061D01*
X0285873Y0038061D01*
X0285873Y0034319D01*
X0286446Y0034410D01*
X0287067Y0034612D01*
X0287860Y0035062D02*
X0292999Y0035062D01*
X0293121Y0034940D02*
X0291953Y0036108D01*
X0291320Y0037635D01*
X0291320Y0039287D01*
X0291953Y0040813D01*
X0293121Y0041981D01*
X0294647Y0042613D01*
X0296299Y0042613D01*
X0297826Y0041981D01*
X0298994Y0040813D01*
X0299626Y0039287D01*
X0299626Y0037635D01*
X0298994Y0036108D01*
X0297826Y0034940D01*
X0296299Y0034308D01*
X0294647Y0034308D01*
X0293121Y0034940D01*
X0292201Y0035860D02*
X0288717Y0035860D01*
X0289216Y0036659D02*
X0291725Y0036659D01*
X0291394Y0037457D02*
X0289514Y0037457D01*
X0289614Y0038861D02*
X0285873Y0038861D01*
X0285873Y0042602D01*
X0286446Y0042511D01*
X0287067Y0042309D01*
X0287650Y0042012D01*
X0288179Y0041628D01*
X0288641Y0041166D01*
X0289025Y0040637D01*
X0289322Y0040055D01*
X0289524Y0039433D01*
X0289614Y0038861D01*
X0289584Y0039054D02*
X0291320Y0039054D01*
X0291320Y0038256D02*
X0285873Y0038256D01*
X0285873Y0039054D02*
X0285073Y0039054D01*
X0285073Y0038256D02*
X0280649Y0038256D01*
X0280649Y0039054D02*
X0281363Y0039054D01*
X0281559Y0039853D02*
X0280649Y0039853D01*
X0280649Y0040651D02*
X0281932Y0040651D01*
X0282590Y0041450D02*
X0280649Y0041450D01*
X0281404Y0042248D02*
X0283760Y0042248D01*
X0285073Y0042248D02*
X0285873Y0042248D01*
X0285873Y0041450D02*
X0285073Y0041450D01*
X0285073Y0040651D02*
X0285873Y0040651D01*
X0285873Y0039853D02*
X0285073Y0039853D01*
X0285073Y0037457D02*
X0285873Y0037457D01*
X0285873Y0036659D02*
X0285073Y0036659D01*
X0285073Y0035860D02*
X0285873Y0035860D01*
X0285873Y0035062D02*
X0285073Y0035062D01*
X0283086Y0035062D02*
X0280649Y0035062D01*
X0280649Y0035860D02*
X0282229Y0035860D01*
X0281731Y0036659D02*
X0280649Y0036659D01*
X0280649Y0037457D02*
X0281433Y0037457D01*
X0289015Y0040651D02*
X0291886Y0040651D01*
X0291555Y0039853D02*
X0289387Y0039853D01*
X0288357Y0041450D02*
X0292590Y0041450D01*
X0293766Y0042248D02*
X0287187Y0042248D01*
X0297180Y0042248D02*
X0303766Y0042248D01*
X0303121Y0041981D02*
X0301953Y0040813D01*
X0301320Y0039287D01*
X0301320Y0037635D01*
X0301953Y0036108D01*
X0303121Y0034940D01*
X0304647Y0034308D01*
X0306299Y0034308D01*
X0307826Y0034940D01*
X0308994Y0036108D01*
X0309626Y0037635D01*
X0309626Y0039287D01*
X0308994Y0040813D01*
X0307826Y0041981D01*
X0306299Y0042613D01*
X0304647Y0042613D01*
X0303121Y0041981D01*
X0302590Y0041450D02*
X0298357Y0041450D01*
X0299061Y0040651D02*
X0301886Y0040651D01*
X0301555Y0039853D02*
X0299391Y0039853D01*
X0299626Y0039054D02*
X0301320Y0039054D01*
X0301320Y0038256D02*
X0299626Y0038256D01*
X0299553Y0037457D02*
X0301394Y0037457D01*
X0301725Y0036659D02*
X0299222Y0036659D01*
X0298746Y0035860D02*
X0302201Y0035860D01*
X0302999Y0035062D02*
X0297947Y0035062D01*
X0297939Y0031868D02*
X0303007Y0031868D01*
X0302209Y0031069D02*
X0298738Y0031069D01*
X0299218Y0030271D02*
X0301728Y0030271D01*
X0301397Y0029472D02*
X0299549Y0029472D01*
X0299626Y0028674D02*
X0301320Y0028674D01*
X0301320Y0027875D02*
X0299626Y0027875D01*
X0299395Y0027077D02*
X0301552Y0027077D01*
X0301882Y0026278D02*
X0299064Y0026278D01*
X0298365Y0025480D02*
X0302581Y0025480D01*
X0303746Y0024681D02*
X0297200Y0024681D01*
X0307200Y0024681D02*
X0313746Y0024681D01*
X0312581Y0025480D02*
X0308365Y0025480D01*
X0309064Y0026278D02*
X0311882Y0026278D01*
X0311552Y0027077D02*
X0309395Y0027077D01*
X0309626Y0027875D02*
X0311320Y0027875D01*
X0311320Y0028674D02*
X0309626Y0028674D01*
X0309549Y0029472D02*
X0311397Y0029472D01*
X0311728Y0030271D02*
X0309218Y0030271D01*
X0308738Y0031069D02*
X0312209Y0031069D01*
X0313007Y0031868D02*
X0307939Y0031868D01*
X0311953Y0036108D02*
X0313121Y0034940D01*
X0314647Y0034308D01*
X0316299Y0034308D01*
X0317826Y0034940D01*
X0318994Y0036108D01*
X0319626Y0037635D01*
X0319626Y0039287D01*
X0318994Y0040813D01*
X0317826Y0041981D01*
X0316299Y0042613D01*
X0314647Y0042613D01*
X0313121Y0041981D01*
X0311953Y0040813D01*
X0311320Y0039287D01*
X0311320Y0037635D01*
X0311953Y0036108D01*
X0312201Y0035860D02*
X0308746Y0035860D01*
X0309222Y0036659D02*
X0311725Y0036659D01*
X0311394Y0037457D02*
X0309553Y0037457D01*
X0309626Y0038256D02*
X0311320Y0038256D01*
X0311320Y0039054D02*
X0309626Y0039054D01*
X0309391Y0039853D02*
X0311555Y0039853D01*
X0311886Y0040651D02*
X0309061Y0040651D01*
X0308357Y0041450D02*
X0312590Y0041450D01*
X0313766Y0042248D02*
X0307180Y0042248D01*
X0307947Y0035062D02*
X0312999Y0035062D01*
X0317947Y0035062D02*
X0322999Y0035062D01*
X0322201Y0035860D02*
X0318746Y0035860D01*
X0319222Y0036659D02*
X0321725Y0036659D01*
X0321394Y0037457D02*
X0319553Y0037457D01*
X0319626Y0038256D02*
X0321320Y0038256D01*
X0321320Y0039054D02*
X0319626Y0039054D01*
X0319391Y0039853D02*
X0321555Y0039853D01*
X0321886Y0040651D02*
X0319061Y0040651D01*
X0318357Y0041450D02*
X0322590Y0041450D01*
X0323766Y0042248D02*
X0317180Y0042248D01*
X0317939Y0031868D02*
X0323007Y0031868D01*
X0322209Y0031069D02*
X0318738Y0031069D01*
X0319218Y0030271D02*
X0321728Y0030271D01*
X0321397Y0029472D02*
X0319549Y0029472D01*
X0319626Y0028674D02*
X0321320Y0028674D01*
X0321320Y0027875D02*
X0319626Y0027875D01*
X0319395Y0027077D02*
X0321552Y0027077D01*
X0321882Y0026278D02*
X0319064Y0026278D01*
X0318365Y0025480D02*
X0322581Y0025480D01*
X0323746Y0024681D02*
X0317200Y0024681D01*
X0327200Y0024681D02*
X0333746Y0024681D01*
X0332581Y0025480D02*
X0328365Y0025480D01*
X0329064Y0026278D02*
X0331882Y0026278D01*
X0331552Y0027077D02*
X0329395Y0027077D01*
X0329626Y0027875D02*
X0331320Y0027875D01*
X0331320Y0028674D02*
X0329626Y0028674D01*
X0329549Y0029472D02*
X0331397Y0029472D01*
X0331728Y0030271D02*
X0329218Y0030271D01*
X0328738Y0031069D02*
X0332209Y0031069D01*
X0333007Y0031868D02*
X0327939Y0031868D01*
X0337939Y0031868D02*
X0338399Y0031868D01*
X0346494Y0052629D02*
X0347705Y0052629D01*
X0338399Y0066204D02*
X0397899Y0066204D01*
X0397899Y0067002D02*
X0338399Y0067002D01*
X0339068Y0067801D02*
X0397899Y0067801D01*
X0397899Y0068599D02*
X0339867Y0068599D01*
X0340665Y0069398D02*
X0397899Y0069398D01*
X0397899Y0070196D02*
X0341464Y0070196D01*
X0345312Y0070995D02*
X0359193Y0070995D01*
X0358448Y0071793D02*
X0346111Y0071793D01*
X0346909Y0072592D02*
X0358117Y0072592D01*
X0358061Y0073390D02*
X0347708Y0073390D01*
X0348507Y0074189D02*
X0358208Y0074189D01*
X0358613Y0074987D02*
X0349305Y0074987D01*
X0350104Y0075786D02*
X0359612Y0075786D01*
X0361911Y0076584D02*
X0350149Y0076584D01*
X0350149Y0077383D02*
X0361911Y0077383D01*
X0362200Y0078181D02*
X0350149Y0078181D01*
X0350149Y0078980D02*
X0362159Y0078980D01*
X0361911Y0079778D02*
X0350149Y0079778D01*
X0350149Y0080577D02*
X0361911Y0080577D01*
X0362086Y0075786D02*
X0362156Y0075786D01*
X0363490Y0074189D02*
X0364035Y0074189D01*
X0363636Y0073390D02*
X0397899Y0073390D01*
X0397899Y0072592D02*
X0363580Y0072592D01*
X0363250Y0071793D02*
X0397899Y0071793D01*
X0397899Y0070995D02*
X0362504Y0070995D01*
X0365362Y0074189D02*
X0367235Y0074189D01*
X0368562Y0074189D02*
X0370435Y0074189D01*
X0371762Y0074189D02*
X0397899Y0074189D01*
X0397899Y0074987D02*
X0373097Y0074987D01*
X0373641Y0075786D02*
X0397899Y0075786D01*
X0397899Y0076584D02*
X0373886Y0076584D01*
X0373886Y0077383D02*
X0397899Y0077383D01*
X0397899Y0078181D02*
X0373598Y0078181D01*
X0373639Y0078980D02*
X0397899Y0078980D01*
X0397899Y0079778D02*
X0373886Y0079778D01*
X0373886Y0080577D02*
X0397853Y0080577D01*
X0398856Y0082174D02*
X0415549Y0082174D01*
X0415549Y0082972D02*
X0386515Y0082972D01*
X0386786Y0083771D02*
X0415549Y0083771D01*
X0415549Y0084569D02*
X0413107Y0084569D01*
X0412803Y0084444D02*
X0413828Y0084868D01*
X0414612Y0085652D01*
X0415036Y0086677D01*
X0415036Y0087786D01*
X0414612Y0088810D01*
X0413828Y0089594D01*
X0412803Y0090018D01*
X0411694Y0090018D01*
X0410670Y0089594D01*
X0409886Y0088810D01*
X0409461Y0087786D01*
X0409461Y0086677D01*
X0409886Y0085652D01*
X0410670Y0084868D01*
X0411694Y0084444D01*
X0412803Y0084444D01*
X0411391Y0084569D02*
X0399778Y0084569D01*
X0399353Y0084394D02*
X0400378Y0084818D01*
X0401162Y0085602D01*
X0401586Y0086627D01*
X0401586Y0087736D01*
X0401162Y0088760D01*
X0400378Y0089544D01*
X0399353Y0089968D01*
X0398244Y0089968D01*
X0397220Y0089544D01*
X0396436Y0088760D01*
X0396011Y0087736D01*
X0396011Y0086627D01*
X0396436Y0085602D01*
X0397220Y0084818D01*
X0398244Y0084394D01*
X0399353Y0084394D01*
X0397820Y0084569D02*
X0386786Y0084569D01*
X0386524Y0085368D02*
X0396670Y0085368D01*
X0396202Y0086166D02*
X0385955Y0086166D01*
X0384562Y0086965D02*
X0396011Y0086965D01*
X0396023Y0087763D02*
X0333173Y0087763D01*
X0333512Y0088102D02*
X0333936Y0089127D01*
X0333936Y0090236D01*
X0333512Y0091260D01*
X0332728Y0092044D01*
X0331703Y0092468D01*
X0330594Y0092468D01*
X0329570Y0092044D01*
X0328786Y0091260D01*
X0328361Y0090236D01*
X0328361Y0089127D01*
X0328786Y0088102D01*
X0329570Y0087318D01*
X0330594Y0086894D01*
X0331703Y0086894D01*
X0332728Y0087318D01*
X0333512Y0088102D01*
X0333702Y0088562D02*
X0396354Y0088562D01*
X0397036Y0089361D02*
X0333936Y0089361D01*
X0333936Y0090159D02*
X0415549Y0090159D01*
X0415549Y0089361D02*
X0414061Y0089361D01*
X0414715Y0088562D02*
X0415549Y0088562D01*
X0415549Y0087763D02*
X0415036Y0087763D01*
X0415036Y0086965D02*
X0415549Y0086965D01*
X0415549Y0086166D02*
X0414825Y0086166D01*
X0414328Y0085368D02*
X0415549Y0085368D01*
X0411978Y0081544D02*
X0410953Y0081968D01*
X0409844Y0081968D01*
X0408820Y0081544D01*
X0408036Y0080760D01*
X0407611Y0079736D01*
X0407611Y0078627D01*
X0408036Y0077602D01*
X0408820Y0076818D01*
X0409844Y0076394D01*
X0410953Y0076394D01*
X0411978Y0076818D01*
X0412762Y0077602D01*
X0413186Y0078627D01*
X0413186Y0079736D01*
X0412762Y0080760D01*
X0411978Y0081544D01*
X0412146Y0081375D02*
X0415549Y0081375D01*
X0415549Y0080577D02*
X0412838Y0080577D01*
X0413168Y0079778D02*
X0415549Y0079778D01*
X0415549Y0078980D02*
X0413186Y0078980D01*
X0413002Y0078181D02*
X0415549Y0078181D01*
X0415549Y0077383D02*
X0412543Y0077383D01*
X0411413Y0076584D02*
X0415549Y0076584D01*
X0415549Y0075786D02*
X0399799Y0075786D01*
X0399799Y0076584D02*
X0409384Y0076584D01*
X0408255Y0077383D02*
X0399799Y0077383D01*
X0399799Y0078181D02*
X0407796Y0078181D01*
X0407611Y0078980D02*
X0399799Y0078980D01*
X0399799Y0079778D02*
X0407629Y0079778D01*
X0407960Y0080577D02*
X0399799Y0080577D01*
X0399655Y0081375D02*
X0408651Y0081375D01*
X0410170Y0085368D02*
X0400928Y0085368D01*
X0401396Y0086166D02*
X0409673Y0086166D01*
X0409461Y0086965D02*
X0401586Y0086965D01*
X0401575Y0087763D02*
X0409461Y0087763D01*
X0409783Y0088562D02*
X0401244Y0088562D01*
X0400561Y0089361D02*
X0410436Y0089361D01*
X0415549Y0090958D02*
X0353017Y0090958D01*
X0352778Y0090718D02*
X0353562Y0091502D01*
X0353986Y0092527D01*
X0353986Y0093636D01*
X0353562Y0094660D01*
X0352778Y0095444D01*
X0351753Y0095868D01*
X0350644Y0095868D01*
X0349620Y0095444D01*
X0348836Y0094660D01*
X0348411Y0093636D01*
X0348411Y0092527D01*
X0348836Y0091502D01*
X0349620Y0090718D01*
X0350644Y0090294D01*
X0351753Y0090294D01*
X0352778Y0090718D01*
X0353667Y0091756D02*
X0415549Y0091756D01*
X0415549Y0092555D02*
X0353986Y0092555D01*
X0353986Y0093353D02*
X0415549Y0093353D01*
X0415549Y0094152D02*
X0353772Y0094152D01*
X0353272Y0094950D02*
X0414788Y0094950D01*
X0414017Y0095749D02*
X0352043Y0095749D01*
X0351703Y0096244D02*
X0352728Y0096668D01*
X0353512Y0097452D01*
X0353936Y0098477D01*
X0353936Y0099586D01*
X0353512Y0100610D01*
X0352728Y0101394D01*
X0351703Y0101818D01*
X0350594Y0101818D01*
X0349570Y0101394D01*
X0348786Y0100610D01*
X0348361Y0099586D01*
X0348361Y0098477D01*
X0348786Y0097452D01*
X0349570Y0096668D01*
X0350594Y0096244D01*
X0351703Y0096244D01*
X0352436Y0096547D02*
X0413686Y0096547D01*
X0413611Y0097346D02*
X0353405Y0097346D01*
X0353798Y0098144D02*
X0413739Y0098144D01*
X0414118Y0098943D02*
X0353936Y0098943D01*
X0353872Y0099741D02*
X0415054Y0099741D01*
X0415549Y0100540D02*
X0353541Y0100540D01*
X0352784Y0101338D02*
X0408646Y0101338D01*
X0408994Y0101194D02*
X0410103Y0101194D01*
X0411128Y0101618D01*
X0411912Y0102402D01*
X0412336Y0103427D01*
X0412336Y0104536D01*
X0411912Y0105560D01*
X0411128Y0106344D01*
X0410103Y0106768D01*
X0408994Y0106768D01*
X0407970Y0106344D01*
X0407186Y0105560D01*
X0406761Y0104536D01*
X0406761Y0103427D01*
X0407186Y0102402D01*
X0407970Y0101618D01*
X0408994Y0101194D01*
X0410452Y0101338D02*
X0415549Y0101338D01*
X0415549Y0102137D02*
X0411646Y0102137D01*
X0412133Y0102935D02*
X0415549Y0102935D01*
X0415549Y0103734D02*
X0412336Y0103734D01*
X0412336Y0104532D02*
X0415549Y0104532D01*
X0415549Y0105331D02*
X0412007Y0105331D01*
X0411343Y0106129D02*
X0415549Y0106129D01*
X0415549Y0106928D02*
X0402248Y0106928D01*
X0402286Y0106836D02*
X0401862Y0107860D01*
X0401078Y0108644D01*
X0400053Y0109068D01*
X0398944Y0109068D01*
X0397920Y0108644D01*
X0397136Y0107860D01*
X0396711Y0106836D01*
X0396711Y0105727D01*
X0397136Y0104702D01*
X0397920Y0103918D01*
X0398944Y0103494D01*
X0400053Y0103494D01*
X0401078Y0103918D01*
X0401862Y0104702D01*
X0402286Y0105727D01*
X0402286Y0106836D01*
X0402286Y0106129D02*
X0407755Y0106129D01*
X0407091Y0105331D02*
X0402122Y0105331D01*
X0401692Y0104532D02*
X0406761Y0104532D01*
X0406761Y0103734D02*
X0400633Y0103734D01*
X0398365Y0103734D02*
X0328143Y0103734D01*
X0328807Y0104532D02*
X0397306Y0104532D01*
X0396875Y0105331D02*
X0329136Y0105331D01*
X0329136Y0106129D02*
X0396711Y0106129D01*
X0396750Y0106928D02*
X0328932Y0106928D01*
X0323765Y0106928D02*
X0309799Y0106928D01*
X0309799Y0106129D02*
X0323561Y0106129D01*
X0323561Y0105331D02*
X0309799Y0105331D01*
X0309799Y0104532D02*
X0323890Y0104532D01*
X0324554Y0103734D02*
X0309799Y0103734D01*
X0309799Y0102935D02*
X0406965Y0102935D01*
X0407451Y0102137D02*
X0309799Y0102137D01*
X0309799Y0101338D02*
X0349514Y0101338D01*
X0348757Y0100540D02*
X0309799Y0100540D01*
X0309799Y0099741D02*
X0348426Y0099741D01*
X0348361Y0098943D02*
X0309799Y0098943D01*
X0309799Y0098144D02*
X0348499Y0098144D01*
X0348892Y0097346D02*
X0309799Y0097346D01*
X0313425Y0096547D02*
X0349862Y0096547D01*
X0350355Y0095749D02*
X0314012Y0095749D01*
X0314286Y0094950D02*
X0349126Y0094950D01*
X0348625Y0094152D02*
X0314286Y0094152D01*
X0314028Y0093353D02*
X0348411Y0093353D01*
X0348411Y0092555D02*
X0313464Y0092555D01*
X0312083Y0091756D02*
X0329282Y0091756D01*
X0328660Y0090958D02*
X0305449Y0090958D01*
X0305449Y0091756D02*
X0310915Y0091756D01*
X0309533Y0092555D02*
X0305449Y0092555D01*
X0305449Y0093353D02*
X0308970Y0093353D01*
X0305449Y0090159D02*
X0328361Y0090159D01*
X0328361Y0089361D02*
X0305449Y0089361D01*
X0305449Y0088562D02*
X0328595Y0088562D01*
X0329124Y0087763D02*
X0305449Y0087763D01*
X0305449Y0086965D02*
X0330422Y0086965D01*
X0331875Y0086965D02*
X0383436Y0086965D01*
X0382042Y0086166D02*
X0305383Y0086166D01*
X0305053Y0085368D02*
X0381473Y0085368D01*
X0381211Y0084569D02*
X0304297Y0084569D01*
X0301001Y0084569D02*
X0296429Y0084569D01*
X0297072Y0085368D02*
X0300245Y0085368D01*
X0299914Y0086166D02*
X0297386Y0086166D01*
X0297386Y0086965D02*
X0299849Y0086965D01*
X0299849Y0087763D02*
X0297168Y0087763D01*
X0296660Y0088562D02*
X0299849Y0088562D01*
X0299849Y0095749D02*
X0291258Y0095749D01*
X0291884Y0096547D02*
X0299849Y0096547D01*
X0299849Y0097346D02*
X0292186Y0097346D01*
X0292186Y0098144D02*
X0299849Y0098144D01*
X0299849Y0098943D02*
X0291955Y0098943D01*
X0291431Y0099741D02*
X0299849Y0099741D01*
X0299849Y0100540D02*
X0290144Y0100540D01*
X0288654Y0100540D02*
X0287094Y0100540D01*
X0285604Y0100540D02*
X0281999Y0100540D01*
X0281999Y0101338D02*
X0299849Y0101338D01*
X0299849Y0102137D02*
X0281999Y0102137D01*
X0281999Y0102935D02*
X0299849Y0102935D01*
X0299849Y0103734D02*
X0281999Y0103734D01*
X0281999Y0104532D02*
X0299849Y0104532D01*
X0299849Y0105331D02*
X0281999Y0105331D01*
X0282747Y0106129D02*
X0299849Y0106129D01*
X0299849Y0106928D02*
X0283545Y0106928D01*
X0284499Y0116681D02*
X0286599Y0118781D01*
X0286599Y0126031D01*
X0293949Y0133381D01*
X0293949Y0243581D01*
X0310499Y0260131D01*
X0310499Y0277738D01*
X0315473Y0282713D01*
X0320449Y0277688D02*
X0320449Y0265481D01*
X0297149Y0242181D01*
X0297149Y0121531D01*
X0295949Y0120331D01*
X0289799Y0125181D02*
X0295549Y0130931D01*
X0295549Y0242881D01*
X0315473Y0262806D01*
X0315473Y0272713D01*
X0322349Y0269588D02*
X0322349Y0192081D01*
X0317949Y0187681D01*
X0317949Y0182681D01*
X0321299Y0179781D02*
X0322149Y0178931D01*
X0321299Y0179781D02*
X0321299Y0188731D01*
X0328449Y0195881D01*
X0328449Y0268631D01*
X0330699Y0270881D01*
X0330699Y0275331D01*
X0335473Y0280106D01*
X0335473Y0282713D01*
X0325473Y0282713D02*
X0320449Y0277688D01*
X0325473Y0272713D02*
X0322349Y0269588D01*
X0330099Y0267338D02*
X0335473Y0272713D01*
X0330099Y0267338D02*
X0330099Y0195181D01*
X0324149Y0189231D01*
X0324149Y0182581D01*
X0330749Y0181031D02*
X0335599Y0176181D01*
X0335599Y0146231D01*
X0370249Y0145731D02*
X0373699Y0149181D01*
X0373699Y0183431D01*
X0378799Y0188531D01*
X0383299Y0188531D01*
X0398049Y0203281D01*
X0392999Y0211031D02*
X0372349Y0211031D01*
X0333099Y0250281D01*
X0333099Y0251981D01*
X0350499Y0254081D02*
X0360999Y0243581D01*
X0382499Y0243581D01*
X0428849Y0197231D01*
X0428849Y0174031D01*
X0447249Y0155631D01*
X0447249Y0114381D01*
X0461399Y0119631D02*
X0463399Y0117631D01*
X0461399Y0119631D02*
X0461399Y0158731D01*
X0457599Y0162531D01*
X0447099Y0162531D01*
X0433649Y0175981D01*
X0433649Y0199231D01*
X0400449Y0232431D01*
X0400449Y0252981D01*
X0397449Y0255981D01*
X0397449Y0256081D01*
X0397599Y0251881D02*
X0397599Y0232981D01*
X0432049Y0198531D01*
X0432049Y0175331D01*
X0447799Y0159581D01*
X0449499Y0159581D01*
X0448349Y0156781D02*
X0456749Y0156781D01*
X0458049Y0158081D01*
X0448349Y0156781D02*
X0430449Y0174681D01*
X0430449Y0197881D01*
X0383149Y0245181D01*
X0363449Y0245181D01*
X0354499Y0254131D01*
X0304549Y0258981D02*
X0304549Y0271788D01*
X0305473Y0272713D01*
X0300499Y0277738D02*
X0300499Y0252381D01*
X0292349Y0244231D01*
X0292349Y0134031D01*
X0283599Y0125281D01*
X0283599Y0125081D01*
X0256099Y0124931D02*
X0256099Y0191081D01*
X0260049Y0195031D01*
X0260049Y0250531D01*
X0264249Y0254731D01*
X0268249Y0254831D02*
X0257349Y0265731D01*
X0252455Y0265731D01*
X0245473Y0272713D01*
X0240449Y0269681D02*
X0249599Y0260531D01*
X0249599Y0191231D01*
X0245599Y0191231D02*
X0244399Y0190031D01*
X0244399Y0113531D01*
X0240649Y0109781D01*
X0237849Y0106981D01*
X0237849Y0089531D01*
X0239149Y0069631D02*
X0236299Y0066781D01*
X0236299Y0050831D01*
X0225473Y0038461D02*
X0221099Y0042835D01*
X0221099Y0195581D01*
X0233749Y0208231D01*
X0238299Y0208231D01*
X0255399Y0209681D02*
X0255399Y0249981D01*
X0260199Y0254781D01*
X0265473Y0262057D02*
X0272349Y0255181D01*
X0275473Y0256107D02*
X0276449Y0255131D01*
X0275473Y0256107D02*
X0275473Y0272713D01*
X0265473Y0272713D02*
X0265473Y0262057D01*
X0280499Y0267181D02*
X0293599Y0254081D01*
X0297849Y0254131D02*
X0290499Y0261481D01*
X0290499Y0277738D01*
X0295473Y0282713D01*
X0300499Y0277738D02*
X0305473Y0282713D01*
X0285473Y0282713D02*
X0280499Y0277738D01*
X0280499Y0267181D01*
X0240449Y0269681D02*
X0240449Y0277737D01*
X0235473Y0282713D01*
X0225473Y0282713D02*
X0220549Y0277788D01*
X0220549Y0211581D01*
X0219499Y0207831D02*
X0215749Y0211581D01*
X0215749Y0248231D01*
X0219499Y0207831D02*
X0219499Y0042131D01*
X0220399Y0041231D01*
X0220399Y0034731D01*
X0225473Y0029657D01*
X0225473Y0028461D01*
X0229949Y0065981D02*
X0227849Y0068081D01*
X0227849Y0181881D01*
X0237249Y0191281D01*
X0241199Y0192531D02*
X0241199Y0189581D01*
X0236649Y0185031D01*
X0236649Y0125731D01*
X0236649Y0109981D01*
X0312045Y0080577D02*
X0348549Y0080577D01*
X0348549Y0079778D02*
X0312649Y0079778D01*
X0312936Y0078980D02*
X0348549Y0078980D01*
X0348549Y0078181D02*
X0312936Y0078181D01*
X0312690Y0077383D02*
X0348549Y0077383D01*
X0348549Y0076584D02*
X0312144Y0076584D01*
X0333016Y0091756D02*
X0348731Y0091756D01*
X0349380Y0090958D02*
X0333637Y0090958D01*
X0345336Y0075786D02*
X0347804Y0075786D01*
X0347005Y0074987D02*
X0346121Y0074987D01*
X0397488Y0060614D02*
X0397899Y0060614D01*
X0400988Y0072592D02*
X0414509Y0072592D01*
X0415308Y0073390D02*
X0400190Y0073390D01*
X0399799Y0074189D02*
X0415549Y0074189D01*
X0415549Y0074987D02*
X0399799Y0074987D01*
X0401917Y0107726D02*
X0406354Y0107726D01*
X0406794Y0107544D02*
X0407903Y0107544D01*
X0408928Y0107968D01*
X0409712Y0108752D01*
X0410136Y0109777D01*
X0410136Y0110886D01*
X0409724Y0111881D01*
X0410136Y0112877D01*
X0410136Y0113986D01*
X0409712Y0115010D01*
X0408928Y0115794D01*
X0407903Y0116218D01*
X0406794Y0116218D01*
X0405770Y0115794D01*
X0404986Y0115010D01*
X0404561Y0113986D01*
X0404561Y0112877D01*
X0404974Y0111881D01*
X0404561Y0110886D01*
X0404561Y0109777D01*
X0404986Y0108752D01*
X0405770Y0107968D01*
X0406794Y0107544D01*
X0408344Y0107726D02*
X0415549Y0107726D01*
X0415549Y0108525D02*
X0409484Y0108525D01*
X0409948Y0109323D02*
X0415549Y0109323D01*
X0415549Y0110122D02*
X0410136Y0110122D01*
X0410122Y0110920D02*
X0415549Y0110920D01*
X0415549Y0111719D02*
X0409791Y0111719D01*
X0409987Y0112517D02*
X0415549Y0112517D01*
X0415549Y0113316D02*
X0410136Y0113316D01*
X0410083Y0114114D02*
X0415549Y0114114D01*
X0415549Y0114913D02*
X0409752Y0114913D01*
X0409010Y0115711D02*
X0414969Y0115711D01*
X0405687Y0115711D02*
X0394729Y0115711D01*
X0393931Y0114913D02*
X0404946Y0114913D01*
X0404615Y0114114D02*
X0393132Y0114114D01*
X0392334Y0113316D02*
X0404561Y0113316D01*
X0404710Y0112517D02*
X0391535Y0112517D01*
X0390737Y0111719D02*
X0404907Y0111719D01*
X0404576Y0110920D02*
X0389938Y0110920D01*
X0389140Y0110122D02*
X0404561Y0110122D01*
X0404749Y0109323D02*
X0388341Y0109323D01*
X0387543Y0108525D02*
X0397801Y0108525D01*
X0397080Y0107726D02*
X0386744Y0107726D01*
X0401197Y0108525D02*
X0405213Y0108525D01*
X0370249Y0145531D02*
X0370249Y0145731D01*
X0435249Y0176681D02*
X0440949Y0170981D01*
X0484999Y0170981D01*
X0503749Y0152231D01*
X0503749Y0151631D01*
X0435249Y0176681D02*
X0435249Y0199881D01*
X0404049Y0231081D01*
X0404049Y0262781D01*
X0421299Y0255881D02*
X0425999Y0251181D01*
X0529749Y0251181D01*
X0542349Y0238581D01*
X0542349Y0231231D01*
X0545799Y0237731D02*
X0530699Y0252831D01*
X0428499Y0252831D01*
X0425549Y0255781D01*
X0429799Y0255631D02*
X0430999Y0254431D01*
X0531549Y0254431D01*
X0546985Y0238995D01*
X0553099Y0238995D01*
X0545799Y0237731D02*
X0545799Y0216767D01*
X0553099Y0209467D01*
X0435949Y0240431D02*
X0435699Y0240431D01*
X0434649Y0241481D01*
X0384299Y0200131D02*
X0380699Y0203731D01*
X0347649Y0203731D01*
X0341649Y0209731D01*
X0336699Y0209731D01*
D23*
X0369499Y0178431D02*
X0367399Y0176331D01*
X0367399Y0158281D01*
X0332249Y0158281D02*
X0332249Y0172331D01*
X0327299Y0177281D01*
X0267999Y0199181D02*
X0267999Y0209681D01*
X0406149Y0174081D02*
X0406149Y0154281D01*
D24*
X0388949Y0165031D02*
X0388949Y0181481D01*
X0392249Y0178781D02*
X0392249Y0167881D01*
X0381499Y0167881D02*
X0381499Y0145681D01*
X0380999Y0145181D01*
X0375749Y0147281D02*
X0375749Y0181031D01*
X0377449Y0182731D01*
X0377449Y0182708D01*
X0381499Y0178831D02*
X0381499Y0167881D01*
X0358999Y0183131D02*
X0356049Y0180181D01*
X0356049Y0149331D01*
X0353099Y0146381D01*
X0341449Y0144981D02*
X0335649Y0139181D01*
X0341449Y0144981D02*
X0341449Y0162281D01*
X0341449Y0178781D01*
X0341499Y0178831D01*
X0352049Y0178831D02*
X0352049Y0167881D01*
X0374799Y0146331D02*
X0375749Y0147281D01*
D25*
X0493020Y0209467D02*
X0509199Y0193289D01*
X0509199Y0077231D01*
X0513499Y0072931D01*
X0516599Y0072931D01*
X0547249Y0065231D02*
X0550349Y0065231D01*
X0547249Y0065231D02*
X0547249Y0176931D01*
X0547249Y0184031D01*
X0541649Y0189631D01*
X0541599Y0189631D01*
X0541649Y0189631D02*
X0506299Y0224981D01*
X0451399Y0224981D01*
X0435949Y0240431D01*
D26*
X0111949Y0252272D02*
X0111949Y0201631D01*
D27*
X0131670Y0181910D01*
X0140735Y0181910D01*
M02*
