G75*
%MOIN*%
%OFA0B0*%
%FSLAX25Y25*%
%IPPOS*%
%LPD*%
%AMOC8*
5,1,8,0,0,1.08239X$1,22.5*
%
%ADD10C,0.00500*%
%ADD11C,0.00800*%
%ADD12C,0.00300*%
%ADD13C,0.00400*%
%ADD14C,0.00600*%
%ADD15C,0.00200*%
%ADD16R,0.04500X0.02500*%
%ADD17R,0.16000X0.02500*%
%ADD18R,0.02000X0.40000*%
%ADD19R,0.03000X0.19000*%
%ADD20R,0.03000X0.01512*%
%ADD21R,0.05512X0.01756*%
%ADD22C,0.01000*%
%ADD23C,0.00100*%
%ADD24R,0.05512X0.00787*%
%ADD25R,0.01512X0.03000*%
%ADD26R,0.02500X0.04500*%
%ADD27R,0.02500X0.16000*%
%ADD28R,0.40000X0.02000*%
%ADD29R,0.19000X0.03000*%
%ADD30R,0.09000X0.01750*%
%ADD31R,0.09000X0.00600*%
%ADD32R,0.14961X0.03150*%
%ADD33R,0.03150X0.14961*%
%ADD34R,0.04331X0.03150*%
%ADD35C,0.01600*%
D10*
X0067049Y0028582D02*
X0067049Y0030084D01*
X0068550Y0031585D01*
X0070118Y0030834D02*
X0070869Y0031585D01*
X0072370Y0031585D01*
X0073121Y0030834D01*
X0070118Y0027832D01*
X0070869Y0027081D01*
X0072370Y0027081D01*
X0073121Y0027832D01*
X0073121Y0030834D01*
X0074722Y0030084D02*
X0076223Y0031585D01*
X0076223Y0027081D01*
X0074722Y0027081D02*
X0077725Y0027081D01*
X0079326Y0027081D02*
X0082329Y0031585D01*
X0083930Y0030834D02*
X0084681Y0031585D01*
X0086182Y0031585D01*
X0086932Y0030834D01*
X0086932Y0030084D01*
X0083930Y0027081D01*
X0086932Y0027081D01*
X0088534Y0027832D02*
X0091536Y0030834D01*
X0091536Y0027832D01*
X0090786Y0027081D01*
X0089284Y0027081D01*
X0088534Y0027832D01*
X0088534Y0030834D01*
X0089284Y0031585D01*
X0090786Y0031585D01*
X0091536Y0030834D01*
X0093138Y0030834D02*
X0093888Y0031585D01*
X0095390Y0031585D01*
X0096140Y0030834D01*
X0096140Y0030084D01*
X0093138Y0027081D01*
X0096140Y0027081D01*
X0097742Y0027081D02*
X0100744Y0027081D01*
X0099243Y0027081D02*
X0099243Y0031585D01*
X0097742Y0030084D01*
X0095390Y0034581D02*
X0093138Y0034581D01*
X0093138Y0039085D01*
X0095390Y0039085D01*
X0096140Y0038334D01*
X0096140Y0037584D01*
X0095390Y0036833D01*
X0093138Y0036833D01*
X0095390Y0036833D02*
X0096140Y0036082D01*
X0096140Y0035332D01*
X0095390Y0034581D01*
X0091570Y0034581D02*
X0090068Y0034581D01*
X0090819Y0034581D02*
X0090819Y0039085D01*
X0090068Y0039085D02*
X0091570Y0039085D01*
X0088467Y0038334D02*
X0088467Y0035332D01*
X0087716Y0034581D01*
X0085465Y0034581D01*
X0085465Y0039085D01*
X0087716Y0039085D01*
X0088467Y0038334D01*
X0079259Y0038334D02*
X0076257Y0035332D01*
X0076257Y0034581D01*
X0079259Y0034581D01*
X0074655Y0034581D02*
X0071653Y0034581D01*
X0071653Y0039085D01*
X0074655Y0039085D01*
X0076257Y0039085D02*
X0079259Y0039085D01*
X0079259Y0038334D01*
X0073154Y0036833D02*
X0071653Y0036833D01*
X0070051Y0034581D02*
X0067049Y0034581D01*
X0067049Y0039085D01*
X0070051Y0039085D01*
X0068550Y0036833D02*
X0067049Y0036833D01*
X0070118Y0030834D02*
X0070118Y0027832D01*
X0068550Y0027081D02*
X0067049Y0028582D01*
X0059769Y0038595D02*
X0051029Y0038595D01*
X0051029Y0058067D01*
X0059769Y0058067D01*
X0059769Y0038595D01*
X0047142Y0035088D02*
X0047142Y0045474D01*
X0040556Y0045474D02*
X0040556Y0035088D01*
X0037914Y0035173D02*
X0037914Y0159858D01*
X0037340Y0161584D02*
X0034337Y0161584D01*
X0035839Y0161584D02*
X0035839Y0166088D01*
X0034337Y0164586D01*
X0032736Y0166088D02*
X0029733Y0161584D01*
X0032736Y0161584D02*
X0029733Y0166088D01*
X0043229Y0152867D02*
X0051969Y0152867D01*
X0051969Y0133395D01*
X0043229Y0133395D01*
X0043229Y0152867D01*
X0043179Y0133417D02*
X0051919Y0133417D01*
X0051919Y0113945D01*
X0043179Y0113945D01*
X0043179Y0133417D01*
X0106491Y0150731D02*
X0106491Y0155235D01*
X0109494Y0155235D01*
X0111095Y0154484D02*
X0111846Y0155235D01*
X0113347Y0155235D01*
X0114097Y0154484D01*
X0114097Y0153734D01*
X0113347Y0152983D01*
X0114097Y0152232D01*
X0114097Y0151482D01*
X0113347Y0150731D01*
X0111846Y0150731D01*
X0111095Y0151482D01*
X0112596Y0152983D02*
X0113347Y0152983D01*
X0107992Y0152983D02*
X0106491Y0152983D01*
X0149463Y0111901D02*
X0168935Y0111901D01*
X0168935Y0103161D01*
X0149463Y0103161D01*
X0149463Y0111901D01*
X0137485Y0101701D02*
X0137485Y0092961D01*
X0118013Y0092961D01*
X0118013Y0101701D01*
X0137485Y0101701D01*
X0118035Y0101701D02*
X0118035Y0092961D01*
X0098563Y0092961D01*
X0098563Y0101701D01*
X0118035Y0101701D01*
X0113463Y0088801D02*
X0132935Y0088801D01*
X0132935Y0080061D01*
X0113463Y0080061D01*
X0113463Y0088801D01*
X0113435Y0088801D02*
X0113435Y0080061D01*
X0093963Y0080061D01*
X0093963Y0088801D01*
X0113435Y0088801D01*
X0093935Y0088801D02*
X0093935Y0080061D01*
X0074463Y0080061D01*
X0074463Y0088801D01*
X0093935Y0088801D01*
X0074435Y0088801D02*
X0074435Y0080061D01*
X0054963Y0080061D01*
X0054963Y0088801D01*
X0074435Y0088801D01*
X0053192Y0086524D02*
X0042806Y0086524D01*
X0042806Y0079938D02*
X0053192Y0079938D01*
X0082163Y0071251D02*
X0101635Y0071251D01*
X0101635Y0062511D01*
X0082163Y0062511D01*
X0082163Y0071251D01*
X0101663Y0071251D02*
X0101663Y0062511D01*
X0121135Y0062511D01*
X0121135Y0071251D01*
X0101663Y0071251D01*
X0098763Y0058051D02*
X0118235Y0058051D01*
X0118235Y0049311D01*
X0098763Y0049311D01*
X0098763Y0058051D01*
X0098735Y0058051D02*
X0098735Y0049311D01*
X0079263Y0049311D01*
X0079263Y0058051D01*
X0098735Y0058051D01*
X0079235Y0058051D02*
X0079235Y0049311D01*
X0059763Y0049311D01*
X0059763Y0058051D01*
X0079235Y0058051D01*
X0102346Y0037584D02*
X0103847Y0039085D01*
X0105348Y0037584D01*
X0105348Y0034581D01*
X0106949Y0034581D02*
X0106949Y0039085D01*
X0109952Y0039085D01*
X0111553Y0039085D02*
X0111553Y0034581D01*
X0114556Y0034581D01*
X0116157Y0034581D02*
X0119160Y0034581D01*
X0117659Y0034581D02*
X0117659Y0039085D01*
X0116157Y0037584D01*
X0114556Y0039085D02*
X0111553Y0039085D01*
X0111553Y0036833D02*
X0113055Y0036833D01*
X0108451Y0036833D02*
X0106949Y0036833D01*
X0105348Y0036833D02*
X0102346Y0036833D01*
X0102346Y0037584D02*
X0102346Y0034581D01*
X0106949Y0030084D02*
X0106949Y0027081D01*
X0106949Y0028582D02*
X0108451Y0030084D01*
X0109201Y0030084D01*
X0110786Y0030084D02*
X0112287Y0031585D01*
X0112287Y0027081D01*
X0110786Y0027081D02*
X0113789Y0027081D01*
X0115390Y0027081D02*
X0115390Y0031585D01*
X0117642Y0031585D01*
X0118393Y0030834D01*
X0118393Y0030084D01*
X0117642Y0029333D01*
X0115390Y0029333D01*
X0115390Y0027081D02*
X0117642Y0027081D01*
X0118393Y0027832D01*
X0118393Y0028582D01*
X0117642Y0029333D01*
X0119994Y0027832D02*
X0120745Y0027081D01*
X0122246Y0027081D01*
X0122997Y0027832D01*
X0122997Y0028582D01*
X0122246Y0029333D01*
X0121495Y0029333D01*
X0122246Y0029333D02*
X0122997Y0030084D01*
X0122997Y0030834D01*
X0122246Y0031585D01*
X0120745Y0031585D01*
X0119994Y0030834D01*
X0124598Y0031585D02*
X0126099Y0030084D01*
X0126099Y0028582D01*
X0124598Y0027081D01*
X0118263Y0049311D02*
X0118263Y0058051D01*
X0137735Y0058051D01*
X0137735Y0049311D01*
X0118263Y0049311D01*
X0137729Y0049945D02*
X0137729Y0069417D01*
X0146469Y0069417D01*
X0146469Y0049945D01*
X0137729Y0049945D01*
X0151663Y0053111D02*
X0151663Y0061851D01*
X0171135Y0061851D01*
X0171135Y0053111D01*
X0151663Y0053111D01*
X0203663Y0036181D02*
X0206665Y0031678D01*
X0208267Y0031678D02*
X0211269Y0034680D01*
X0211269Y0035431D01*
X0210518Y0036181D01*
X0209017Y0036181D01*
X0208267Y0035431D01*
X0206665Y0036181D02*
X0203663Y0031678D01*
X0208267Y0031678D02*
X0211269Y0031678D01*
X0227679Y0047413D02*
X0235419Y0047413D01*
X0235419Y0062949D01*
X0227679Y0062949D01*
X0227679Y0047413D01*
X0227679Y0068363D02*
X0227679Y0083899D01*
X0235419Y0083899D01*
X0235419Y0068363D01*
X0227679Y0068363D01*
X0227679Y0093313D02*
X0227679Y0108849D01*
X0235419Y0108849D01*
X0235419Y0093313D01*
X0227679Y0093313D01*
X0227679Y0109513D02*
X0235419Y0109513D01*
X0235419Y0125049D01*
X0227679Y0125049D01*
X0227679Y0109513D01*
X0263581Y0132311D02*
X0263581Y0140051D01*
X0279117Y0140051D01*
X0279117Y0132311D01*
X0263581Y0132311D01*
X0261613Y0140061D02*
X0261613Y0149301D01*
X0281085Y0149301D01*
X0281085Y0140061D01*
X0261613Y0140061D01*
X0261663Y0151311D02*
X0261663Y0160051D01*
X0281135Y0160051D01*
X0281135Y0151311D01*
X0261663Y0151311D01*
X0261563Y0161661D02*
X0261563Y0170401D01*
X0281035Y0170401D01*
X0281035Y0161661D01*
X0261563Y0161661D01*
X0261563Y0172511D02*
X0261563Y0181751D01*
X0281035Y0181751D01*
X0281035Y0172511D01*
X0261563Y0172511D01*
X0263531Y0181761D02*
X0263531Y0189501D01*
X0279067Y0189501D01*
X0279067Y0181761D01*
X0263531Y0181761D01*
X0237006Y0202289D02*
X0221392Y0202289D01*
X0221392Y0233573D01*
X0237006Y0233573D01*
X0237006Y0202289D01*
X0286100Y0209261D02*
X0286100Y0216001D01*
X0298698Y0216001D01*
X0298698Y0209261D01*
X0286100Y0209261D01*
X0286031Y0216011D02*
X0286031Y0223751D01*
X0301567Y0223751D01*
X0301567Y0216011D01*
X0286031Y0216011D01*
X0319179Y0220180D02*
X0319179Y0207582D01*
X0325919Y0207582D01*
X0325919Y0220180D01*
X0319179Y0220180D01*
X0327479Y0222449D02*
X0335219Y0222449D01*
X0335219Y0206913D01*
X0327479Y0206913D01*
X0327479Y0222449D01*
X0336613Y0222711D02*
X0336613Y0231451D01*
X0356085Y0231451D01*
X0356085Y0222711D01*
X0336613Y0222711D01*
X0340010Y0219367D02*
X0352687Y0219367D01*
X0352687Y0199895D01*
X0340010Y0199895D01*
X0340010Y0219367D01*
X0372299Y0229281D02*
X0373800Y0229281D01*
X0373049Y0229281D02*
X0373049Y0233785D01*
X0372299Y0233785D02*
X0373800Y0233785D01*
X0375368Y0233034D02*
X0376119Y0233785D01*
X0377620Y0233785D01*
X0378371Y0233034D01*
X0379972Y0233785D02*
X0382975Y0233785D01*
X0382975Y0233034D01*
X0379972Y0230032D01*
X0379972Y0229281D01*
X0378371Y0230032D02*
X0377620Y0229281D01*
X0376119Y0229281D01*
X0375368Y0230032D01*
X0375368Y0233034D01*
X0398529Y0238267D02*
X0398529Y0218795D01*
X0407269Y0218795D01*
X0407269Y0238267D01*
X0398529Y0238267D01*
X0407329Y0238267D02*
X0416069Y0238267D01*
X0416069Y0218795D01*
X0407329Y0218795D01*
X0407329Y0238267D01*
X0428392Y0241173D02*
X0444006Y0241173D01*
X0444006Y0209889D01*
X0428392Y0209889D01*
X0428392Y0241173D01*
X0427624Y0261931D02*
X0426123Y0261931D01*
X0425372Y0262682D01*
X0423771Y0262682D02*
X0423020Y0261931D01*
X0421519Y0261931D01*
X0420768Y0262682D01*
X0420768Y0265684D01*
X0421519Y0266435D01*
X0423020Y0266435D01*
X0423771Y0265684D01*
X0425372Y0265684D02*
X0426123Y0266435D01*
X0427624Y0266435D01*
X0428375Y0265684D01*
X0428375Y0264934D01*
X0427624Y0264183D01*
X0428375Y0263432D01*
X0428375Y0262682D01*
X0427624Y0261931D01*
X0427624Y0264183D02*
X0426873Y0264183D01*
X0419200Y0261931D02*
X0417699Y0261931D01*
X0418449Y0261931D02*
X0418449Y0266435D01*
X0417699Y0266435D02*
X0419200Y0266435D01*
X0419185Y0218751D02*
X0399713Y0218751D01*
X0399713Y0210011D01*
X0419185Y0210011D01*
X0419185Y0218751D01*
X0419185Y0210051D02*
X0419185Y0201311D01*
X0399713Y0201311D01*
X0399713Y0210051D01*
X0419185Y0210051D01*
X0429187Y0208885D02*
X0429187Y0204381D01*
X0429187Y0205882D02*
X0431439Y0205882D01*
X0432190Y0206633D01*
X0432190Y0208134D01*
X0431439Y0208885D01*
X0429187Y0208885D01*
X0430688Y0205882D02*
X0432190Y0204381D01*
X0433791Y0206633D02*
X0436794Y0206633D01*
X0438395Y0206633D02*
X0440647Y0206633D01*
X0441397Y0205882D01*
X0441397Y0205132D01*
X0440647Y0204381D01*
X0439146Y0204381D01*
X0438395Y0205132D01*
X0438395Y0206633D01*
X0439896Y0208134D01*
X0441397Y0208885D01*
X0436043Y0208885D02*
X0436043Y0204381D01*
X0433791Y0206633D02*
X0436043Y0208885D01*
X0433704Y0196062D02*
X0433704Y0191559D01*
X0432203Y0191559D02*
X0435205Y0191559D01*
X0432203Y0194561D02*
X0433704Y0196062D01*
X0430601Y0195312D02*
X0429851Y0196062D01*
X0428349Y0196062D01*
X0427599Y0195312D01*
X0427599Y0194561D01*
X0428349Y0193811D01*
X0429851Y0193811D01*
X0430601Y0193060D01*
X0430601Y0192309D01*
X0429851Y0191559D01*
X0428349Y0191559D01*
X0427599Y0192309D01*
X0417019Y0190049D02*
X0409279Y0190049D01*
X0409279Y0174513D01*
X0417019Y0174513D01*
X0417019Y0190049D01*
X0417019Y0174449D02*
X0409279Y0174449D01*
X0409279Y0158913D01*
X0417019Y0158913D01*
X0417019Y0174449D01*
X0409269Y0174080D02*
X0409269Y0161482D01*
X0402529Y0161482D01*
X0402529Y0174080D01*
X0409269Y0174080D01*
X0370119Y0172880D02*
X0370119Y0160282D01*
X0363379Y0160282D01*
X0363379Y0172880D01*
X0370119Y0172880D01*
X0370119Y0175482D02*
X0363379Y0175482D01*
X0363379Y0188080D01*
X0370119Y0188080D01*
X0370119Y0175482D01*
X0330569Y0170749D02*
X0330569Y0155213D01*
X0322829Y0155213D01*
X0322829Y0170749D01*
X0330569Y0170749D01*
X0330298Y0170761D02*
X0317700Y0170761D01*
X0317700Y0177501D01*
X0330298Y0177501D01*
X0330298Y0170761D01*
X0322819Y0170749D02*
X0315079Y0170749D01*
X0315079Y0155213D01*
X0322819Y0155213D01*
X0322819Y0170749D01*
X0327529Y0143199D02*
X0335269Y0143199D01*
X0335269Y0127663D01*
X0327529Y0127663D01*
X0327529Y0143199D01*
X0327519Y0140280D02*
X0320779Y0140280D01*
X0320779Y0127682D01*
X0327519Y0127682D01*
X0327519Y0140280D01*
X0337129Y0143199D02*
X0344869Y0143199D01*
X0344869Y0127663D01*
X0337129Y0127663D01*
X0337129Y0143199D01*
X0344879Y0140280D02*
X0351619Y0140280D01*
X0351619Y0127682D01*
X0344879Y0127682D01*
X0344879Y0140280D01*
X0351629Y0140280D02*
X0358369Y0140280D01*
X0358369Y0127682D01*
X0351629Y0127682D01*
X0351629Y0140280D01*
X0358379Y0143199D02*
X0366119Y0143199D01*
X0366119Y0127663D01*
X0358379Y0127663D01*
X0358379Y0143199D01*
X0366129Y0143199D02*
X0373869Y0143199D01*
X0373869Y0127663D01*
X0366129Y0127663D01*
X0366129Y0143199D01*
X0373879Y0140280D02*
X0380619Y0140280D01*
X0380619Y0127682D01*
X0373879Y0127682D01*
X0373879Y0140280D01*
X0380629Y0140280D02*
X0387369Y0140280D01*
X0387369Y0127682D01*
X0380629Y0127682D01*
X0380629Y0140280D01*
X0387379Y0143199D02*
X0395119Y0143199D01*
X0395119Y0127663D01*
X0387379Y0127663D01*
X0387379Y0143199D01*
X0395129Y0143199D02*
X0402869Y0143199D01*
X0402869Y0127663D01*
X0395129Y0127663D01*
X0395129Y0143199D01*
X0402879Y0140280D02*
X0409619Y0140280D01*
X0409619Y0127682D01*
X0402879Y0127682D01*
X0402879Y0140280D01*
X0383198Y0125701D02*
X0370600Y0125701D01*
X0370600Y0118961D01*
X0383198Y0118961D01*
X0383198Y0125701D01*
X0370598Y0125701D02*
X0370598Y0118961D01*
X0358000Y0118961D01*
X0358000Y0125701D01*
X0370598Y0125701D01*
X0357998Y0125701D02*
X0357998Y0118961D01*
X0345400Y0118961D01*
X0345400Y0125701D01*
X0357998Y0125701D01*
X0345369Y0122680D02*
X0338629Y0122680D01*
X0338629Y0110082D01*
X0345369Y0110082D01*
X0345369Y0122680D01*
X0338619Y0127680D02*
X0331879Y0127680D01*
X0331879Y0115082D01*
X0338619Y0115082D01*
X0338619Y0127680D01*
X0331119Y0120330D02*
X0331119Y0107732D01*
X0324379Y0107732D01*
X0324379Y0120330D01*
X0331119Y0120330D01*
X0323867Y0118911D02*
X0308331Y0118911D01*
X0308331Y0126651D01*
X0323867Y0126651D01*
X0323867Y0118911D01*
X0323867Y0118901D02*
X0323867Y0111161D01*
X0308331Y0111161D01*
X0308331Y0118901D01*
X0323867Y0118901D01*
X0331029Y0111730D02*
X0337769Y0111730D01*
X0337769Y0099132D01*
X0331029Y0099132D01*
X0331029Y0111730D01*
X0331019Y0106567D02*
X0321779Y0106567D01*
X0321779Y0087095D01*
X0331019Y0087095D01*
X0331019Y0106567D01*
X0321698Y0101101D02*
X0321698Y0094361D01*
X0309100Y0094361D01*
X0309100Y0101101D01*
X0321698Y0101101D01*
X0331029Y0099130D02*
X0337769Y0099130D01*
X0337769Y0086532D01*
X0331029Y0086532D01*
X0331029Y0099130D01*
X0321567Y0094351D02*
X0321567Y0086611D01*
X0306031Y0086611D01*
X0306031Y0094351D01*
X0321567Y0094351D01*
X0323131Y0086501D02*
X0323131Y0078761D01*
X0338667Y0078761D01*
X0338667Y0086501D01*
X0323131Y0086501D01*
X0314167Y0086551D02*
X0314167Y0078811D01*
X0298631Y0078811D01*
X0298631Y0086551D01*
X0314167Y0086551D01*
X0306019Y0086545D02*
X0297279Y0086545D01*
X0297279Y0106017D01*
X0306019Y0106017D01*
X0306019Y0086545D01*
X0298617Y0086551D02*
X0298617Y0078811D01*
X0283081Y0078811D01*
X0283081Y0086551D01*
X0298617Y0086551D01*
X0291769Y0086495D02*
X0283029Y0086495D01*
X0283029Y0105967D01*
X0291769Y0105967D01*
X0291769Y0086495D01*
X0319163Y0078751D02*
X0319163Y0069511D01*
X0338635Y0069511D01*
X0338635Y0078751D01*
X0319163Y0078751D01*
X0323131Y0069501D02*
X0323131Y0061761D01*
X0338667Y0061761D01*
X0338667Y0069501D01*
X0323131Y0069501D01*
X0319381Y0061751D02*
X0334917Y0061751D01*
X0334917Y0054011D01*
X0319381Y0054011D01*
X0319381Y0061751D01*
X0308948Y0060801D02*
X0308948Y0054061D01*
X0296350Y0054061D01*
X0296350Y0060801D01*
X0308948Y0060801D01*
X0306792Y0053974D02*
X0296406Y0053974D01*
X0292748Y0054011D02*
X0292748Y0060751D01*
X0280150Y0060751D01*
X0280150Y0054011D01*
X0292748Y0054011D01*
X0290642Y0053974D02*
X0280256Y0053974D01*
X0280256Y0047388D02*
X0290642Y0047388D01*
X0296406Y0047388D02*
X0306792Y0047388D01*
X0349599Y0058931D02*
X0351100Y0058931D01*
X0350349Y0058931D02*
X0350349Y0063435D01*
X0349599Y0063435D02*
X0351100Y0063435D01*
X0352668Y0062684D02*
X0352668Y0059682D01*
X0353419Y0058931D01*
X0354920Y0058931D01*
X0355671Y0059682D01*
X0357272Y0058931D02*
X0360275Y0058931D01*
X0358773Y0058931D02*
X0358773Y0063435D01*
X0357272Y0061934D01*
X0355671Y0062684D02*
X0354920Y0063435D01*
X0353419Y0063435D01*
X0352668Y0062684D01*
X0361876Y0062684D02*
X0362627Y0063435D01*
X0364128Y0063435D01*
X0364879Y0062684D01*
X0364879Y0061934D01*
X0364128Y0061183D01*
X0364879Y0060432D01*
X0364879Y0059682D01*
X0364128Y0058931D01*
X0362627Y0058931D01*
X0361876Y0059682D01*
X0363377Y0061183D02*
X0364128Y0061183D01*
X0370529Y0062149D02*
X0378269Y0062149D01*
X0378269Y0046613D01*
X0370529Y0046613D01*
X0370529Y0062149D01*
X0378329Y0059230D02*
X0385069Y0059230D01*
X0385069Y0046632D01*
X0378329Y0046632D01*
X0378329Y0059230D01*
X0385079Y0062149D02*
X0392819Y0062149D01*
X0392819Y0046613D01*
X0385079Y0046613D01*
X0385079Y0062149D01*
X0392829Y0058782D02*
X0399569Y0058782D01*
X0399569Y0071380D01*
X0392829Y0071380D01*
X0392829Y0058782D01*
X0407379Y0054663D02*
X0407379Y0070199D01*
X0415119Y0070199D01*
X0415119Y0054663D01*
X0407379Y0054663D01*
X0407319Y0047173D02*
X0399579Y0047173D01*
X0399579Y0070189D01*
X0407319Y0070189D01*
X0407319Y0047173D01*
X0405675Y0035081D02*
X0405677Y0035218D01*
X0405683Y0035356D01*
X0405693Y0035493D01*
X0405707Y0035629D01*
X0405725Y0035766D01*
X0405747Y0035901D01*
X0405773Y0036036D01*
X0405802Y0036170D01*
X0405836Y0036304D01*
X0405873Y0036436D01*
X0405915Y0036567D01*
X0405960Y0036697D01*
X0406009Y0036825D01*
X0406061Y0036952D01*
X0406118Y0037077D01*
X0406177Y0037201D01*
X0406241Y0037323D01*
X0406308Y0037443D01*
X0406378Y0037561D01*
X0406452Y0037677D01*
X0406529Y0037791D01*
X0406610Y0037902D01*
X0406693Y0038011D01*
X0406780Y0038118D01*
X0406870Y0038221D01*
X0406963Y0038323D01*
X0407059Y0038421D01*
X0407157Y0038517D01*
X0407259Y0038610D01*
X0407362Y0038700D01*
X0407469Y0038787D01*
X0407578Y0038870D01*
X0407689Y0038951D01*
X0407803Y0039028D01*
X0407919Y0039102D01*
X0408037Y0039172D01*
X0408157Y0039239D01*
X0408279Y0039303D01*
X0408403Y0039362D01*
X0408528Y0039419D01*
X0408655Y0039471D01*
X0408783Y0039520D01*
X0408913Y0039565D01*
X0409044Y0039607D01*
X0409176Y0039644D01*
X0409310Y0039678D01*
X0409444Y0039707D01*
X0409579Y0039733D01*
X0409714Y0039755D01*
X0409851Y0039773D01*
X0409987Y0039787D01*
X0410124Y0039797D01*
X0410262Y0039803D01*
X0410399Y0039805D01*
X0410536Y0039803D01*
X0410674Y0039797D01*
X0410811Y0039787D01*
X0410947Y0039773D01*
X0411084Y0039755D01*
X0411219Y0039733D01*
X0411354Y0039707D01*
X0411488Y0039678D01*
X0411622Y0039644D01*
X0411754Y0039607D01*
X0411885Y0039565D01*
X0412015Y0039520D01*
X0412143Y0039471D01*
X0412270Y0039419D01*
X0412395Y0039362D01*
X0412519Y0039303D01*
X0412641Y0039239D01*
X0412761Y0039172D01*
X0412879Y0039102D01*
X0412995Y0039028D01*
X0413109Y0038951D01*
X0413220Y0038870D01*
X0413329Y0038787D01*
X0413436Y0038700D01*
X0413539Y0038610D01*
X0413641Y0038517D01*
X0413739Y0038421D01*
X0413835Y0038323D01*
X0413928Y0038221D01*
X0414018Y0038118D01*
X0414105Y0038011D01*
X0414188Y0037902D01*
X0414269Y0037791D01*
X0414346Y0037677D01*
X0414420Y0037561D01*
X0414490Y0037443D01*
X0414557Y0037323D01*
X0414621Y0037201D01*
X0414680Y0037077D01*
X0414737Y0036952D01*
X0414789Y0036825D01*
X0414838Y0036697D01*
X0414883Y0036567D01*
X0414925Y0036436D01*
X0414962Y0036304D01*
X0414996Y0036170D01*
X0415025Y0036036D01*
X0415051Y0035901D01*
X0415073Y0035766D01*
X0415091Y0035629D01*
X0415105Y0035493D01*
X0415115Y0035356D01*
X0415121Y0035218D01*
X0415123Y0035081D01*
X0415121Y0034944D01*
X0415115Y0034806D01*
X0415105Y0034669D01*
X0415091Y0034533D01*
X0415073Y0034396D01*
X0415051Y0034261D01*
X0415025Y0034126D01*
X0414996Y0033992D01*
X0414962Y0033858D01*
X0414925Y0033726D01*
X0414883Y0033595D01*
X0414838Y0033465D01*
X0414789Y0033337D01*
X0414737Y0033210D01*
X0414680Y0033085D01*
X0414621Y0032961D01*
X0414557Y0032839D01*
X0414490Y0032719D01*
X0414420Y0032601D01*
X0414346Y0032485D01*
X0414269Y0032371D01*
X0414188Y0032260D01*
X0414105Y0032151D01*
X0414018Y0032044D01*
X0413928Y0031941D01*
X0413835Y0031839D01*
X0413739Y0031741D01*
X0413641Y0031645D01*
X0413539Y0031552D01*
X0413436Y0031462D01*
X0413329Y0031375D01*
X0413220Y0031292D01*
X0413109Y0031211D01*
X0412995Y0031134D01*
X0412879Y0031060D01*
X0412761Y0030990D01*
X0412641Y0030923D01*
X0412519Y0030859D01*
X0412395Y0030800D01*
X0412270Y0030743D01*
X0412143Y0030691D01*
X0412015Y0030642D01*
X0411885Y0030597D01*
X0411754Y0030555D01*
X0411622Y0030518D01*
X0411488Y0030484D01*
X0411354Y0030455D01*
X0411219Y0030429D01*
X0411084Y0030407D01*
X0410947Y0030389D01*
X0410811Y0030375D01*
X0410674Y0030365D01*
X0410536Y0030359D01*
X0410399Y0030357D01*
X0410262Y0030359D01*
X0410124Y0030365D01*
X0409987Y0030375D01*
X0409851Y0030389D01*
X0409714Y0030407D01*
X0409579Y0030429D01*
X0409444Y0030455D01*
X0409310Y0030484D01*
X0409176Y0030518D01*
X0409044Y0030555D01*
X0408913Y0030597D01*
X0408783Y0030642D01*
X0408655Y0030691D01*
X0408528Y0030743D01*
X0408403Y0030800D01*
X0408279Y0030859D01*
X0408157Y0030923D01*
X0408037Y0030990D01*
X0407919Y0031060D01*
X0407803Y0031134D01*
X0407689Y0031211D01*
X0407578Y0031292D01*
X0407469Y0031375D01*
X0407362Y0031462D01*
X0407259Y0031552D01*
X0407157Y0031645D01*
X0407059Y0031741D01*
X0406963Y0031839D01*
X0406870Y0031941D01*
X0406780Y0032044D01*
X0406693Y0032151D01*
X0406610Y0032260D01*
X0406529Y0032371D01*
X0406452Y0032485D01*
X0406378Y0032601D01*
X0406308Y0032719D01*
X0406241Y0032839D01*
X0406177Y0032961D01*
X0406118Y0033085D01*
X0406061Y0033210D01*
X0406009Y0033337D01*
X0405960Y0033465D01*
X0405915Y0033595D01*
X0405873Y0033726D01*
X0405836Y0033858D01*
X0405802Y0033992D01*
X0405773Y0034126D01*
X0405747Y0034261D01*
X0405725Y0034396D01*
X0405707Y0034533D01*
X0405693Y0034669D01*
X0405683Y0034806D01*
X0405677Y0034944D01*
X0405675Y0035081D01*
X0432013Y0034401D02*
X0432013Y0025161D01*
X0451485Y0025161D01*
X0451485Y0034401D01*
X0432013Y0034401D01*
X0450079Y0037795D02*
X0458819Y0037795D01*
X0458819Y0057267D01*
X0450079Y0057267D01*
X0450079Y0037795D01*
X0458829Y0037795D02*
X0468069Y0037795D01*
X0468069Y0057267D01*
X0458829Y0057267D01*
X0458829Y0037795D01*
X0459079Y0058163D02*
X0459079Y0073699D01*
X0466819Y0073699D01*
X0466819Y0058163D01*
X0459079Y0058163D01*
X0453019Y0067132D02*
X0446279Y0067132D01*
X0446279Y0079730D01*
X0453019Y0079730D01*
X0453019Y0067132D01*
X0443917Y0069811D02*
X0428381Y0069811D01*
X0428381Y0077551D01*
X0443917Y0077551D01*
X0443917Y0069811D01*
X0444019Y0077663D02*
X0436279Y0077663D01*
X0436279Y0093199D01*
X0444019Y0093199D01*
X0444019Y0077663D01*
X0436269Y0077663D02*
X0428529Y0077663D01*
X0428529Y0093199D01*
X0436269Y0093199D01*
X0436269Y0077663D01*
X0423519Y0070073D02*
X0415779Y0070073D01*
X0415779Y0093089D01*
X0423519Y0093089D01*
X0423519Y0070073D01*
X0415417Y0071761D02*
X0415417Y0079501D01*
X0399881Y0079501D01*
X0399881Y0071761D01*
X0415417Y0071761D01*
X0415417Y0079461D02*
X0399881Y0079461D01*
X0399881Y0087201D01*
X0415417Y0087201D01*
X0415417Y0079461D01*
X0415798Y0087211D02*
X0403200Y0087211D01*
X0403200Y0093951D01*
X0415798Y0093951D01*
X0415798Y0087211D01*
X0415798Y0093911D02*
X0403200Y0093911D01*
X0403200Y0100651D01*
X0415798Y0100651D01*
X0415798Y0093911D01*
X0409098Y0100611D02*
X0396500Y0100611D01*
X0396500Y0107351D01*
X0409098Y0107351D01*
X0409098Y0100611D01*
X0403169Y0099780D02*
X0396429Y0099780D01*
X0396429Y0087182D01*
X0403169Y0087182D01*
X0403169Y0099780D01*
X0396513Y0107361D02*
X0396513Y0116601D01*
X0415985Y0116601D01*
X0415985Y0107361D01*
X0396513Y0107361D01*
X0434429Y0117295D02*
X0434429Y0136767D01*
X0443169Y0136767D01*
X0443169Y0117295D01*
X0434429Y0117295D01*
X0443179Y0117295D02*
X0443179Y0136767D01*
X0451919Y0136767D01*
X0451919Y0117295D01*
X0443179Y0117295D01*
X0437350Y0104301D02*
X0449948Y0104301D01*
X0449948Y0097561D01*
X0437350Y0097561D01*
X0437350Y0104301D01*
X0459813Y0092251D02*
X0459813Y0083011D01*
X0479285Y0083011D01*
X0479285Y0092251D01*
X0459813Y0092251D01*
X0459813Y0083051D02*
X0459813Y0073811D01*
X0479285Y0073811D01*
X0479285Y0083051D01*
X0459813Y0083051D01*
X0489729Y0088530D02*
X0489729Y0075932D01*
X0496469Y0075932D01*
X0496469Y0088530D01*
X0489729Y0088530D01*
X0496479Y0089163D02*
X0496479Y0104699D01*
X0504219Y0104699D01*
X0504219Y0089163D01*
X0496479Y0089163D01*
X0508710Y0093517D02*
X0521387Y0093517D01*
X0521387Y0074045D01*
X0508710Y0074045D01*
X0508710Y0093517D01*
X0510679Y0093545D02*
X0519419Y0093545D01*
X0519419Y0113017D01*
X0510679Y0113017D01*
X0510679Y0093545D01*
X0503948Y0106211D02*
X0491350Y0106211D01*
X0491350Y0112951D01*
X0503948Y0112951D01*
X0503948Y0106211D01*
X0490817Y0106211D02*
X0475281Y0106211D01*
X0475281Y0113951D01*
X0490817Y0113951D01*
X0490817Y0106211D01*
X0453885Y0136811D02*
X0434413Y0136811D01*
X0434413Y0145551D01*
X0453885Y0145551D01*
X0453885Y0136811D01*
X0453785Y0145561D02*
X0434313Y0145561D01*
X0434313Y0154301D01*
X0453785Y0154301D01*
X0453785Y0145561D01*
X0542999Y0192331D02*
X0542999Y0196835D01*
X0546001Y0196835D01*
X0544500Y0194583D02*
X0542999Y0194583D01*
X0547603Y0194583D02*
X0549855Y0194583D01*
X0550605Y0193832D01*
X0550605Y0193082D01*
X0549855Y0192331D01*
X0548353Y0192331D01*
X0547603Y0193082D01*
X0547603Y0194583D01*
X0549104Y0196084D01*
X0550605Y0196835D01*
X0552929Y0196467D02*
X0562169Y0196467D01*
X0562169Y0176995D01*
X0552929Y0176995D01*
X0552929Y0196467D01*
X0551055Y0266281D02*
X0549553Y0266281D01*
X0548803Y0267032D01*
X0548803Y0268533D02*
X0550304Y0269284D01*
X0551055Y0269284D01*
X0551805Y0268533D01*
X0551805Y0267032D01*
X0551055Y0266281D01*
X0548803Y0268533D02*
X0548803Y0270785D01*
X0551805Y0270785D01*
X0547201Y0270785D02*
X0544199Y0270785D01*
X0544199Y0266281D01*
X0544199Y0268533D02*
X0545700Y0268533D01*
X0239709Y0238835D02*
X0238208Y0238084D01*
X0236707Y0236583D01*
X0238959Y0236583D01*
X0239709Y0235832D01*
X0239709Y0235082D01*
X0238959Y0234331D01*
X0237457Y0234331D01*
X0236707Y0235082D01*
X0236707Y0236583D01*
X0235105Y0235832D02*
X0235105Y0235082D01*
X0234355Y0234331D01*
X0232853Y0234331D01*
X0232103Y0235082D01*
X0230501Y0234331D02*
X0229000Y0235832D01*
X0229751Y0235832D02*
X0227499Y0235832D01*
X0227499Y0234331D02*
X0227499Y0238835D01*
X0229751Y0238835D01*
X0230501Y0238084D01*
X0230501Y0236583D01*
X0229751Y0235832D01*
X0232103Y0238084D02*
X0232853Y0238835D01*
X0234355Y0238835D01*
X0235105Y0238084D01*
X0235105Y0237334D01*
X0234355Y0236583D01*
X0235105Y0235832D01*
X0234355Y0236583D02*
X0233604Y0236583D01*
X0193719Y0263945D02*
X0184479Y0263945D01*
X0184479Y0283417D01*
X0193719Y0283417D01*
X0193719Y0263945D01*
X0175398Y0273031D02*
X0172396Y0273031D01*
X0173897Y0273031D02*
X0173897Y0277535D01*
X0172396Y0276034D01*
X0170794Y0272280D02*
X0167792Y0272280D01*
X0166190Y0273031D02*
X0166190Y0276034D01*
X0164689Y0277535D01*
X0163188Y0276034D01*
X0163188Y0273031D01*
X0161586Y0273782D02*
X0161586Y0276784D01*
X0158584Y0273782D01*
X0159334Y0273031D01*
X0160836Y0273031D01*
X0161586Y0273782D01*
X0163188Y0275283D02*
X0166190Y0275283D01*
X0161586Y0276784D02*
X0160836Y0277535D01*
X0159334Y0277535D01*
X0158584Y0276784D01*
X0158584Y0273782D01*
X0156982Y0273031D02*
X0153980Y0273031D01*
X0155481Y0273031D02*
X0155481Y0277535D01*
X0153980Y0276034D01*
X0152379Y0273031D02*
X0149376Y0273031D01*
X0149376Y0277535D01*
X0147775Y0277535D02*
X0144772Y0277535D01*
X0144772Y0273031D01*
X0147775Y0273031D01*
X0146273Y0275283D02*
X0144772Y0275283D01*
X0143171Y0274532D02*
X0143171Y0273782D01*
X0142420Y0273031D01*
X0140919Y0273031D01*
X0140168Y0273782D01*
X0140919Y0275283D02*
X0142420Y0275283D01*
X0143171Y0274532D01*
X0143171Y0276784D02*
X0142420Y0277535D01*
X0140919Y0277535D01*
X0140168Y0276784D01*
X0140168Y0276034D01*
X0140919Y0275283D01*
X0138600Y0273031D02*
X0137099Y0273031D01*
X0137849Y0273031D02*
X0137849Y0277535D01*
X0137099Y0277535D02*
X0138600Y0277535D01*
X0202774Y0280850D02*
X0205777Y0285353D01*
X0207378Y0284603D02*
X0208129Y0285353D01*
X0209630Y0285353D01*
X0210381Y0284603D01*
X0210381Y0283852D01*
X0209630Y0283102D01*
X0210381Y0282351D01*
X0210381Y0281600D01*
X0209630Y0280850D01*
X0208129Y0280850D01*
X0207378Y0281600D01*
X0205777Y0280850D02*
X0202774Y0285353D01*
X0208880Y0283102D02*
X0209630Y0283102D01*
X0202905Y0154985D02*
X0200653Y0152733D01*
X0203655Y0152733D01*
X0202905Y0150481D02*
X0202905Y0154985D01*
X0199051Y0154985D02*
X0196049Y0154985D01*
X0196049Y0150481D01*
X0196049Y0152733D02*
X0197550Y0152733D01*
X0171935Y0088801D02*
X0152463Y0088801D01*
X0152463Y0080061D01*
X0171935Y0080061D01*
X0171935Y0088801D01*
X0152435Y0088801D02*
X0152435Y0080061D01*
X0132963Y0080061D01*
X0132963Y0088801D01*
X0152435Y0088801D01*
X0037914Y0035173D02*
X0001300Y0035173D01*
X0484399Y0062982D02*
X0485149Y0062231D01*
X0486651Y0062231D01*
X0487401Y0062982D01*
X0489003Y0062231D02*
X0492005Y0065234D01*
X0492005Y0065984D01*
X0491255Y0066735D01*
X0489753Y0066735D01*
X0489003Y0065984D01*
X0487401Y0065984D02*
X0486651Y0066735D01*
X0485149Y0066735D01*
X0484399Y0065984D01*
X0484399Y0062982D01*
X0489003Y0062231D02*
X0492005Y0062231D01*
X0493607Y0062982D02*
X0493607Y0063732D01*
X0494357Y0064483D01*
X0495859Y0064483D01*
X0496609Y0063732D01*
X0496609Y0062982D01*
X0495859Y0062231D01*
X0494357Y0062231D01*
X0493607Y0062982D01*
X0494357Y0064483D02*
X0493607Y0065234D01*
X0493607Y0065984D01*
X0494357Y0066735D01*
X0495859Y0066735D01*
X0496609Y0065984D01*
X0496609Y0065234D01*
X0495859Y0064483D01*
X0498211Y0064483D02*
X0501213Y0064483D01*
X0501213Y0065234D02*
X0501213Y0062231D01*
X0498211Y0062231D02*
X0498211Y0065234D01*
X0499712Y0066735D01*
X0501213Y0065234D01*
D11*
X0309199Y0067331D02*
X0309199Y0071731D01*
X0300899Y0071331D02*
X0300899Y0063731D01*
X0168879Y0062835D02*
X0168879Y0069528D01*
X0162974Y0069528D01*
X0162973Y0069528D02*
X0162937Y0069455D01*
X0162896Y0069384D01*
X0162853Y0069314D01*
X0162806Y0069247D01*
X0162756Y0069182D01*
X0162703Y0069120D01*
X0162648Y0069060D01*
X0162589Y0069003D01*
X0162528Y0068948D01*
X0162464Y0068897D01*
X0162398Y0068848D01*
X0162330Y0068803D01*
X0162260Y0068761D01*
X0162188Y0068722D01*
X0162114Y0068686D01*
X0162039Y0068655D01*
X0161962Y0068626D01*
X0161884Y0068602D01*
X0161805Y0068581D01*
X0161725Y0068564D01*
X0161644Y0068550D01*
X0161563Y0068541D01*
X0161481Y0068535D01*
X0161399Y0068533D01*
X0161317Y0068535D01*
X0161235Y0068541D01*
X0161154Y0068550D01*
X0161073Y0068564D01*
X0160993Y0068581D01*
X0160914Y0068602D01*
X0160836Y0068626D01*
X0160759Y0068655D01*
X0160684Y0068686D01*
X0160610Y0068722D01*
X0160538Y0068761D01*
X0160468Y0068803D01*
X0160400Y0068848D01*
X0160334Y0068897D01*
X0160270Y0068948D01*
X0160209Y0069003D01*
X0160150Y0069060D01*
X0160095Y0069120D01*
X0160042Y0069182D01*
X0159992Y0069247D01*
X0159945Y0069314D01*
X0159902Y0069384D01*
X0159861Y0069455D01*
X0159825Y0069528D01*
X0159824Y0069528D02*
X0153919Y0069528D01*
X0153919Y0062835D01*
X0159824Y0062835D01*
X0159825Y0062835D02*
X0159861Y0062908D01*
X0159902Y0062979D01*
X0159945Y0063049D01*
X0159992Y0063116D01*
X0160042Y0063181D01*
X0160095Y0063243D01*
X0160150Y0063303D01*
X0160209Y0063360D01*
X0160270Y0063415D01*
X0160334Y0063466D01*
X0160400Y0063515D01*
X0160468Y0063560D01*
X0160538Y0063602D01*
X0160610Y0063641D01*
X0160684Y0063677D01*
X0160759Y0063708D01*
X0160836Y0063737D01*
X0160914Y0063761D01*
X0160993Y0063782D01*
X0161073Y0063799D01*
X0161154Y0063813D01*
X0161235Y0063822D01*
X0161317Y0063828D01*
X0161399Y0063830D01*
X0161481Y0063828D01*
X0161563Y0063822D01*
X0161644Y0063813D01*
X0161725Y0063799D01*
X0161805Y0063782D01*
X0161884Y0063761D01*
X0161962Y0063737D01*
X0162039Y0063708D01*
X0162114Y0063677D01*
X0162188Y0063641D01*
X0162260Y0063602D01*
X0162330Y0063560D01*
X0162398Y0063515D01*
X0162464Y0063466D01*
X0162528Y0063415D01*
X0162589Y0063360D01*
X0162648Y0063303D01*
X0162703Y0063243D01*
X0162756Y0063181D01*
X0162806Y0063116D01*
X0162853Y0063049D01*
X0162896Y0062979D01*
X0162937Y0062908D01*
X0162973Y0062835D01*
X0162974Y0062835D02*
X0168879Y0062835D01*
X0168879Y0095435D02*
X0162974Y0095435D01*
X0162973Y0095435D02*
X0162937Y0095508D01*
X0162896Y0095579D01*
X0162853Y0095649D01*
X0162806Y0095716D01*
X0162756Y0095781D01*
X0162703Y0095843D01*
X0162648Y0095903D01*
X0162589Y0095960D01*
X0162528Y0096015D01*
X0162464Y0096066D01*
X0162398Y0096115D01*
X0162330Y0096160D01*
X0162260Y0096202D01*
X0162188Y0096241D01*
X0162114Y0096277D01*
X0162039Y0096308D01*
X0161962Y0096337D01*
X0161884Y0096361D01*
X0161805Y0096382D01*
X0161725Y0096399D01*
X0161644Y0096413D01*
X0161563Y0096422D01*
X0161481Y0096428D01*
X0161399Y0096430D01*
X0161317Y0096428D01*
X0161235Y0096422D01*
X0161154Y0096413D01*
X0161073Y0096399D01*
X0160993Y0096382D01*
X0160914Y0096361D01*
X0160836Y0096337D01*
X0160759Y0096308D01*
X0160684Y0096277D01*
X0160610Y0096241D01*
X0160538Y0096202D01*
X0160468Y0096160D01*
X0160400Y0096115D01*
X0160334Y0096066D01*
X0160270Y0096015D01*
X0160209Y0095960D01*
X0160150Y0095903D01*
X0160095Y0095843D01*
X0160042Y0095781D01*
X0159992Y0095716D01*
X0159945Y0095649D01*
X0159902Y0095579D01*
X0159861Y0095508D01*
X0159825Y0095435D01*
X0159824Y0095435D02*
X0153919Y0095435D01*
X0153919Y0102128D01*
X0159824Y0102128D01*
X0159825Y0102128D02*
X0159861Y0102055D01*
X0159902Y0101984D01*
X0159945Y0101914D01*
X0159992Y0101847D01*
X0160042Y0101782D01*
X0160095Y0101720D01*
X0160150Y0101660D01*
X0160209Y0101603D01*
X0160270Y0101548D01*
X0160334Y0101497D01*
X0160400Y0101448D01*
X0160468Y0101403D01*
X0160538Y0101361D01*
X0160610Y0101322D01*
X0160684Y0101286D01*
X0160759Y0101255D01*
X0160836Y0101226D01*
X0160914Y0101202D01*
X0160993Y0101181D01*
X0161073Y0101164D01*
X0161154Y0101150D01*
X0161235Y0101141D01*
X0161317Y0101135D01*
X0161399Y0101133D01*
X0161481Y0101135D01*
X0161563Y0101141D01*
X0161644Y0101150D01*
X0161725Y0101164D01*
X0161805Y0101181D01*
X0161884Y0101202D01*
X0161962Y0101226D01*
X0162039Y0101255D01*
X0162114Y0101286D01*
X0162188Y0101322D01*
X0162260Y0101361D01*
X0162330Y0101403D01*
X0162398Y0101448D01*
X0162464Y0101497D01*
X0162528Y0101548D01*
X0162589Y0101603D01*
X0162648Y0101660D01*
X0162703Y0101720D01*
X0162756Y0101782D01*
X0162806Y0101847D01*
X0162853Y0101914D01*
X0162896Y0101984D01*
X0162937Y0102055D01*
X0162973Y0102128D01*
X0162974Y0102128D02*
X0168879Y0102128D01*
X0168879Y0095435D01*
X0085595Y0121451D02*
X0085595Y0127356D01*
X0085595Y0127357D02*
X0085522Y0127393D01*
X0085451Y0127434D01*
X0085381Y0127477D01*
X0085314Y0127524D01*
X0085249Y0127574D01*
X0085187Y0127627D01*
X0085127Y0127682D01*
X0085070Y0127741D01*
X0085015Y0127802D01*
X0084964Y0127866D01*
X0084915Y0127932D01*
X0084870Y0128000D01*
X0084828Y0128070D01*
X0084789Y0128142D01*
X0084753Y0128216D01*
X0084722Y0128291D01*
X0084693Y0128368D01*
X0084669Y0128446D01*
X0084648Y0128525D01*
X0084631Y0128605D01*
X0084617Y0128686D01*
X0084608Y0128767D01*
X0084602Y0128849D01*
X0084600Y0128931D01*
X0084602Y0129013D01*
X0084608Y0129095D01*
X0084617Y0129176D01*
X0084631Y0129257D01*
X0084648Y0129337D01*
X0084669Y0129416D01*
X0084693Y0129494D01*
X0084722Y0129571D01*
X0084753Y0129646D01*
X0084789Y0129720D01*
X0084828Y0129792D01*
X0084870Y0129862D01*
X0084915Y0129930D01*
X0084964Y0129996D01*
X0085015Y0130060D01*
X0085070Y0130121D01*
X0085127Y0130180D01*
X0085187Y0130235D01*
X0085249Y0130288D01*
X0085314Y0130338D01*
X0085381Y0130385D01*
X0085451Y0130428D01*
X0085522Y0130469D01*
X0085595Y0130505D01*
X0085595Y0130506D02*
X0085595Y0136411D01*
X0078902Y0136411D01*
X0078902Y0130506D01*
X0078902Y0130505D02*
X0078975Y0130469D01*
X0079046Y0130428D01*
X0079116Y0130385D01*
X0079183Y0130338D01*
X0079248Y0130288D01*
X0079310Y0130235D01*
X0079370Y0130180D01*
X0079427Y0130121D01*
X0079482Y0130060D01*
X0079533Y0129996D01*
X0079582Y0129930D01*
X0079627Y0129862D01*
X0079669Y0129792D01*
X0079708Y0129720D01*
X0079744Y0129646D01*
X0079775Y0129571D01*
X0079804Y0129494D01*
X0079828Y0129416D01*
X0079849Y0129337D01*
X0079866Y0129257D01*
X0079880Y0129176D01*
X0079889Y0129095D01*
X0079895Y0129013D01*
X0079897Y0128931D01*
X0079895Y0128849D01*
X0079889Y0128767D01*
X0079880Y0128686D01*
X0079866Y0128605D01*
X0079849Y0128525D01*
X0079828Y0128446D01*
X0079804Y0128368D01*
X0079775Y0128291D01*
X0079744Y0128216D01*
X0079708Y0128142D01*
X0079669Y0128070D01*
X0079627Y0128000D01*
X0079582Y0127932D01*
X0079533Y0127866D01*
X0079482Y0127802D01*
X0079427Y0127741D01*
X0079370Y0127682D01*
X0079310Y0127627D01*
X0079248Y0127574D01*
X0079183Y0127524D01*
X0079116Y0127477D01*
X0079046Y0127434D01*
X0078975Y0127393D01*
X0078902Y0127357D01*
X0078902Y0127356D02*
X0078902Y0121451D01*
X0085595Y0121451D01*
X0085595Y0136401D02*
X0078902Y0136401D01*
X0078902Y0142306D01*
X0078902Y0142307D02*
X0078975Y0142343D01*
X0079046Y0142384D01*
X0079116Y0142427D01*
X0079183Y0142474D01*
X0079248Y0142524D01*
X0079310Y0142577D01*
X0079370Y0142632D01*
X0079427Y0142691D01*
X0079482Y0142752D01*
X0079533Y0142816D01*
X0079582Y0142882D01*
X0079627Y0142950D01*
X0079669Y0143020D01*
X0079708Y0143092D01*
X0079744Y0143166D01*
X0079775Y0143241D01*
X0079804Y0143318D01*
X0079828Y0143396D01*
X0079849Y0143475D01*
X0079866Y0143555D01*
X0079880Y0143636D01*
X0079889Y0143717D01*
X0079895Y0143799D01*
X0079897Y0143881D01*
X0079895Y0143963D01*
X0079889Y0144045D01*
X0079880Y0144126D01*
X0079866Y0144207D01*
X0079849Y0144287D01*
X0079828Y0144366D01*
X0079804Y0144444D01*
X0079775Y0144521D01*
X0079744Y0144596D01*
X0079708Y0144670D01*
X0079669Y0144742D01*
X0079627Y0144812D01*
X0079582Y0144880D01*
X0079533Y0144946D01*
X0079482Y0145010D01*
X0079427Y0145071D01*
X0079370Y0145130D01*
X0079310Y0145185D01*
X0079248Y0145238D01*
X0079183Y0145288D01*
X0079116Y0145335D01*
X0079046Y0145378D01*
X0078975Y0145419D01*
X0078902Y0145455D01*
X0078902Y0145456D02*
X0078902Y0151361D01*
X0085595Y0151361D01*
X0085595Y0145456D01*
X0085595Y0145455D02*
X0085522Y0145419D01*
X0085451Y0145378D01*
X0085381Y0145335D01*
X0085314Y0145288D01*
X0085249Y0145238D01*
X0085187Y0145185D01*
X0085127Y0145130D01*
X0085070Y0145071D01*
X0085015Y0145010D01*
X0084964Y0144946D01*
X0084915Y0144880D01*
X0084870Y0144812D01*
X0084828Y0144742D01*
X0084789Y0144670D01*
X0084753Y0144596D01*
X0084722Y0144521D01*
X0084693Y0144444D01*
X0084669Y0144366D01*
X0084648Y0144287D01*
X0084631Y0144207D01*
X0084617Y0144126D01*
X0084608Y0144045D01*
X0084602Y0143963D01*
X0084600Y0143881D01*
X0084602Y0143799D01*
X0084608Y0143717D01*
X0084617Y0143636D01*
X0084631Y0143555D01*
X0084648Y0143475D01*
X0084669Y0143396D01*
X0084693Y0143318D01*
X0084722Y0143241D01*
X0084753Y0143166D01*
X0084789Y0143092D01*
X0084828Y0143020D01*
X0084870Y0142950D01*
X0084915Y0142882D01*
X0084964Y0142816D01*
X0085015Y0142752D01*
X0085070Y0142691D01*
X0085127Y0142632D01*
X0085187Y0142577D01*
X0085249Y0142524D01*
X0085314Y0142474D01*
X0085381Y0142427D01*
X0085451Y0142384D01*
X0085522Y0142343D01*
X0085595Y0142307D01*
X0085595Y0142306D02*
X0085595Y0136401D01*
X0130499Y0156910D02*
X0135814Y0156910D01*
X0130499Y0156910D02*
X0130499Y0271083D01*
X0180499Y0271083D01*
X0180499Y0156910D01*
X0175184Y0156910D01*
X0165341Y0156910D02*
X0145656Y0156910D01*
X0448178Y0199231D02*
X0448178Y0204546D01*
X0448178Y0199231D02*
X0562351Y0199231D01*
X0562351Y0249231D01*
X0448178Y0249231D01*
X0448178Y0243916D01*
X0448178Y0234074D02*
X0448178Y0214389D01*
D12*
X0428296Y0217968D02*
X0426361Y0217968D01*
X0427329Y0217968D02*
X0427329Y0220871D01*
X0426361Y0219903D01*
X0425350Y0220387D02*
X0424866Y0220871D01*
X0423415Y0220871D01*
X0423415Y0217968D01*
X0424866Y0217968D01*
X0425350Y0218452D01*
X0425350Y0220387D01*
X0422403Y0220387D02*
X0420468Y0218452D01*
X0420468Y0217968D01*
X0422403Y0217968D01*
X0422403Y0220387D02*
X0422403Y0220871D01*
X0420468Y0220871D01*
X0419949Y0213184D02*
X0421400Y0213184D01*
X0421884Y0212700D01*
X0421884Y0211732D01*
X0421400Y0211249D01*
X0419949Y0211249D01*
X0420916Y0211249D02*
X0421884Y0210281D01*
X0422895Y0210765D02*
X0423379Y0210281D01*
X0424347Y0210281D01*
X0424830Y0210765D01*
X0424830Y0211249D01*
X0424347Y0211732D01*
X0423863Y0211732D01*
X0424347Y0211732D02*
X0424830Y0212216D01*
X0424830Y0212700D01*
X0424347Y0213184D01*
X0423379Y0213184D01*
X0422895Y0212700D01*
X0425842Y0212700D02*
X0425842Y0212216D01*
X0426326Y0211732D01*
X0427777Y0211732D01*
X0427777Y0210765D02*
X0427777Y0212700D01*
X0427293Y0213184D01*
X0426326Y0213184D01*
X0425842Y0212700D01*
X0425842Y0210765D02*
X0426326Y0210281D01*
X0427293Y0210281D01*
X0427777Y0210765D01*
X0419949Y0210281D02*
X0419949Y0213184D01*
X0419999Y0206484D02*
X0421450Y0206484D01*
X0421934Y0206000D01*
X0421934Y0205032D01*
X0421450Y0204549D01*
X0419999Y0204549D01*
X0420966Y0204549D02*
X0421934Y0203581D01*
X0422945Y0205032D02*
X0424880Y0205032D01*
X0425892Y0204065D02*
X0425892Y0206000D01*
X0426376Y0206484D01*
X0427343Y0206484D01*
X0427827Y0206000D01*
X0425892Y0204065D01*
X0426376Y0203581D01*
X0427343Y0203581D01*
X0427827Y0204065D01*
X0427827Y0206000D01*
X0424397Y0206484D02*
X0424397Y0203581D01*
X0422945Y0205032D02*
X0424397Y0206484D01*
X0419999Y0206484D02*
X0419999Y0203581D01*
X0375680Y0187700D02*
X0375197Y0188184D01*
X0374229Y0188184D01*
X0373745Y0187700D01*
X0372734Y0187700D02*
X0372250Y0188184D01*
X0371283Y0188184D01*
X0370799Y0187700D01*
X0370799Y0185765D01*
X0371283Y0185281D01*
X0372250Y0185281D01*
X0372734Y0185765D01*
X0373745Y0185281D02*
X0375680Y0187216D01*
X0375680Y0187700D01*
X0375680Y0185281D02*
X0373745Y0185281D01*
X0350927Y0197065D02*
X0350443Y0196581D01*
X0349476Y0196581D01*
X0348992Y0197065D01*
X0347980Y0197065D02*
X0347497Y0196581D01*
X0346529Y0196581D01*
X0346045Y0197065D01*
X0345034Y0196581D02*
X0344066Y0197549D01*
X0344550Y0197549D02*
X0343099Y0197549D01*
X0343099Y0196581D02*
X0343099Y0199484D01*
X0344550Y0199484D01*
X0345034Y0199000D01*
X0345034Y0198032D01*
X0344550Y0197549D01*
X0346045Y0199000D02*
X0346529Y0199484D01*
X0347497Y0199484D01*
X0347980Y0199000D01*
X0347980Y0198516D01*
X0347497Y0198032D01*
X0347980Y0197549D01*
X0347980Y0197065D01*
X0347497Y0198032D02*
X0347013Y0198032D01*
X0348992Y0199000D02*
X0349476Y0199484D01*
X0350443Y0199484D01*
X0350927Y0199000D01*
X0350927Y0198516D01*
X0350443Y0198032D01*
X0350927Y0197549D01*
X0350927Y0197065D01*
X0350443Y0198032D02*
X0349959Y0198032D01*
X0350309Y0219781D02*
X0350309Y0222684D01*
X0349342Y0221716D01*
X0348330Y0221716D02*
X0347847Y0221232D01*
X0348330Y0220749D01*
X0348330Y0220265D01*
X0347847Y0219781D01*
X0346879Y0219781D01*
X0346395Y0220265D01*
X0345384Y0219781D02*
X0344416Y0220749D01*
X0344900Y0220749D02*
X0343449Y0220749D01*
X0343449Y0219781D02*
X0343449Y0222684D01*
X0344900Y0222684D01*
X0345384Y0222200D01*
X0345384Y0221232D01*
X0344900Y0220749D01*
X0346395Y0222200D02*
X0346879Y0222684D01*
X0347847Y0222684D01*
X0348330Y0222200D01*
X0348330Y0221716D01*
X0347847Y0221232D02*
X0347363Y0221232D01*
X0349342Y0219781D02*
X0351277Y0219781D01*
X0325680Y0223050D02*
X0323745Y0221115D01*
X0323745Y0220631D01*
X0322734Y0221115D02*
X0322250Y0220631D01*
X0321283Y0220631D01*
X0320799Y0221115D01*
X0320799Y0223050D01*
X0321283Y0223534D01*
X0322250Y0223534D01*
X0322734Y0223050D01*
X0323745Y0223534D02*
X0325680Y0223534D01*
X0325680Y0223050D01*
X0274627Y0192550D02*
X0274627Y0192066D01*
X0274143Y0191582D01*
X0273176Y0191582D01*
X0272692Y0192066D01*
X0272692Y0192550D01*
X0273176Y0193034D01*
X0274143Y0193034D01*
X0274627Y0192550D01*
X0274143Y0191582D02*
X0274627Y0191099D01*
X0274627Y0190615D01*
X0274143Y0190131D01*
X0273176Y0190131D01*
X0272692Y0190615D01*
X0272692Y0191099D01*
X0273176Y0191582D01*
X0271680Y0190131D02*
X0269745Y0190131D01*
X0270713Y0190131D02*
X0270713Y0193034D01*
X0269745Y0192066D01*
X0268734Y0191582D02*
X0268250Y0191099D01*
X0266799Y0191099D01*
X0267766Y0191099D02*
X0268734Y0190131D01*
X0268734Y0191582D02*
X0268734Y0192550D01*
X0268250Y0193034D01*
X0266799Y0193034D01*
X0266799Y0190131D01*
X0264731Y0200897D02*
X0262796Y0200897D01*
X0261784Y0201381D02*
X0261784Y0203316D01*
X0260817Y0204284D01*
X0259849Y0203316D01*
X0259849Y0201381D01*
X0258838Y0201381D02*
X0256903Y0201381D01*
X0257870Y0201381D02*
X0257870Y0204284D01*
X0256903Y0203316D01*
X0255891Y0201381D02*
X0253956Y0201381D01*
X0253956Y0204284D01*
X0252945Y0204284D02*
X0251010Y0204284D01*
X0251010Y0201381D01*
X0252945Y0201381D01*
X0251977Y0202832D02*
X0251010Y0202832D01*
X0249998Y0202349D02*
X0249998Y0201865D01*
X0249514Y0201381D01*
X0248547Y0201381D01*
X0248063Y0201865D01*
X0248547Y0202832D02*
X0249514Y0202832D01*
X0249998Y0202349D01*
X0249998Y0203800D02*
X0249514Y0204284D01*
X0248547Y0204284D01*
X0248063Y0203800D01*
X0248063Y0203316D01*
X0248547Y0202832D01*
X0247066Y0201381D02*
X0246099Y0201381D01*
X0246583Y0201381D02*
X0246583Y0204284D01*
X0247066Y0204284D02*
X0246099Y0204284D01*
X0259849Y0202832D02*
X0261784Y0202832D01*
X0265742Y0203316D02*
X0266710Y0204284D01*
X0266710Y0201381D01*
X0267677Y0201381D02*
X0265742Y0201381D01*
X0281849Y0181884D02*
X0283784Y0181884D01*
X0284795Y0181400D02*
X0285279Y0181884D01*
X0286247Y0181884D01*
X0286730Y0181400D01*
X0286730Y0180916D01*
X0284795Y0178981D01*
X0286730Y0178981D01*
X0282816Y0180432D02*
X0281849Y0180432D01*
X0281849Y0178981D02*
X0281849Y0181884D01*
X0281849Y0172784D02*
X0283300Y0172784D01*
X0283784Y0172300D01*
X0283784Y0171332D01*
X0283300Y0170849D01*
X0281849Y0170849D01*
X0282816Y0170849D02*
X0283784Y0169881D01*
X0284795Y0169881D02*
X0286730Y0171816D01*
X0286730Y0172300D01*
X0286247Y0172784D01*
X0285279Y0172784D01*
X0284795Y0172300D01*
X0284795Y0169881D02*
X0286730Y0169881D01*
X0287742Y0170365D02*
X0289677Y0172300D01*
X0289677Y0170365D01*
X0289193Y0169881D01*
X0288226Y0169881D01*
X0287742Y0170365D01*
X0287742Y0172300D01*
X0288226Y0172784D01*
X0289193Y0172784D01*
X0289677Y0172300D01*
X0281849Y0172784D02*
X0281849Y0169881D01*
X0281899Y0161684D02*
X0283350Y0161684D01*
X0283834Y0161200D01*
X0283834Y0160232D01*
X0283350Y0159749D01*
X0281899Y0159749D01*
X0282866Y0159749D02*
X0283834Y0158781D01*
X0284845Y0160232D02*
X0286780Y0160232D01*
X0286297Y0158781D02*
X0286297Y0161684D01*
X0284845Y0160232D01*
X0281899Y0158781D02*
X0281899Y0161684D01*
X0281899Y0152584D02*
X0283834Y0152584D01*
X0284845Y0151616D02*
X0285813Y0152584D01*
X0285813Y0149681D01*
X0286780Y0149681D02*
X0284845Y0149681D01*
X0282866Y0151132D02*
X0281899Y0151132D01*
X0281899Y0149681D02*
X0281899Y0152584D01*
X0322446Y0148225D02*
X0322930Y0148709D01*
X0323414Y0148709D01*
X0323898Y0148225D01*
X0323898Y0147258D01*
X0323414Y0146774D01*
X0322930Y0146774D01*
X0322446Y0147258D01*
X0322446Y0148225D01*
X0323898Y0148225D02*
X0324381Y0148709D01*
X0324865Y0148709D01*
X0325349Y0148225D01*
X0325349Y0147258D01*
X0324865Y0146774D01*
X0324381Y0146774D01*
X0323898Y0147258D01*
X0325349Y0145763D02*
X0325349Y0143828D01*
X0325349Y0144795D02*
X0322446Y0144795D01*
X0323414Y0143828D01*
X0322930Y0142816D02*
X0322446Y0142332D01*
X0322446Y0141365D01*
X0322930Y0140881D01*
X0324865Y0140881D01*
X0325349Y0141365D01*
X0325349Y0142332D01*
X0324865Y0142816D01*
X0327599Y0143831D02*
X0327599Y0146734D01*
X0329050Y0146734D01*
X0329534Y0146250D01*
X0329534Y0145282D01*
X0329050Y0144799D01*
X0327599Y0144799D01*
X0328566Y0144799D02*
X0329534Y0143831D01*
X0330545Y0144315D02*
X0331029Y0143831D01*
X0331997Y0143831D01*
X0332480Y0144315D01*
X0332480Y0145282D01*
X0331997Y0145766D01*
X0331513Y0145766D01*
X0330545Y0145282D01*
X0330545Y0146734D01*
X0332480Y0146734D01*
X0333492Y0145282D02*
X0334459Y0146250D01*
X0335427Y0146734D01*
X0334943Y0145282D02*
X0333492Y0145282D01*
X0333492Y0144315D01*
X0333976Y0143831D01*
X0334943Y0143831D01*
X0335427Y0144315D01*
X0335427Y0144799D01*
X0334943Y0145282D01*
X0337999Y0144749D02*
X0339450Y0144749D01*
X0339934Y0145232D01*
X0339934Y0146200D01*
X0339450Y0146684D01*
X0337999Y0146684D01*
X0337999Y0143781D01*
X0338966Y0144749D02*
X0339934Y0143781D01*
X0340945Y0144265D02*
X0341429Y0143781D01*
X0342397Y0143781D01*
X0342880Y0144265D01*
X0342880Y0145232D01*
X0342397Y0145716D01*
X0341913Y0145716D01*
X0340945Y0145232D01*
X0340945Y0146684D01*
X0342880Y0146684D01*
X0343892Y0146684D02*
X0345827Y0146684D01*
X0345827Y0146200D01*
X0343892Y0144265D01*
X0343892Y0143781D01*
X0358149Y0143831D02*
X0358149Y0146734D01*
X0359600Y0146734D01*
X0360084Y0146250D01*
X0360084Y0145282D01*
X0359600Y0144799D01*
X0358149Y0144799D01*
X0359116Y0144799D02*
X0360084Y0143831D01*
X0361095Y0144315D02*
X0361579Y0143831D01*
X0362547Y0143831D01*
X0363030Y0144315D01*
X0363030Y0145282D01*
X0362547Y0145766D01*
X0362063Y0145766D01*
X0361095Y0145282D01*
X0361095Y0146734D01*
X0363030Y0146734D01*
X0364042Y0146250D02*
X0364042Y0145766D01*
X0364526Y0145282D01*
X0365493Y0145282D01*
X0365977Y0144799D01*
X0365977Y0144315D01*
X0365493Y0143831D01*
X0364526Y0143831D01*
X0364042Y0144315D01*
X0364042Y0144799D01*
X0364526Y0145282D01*
X0365493Y0145282D02*
X0365977Y0145766D01*
X0365977Y0146250D01*
X0365493Y0146734D01*
X0364526Y0146734D01*
X0364042Y0146250D01*
X0366549Y0146684D02*
X0368000Y0146684D01*
X0368484Y0146200D01*
X0368484Y0145232D01*
X0368000Y0144749D01*
X0366549Y0144749D01*
X0367516Y0144749D02*
X0368484Y0143781D01*
X0369495Y0144265D02*
X0369979Y0143781D01*
X0370947Y0143781D01*
X0371430Y0144265D01*
X0371430Y0145232D01*
X0370947Y0145716D01*
X0370463Y0145716D01*
X0369495Y0145232D01*
X0369495Y0146684D01*
X0371430Y0146684D01*
X0372442Y0146200D02*
X0372442Y0145716D01*
X0372926Y0145232D01*
X0374377Y0145232D01*
X0374377Y0144265D02*
X0374377Y0146200D01*
X0373893Y0146684D01*
X0372926Y0146684D01*
X0372442Y0146200D01*
X0372442Y0144265D02*
X0372926Y0143781D01*
X0373893Y0143781D01*
X0374377Y0144265D01*
X0366549Y0143781D02*
X0366549Y0146684D01*
X0353537Y0158815D02*
X0353054Y0158331D01*
X0352086Y0158331D01*
X0351602Y0158815D01*
X0350591Y0158331D02*
X0348656Y0158331D01*
X0349623Y0158331D02*
X0349623Y0161234D01*
X0348656Y0160266D01*
X0347644Y0160750D02*
X0347644Y0158815D01*
X0347160Y0158331D01*
X0345709Y0158331D01*
X0345709Y0161234D01*
X0347160Y0161234D01*
X0347644Y0160750D01*
X0351602Y0160750D02*
X0352086Y0161234D01*
X0353054Y0161234D01*
X0353537Y0160750D01*
X0353537Y0160266D01*
X0353054Y0159782D01*
X0353537Y0159299D01*
X0353537Y0158815D01*
X0353054Y0159782D02*
X0352570Y0159782D01*
X0336787Y0160082D02*
X0334852Y0160082D01*
X0336304Y0161534D01*
X0336304Y0158631D01*
X0333841Y0159115D02*
X0333841Y0161050D01*
X0333357Y0161534D01*
X0331906Y0161534D01*
X0331906Y0158631D01*
X0333357Y0158631D01*
X0333841Y0159115D01*
X0387299Y0146734D02*
X0387299Y0143831D01*
X0387299Y0144799D02*
X0388750Y0144799D01*
X0389234Y0145282D01*
X0389234Y0146250D01*
X0388750Y0146734D01*
X0387299Y0146734D01*
X0388266Y0144799D02*
X0389234Y0143831D01*
X0390245Y0144315D02*
X0390729Y0143831D01*
X0391697Y0143831D01*
X0392180Y0144315D01*
X0392180Y0144799D01*
X0391697Y0145282D01*
X0390245Y0145282D01*
X0390245Y0144315D01*
X0390245Y0145282D02*
X0391213Y0146250D01*
X0392180Y0146734D01*
X0393192Y0146250D02*
X0393676Y0146734D01*
X0394643Y0146734D01*
X0395127Y0146250D01*
X0393192Y0144315D01*
X0393676Y0143831D01*
X0394643Y0143831D01*
X0395127Y0144315D01*
X0395127Y0146250D01*
X0395749Y0146734D02*
X0397200Y0146734D01*
X0397684Y0146250D01*
X0397684Y0145282D01*
X0397200Y0144799D01*
X0395749Y0144799D01*
X0396716Y0144799D02*
X0397684Y0143831D01*
X0398695Y0144315D02*
X0399179Y0143831D01*
X0400147Y0143831D01*
X0400630Y0144315D01*
X0400630Y0144799D01*
X0400147Y0145282D01*
X0398695Y0145282D01*
X0398695Y0144315D01*
X0398695Y0145282D02*
X0399663Y0146250D01*
X0400630Y0146734D01*
X0401642Y0145766D02*
X0402609Y0146734D01*
X0402609Y0143831D01*
X0401642Y0143831D02*
X0403577Y0143831D01*
X0404033Y0143684D02*
X0403549Y0143200D01*
X0403549Y0141265D01*
X0404033Y0140781D01*
X0405000Y0140781D01*
X0405484Y0141265D01*
X0406495Y0142232D02*
X0408430Y0142232D01*
X0409442Y0142716D02*
X0410409Y0143684D01*
X0410409Y0140781D01*
X0409442Y0140781D02*
X0411377Y0140781D01*
X0407947Y0140781D02*
X0407947Y0143684D01*
X0406495Y0142232D01*
X0405484Y0143200D02*
X0405000Y0143684D01*
X0404033Y0143684D01*
X0395749Y0143831D02*
X0395749Y0146734D01*
X0393192Y0146250D02*
X0393192Y0144315D01*
X0402983Y0120634D02*
X0402499Y0120150D01*
X0402499Y0118215D01*
X0402983Y0117731D01*
X0403950Y0117731D01*
X0404434Y0118215D01*
X0405445Y0118215D02*
X0405929Y0117731D01*
X0406897Y0117731D01*
X0407380Y0118215D01*
X0407380Y0119182D01*
X0406897Y0119666D01*
X0406413Y0119666D01*
X0405445Y0119182D01*
X0405445Y0120634D01*
X0407380Y0120634D01*
X0408392Y0120150D02*
X0408876Y0120634D01*
X0409843Y0120634D01*
X0410327Y0120150D01*
X0410327Y0119666D01*
X0408392Y0117731D01*
X0410327Y0117731D01*
X0404434Y0120150D02*
X0403950Y0120634D01*
X0402983Y0120634D01*
X0410433Y0105284D02*
X0409949Y0104800D01*
X0409949Y0102865D01*
X0410433Y0102381D01*
X0411400Y0102381D01*
X0411884Y0102865D01*
X0412895Y0102865D02*
X0413379Y0102381D01*
X0414347Y0102381D01*
X0414830Y0102865D01*
X0414830Y0103832D01*
X0414347Y0104316D01*
X0413863Y0104316D01*
X0412895Y0103832D01*
X0412895Y0105284D01*
X0414830Y0105284D01*
X0415842Y0104316D02*
X0416809Y0105284D01*
X0416809Y0102381D01*
X0415842Y0102381D02*
X0417777Y0102381D01*
X0411884Y0104800D02*
X0411400Y0105284D01*
X0410433Y0105284D01*
X0428199Y0096834D02*
X0429650Y0096834D01*
X0430134Y0096350D01*
X0430134Y0095382D01*
X0429650Y0094899D01*
X0428199Y0094899D01*
X0429166Y0094899D02*
X0430134Y0093931D01*
X0431145Y0094415D02*
X0431629Y0093931D01*
X0432597Y0093931D01*
X0433080Y0094415D01*
X0433080Y0095382D01*
X0432597Y0095866D01*
X0432113Y0095866D01*
X0431145Y0095382D01*
X0431145Y0096834D01*
X0433080Y0096834D01*
X0434092Y0095866D02*
X0435059Y0096834D01*
X0435059Y0093931D01*
X0434092Y0093931D02*
X0436027Y0093931D01*
X0436799Y0094465D02*
X0437283Y0093981D01*
X0438250Y0093981D01*
X0438734Y0094465D01*
X0439745Y0093981D02*
X0441680Y0093981D01*
X0440713Y0093981D02*
X0440713Y0096884D01*
X0439745Y0095916D01*
X0438734Y0096400D02*
X0438250Y0096884D01*
X0437283Y0096884D01*
X0436799Y0096400D01*
X0436799Y0094465D01*
X0442692Y0093981D02*
X0444627Y0095916D01*
X0444627Y0096400D01*
X0444143Y0096884D01*
X0443176Y0096884D01*
X0442692Y0096400D01*
X0442692Y0093981D02*
X0444627Y0093981D01*
X0451946Y0096831D02*
X0451946Y0097799D01*
X0451946Y0097315D02*
X0454849Y0097315D01*
X0454849Y0096831D02*
X0454849Y0097799D01*
X0454365Y0098795D02*
X0454849Y0099279D01*
X0454849Y0100247D01*
X0454365Y0100730D01*
X0454849Y0101742D02*
X0454849Y0103677D01*
X0454849Y0102709D02*
X0451946Y0102709D01*
X0452914Y0101742D01*
X0452430Y0100730D02*
X0451946Y0100247D01*
X0451946Y0099279D01*
X0452430Y0098795D01*
X0454365Y0098795D01*
X0460199Y0095550D02*
X0460199Y0093615D01*
X0460683Y0093131D01*
X0461650Y0093131D01*
X0462134Y0093615D01*
X0463145Y0093131D02*
X0465080Y0095066D01*
X0465080Y0095550D01*
X0464597Y0096034D01*
X0463629Y0096034D01*
X0463145Y0095550D01*
X0462134Y0095550D02*
X0461650Y0096034D01*
X0460683Y0096034D01*
X0460199Y0095550D01*
X0463145Y0093131D02*
X0465080Y0093131D01*
X0466092Y0093615D02*
X0466576Y0093131D01*
X0467543Y0093131D01*
X0468027Y0093615D01*
X0468027Y0094582D01*
X0467543Y0095066D01*
X0467059Y0095066D01*
X0466092Y0094582D01*
X0466092Y0096034D01*
X0468027Y0096034D01*
X0454849Y0104688D02*
X0454849Y0106623D01*
X0454849Y0105656D02*
X0451946Y0105656D01*
X0452914Y0104688D01*
X0447877Y0105765D02*
X0447393Y0105281D01*
X0446426Y0105281D01*
X0445942Y0105765D01*
X0444930Y0105281D02*
X0442995Y0105281D01*
X0444930Y0107216D01*
X0444930Y0107700D01*
X0444447Y0108184D01*
X0443479Y0108184D01*
X0442995Y0107700D01*
X0441984Y0107700D02*
X0441500Y0108184D01*
X0440533Y0108184D01*
X0440049Y0107700D01*
X0440049Y0105765D01*
X0440533Y0105281D01*
X0441500Y0105281D01*
X0441984Y0105765D01*
X0445942Y0107700D02*
X0446426Y0108184D01*
X0447393Y0108184D01*
X0447877Y0107700D01*
X0447877Y0107216D01*
X0447393Y0106732D01*
X0447877Y0106249D01*
X0447877Y0105765D01*
X0447393Y0106732D02*
X0446909Y0106732D01*
X0428199Y0096834D02*
X0428199Y0093931D01*
X0453746Y0076886D02*
X0453746Y0075918D01*
X0454230Y0075435D01*
X0454714Y0075435D01*
X0455198Y0075918D01*
X0455198Y0077370D01*
X0456165Y0077370D02*
X0454230Y0077370D01*
X0453746Y0076886D01*
X0456165Y0077370D02*
X0456649Y0076886D01*
X0456649Y0075918D01*
X0456165Y0075435D01*
X0456649Y0074423D02*
X0456649Y0072488D01*
X0454714Y0074423D01*
X0454230Y0074423D01*
X0453746Y0073939D01*
X0453746Y0072972D01*
X0454230Y0072488D01*
X0454230Y0071477D02*
X0453746Y0070993D01*
X0453746Y0070025D01*
X0454230Y0069542D01*
X0456165Y0069542D01*
X0456649Y0070025D01*
X0456649Y0070993D01*
X0456165Y0071477D01*
X0471249Y0070715D02*
X0471733Y0070231D01*
X0472700Y0070231D01*
X0473184Y0070715D01*
X0474195Y0070231D02*
X0476130Y0072166D01*
X0476130Y0072650D01*
X0475647Y0073134D01*
X0474679Y0073134D01*
X0474195Y0072650D01*
X0473184Y0072650D02*
X0472700Y0073134D01*
X0471733Y0073134D01*
X0471249Y0072650D01*
X0471249Y0070715D01*
X0474195Y0070231D02*
X0476130Y0070231D01*
X0477142Y0070715D02*
X0477626Y0070231D01*
X0478593Y0070231D01*
X0479077Y0070715D01*
X0479077Y0071199D01*
X0478593Y0071682D01*
X0477142Y0071682D01*
X0477142Y0070715D01*
X0477142Y0071682D02*
X0478109Y0072650D01*
X0479077Y0073134D01*
X0423287Y0069184D02*
X0421352Y0069184D01*
X0421352Y0067732D01*
X0422319Y0068216D01*
X0422803Y0068216D01*
X0423287Y0067732D01*
X0423287Y0066765D01*
X0422803Y0066281D01*
X0421835Y0066281D01*
X0421352Y0066765D01*
X0420340Y0067732D02*
X0419856Y0067249D01*
X0418405Y0067249D01*
X0418405Y0066281D02*
X0418405Y0069184D01*
X0419856Y0069184D01*
X0420340Y0068700D01*
X0420340Y0067732D01*
X0417394Y0069184D02*
X0416426Y0069184D01*
X0416910Y0069184D02*
X0416910Y0066765D01*
X0416426Y0066281D01*
X0415942Y0066281D01*
X0415459Y0066765D01*
X0416380Y0062559D02*
X0416864Y0062559D01*
X0417348Y0062075D01*
X0417831Y0062559D01*
X0418315Y0062559D01*
X0418799Y0062075D01*
X0418799Y0061108D01*
X0418315Y0060624D01*
X0418315Y0059613D02*
X0417831Y0059613D01*
X0417348Y0059129D01*
X0417348Y0057678D01*
X0418315Y0057678D01*
X0418799Y0058161D01*
X0418799Y0059129D01*
X0418315Y0059613D01*
X0416380Y0058645D02*
X0417348Y0057678D01*
X0417348Y0056666D02*
X0417831Y0056182D01*
X0417831Y0054731D01*
X0417831Y0055699D02*
X0418799Y0056666D01*
X0417348Y0056666D02*
X0416380Y0056666D01*
X0415896Y0056182D01*
X0415896Y0054731D01*
X0418799Y0054731D01*
X0416087Y0050834D02*
X0415119Y0050350D01*
X0414152Y0049382D01*
X0415603Y0049382D01*
X0416087Y0048899D01*
X0416087Y0048415D01*
X0415603Y0047931D01*
X0414635Y0047931D01*
X0414152Y0048415D01*
X0414152Y0049382D01*
X0413140Y0049382D02*
X0412656Y0048899D01*
X0411205Y0048899D01*
X0411205Y0047931D02*
X0411205Y0050834D01*
X0412656Y0050834D01*
X0413140Y0050350D01*
X0413140Y0049382D01*
X0410194Y0050834D02*
X0409226Y0050834D01*
X0409710Y0050834D02*
X0409710Y0048415D01*
X0409226Y0047931D01*
X0408742Y0047931D01*
X0408259Y0048415D01*
X0397749Y0050125D02*
X0397749Y0051093D01*
X0397265Y0051577D01*
X0397265Y0052588D02*
X0397749Y0053072D01*
X0397749Y0054039D01*
X0397265Y0054523D01*
X0396298Y0054523D01*
X0395814Y0054039D01*
X0395814Y0053556D01*
X0396298Y0052588D01*
X0394846Y0052588D01*
X0394846Y0054523D01*
X0395330Y0055535D02*
X0394846Y0056018D01*
X0394846Y0056986D01*
X0395330Y0057470D01*
X0397265Y0055535D01*
X0397749Y0056018D01*
X0397749Y0056986D01*
X0397265Y0057470D01*
X0395330Y0057470D01*
X0395330Y0055535D02*
X0397265Y0055535D01*
X0395330Y0051577D02*
X0394846Y0051093D01*
X0394846Y0050125D01*
X0395330Y0049642D01*
X0397265Y0049642D01*
X0397749Y0050125D01*
X0415896Y0059613D02*
X0416380Y0058645D01*
X0416380Y0060624D02*
X0415896Y0061108D01*
X0415896Y0062075D01*
X0416380Y0062559D01*
X0417348Y0062075D02*
X0417348Y0061592D01*
X0392077Y0063515D02*
X0391593Y0063031D01*
X0390626Y0063031D01*
X0390142Y0063515D01*
X0390142Y0063999D01*
X0390626Y0064482D01*
X0391593Y0064482D01*
X0392077Y0063999D01*
X0392077Y0063515D01*
X0391593Y0064482D02*
X0392077Y0064966D01*
X0392077Y0065450D01*
X0391593Y0065934D01*
X0390626Y0065934D01*
X0390142Y0065450D01*
X0390142Y0064966D01*
X0390626Y0064482D01*
X0389130Y0064482D02*
X0387195Y0064482D01*
X0388647Y0065934D01*
X0388647Y0063031D01*
X0386184Y0063515D02*
X0385700Y0063031D01*
X0384733Y0063031D01*
X0384249Y0063515D01*
X0384249Y0065450D01*
X0384733Y0065934D01*
X0385700Y0065934D01*
X0386184Y0065450D01*
X0330037Y0052800D02*
X0330037Y0052316D01*
X0328102Y0050381D01*
X0330037Y0050381D01*
X0330037Y0052800D02*
X0329554Y0053284D01*
X0328586Y0053284D01*
X0328102Y0052800D01*
X0327091Y0053284D02*
X0326123Y0052800D01*
X0325156Y0051832D01*
X0326607Y0051832D01*
X0327091Y0051349D01*
X0327091Y0050865D01*
X0326607Y0050381D01*
X0325640Y0050381D01*
X0325156Y0050865D01*
X0325156Y0051832D01*
X0324144Y0051832D02*
X0323660Y0051349D01*
X0322209Y0051349D01*
X0323177Y0051349D02*
X0324144Y0050381D01*
X0324144Y0051832D02*
X0324144Y0052800D01*
X0323660Y0053284D01*
X0322209Y0053284D01*
X0322209Y0050381D01*
X0321804Y0064081D02*
X0320836Y0064081D01*
X0320352Y0064565D01*
X0320352Y0065532D02*
X0321320Y0066016D01*
X0321804Y0066016D01*
X0322287Y0065532D01*
X0322287Y0064565D01*
X0321804Y0064081D01*
X0320352Y0065532D02*
X0320352Y0066984D01*
X0322287Y0066984D01*
X0318373Y0066984D02*
X0318373Y0064081D01*
X0317406Y0064081D02*
X0319341Y0064081D01*
X0317406Y0066016D02*
X0318373Y0066984D01*
X0316394Y0066500D02*
X0315910Y0066984D01*
X0314943Y0066984D01*
X0314459Y0066500D01*
X0314459Y0064565D01*
X0314943Y0064081D01*
X0315910Y0064081D01*
X0316394Y0064565D01*
X0316702Y0069931D02*
X0318637Y0069931D01*
X0317670Y0069931D02*
X0317670Y0072834D01*
X0316702Y0071866D01*
X0315691Y0071866D02*
X0315691Y0072350D01*
X0315207Y0072834D01*
X0314240Y0072834D01*
X0313756Y0072350D01*
X0312744Y0072350D02*
X0312260Y0072834D01*
X0311293Y0072834D01*
X0310809Y0072350D01*
X0310809Y0070415D01*
X0311293Y0069931D01*
X0312260Y0069931D01*
X0312744Y0070415D01*
X0313756Y0069931D02*
X0315691Y0071866D01*
X0315691Y0069931D02*
X0313756Y0069931D01*
X0282499Y0079165D02*
X0282015Y0078681D01*
X0280080Y0078681D01*
X0279596Y0079165D01*
X0279596Y0080132D01*
X0280080Y0080616D01*
X0280080Y0081628D02*
X0279596Y0082111D01*
X0279596Y0083079D01*
X0280080Y0083563D01*
X0280564Y0083563D01*
X0281048Y0083079D01*
X0281531Y0083563D01*
X0282015Y0083563D01*
X0282499Y0083079D01*
X0282499Y0082111D01*
X0282015Y0081628D01*
X0282015Y0080616D02*
X0282499Y0080132D01*
X0282499Y0079165D01*
X0281048Y0082595D02*
X0281048Y0083079D01*
X0282015Y0084574D02*
X0282499Y0084574D01*
X0282015Y0084574D02*
X0280080Y0086509D01*
X0279596Y0086509D01*
X0279596Y0084574D01*
X0313259Y0104115D02*
X0313743Y0103631D01*
X0314710Y0103631D01*
X0315194Y0104115D01*
X0316206Y0103631D02*
X0318141Y0105566D01*
X0318141Y0106050D01*
X0317657Y0106534D01*
X0316690Y0106534D01*
X0316206Y0106050D01*
X0315194Y0106050D02*
X0314710Y0106534D01*
X0313743Y0106534D01*
X0313259Y0106050D01*
X0313259Y0104115D01*
X0316206Y0103631D02*
X0318141Y0103631D01*
X0319152Y0103631D02*
X0321087Y0105566D01*
X0321087Y0106050D01*
X0320604Y0106534D01*
X0319636Y0106534D01*
X0319152Y0106050D01*
X0319152Y0103631D02*
X0321087Y0103631D01*
X0306804Y0113381D02*
X0306804Y0116284D01*
X0305352Y0114832D01*
X0307287Y0114832D01*
X0304341Y0114832D02*
X0304341Y0113865D01*
X0303857Y0113381D01*
X0302890Y0113381D01*
X0302406Y0113865D01*
X0302406Y0114832D02*
X0303373Y0115316D01*
X0303857Y0115316D01*
X0304341Y0114832D01*
X0304341Y0116284D02*
X0302406Y0116284D01*
X0302406Y0114832D01*
X0301394Y0114832D02*
X0300910Y0114349D01*
X0299459Y0114349D01*
X0300427Y0114349D02*
X0301394Y0113381D01*
X0301394Y0114832D02*
X0301394Y0115800D01*
X0300910Y0116284D01*
X0299459Y0116284D01*
X0299459Y0113381D01*
X0299609Y0120731D02*
X0299609Y0123634D01*
X0301060Y0123634D01*
X0301544Y0123150D01*
X0301544Y0122182D01*
X0301060Y0121699D01*
X0299609Y0121699D01*
X0300577Y0121699D02*
X0301544Y0120731D01*
X0302556Y0121215D02*
X0303040Y0120731D01*
X0304007Y0120731D01*
X0304491Y0121215D01*
X0304491Y0122182D01*
X0304007Y0122666D01*
X0303523Y0122666D01*
X0302556Y0122182D01*
X0302556Y0123634D01*
X0304491Y0123634D01*
X0305502Y0123634D02*
X0305502Y0122182D01*
X0306470Y0122666D01*
X0306954Y0122666D01*
X0307437Y0122182D01*
X0307437Y0121215D01*
X0306954Y0120731D01*
X0305986Y0120731D01*
X0305502Y0121215D01*
X0305502Y0123634D02*
X0307437Y0123634D01*
X0279587Y0058684D02*
X0277652Y0058684D01*
X0277652Y0057232D01*
X0278620Y0057716D01*
X0279104Y0057716D01*
X0279587Y0057232D01*
X0279587Y0056265D01*
X0279104Y0055781D01*
X0278136Y0055781D01*
X0277652Y0056265D01*
X0276641Y0056265D02*
X0276157Y0055781D01*
X0275190Y0055781D01*
X0274706Y0056265D01*
X0273694Y0056265D02*
X0273210Y0055781D01*
X0272243Y0055781D01*
X0271759Y0056265D01*
X0271759Y0058200D01*
X0272243Y0058684D01*
X0273210Y0058684D01*
X0273694Y0058200D01*
X0274706Y0058200D02*
X0275190Y0058684D01*
X0276157Y0058684D01*
X0276641Y0058200D01*
X0276641Y0057716D01*
X0276157Y0057232D01*
X0276641Y0056749D01*
X0276641Y0056265D01*
X0276157Y0057232D02*
X0275673Y0057232D01*
X0175349Y0057713D02*
X0173898Y0056261D01*
X0174381Y0055778D02*
X0172446Y0057713D01*
X0172930Y0058724D02*
X0172446Y0059208D01*
X0172446Y0060175D01*
X0172930Y0060659D01*
X0173414Y0060659D01*
X0175349Y0058724D01*
X0175349Y0060659D01*
X0175349Y0055778D02*
X0172446Y0055778D01*
X0172930Y0054766D02*
X0172446Y0054282D01*
X0172446Y0053315D01*
X0172930Y0052831D01*
X0174865Y0052831D01*
X0175349Y0053315D01*
X0175349Y0054282D01*
X0174865Y0054766D01*
X0172930Y0054766D01*
X0172500Y0044084D02*
X0171049Y0044084D01*
X0171049Y0041181D01*
X0172500Y0041181D01*
X0172984Y0041665D01*
X0172984Y0043600D01*
X0172500Y0044084D01*
X0173995Y0043600D02*
X0174479Y0044084D01*
X0175447Y0044084D01*
X0175930Y0043600D01*
X0175930Y0043116D01*
X0173995Y0041181D01*
X0175930Y0041181D01*
X0175597Y0034484D02*
X0174629Y0034484D01*
X0174145Y0034000D01*
X0173134Y0034000D02*
X0172650Y0034484D01*
X0171199Y0034484D01*
X0171199Y0031581D01*
X0172650Y0031581D01*
X0173134Y0032065D01*
X0173134Y0034000D01*
X0174145Y0032065D02*
X0174629Y0031581D01*
X0175597Y0031581D01*
X0176080Y0032065D01*
X0176080Y0032549D01*
X0175597Y0033032D01*
X0175113Y0033032D01*
X0175597Y0033032D02*
X0176080Y0033516D01*
X0176080Y0034000D01*
X0175597Y0034484D01*
X0150949Y0052342D02*
X0148046Y0052342D01*
X0148046Y0053793D01*
X0148530Y0054277D01*
X0149498Y0054277D01*
X0149981Y0053793D01*
X0149981Y0052342D01*
X0149981Y0053309D02*
X0150949Y0054277D01*
X0150949Y0055288D02*
X0150949Y0057223D01*
X0150949Y0056256D02*
X0148046Y0056256D01*
X0149014Y0055288D01*
X0149014Y0058235D02*
X0148046Y0059202D01*
X0150949Y0059202D01*
X0150949Y0058235D02*
X0150949Y0060170D01*
X0143992Y0070131D02*
X0143992Y0070615D01*
X0145927Y0072550D01*
X0145927Y0073034D01*
X0143992Y0073034D01*
X0142013Y0073034D02*
X0142013Y0070131D01*
X0142980Y0070131D02*
X0141045Y0070131D01*
X0140034Y0070131D02*
X0139066Y0071099D01*
X0139550Y0071099D02*
X0138099Y0071099D01*
X0138099Y0070131D02*
X0138099Y0073034D01*
X0139550Y0073034D01*
X0140034Y0072550D01*
X0140034Y0071582D01*
X0139550Y0071099D01*
X0141045Y0072066D02*
X0142013Y0073034D01*
X0126630Y0068100D02*
X0126147Y0068584D01*
X0125179Y0068584D01*
X0124695Y0068100D01*
X0124695Y0067616D01*
X0125179Y0067132D01*
X0126630Y0067132D01*
X0126630Y0066165D02*
X0126630Y0068100D01*
X0126630Y0066165D02*
X0126147Y0065681D01*
X0125179Y0065681D01*
X0124695Y0066165D01*
X0123684Y0065681D02*
X0122716Y0066649D01*
X0123200Y0066649D02*
X0121749Y0066649D01*
X0121749Y0065681D02*
X0121749Y0068584D01*
X0123200Y0068584D01*
X0123684Y0068100D01*
X0123684Y0067132D01*
X0123200Y0066649D01*
X0123400Y0061584D02*
X0123884Y0061100D01*
X0123884Y0060132D01*
X0123400Y0059649D01*
X0121949Y0059649D01*
X0122916Y0059649D02*
X0123884Y0058681D01*
X0124895Y0058681D02*
X0126830Y0058681D01*
X0125863Y0058681D02*
X0125863Y0061584D01*
X0124895Y0060616D01*
X0123400Y0061584D02*
X0121949Y0061584D01*
X0121949Y0058681D01*
X0127842Y0059165D02*
X0128326Y0058681D01*
X0129293Y0058681D01*
X0129777Y0059165D01*
X0129777Y0059649D01*
X0129293Y0060132D01*
X0127842Y0060132D01*
X0127842Y0059165D01*
X0127842Y0060132D02*
X0128809Y0061100D01*
X0129777Y0061584D01*
X0111227Y0061484D02*
X0109292Y0061484D01*
X0109292Y0060032D01*
X0110259Y0060516D01*
X0110743Y0060516D01*
X0111227Y0060032D01*
X0111227Y0059065D01*
X0110743Y0058581D01*
X0109776Y0058581D01*
X0109292Y0059065D01*
X0108280Y0058581D02*
X0106345Y0058581D01*
X0107313Y0058581D02*
X0107313Y0061484D01*
X0106345Y0060516D01*
X0105334Y0060032D02*
X0104850Y0059549D01*
X0103399Y0059549D01*
X0104366Y0059549D02*
X0105334Y0058581D01*
X0105334Y0060032D02*
X0105334Y0061000D01*
X0104850Y0061484D01*
X0103399Y0061484D01*
X0103399Y0058581D01*
X0091977Y0060032D02*
X0090042Y0060032D01*
X0091493Y0061484D01*
X0091493Y0058581D01*
X0089030Y0058581D02*
X0087095Y0058581D01*
X0088063Y0058581D02*
X0088063Y0061484D01*
X0087095Y0060516D01*
X0086084Y0060032D02*
X0085600Y0059549D01*
X0084149Y0059549D01*
X0085116Y0059549D02*
X0086084Y0058581D01*
X0086084Y0060032D02*
X0086084Y0061000D01*
X0085600Y0061484D01*
X0084149Y0061484D01*
X0084149Y0058581D01*
X0072727Y0059065D02*
X0072243Y0058581D01*
X0071276Y0058581D01*
X0070792Y0059065D01*
X0069780Y0058581D02*
X0067845Y0058581D01*
X0068813Y0058581D02*
X0068813Y0061484D01*
X0067845Y0060516D01*
X0066834Y0060032D02*
X0066350Y0059549D01*
X0064899Y0059549D01*
X0065866Y0059549D02*
X0066834Y0058581D01*
X0066834Y0060032D02*
X0066834Y0061000D01*
X0066350Y0061484D01*
X0064899Y0061484D01*
X0064899Y0058581D01*
X0070792Y0061000D02*
X0071276Y0061484D01*
X0072243Y0061484D01*
X0072727Y0061000D01*
X0072727Y0060516D01*
X0072243Y0060032D01*
X0072727Y0059549D01*
X0072727Y0059065D01*
X0072243Y0060032D02*
X0071759Y0060032D01*
X0076456Y0065531D02*
X0076456Y0068434D01*
X0077907Y0068434D01*
X0078391Y0067950D01*
X0078391Y0066982D01*
X0077907Y0066499D01*
X0076456Y0066499D01*
X0077423Y0066499D02*
X0078391Y0065531D01*
X0079402Y0066015D02*
X0079402Y0066499D01*
X0079886Y0066982D01*
X0080854Y0066982D01*
X0081337Y0066499D01*
X0081337Y0066015D01*
X0080854Y0065531D01*
X0079886Y0065531D01*
X0079402Y0066015D01*
X0079886Y0066982D02*
X0079402Y0067466D01*
X0079402Y0067950D01*
X0079886Y0068434D01*
X0080854Y0068434D01*
X0081337Y0067950D01*
X0081337Y0067466D01*
X0080854Y0066982D01*
X0045383Y0050209D02*
X0045383Y0047306D01*
X0046350Y0047306D02*
X0044415Y0047306D01*
X0043403Y0047306D02*
X0041469Y0047306D01*
X0041469Y0050209D01*
X0044415Y0049241D02*
X0045383Y0050209D01*
X0046169Y0087256D02*
X0048103Y0087256D01*
X0049115Y0087256D02*
X0051050Y0089191D01*
X0051050Y0089675D01*
X0050566Y0090159D01*
X0049599Y0090159D01*
X0049115Y0089675D01*
X0049115Y0087256D02*
X0051050Y0087256D01*
X0046169Y0087256D02*
X0046169Y0090159D01*
X0079599Y0090299D02*
X0081050Y0090299D01*
X0081534Y0090782D01*
X0081534Y0091750D01*
X0081050Y0092234D01*
X0079599Y0092234D01*
X0079599Y0089331D01*
X0080566Y0090299D02*
X0081534Y0089331D01*
X0082545Y0089331D02*
X0084480Y0091266D01*
X0084480Y0091750D01*
X0083997Y0092234D01*
X0083029Y0092234D01*
X0082545Y0091750D01*
X0082545Y0089331D02*
X0084480Y0089331D01*
X0085492Y0089815D02*
X0085976Y0089331D01*
X0086943Y0089331D01*
X0087427Y0089815D01*
X0087427Y0090299D01*
X0086943Y0090782D01*
X0085492Y0090782D01*
X0085492Y0089815D01*
X0085492Y0090782D02*
X0086459Y0091750D01*
X0087427Y0092234D01*
X0098849Y0092234D02*
X0098849Y0089331D01*
X0098849Y0090299D02*
X0100300Y0090299D01*
X0100784Y0090782D01*
X0100784Y0091750D01*
X0100300Y0092234D01*
X0098849Y0092234D01*
X0099816Y0090299D02*
X0100784Y0089331D01*
X0101795Y0089331D02*
X0103730Y0091266D01*
X0103730Y0091750D01*
X0103247Y0092234D01*
X0102279Y0092234D01*
X0101795Y0091750D01*
X0101795Y0089331D02*
X0103730Y0089331D01*
X0104742Y0089331D02*
X0104742Y0089815D01*
X0106677Y0091750D01*
X0106677Y0092234D01*
X0104742Y0092234D01*
X0118099Y0092234D02*
X0118099Y0089331D01*
X0118099Y0090299D02*
X0119550Y0090299D01*
X0120034Y0090782D01*
X0120034Y0091750D01*
X0119550Y0092234D01*
X0118099Y0092234D01*
X0119066Y0090299D02*
X0120034Y0089331D01*
X0121045Y0089331D02*
X0122980Y0091266D01*
X0122980Y0091750D01*
X0122497Y0092234D01*
X0121529Y0092234D01*
X0121045Y0091750D01*
X0121045Y0089331D02*
X0122980Y0089331D01*
X0123992Y0089815D02*
X0123992Y0090299D01*
X0124476Y0090782D01*
X0125443Y0090782D01*
X0125927Y0090299D01*
X0125927Y0089815D01*
X0125443Y0089331D01*
X0124476Y0089331D01*
X0123992Y0089815D01*
X0124476Y0090782D02*
X0123992Y0091266D01*
X0123992Y0091750D01*
X0124476Y0092234D01*
X0125443Y0092234D01*
X0125927Y0091750D01*
X0125927Y0091266D01*
X0125443Y0090782D01*
X0139649Y0090399D02*
X0141100Y0090399D01*
X0141584Y0090882D01*
X0141584Y0091850D01*
X0141100Y0092334D01*
X0139649Y0092334D01*
X0139649Y0089431D01*
X0140616Y0090399D02*
X0141584Y0089431D01*
X0142595Y0089431D02*
X0144530Y0091366D01*
X0144530Y0091850D01*
X0144047Y0092334D01*
X0143079Y0092334D01*
X0142595Y0091850D01*
X0142595Y0089431D02*
X0144530Y0089431D01*
X0145542Y0089915D02*
X0146026Y0089431D01*
X0146993Y0089431D01*
X0147477Y0089915D01*
X0147477Y0091850D01*
X0146993Y0092334D01*
X0146026Y0092334D01*
X0145542Y0091850D01*
X0145542Y0091366D01*
X0146026Y0090882D01*
X0147477Y0090882D01*
X0147606Y0097031D02*
X0147606Y0099934D01*
X0149057Y0099934D01*
X0149541Y0099450D01*
X0149541Y0098482D01*
X0149057Y0097999D01*
X0147606Y0097999D01*
X0146110Y0097515D02*
X0146110Y0099934D01*
X0145627Y0099934D02*
X0146594Y0099934D01*
X0146110Y0097515D02*
X0145627Y0097031D01*
X0145143Y0097031D01*
X0144659Y0097515D01*
X0150552Y0097031D02*
X0152487Y0098966D01*
X0152487Y0099450D01*
X0152004Y0099934D01*
X0151036Y0099934D01*
X0150552Y0099450D01*
X0150552Y0097031D02*
X0152487Y0097031D01*
X0157349Y0092234D02*
X0158800Y0092234D01*
X0159284Y0091750D01*
X0159284Y0090782D01*
X0158800Y0090299D01*
X0157349Y0090299D01*
X0158316Y0090299D02*
X0159284Y0089331D01*
X0160295Y0089815D02*
X0160779Y0089331D01*
X0161747Y0089331D01*
X0162230Y0089815D01*
X0162230Y0090299D01*
X0161747Y0090782D01*
X0161263Y0090782D01*
X0161747Y0090782D02*
X0162230Y0091266D01*
X0162230Y0091750D01*
X0161747Y0092234D01*
X0160779Y0092234D01*
X0160295Y0091750D01*
X0163242Y0091750D02*
X0163242Y0089815D01*
X0165177Y0091750D01*
X0165177Y0089815D01*
X0164693Y0089331D01*
X0163726Y0089331D01*
X0163242Y0089815D01*
X0163242Y0091750D02*
X0163726Y0092234D01*
X0164693Y0092234D01*
X0165177Y0091750D01*
X0157349Y0092234D02*
X0157349Y0089331D01*
X0172546Y0095315D02*
X0173030Y0094831D01*
X0174965Y0094831D01*
X0175449Y0095315D01*
X0175449Y0096282D01*
X0174965Y0096766D01*
X0173030Y0096766D01*
X0172546Y0096282D01*
X0172546Y0095315D01*
X0172546Y0097778D02*
X0175449Y0097778D01*
X0174481Y0097778D02*
X0172546Y0099713D01*
X0173998Y0100724D02*
X0173998Y0102659D01*
X0175449Y0102175D02*
X0172546Y0102175D01*
X0173998Y0100724D01*
X0175449Y0099713D02*
X0173998Y0098261D01*
X0148537Y0107432D02*
X0146602Y0107432D01*
X0148054Y0108884D01*
X0148054Y0105981D01*
X0145591Y0105981D02*
X0143656Y0105981D01*
X0145591Y0107916D01*
X0145591Y0108400D01*
X0145107Y0108884D01*
X0144140Y0108884D01*
X0143656Y0108400D01*
X0142644Y0108400D02*
X0142644Y0107432D01*
X0142160Y0106949D01*
X0140709Y0106949D01*
X0141677Y0106949D02*
X0142644Y0105981D01*
X0140709Y0105981D02*
X0140709Y0108884D01*
X0142160Y0108884D01*
X0142644Y0108400D01*
X0133977Y0104900D02*
X0133493Y0105384D01*
X0132526Y0105384D01*
X0132042Y0104900D01*
X0131030Y0104900D02*
X0130547Y0105384D01*
X0129579Y0105384D01*
X0129095Y0104900D01*
X0128084Y0104900D02*
X0128084Y0103932D01*
X0127600Y0103449D01*
X0126149Y0103449D01*
X0127116Y0103449D02*
X0128084Y0102481D01*
X0129095Y0102481D02*
X0131030Y0104416D01*
X0131030Y0104900D01*
X0132042Y0102965D02*
X0132526Y0102481D01*
X0133493Y0102481D01*
X0133977Y0102965D01*
X0133977Y0103449D01*
X0133493Y0103932D01*
X0133009Y0103932D01*
X0133493Y0103932D02*
X0133977Y0104416D01*
X0133977Y0104900D01*
X0131030Y0102481D02*
X0129095Y0102481D01*
X0128084Y0104900D02*
X0127600Y0105384D01*
X0126149Y0105384D01*
X0126149Y0102481D01*
X0111277Y0102481D02*
X0109342Y0102481D01*
X0111277Y0104416D01*
X0111277Y0104900D01*
X0110793Y0105384D01*
X0109826Y0105384D01*
X0109342Y0104900D01*
X0108330Y0104900D02*
X0107847Y0105384D01*
X0106879Y0105384D01*
X0106395Y0104900D01*
X0105384Y0104900D02*
X0105384Y0103932D01*
X0104900Y0103449D01*
X0103449Y0103449D01*
X0104416Y0103449D02*
X0105384Y0102481D01*
X0106395Y0102481D02*
X0108330Y0104416D01*
X0108330Y0104900D01*
X0108330Y0102481D02*
X0106395Y0102481D01*
X0105384Y0104900D02*
X0104900Y0105384D01*
X0103449Y0105384D01*
X0103449Y0102481D01*
X0137306Y0116881D02*
X0138757Y0116881D01*
X0139241Y0117365D01*
X0139241Y0119300D01*
X0138757Y0119784D01*
X0137306Y0119784D01*
X0137306Y0116881D01*
X0140252Y0117365D02*
X0140736Y0116881D01*
X0141704Y0116881D01*
X0142187Y0117365D01*
X0142187Y0118332D01*
X0141704Y0118816D01*
X0141220Y0118816D01*
X0140252Y0118332D01*
X0140252Y0119784D01*
X0142187Y0119784D01*
X0141804Y0128731D02*
X0142287Y0129215D01*
X0142287Y0129699D01*
X0141804Y0130182D01*
X0140352Y0130182D01*
X0140352Y0129215D01*
X0140836Y0128731D01*
X0141804Y0128731D01*
X0140352Y0130182D02*
X0141320Y0131150D01*
X0142287Y0131634D01*
X0139341Y0131150D02*
X0138857Y0131634D01*
X0137406Y0131634D01*
X0137406Y0128731D01*
X0138857Y0128731D01*
X0139341Y0129215D01*
X0139341Y0131150D01*
X0172346Y0121825D02*
X0172830Y0122309D01*
X0173314Y0122309D01*
X0173798Y0121825D01*
X0174281Y0122309D01*
X0174765Y0122309D01*
X0175249Y0121825D01*
X0175249Y0120858D01*
X0174765Y0120374D01*
X0175249Y0119363D02*
X0173798Y0117911D01*
X0174281Y0117428D02*
X0172346Y0119363D01*
X0172830Y0120374D02*
X0172346Y0120858D01*
X0172346Y0121825D01*
X0173798Y0121825D02*
X0173798Y0121342D01*
X0172346Y0117428D02*
X0175249Y0117428D01*
X0174765Y0116416D02*
X0172830Y0116416D01*
X0172346Y0115932D01*
X0172346Y0114965D01*
X0172830Y0114481D01*
X0174765Y0114481D01*
X0175249Y0114965D01*
X0175249Y0115932D01*
X0174765Y0116416D01*
X0175399Y0079759D02*
X0175399Y0077824D01*
X0175399Y0078792D02*
X0172496Y0078792D01*
X0173464Y0077824D01*
X0172496Y0076813D02*
X0174431Y0074878D01*
X0173948Y0075361D02*
X0175399Y0076813D01*
X0175399Y0074878D02*
X0172496Y0074878D01*
X0172980Y0073866D02*
X0172496Y0073382D01*
X0172496Y0072415D01*
X0172980Y0071931D01*
X0174915Y0071931D01*
X0175399Y0072415D01*
X0175399Y0073382D01*
X0174915Y0073866D01*
X0172980Y0073866D01*
X0165127Y0070431D02*
X0163192Y0070431D01*
X0164159Y0070431D02*
X0164159Y0073334D01*
X0163192Y0072366D01*
X0162180Y0071882D02*
X0161697Y0071399D01*
X0160245Y0071399D01*
X0160245Y0070431D02*
X0160245Y0073334D01*
X0161697Y0073334D01*
X0162180Y0072850D01*
X0162180Y0071882D01*
X0159234Y0073334D02*
X0158266Y0073334D01*
X0158750Y0073334D02*
X0158750Y0070915D01*
X0158266Y0070431D01*
X0157783Y0070431D01*
X0157299Y0070915D01*
X0051627Y0110381D02*
X0049692Y0110381D01*
X0051627Y0112316D01*
X0051627Y0112800D01*
X0051143Y0113284D01*
X0050176Y0113284D01*
X0049692Y0112800D01*
X0048680Y0112800D02*
X0048680Y0112316D01*
X0048197Y0111832D01*
X0048680Y0111349D01*
X0048680Y0110865D01*
X0048197Y0110381D01*
X0047229Y0110381D01*
X0046745Y0110865D01*
X0045734Y0110381D02*
X0044766Y0111349D01*
X0045250Y0111349D02*
X0043799Y0111349D01*
X0043799Y0110381D02*
X0043799Y0113284D01*
X0045250Y0113284D01*
X0045734Y0112800D01*
X0045734Y0111832D01*
X0045250Y0111349D01*
X0046745Y0112800D02*
X0047229Y0113284D01*
X0048197Y0113284D01*
X0048680Y0112800D01*
X0048197Y0111832D02*
X0047713Y0111832D01*
X0048147Y0153731D02*
X0048147Y0156634D01*
X0046695Y0155182D01*
X0048630Y0155182D01*
X0049642Y0156150D02*
X0050126Y0156634D01*
X0051093Y0156634D01*
X0051577Y0156150D01*
X0051577Y0155666D01*
X0049642Y0153731D01*
X0051577Y0153731D01*
X0055799Y0155381D02*
X0057250Y0155381D01*
X0057734Y0155865D01*
X0057734Y0157800D01*
X0057250Y0158284D01*
X0055799Y0158284D01*
X0055799Y0155381D01*
X0058745Y0155381D02*
X0060680Y0155381D01*
X0059713Y0155381D02*
X0059713Y0158284D01*
X0058745Y0157316D01*
X0061692Y0156832D02*
X0063143Y0158284D01*
X0063143Y0155381D01*
X0063627Y0156832D02*
X0061692Y0156832D01*
X0067349Y0158134D02*
X0068800Y0158134D01*
X0069284Y0157650D01*
X0069284Y0155715D01*
X0068800Y0155231D01*
X0067349Y0155231D01*
X0067349Y0158134D01*
X0070295Y0157166D02*
X0071263Y0158134D01*
X0071263Y0155231D01*
X0072230Y0155231D02*
X0070295Y0155231D01*
X0073242Y0155715D02*
X0073726Y0155231D01*
X0074693Y0155231D01*
X0075177Y0155715D01*
X0075177Y0156682D01*
X0074693Y0157166D01*
X0074209Y0157166D01*
X0073242Y0156682D01*
X0073242Y0158134D01*
X0075177Y0158134D01*
X0045684Y0156150D02*
X0045684Y0155182D01*
X0045200Y0154699D01*
X0043749Y0154699D01*
X0044716Y0154699D02*
X0045684Y0153731D01*
X0043749Y0153731D02*
X0043749Y0156634D01*
X0045200Y0156634D01*
X0045684Y0156150D01*
X0389659Y0231581D02*
X0389659Y0234484D01*
X0391110Y0234484D01*
X0391594Y0234000D01*
X0391594Y0233032D01*
X0391110Y0232549D01*
X0389659Y0232549D01*
X0390627Y0232549D02*
X0391594Y0231581D01*
X0392606Y0232065D02*
X0393090Y0231581D01*
X0394057Y0231581D01*
X0394541Y0232065D01*
X0394541Y0232549D01*
X0394057Y0233032D01*
X0393573Y0233032D01*
X0394057Y0233032D02*
X0394541Y0233516D01*
X0394541Y0234000D01*
X0394057Y0234484D01*
X0393090Y0234484D01*
X0392606Y0234000D01*
X0395552Y0234484D02*
X0397487Y0234484D01*
X0397487Y0234000D01*
X0395552Y0232065D01*
X0395552Y0231581D01*
X0416446Y0231711D02*
X0416446Y0232679D01*
X0416930Y0233163D01*
X0417414Y0233163D01*
X0417898Y0232679D01*
X0418381Y0233163D01*
X0418865Y0233163D01*
X0419349Y0232679D01*
X0419349Y0231711D01*
X0418865Y0231228D01*
X0419349Y0230216D02*
X0418381Y0229249D01*
X0418381Y0229732D02*
X0418381Y0228281D01*
X0419349Y0228281D02*
X0416446Y0228281D01*
X0416446Y0229732D01*
X0416930Y0230216D01*
X0417898Y0230216D01*
X0418381Y0229732D01*
X0416930Y0231228D02*
X0416446Y0231711D01*
X0417898Y0232195D02*
X0417898Y0232679D01*
X0418381Y0234174D02*
X0417898Y0234658D01*
X0417898Y0235625D01*
X0418381Y0236109D01*
X0418865Y0236109D01*
X0419349Y0235625D01*
X0419349Y0234658D01*
X0418865Y0234174D01*
X0418381Y0234174D01*
X0417898Y0234658D02*
X0417414Y0234174D01*
X0416930Y0234174D01*
X0416446Y0234658D01*
X0416446Y0235625D01*
X0416930Y0236109D01*
X0417414Y0236109D01*
X0417898Y0235625D01*
X0422612Y0243131D02*
X0423580Y0243131D01*
X0423096Y0243131D02*
X0423096Y0246034D01*
X0422612Y0246034D02*
X0423580Y0246034D01*
X0424577Y0245550D02*
X0424577Y0245066D01*
X0425060Y0244582D01*
X0426028Y0244582D01*
X0426512Y0244099D01*
X0426512Y0243615D01*
X0426028Y0243131D01*
X0425060Y0243131D01*
X0424577Y0243615D01*
X0424577Y0245550D02*
X0425060Y0246034D01*
X0426028Y0246034D01*
X0426512Y0245550D01*
X0427523Y0246034D02*
X0427523Y0243131D01*
X0429458Y0243131D01*
X0430470Y0243131D02*
X0432405Y0243131D01*
X0433416Y0243131D02*
X0435351Y0243131D01*
X0434384Y0243131D02*
X0434384Y0246034D01*
X0433416Y0245066D01*
X0436363Y0245550D02*
X0436363Y0243615D01*
X0438298Y0245550D01*
X0438298Y0243615D01*
X0437814Y0243131D01*
X0436846Y0243131D01*
X0436363Y0243615D01*
X0436363Y0245550D02*
X0436846Y0246034D01*
X0437814Y0246034D01*
X0438298Y0245550D01*
X0439309Y0245066D02*
X0440277Y0246034D01*
X0441244Y0245066D01*
X0441244Y0243131D01*
X0442256Y0242647D02*
X0444191Y0242647D01*
X0445202Y0243131D02*
X0447137Y0245066D01*
X0447137Y0245550D01*
X0446654Y0246034D01*
X0445686Y0246034D01*
X0445202Y0245550D01*
X0445202Y0243131D02*
X0447137Y0243131D01*
X0441244Y0244582D02*
X0439309Y0244582D01*
X0439309Y0245066D02*
X0439309Y0243131D01*
X0430470Y0243131D02*
X0430470Y0246034D01*
X0429458Y0246034D02*
X0427523Y0246034D01*
X0427523Y0244582D02*
X0428491Y0244582D01*
X0513399Y0116934D02*
X0514850Y0116934D01*
X0515334Y0116450D01*
X0515334Y0115482D01*
X0514850Y0114999D01*
X0513399Y0114999D01*
X0514366Y0114999D02*
X0515334Y0114031D01*
X0516345Y0115482D02*
X0518280Y0115482D01*
X0519292Y0115966D02*
X0520259Y0116934D01*
X0520259Y0114031D01*
X0519292Y0114031D02*
X0521227Y0114031D01*
X0517797Y0114031D02*
X0517797Y0116934D01*
X0516345Y0115482D01*
X0513399Y0114031D02*
X0513399Y0116934D01*
X0539799Y0115984D02*
X0539799Y0113081D01*
X0541250Y0113081D01*
X0541734Y0113565D01*
X0541734Y0115500D01*
X0541250Y0115984D01*
X0539799Y0115984D01*
X0542745Y0115016D02*
X0543713Y0115984D01*
X0543713Y0113081D01*
X0544680Y0113081D02*
X0542745Y0113081D01*
X0545692Y0113081D02*
X0545692Y0113565D01*
X0547627Y0115500D01*
X0547627Y0115984D01*
X0545692Y0115984D01*
X0551149Y0115934D02*
X0551149Y0113031D01*
X0552600Y0113031D01*
X0553084Y0113515D01*
X0553084Y0115450D01*
X0552600Y0115934D01*
X0551149Y0115934D01*
X0554095Y0114966D02*
X0555063Y0115934D01*
X0555063Y0113031D01*
X0556030Y0113031D02*
X0554095Y0113031D01*
X0557042Y0113515D02*
X0557042Y0114482D01*
X0558493Y0114482D01*
X0558977Y0113999D01*
X0558977Y0113515D01*
X0558493Y0113031D01*
X0557526Y0113031D01*
X0557042Y0113515D01*
X0557042Y0114482D02*
X0558009Y0115450D01*
X0558977Y0115934D01*
X0467927Y0037184D02*
X0467927Y0036700D01*
X0465992Y0034765D01*
X0465992Y0034281D01*
X0464980Y0034281D02*
X0463045Y0034281D01*
X0464980Y0036216D01*
X0464980Y0036700D01*
X0464497Y0037184D01*
X0463529Y0037184D01*
X0463045Y0036700D01*
X0462034Y0036700D02*
X0461550Y0037184D01*
X0460583Y0037184D01*
X0460099Y0036700D01*
X0460099Y0034765D01*
X0460583Y0034281D01*
X0461550Y0034281D01*
X0462034Y0034765D01*
X0458527Y0034565D02*
X0458043Y0034081D01*
X0457076Y0034081D01*
X0456592Y0034565D01*
X0456592Y0035049D01*
X0457076Y0035532D01*
X0458043Y0035532D01*
X0458527Y0035049D01*
X0458527Y0034565D01*
X0458043Y0035532D02*
X0458527Y0036016D01*
X0458527Y0036500D01*
X0458043Y0036984D01*
X0457076Y0036984D01*
X0456592Y0036500D01*
X0456592Y0036016D01*
X0457076Y0035532D01*
X0455580Y0036016D02*
X0455580Y0036500D01*
X0455097Y0036984D01*
X0454129Y0036984D01*
X0453645Y0036500D01*
X0452634Y0036500D02*
X0452150Y0036984D01*
X0451183Y0036984D01*
X0450699Y0036500D01*
X0450699Y0034565D01*
X0451183Y0034081D01*
X0452150Y0034081D01*
X0452634Y0034565D01*
X0453645Y0034081D02*
X0455580Y0036016D01*
X0455580Y0034081D02*
X0453645Y0034081D01*
X0465992Y0037184D02*
X0467927Y0037184D01*
X0430977Y0029532D02*
X0429042Y0029532D01*
X0430493Y0030984D01*
X0430493Y0028081D01*
X0428030Y0028081D02*
X0426095Y0028081D01*
X0428030Y0030016D01*
X0428030Y0030500D01*
X0427547Y0030984D01*
X0426579Y0030984D01*
X0426095Y0030500D01*
X0425084Y0030500D02*
X0424600Y0030984D01*
X0423633Y0030984D01*
X0423149Y0030500D01*
X0423149Y0028565D01*
X0423633Y0028081D01*
X0424600Y0028081D01*
X0425084Y0028565D01*
D13*
X0051049Y0034081D02*
X0051049Y0037684D01*
X0052850Y0037684D01*
X0053451Y0037084D01*
X0053451Y0035883D01*
X0052850Y0035282D01*
X0051049Y0035282D01*
X0052250Y0035282D02*
X0053451Y0034081D01*
X0054732Y0034081D02*
X0057134Y0034081D01*
X0055933Y0034081D02*
X0055933Y0037684D01*
X0054732Y0036483D01*
X0058415Y0037084D02*
X0059016Y0037684D01*
X0060217Y0037684D01*
X0060817Y0037084D01*
X0060817Y0036483D01*
X0058415Y0034081D01*
X0060817Y0034081D01*
X0059899Y0089581D02*
X0059899Y0093184D01*
X0061700Y0093184D01*
X0062301Y0092584D01*
X0062301Y0091383D01*
X0061700Y0090782D01*
X0059899Y0090782D01*
X0061100Y0090782D02*
X0062301Y0089581D01*
X0063582Y0089581D02*
X0065984Y0091983D01*
X0065984Y0092584D01*
X0065384Y0093184D01*
X0064182Y0093184D01*
X0063582Y0092584D01*
X0063582Y0089581D02*
X0065984Y0089581D01*
X0067265Y0090182D02*
X0067866Y0089581D01*
X0069067Y0089581D01*
X0069667Y0090182D01*
X0069667Y0091383D01*
X0069067Y0091983D01*
X0068466Y0091983D01*
X0067265Y0091383D01*
X0067265Y0093184D01*
X0069667Y0093184D01*
X0075649Y0101581D02*
X0077450Y0101581D01*
X0078051Y0102182D01*
X0078051Y0104584D01*
X0077450Y0105184D01*
X0075649Y0105184D01*
X0075649Y0101581D01*
X0079332Y0102182D02*
X0079332Y0102782D01*
X0079932Y0103383D01*
X0081134Y0103383D01*
X0081734Y0102782D01*
X0081734Y0102182D01*
X0081134Y0101581D01*
X0079932Y0101581D01*
X0079332Y0102182D01*
X0079932Y0103383D02*
X0079332Y0103983D01*
X0079332Y0104584D01*
X0079932Y0105184D01*
X0081134Y0105184D01*
X0081734Y0104584D01*
X0081734Y0103983D01*
X0081134Y0103383D01*
X0054868Y0104434D02*
X0052466Y0102032D01*
X0052466Y0101431D01*
X0051185Y0102032D02*
X0051185Y0104434D01*
X0050584Y0105034D01*
X0048783Y0105034D01*
X0048783Y0101431D01*
X0050584Y0101431D01*
X0051185Y0102032D01*
X0054868Y0104434D02*
X0054868Y0105034D01*
X0052466Y0105034D01*
X0086449Y0127832D02*
X0087049Y0127231D01*
X0087650Y0127231D01*
X0088250Y0127832D01*
X0088250Y0130834D01*
X0087650Y0130834D02*
X0088851Y0130834D01*
X0090132Y0130834D02*
X0091934Y0130834D01*
X0092534Y0130234D01*
X0092534Y0129033D01*
X0091934Y0128432D01*
X0090132Y0128432D01*
X0090132Y0127231D02*
X0090132Y0130834D01*
X0093815Y0130234D02*
X0094416Y0130834D01*
X0095617Y0130834D01*
X0096217Y0130234D01*
X0096217Y0129633D01*
X0095617Y0129033D01*
X0096217Y0128432D01*
X0096217Y0127832D01*
X0095617Y0127231D01*
X0094416Y0127231D01*
X0093815Y0127832D01*
X0095016Y0129033D02*
X0095617Y0129033D01*
X0095867Y0142231D02*
X0095867Y0145834D01*
X0094065Y0144033D01*
X0096467Y0144033D01*
X0092784Y0144033D02*
X0092184Y0143432D01*
X0090382Y0143432D01*
X0090382Y0142231D02*
X0090382Y0145834D01*
X0092184Y0145834D01*
X0092784Y0145234D01*
X0092784Y0144033D01*
X0089101Y0145834D02*
X0087900Y0145834D01*
X0088500Y0145834D02*
X0088500Y0142832D01*
X0087900Y0142231D01*
X0087299Y0142231D01*
X0086699Y0142832D01*
X0227849Y0129484D02*
X0227849Y0125881D01*
X0227849Y0127082D02*
X0229650Y0127082D01*
X0230251Y0127683D01*
X0230251Y0128884D01*
X0229650Y0129484D01*
X0227849Y0129484D01*
X0229050Y0127082D02*
X0230251Y0125881D01*
X0231532Y0125881D02*
X0233934Y0125881D01*
X0232733Y0125881D02*
X0232733Y0129484D01*
X0231532Y0128283D01*
X0235215Y0128283D02*
X0235215Y0128884D01*
X0235816Y0129484D01*
X0237017Y0129484D01*
X0237617Y0128884D01*
X0237617Y0126482D01*
X0237017Y0125881D01*
X0235816Y0125881D01*
X0235215Y0126482D01*
X0235816Y0127683D02*
X0237617Y0127683D01*
X0235816Y0127683D02*
X0235215Y0128283D01*
X0253349Y0127431D02*
X0254550Y0127431D01*
X0253949Y0127431D02*
X0253949Y0131034D01*
X0253349Y0131034D02*
X0254550Y0131034D01*
X0255804Y0130434D02*
X0255804Y0128032D01*
X0256405Y0127431D01*
X0257606Y0127431D01*
X0258206Y0128032D01*
X0259487Y0128032D02*
X0260088Y0127431D01*
X0261289Y0127431D01*
X0261889Y0128032D01*
X0261889Y0129233D01*
X0261289Y0129833D01*
X0260688Y0129833D01*
X0259487Y0129233D01*
X0259487Y0131034D01*
X0261889Y0131034D01*
X0258206Y0130434D02*
X0257606Y0131034D01*
X0256405Y0131034D01*
X0255804Y0130434D01*
X0269349Y0131534D02*
X0269349Y0127931D01*
X0269349Y0129132D02*
X0271150Y0129132D01*
X0271751Y0129733D01*
X0271751Y0130934D01*
X0271150Y0131534D01*
X0269349Y0131534D01*
X0270550Y0129132D02*
X0271751Y0127931D01*
X0273032Y0127931D02*
X0275434Y0127931D01*
X0274233Y0127931D02*
X0274233Y0131534D01*
X0273032Y0130333D01*
X0315649Y0150831D02*
X0315649Y0154434D01*
X0317450Y0154434D01*
X0318051Y0153834D01*
X0318051Y0152633D01*
X0317450Y0152032D01*
X0315649Y0152032D01*
X0316850Y0152032D02*
X0318051Y0150831D01*
X0319332Y0151432D02*
X0319932Y0150831D01*
X0321134Y0150831D01*
X0321734Y0151432D01*
X0321734Y0152633D01*
X0321134Y0153233D01*
X0320533Y0153233D01*
X0319332Y0152633D01*
X0319332Y0154434D01*
X0321734Y0154434D01*
X0323549Y0154534D02*
X0325350Y0154534D01*
X0325951Y0153934D01*
X0325951Y0152733D01*
X0325350Y0152132D01*
X0323549Y0152132D01*
X0324750Y0152132D02*
X0325951Y0150931D01*
X0327232Y0150931D02*
X0329634Y0153333D01*
X0329634Y0153934D01*
X0329034Y0154534D01*
X0327832Y0154534D01*
X0327232Y0153934D01*
X0327232Y0150931D02*
X0329634Y0150931D01*
X0323549Y0150931D02*
X0323549Y0154534D01*
X0313584Y0157481D02*
X0311182Y0157481D01*
X0312383Y0157481D02*
X0312383Y0161084D01*
X0311182Y0159883D01*
X0309901Y0160484D02*
X0309901Y0158082D01*
X0309300Y0157481D01*
X0308099Y0157481D01*
X0307499Y0158082D01*
X0307499Y0160484D01*
X0308099Y0161084D01*
X0309300Y0161084D01*
X0309901Y0160484D01*
X0308700Y0158682D02*
X0309901Y0157481D01*
X0321649Y0178131D02*
X0322850Y0178131D01*
X0323451Y0178732D01*
X0324732Y0178732D02*
X0325332Y0178131D01*
X0326534Y0178131D01*
X0327134Y0178732D01*
X0327134Y0179332D01*
X0326534Y0179933D01*
X0324732Y0179933D01*
X0324732Y0178732D01*
X0324732Y0179933D02*
X0325933Y0181134D01*
X0327134Y0181734D01*
X0323451Y0181134D02*
X0322850Y0181734D01*
X0321649Y0181734D01*
X0321049Y0181134D01*
X0321049Y0178732D01*
X0321649Y0178131D01*
X0312884Y0186931D02*
X0312884Y0190534D01*
X0311082Y0188733D01*
X0313484Y0188733D01*
X0309801Y0189934D02*
X0309801Y0187532D01*
X0309200Y0186931D01*
X0307999Y0186931D01*
X0307399Y0187532D01*
X0307399Y0189934D01*
X0307999Y0190534D01*
X0309200Y0190534D01*
X0309801Y0189934D01*
X0308600Y0188132D02*
X0309801Y0186931D01*
X0342399Y0187684D02*
X0343600Y0187684D01*
X0342999Y0187684D02*
X0342999Y0184081D01*
X0342399Y0184081D02*
X0343600Y0184081D01*
X0344854Y0184682D02*
X0345455Y0184081D01*
X0346656Y0184081D01*
X0347256Y0184682D01*
X0348537Y0185883D02*
X0350939Y0185883D01*
X0350339Y0187684D02*
X0350339Y0184081D01*
X0348537Y0185883D02*
X0350339Y0187684D01*
X0347256Y0187084D02*
X0346656Y0187684D01*
X0345455Y0187684D01*
X0344854Y0187084D01*
X0344854Y0184682D01*
X0382949Y0184231D02*
X0384150Y0184231D01*
X0383549Y0184231D02*
X0383549Y0187834D01*
X0382949Y0187834D02*
X0384150Y0187834D01*
X0385404Y0187234D02*
X0385404Y0184832D01*
X0386005Y0184231D01*
X0387206Y0184231D01*
X0387806Y0184832D01*
X0389087Y0184231D02*
X0391489Y0184231D01*
X0390288Y0184231D02*
X0390288Y0187834D01*
X0389087Y0186633D01*
X0387806Y0187234D02*
X0387206Y0187834D01*
X0386005Y0187834D01*
X0385404Y0187234D01*
X0402449Y0178134D02*
X0402449Y0175732D01*
X0403049Y0175131D01*
X0404250Y0175131D01*
X0404851Y0175732D01*
X0406132Y0175131D02*
X0408534Y0175131D01*
X0407333Y0175131D02*
X0407333Y0178734D01*
X0406132Y0177533D01*
X0404851Y0178134D02*
X0404250Y0178734D01*
X0403049Y0178734D01*
X0402449Y0178134D01*
X0418046Y0178781D02*
X0418046Y0180583D01*
X0418646Y0181183D01*
X0419847Y0181183D01*
X0420448Y0180583D01*
X0420448Y0178781D01*
X0421649Y0178781D02*
X0418046Y0178781D01*
X0420448Y0179982D02*
X0421649Y0181183D01*
X0421649Y0182464D02*
X0421048Y0182464D01*
X0418646Y0184866D01*
X0418046Y0184866D01*
X0418046Y0182464D01*
X0418546Y0171949D02*
X0420948Y0169547D01*
X0421549Y0170148D01*
X0421549Y0171349D01*
X0420948Y0171949D01*
X0418546Y0171949D01*
X0417946Y0171349D01*
X0417946Y0170148D01*
X0418546Y0169547D01*
X0420948Y0169547D01*
X0421549Y0168266D02*
X0421549Y0165864D01*
X0421549Y0167065D02*
X0417946Y0167065D01*
X0419147Y0165864D01*
X0419747Y0164583D02*
X0420348Y0163983D01*
X0420348Y0162181D01*
X0421549Y0162181D02*
X0417946Y0162181D01*
X0417946Y0163983D01*
X0418546Y0164583D01*
X0419747Y0164583D01*
X0420348Y0163382D02*
X0421549Y0164583D01*
X0438799Y0158734D02*
X0438799Y0155131D01*
X0438799Y0156332D02*
X0440600Y0156332D01*
X0441201Y0156933D01*
X0441201Y0158134D01*
X0440600Y0158734D01*
X0438799Y0158734D01*
X0440000Y0156332D02*
X0441201Y0155131D01*
X0442482Y0155732D02*
X0443082Y0155131D01*
X0444284Y0155131D01*
X0444884Y0155732D01*
X0444884Y0156933D01*
X0444284Y0157533D01*
X0443683Y0157533D01*
X0442482Y0156933D01*
X0442482Y0158734D01*
X0444884Y0158734D01*
X0446165Y0158134D02*
X0446165Y0155732D01*
X0448567Y0158134D01*
X0448567Y0155732D01*
X0447967Y0155131D01*
X0446766Y0155131D01*
X0446165Y0155732D01*
X0446165Y0158134D02*
X0446766Y0158734D01*
X0447967Y0158734D01*
X0448567Y0158134D01*
X0465899Y0159234D02*
X0467100Y0159234D01*
X0466499Y0159234D02*
X0466499Y0155631D01*
X0465899Y0155631D02*
X0467100Y0155631D01*
X0468354Y0156232D02*
X0468955Y0155631D01*
X0470156Y0155631D01*
X0470756Y0156232D01*
X0472037Y0156232D02*
X0472638Y0155631D01*
X0473839Y0155631D01*
X0474439Y0156232D01*
X0474439Y0158634D01*
X0473839Y0159234D01*
X0472638Y0159234D01*
X0472037Y0158634D01*
X0472037Y0158033D01*
X0472638Y0157433D01*
X0474439Y0157433D01*
X0470756Y0158634D02*
X0470156Y0159234D01*
X0468955Y0159234D01*
X0468354Y0158634D01*
X0468354Y0156232D01*
X0497996Y0150937D02*
X0497996Y0149736D01*
X0498596Y0149135D01*
X0497996Y0150937D02*
X0498596Y0151537D01*
X0499197Y0151537D01*
X0501599Y0149135D01*
X0501599Y0151537D01*
X0502199Y0147854D02*
X0502199Y0145452D01*
X0501599Y0144171D02*
X0499197Y0144171D01*
X0497996Y0142970D01*
X0499197Y0141769D01*
X0501599Y0141769D01*
X0501599Y0140488D02*
X0501599Y0138086D01*
X0501599Y0139287D02*
X0497996Y0139287D01*
X0499197Y0138086D01*
X0501599Y0136805D02*
X0501599Y0134403D01*
X0497996Y0134403D01*
X0497996Y0133122D02*
X0497996Y0130720D01*
X0501599Y0130720D01*
X0501599Y0133122D01*
X0499797Y0131921D02*
X0499797Y0130720D01*
X0500398Y0129439D02*
X0499797Y0128838D01*
X0499797Y0127637D01*
X0499197Y0127037D01*
X0498596Y0127037D01*
X0497996Y0127637D01*
X0497996Y0128838D01*
X0498596Y0129439D01*
X0500398Y0129439D02*
X0500998Y0129439D01*
X0501599Y0128838D01*
X0501599Y0127637D01*
X0500998Y0127037D01*
X0501599Y0125782D02*
X0501599Y0124581D01*
X0501599Y0125182D02*
X0497996Y0125182D01*
X0497996Y0125782D02*
X0497996Y0124581D01*
X0497383Y0117484D02*
X0497383Y0113881D01*
X0496182Y0113881D02*
X0498584Y0113881D01*
X0499865Y0114482D02*
X0502267Y0116884D01*
X0502267Y0114482D01*
X0501667Y0113881D01*
X0500466Y0113881D01*
X0499865Y0114482D01*
X0499865Y0116884D01*
X0500466Y0117484D01*
X0501667Y0117484D01*
X0502267Y0116884D01*
X0497383Y0117484D02*
X0496182Y0116283D01*
X0494901Y0116884D02*
X0494300Y0117484D01*
X0493099Y0117484D01*
X0492499Y0116884D01*
X0492499Y0114482D01*
X0493099Y0113881D01*
X0494300Y0113881D01*
X0494901Y0114482D01*
X0474368Y0110233D02*
X0471966Y0110233D01*
X0473767Y0112034D01*
X0473767Y0108431D01*
X0470685Y0110233D02*
X0468283Y0110233D01*
X0470084Y0112034D01*
X0470084Y0108431D01*
X0467001Y0108431D02*
X0465800Y0109632D01*
X0466401Y0109632D02*
X0464599Y0109632D01*
X0464599Y0108431D02*
X0464599Y0112034D01*
X0466401Y0112034D01*
X0467001Y0111434D01*
X0467001Y0110233D01*
X0466401Y0109632D01*
X0453667Y0115884D02*
X0451265Y0113482D01*
X0451265Y0112881D01*
X0449384Y0112881D02*
X0449384Y0116484D01*
X0447582Y0114683D01*
X0449984Y0114683D01*
X0451265Y0116484D02*
X0453667Y0116484D01*
X0453667Y0115884D01*
X0446301Y0115884D02*
X0446301Y0114683D01*
X0445700Y0114082D01*
X0443899Y0114082D01*
X0442717Y0114082D02*
X0442717Y0113482D01*
X0442117Y0112881D01*
X0440916Y0112881D01*
X0440315Y0113482D01*
X0440315Y0114082D01*
X0440916Y0114683D01*
X0442117Y0114683D01*
X0442717Y0114082D01*
X0442117Y0114683D02*
X0442717Y0115283D01*
X0442717Y0115884D01*
X0442117Y0116484D01*
X0440916Y0116484D01*
X0440315Y0115884D01*
X0440315Y0115283D01*
X0440916Y0114683D01*
X0439034Y0114683D02*
X0436632Y0114683D01*
X0438434Y0116484D01*
X0438434Y0112881D01*
X0435351Y0112881D02*
X0434150Y0114082D01*
X0434750Y0114082D02*
X0432949Y0114082D01*
X0432949Y0112881D02*
X0432949Y0116484D01*
X0434750Y0116484D01*
X0435351Y0115884D01*
X0435351Y0114683D01*
X0434750Y0114082D01*
X0443899Y0112881D02*
X0443899Y0116484D01*
X0445700Y0116484D01*
X0446301Y0115884D01*
X0445100Y0114082D02*
X0446301Y0112881D01*
X0473627Y0098484D02*
X0474828Y0098484D01*
X0474228Y0098484D02*
X0474228Y0094881D01*
X0474828Y0094881D02*
X0473627Y0094881D01*
X0476083Y0095482D02*
X0476083Y0097884D01*
X0476683Y0098484D01*
X0477884Y0098484D01*
X0478485Y0097884D01*
X0479766Y0097884D02*
X0479766Y0097283D01*
X0480366Y0096683D01*
X0481567Y0096683D01*
X0482168Y0096082D01*
X0482168Y0095482D01*
X0481567Y0094881D01*
X0480366Y0094881D01*
X0479766Y0095482D01*
X0479766Y0096082D01*
X0480366Y0096683D01*
X0481567Y0096683D02*
X0482168Y0097283D01*
X0482168Y0097884D01*
X0481567Y0098484D01*
X0480366Y0098484D01*
X0479766Y0097884D01*
X0478485Y0095482D02*
X0477884Y0094881D01*
X0476683Y0094881D01*
X0476083Y0095482D01*
X0498896Y0088100D02*
X0498896Y0085698D01*
X0500697Y0085698D01*
X0500097Y0086899D01*
X0500097Y0087499D01*
X0500697Y0088100D01*
X0501898Y0088100D01*
X0502499Y0087499D01*
X0502499Y0086298D01*
X0501898Y0085698D01*
X0500697Y0084417D02*
X0500697Y0082015D01*
X0498896Y0083816D01*
X0502499Y0083816D01*
X0502499Y0080734D02*
X0501298Y0079533D01*
X0501298Y0080133D02*
X0501298Y0078332D01*
X0502499Y0078332D02*
X0498896Y0078332D01*
X0498896Y0080133D01*
X0499496Y0080734D01*
X0500697Y0080734D01*
X0501298Y0080133D01*
X0496084Y0074634D02*
X0495484Y0075234D01*
X0494282Y0075234D01*
X0493682Y0074634D01*
X0493682Y0074033D01*
X0494282Y0073433D01*
X0496084Y0073433D01*
X0496084Y0072232D02*
X0496084Y0074634D01*
X0496084Y0072232D02*
X0495484Y0071631D01*
X0494282Y0071631D01*
X0493682Y0072232D01*
X0492401Y0072232D02*
X0491800Y0071631D01*
X0490599Y0071631D01*
X0489999Y0072232D01*
X0489999Y0074634D01*
X0490599Y0075234D01*
X0491800Y0075234D01*
X0492401Y0074634D01*
X0477467Y0066884D02*
X0476867Y0067484D01*
X0475666Y0067484D01*
X0475065Y0066884D01*
X0473784Y0067484D02*
X0471382Y0067484D01*
X0471382Y0065683D01*
X0472583Y0066283D01*
X0473184Y0066283D01*
X0473784Y0065683D01*
X0473784Y0064482D01*
X0473184Y0063881D01*
X0471982Y0063881D01*
X0471382Y0064482D01*
X0470101Y0063881D02*
X0468900Y0065082D01*
X0469500Y0065082D02*
X0467699Y0065082D01*
X0467699Y0063881D02*
X0467699Y0067484D01*
X0469500Y0067484D01*
X0470101Y0066884D01*
X0470101Y0065683D01*
X0469500Y0065082D01*
X0475065Y0064482D02*
X0475666Y0063881D01*
X0476867Y0063881D01*
X0477467Y0064482D01*
X0477467Y0065082D01*
X0476867Y0065683D01*
X0476266Y0065683D01*
X0476867Y0065683D02*
X0477467Y0066283D01*
X0477467Y0066884D01*
X0509899Y0069381D02*
X0509899Y0072984D01*
X0511700Y0072984D01*
X0512301Y0072384D01*
X0512301Y0071183D01*
X0511700Y0070582D01*
X0509899Y0070582D01*
X0511100Y0070582D02*
X0512301Y0069381D01*
X0513582Y0071183D02*
X0515984Y0071183D01*
X0517265Y0072384D02*
X0517866Y0072984D01*
X0519067Y0072984D01*
X0519667Y0072384D01*
X0519667Y0071783D01*
X0519067Y0071183D01*
X0519667Y0070582D01*
X0519667Y0069982D01*
X0519067Y0069381D01*
X0517866Y0069381D01*
X0517265Y0069982D01*
X0518466Y0071183D02*
X0519067Y0071183D01*
X0515384Y0072984D02*
X0515384Y0069381D01*
X0513582Y0071183D02*
X0515384Y0072984D01*
X0528599Y0072482D02*
X0529199Y0071881D01*
X0530400Y0071881D01*
X0531001Y0072482D01*
X0531001Y0074884D01*
X0530400Y0075484D01*
X0529199Y0075484D01*
X0528599Y0074884D01*
X0528599Y0072482D01*
X0529800Y0073082D02*
X0531001Y0071881D01*
X0532282Y0072482D02*
X0532282Y0073082D01*
X0532882Y0073683D01*
X0534084Y0073683D01*
X0534684Y0073082D01*
X0534684Y0072482D01*
X0534084Y0071881D01*
X0532882Y0071881D01*
X0532282Y0072482D01*
X0532882Y0073683D02*
X0532282Y0074283D01*
X0532282Y0074884D01*
X0532882Y0075484D01*
X0534084Y0075484D01*
X0534684Y0074884D01*
X0534684Y0074283D01*
X0534084Y0073683D01*
X0537749Y0059584D02*
X0539550Y0059584D01*
X0540151Y0058984D01*
X0540151Y0056582D01*
X0539550Y0055981D01*
X0537749Y0055981D01*
X0537749Y0059584D01*
X0541432Y0058383D02*
X0542633Y0059584D01*
X0542633Y0055981D01*
X0541432Y0055981D02*
X0543834Y0055981D01*
X0545115Y0056582D02*
X0545716Y0055981D01*
X0546917Y0055981D01*
X0547517Y0056582D01*
X0547517Y0058984D01*
X0546917Y0059584D01*
X0545716Y0059584D01*
X0545115Y0058984D01*
X0545115Y0058383D01*
X0545716Y0057783D01*
X0547517Y0057783D01*
X0549599Y0056031D02*
X0549599Y0059634D01*
X0551400Y0059634D01*
X0552001Y0059034D01*
X0552001Y0056632D01*
X0551400Y0056031D01*
X0549599Y0056031D01*
X0553282Y0056031D02*
X0555684Y0056031D01*
X0554483Y0056031D02*
X0554483Y0059634D01*
X0553282Y0058433D01*
X0556965Y0058433D02*
X0557566Y0057833D01*
X0558767Y0057833D01*
X0559367Y0057232D01*
X0559367Y0056632D01*
X0558767Y0056031D01*
X0557566Y0056031D01*
X0556965Y0056632D01*
X0556965Y0057232D01*
X0557566Y0057833D01*
X0556965Y0058433D02*
X0556965Y0059034D01*
X0557566Y0059634D01*
X0558767Y0059634D01*
X0559367Y0059034D01*
X0559367Y0058433D01*
X0558767Y0057833D01*
X0481973Y0031334D02*
X0479571Y0028932D01*
X0480171Y0028331D01*
X0481372Y0028331D01*
X0481973Y0028932D01*
X0481973Y0031334D01*
X0481372Y0031934D01*
X0480171Y0031934D01*
X0479571Y0031334D01*
X0479571Y0028932D01*
X0478289Y0028331D02*
X0475887Y0028331D01*
X0477088Y0028331D02*
X0477088Y0031934D01*
X0475887Y0030733D01*
X0474606Y0031334D02*
X0474006Y0031934D01*
X0472805Y0031934D01*
X0472204Y0031334D01*
X0472204Y0028932D01*
X0472805Y0028331D01*
X0474006Y0028331D01*
X0474606Y0028932D01*
X0470950Y0028331D02*
X0469749Y0028331D01*
X0470349Y0028331D02*
X0470349Y0031934D01*
X0469749Y0031934D02*
X0470950Y0031934D01*
X0429423Y0038031D02*
X0427021Y0038031D01*
X0429423Y0040433D01*
X0429423Y0041034D01*
X0428822Y0041634D01*
X0427621Y0041634D01*
X0427021Y0041034D01*
X0424538Y0041634D02*
X0424538Y0038031D01*
X0423337Y0038031D02*
X0425739Y0038031D01*
X0423337Y0040433D02*
X0424538Y0041634D01*
X0422056Y0041034D02*
X0421456Y0041634D01*
X0420255Y0041634D01*
X0419654Y0041034D01*
X0419654Y0038632D01*
X0420255Y0038031D01*
X0421456Y0038031D01*
X0422056Y0038632D01*
X0418400Y0038031D02*
X0417199Y0038031D01*
X0417799Y0038031D02*
X0417799Y0041634D01*
X0417199Y0041634D02*
X0418400Y0041634D01*
X0429899Y0065481D02*
X0429899Y0069084D01*
X0431701Y0069084D01*
X0432301Y0068484D01*
X0432301Y0067283D01*
X0431701Y0066682D01*
X0429899Y0066682D01*
X0431100Y0066682D02*
X0432301Y0065481D01*
X0433583Y0066082D02*
X0434183Y0065481D01*
X0435384Y0065481D01*
X0435985Y0066082D01*
X0435985Y0067283D01*
X0435384Y0067883D01*
X0434784Y0067883D01*
X0433583Y0067283D01*
X0433583Y0069084D01*
X0435985Y0069084D01*
X0437266Y0068484D02*
X0437866Y0069084D01*
X0439067Y0069084D01*
X0439668Y0068484D01*
X0439668Y0067883D01*
X0437266Y0065481D01*
X0439668Y0065481D01*
X0369549Y0057097D02*
X0368948Y0057097D01*
X0366546Y0059499D01*
X0365946Y0059499D01*
X0365946Y0057097D01*
X0366546Y0055816D02*
X0367747Y0055816D01*
X0368348Y0055216D01*
X0368348Y0053414D01*
X0369549Y0053414D02*
X0365946Y0053414D01*
X0365946Y0055216D01*
X0366546Y0055816D01*
X0365946Y0052133D02*
X0365946Y0050932D01*
X0365946Y0051533D02*
X0368948Y0051533D01*
X0369549Y0050932D01*
X0369549Y0050332D01*
X0368948Y0049731D01*
X0319617Y0057433D02*
X0317215Y0057433D01*
X0319017Y0059234D01*
X0319017Y0055631D01*
X0315934Y0056232D02*
X0315334Y0055631D01*
X0314132Y0055631D01*
X0313532Y0056232D01*
X0312251Y0056232D02*
X0311650Y0055631D01*
X0310449Y0055631D01*
X0309849Y0056232D01*
X0309849Y0058634D01*
X0310449Y0059234D01*
X0311650Y0059234D01*
X0312251Y0058634D01*
X0313532Y0058634D02*
X0314132Y0059234D01*
X0315334Y0059234D01*
X0315934Y0058634D01*
X0315934Y0058033D01*
X0315334Y0057433D01*
X0315934Y0056832D01*
X0315934Y0056232D01*
X0315334Y0057433D02*
X0314733Y0057433D01*
X0313803Y0052859D02*
X0312602Y0052859D01*
X0312002Y0052259D01*
X0313203Y0051058D02*
X0313803Y0051058D01*
X0314404Y0050457D01*
X0314404Y0049857D01*
X0313803Y0049256D01*
X0312602Y0049256D01*
X0312002Y0049857D01*
X0310721Y0049256D02*
X0308319Y0049256D01*
X0308319Y0052859D01*
X0313803Y0052859D02*
X0314404Y0052259D01*
X0314404Y0051658D01*
X0313803Y0051058D01*
X0299799Y0063531D02*
X0299799Y0064732D01*
X0299799Y0064132D02*
X0296196Y0064132D01*
X0296196Y0064732D02*
X0296196Y0063531D01*
X0296796Y0065987D02*
X0299198Y0065987D01*
X0299799Y0066587D01*
X0299799Y0067788D01*
X0299198Y0068389D01*
X0299799Y0069670D02*
X0299799Y0072072D01*
X0299799Y0070871D02*
X0296196Y0070871D01*
X0297397Y0069670D01*
X0296796Y0068389D02*
X0296196Y0067788D01*
X0296196Y0066587D01*
X0296796Y0065987D01*
X0297997Y0073353D02*
X0297997Y0075755D01*
X0296196Y0075154D02*
X0297997Y0073353D01*
X0296196Y0075154D02*
X0299799Y0075154D01*
X0282299Y0075054D02*
X0282299Y0073853D01*
X0281698Y0073253D01*
X0280497Y0073253D02*
X0279897Y0074454D01*
X0279897Y0075054D01*
X0280497Y0075655D01*
X0281698Y0075655D01*
X0282299Y0075054D01*
X0280497Y0073253D02*
X0278696Y0073253D01*
X0278696Y0075655D01*
X0278696Y0070771D02*
X0282299Y0070771D01*
X0282299Y0069570D02*
X0282299Y0071972D01*
X0279897Y0069570D02*
X0278696Y0070771D01*
X0279296Y0068289D02*
X0278696Y0067688D01*
X0278696Y0066487D01*
X0279296Y0065887D01*
X0281698Y0065887D01*
X0282299Y0066487D01*
X0282299Y0067688D01*
X0281698Y0068289D01*
X0282299Y0064632D02*
X0282299Y0063431D01*
X0282299Y0064032D02*
X0278696Y0064032D01*
X0278696Y0064632D02*
X0278696Y0063431D01*
X0275349Y0063432D02*
X0275349Y0062231D01*
X0275349Y0062832D02*
X0271746Y0062832D01*
X0271746Y0063432D02*
X0271746Y0062231D01*
X0272346Y0064687D02*
X0274748Y0064687D01*
X0275349Y0065287D01*
X0275349Y0066488D01*
X0274748Y0067089D01*
X0275349Y0068370D02*
X0272947Y0070772D01*
X0272346Y0070772D01*
X0271746Y0070171D01*
X0271746Y0068970D01*
X0272346Y0068370D01*
X0272346Y0067089D02*
X0271746Y0066488D01*
X0271746Y0065287D01*
X0272346Y0064687D01*
X0275349Y0068370D02*
X0275349Y0070772D01*
X0239949Y0056949D02*
X0239348Y0057550D01*
X0238748Y0057550D01*
X0238147Y0056949D01*
X0238147Y0055148D01*
X0239348Y0055148D01*
X0239949Y0055748D01*
X0239949Y0056949D01*
X0238147Y0055148D02*
X0236946Y0056349D01*
X0236346Y0057550D01*
X0236946Y0053867D02*
X0238147Y0053867D01*
X0238748Y0053266D01*
X0238748Y0051465D01*
X0239949Y0051465D02*
X0236346Y0051465D01*
X0236346Y0053266D01*
X0236946Y0053867D01*
X0238748Y0052666D02*
X0239949Y0053867D01*
X0234067Y0064231D02*
X0232866Y0064231D01*
X0232266Y0064832D01*
X0230985Y0064231D02*
X0229784Y0065432D01*
X0230384Y0065432D02*
X0228583Y0065432D01*
X0228583Y0064231D02*
X0228583Y0067834D01*
X0230384Y0067834D01*
X0230985Y0067234D01*
X0230985Y0066033D01*
X0230384Y0065432D01*
X0232266Y0067234D02*
X0232866Y0067834D01*
X0234067Y0067834D01*
X0234668Y0067234D01*
X0234668Y0066633D01*
X0234067Y0066033D01*
X0234668Y0065432D01*
X0234668Y0064832D01*
X0234067Y0064231D01*
X0234067Y0066033D02*
X0233467Y0066033D01*
X0272563Y0052309D02*
X0272563Y0048706D01*
X0274965Y0048706D01*
X0276246Y0050507D02*
X0278648Y0050507D01*
X0278048Y0048706D02*
X0278048Y0052309D01*
X0276246Y0050507D01*
X0237517Y0088881D02*
X0235115Y0088881D01*
X0236316Y0088881D02*
X0236316Y0092484D01*
X0235115Y0091283D01*
X0233834Y0091283D02*
X0231432Y0088881D01*
X0233834Y0088881D01*
X0233834Y0091283D02*
X0233834Y0091884D01*
X0233234Y0092484D01*
X0232032Y0092484D01*
X0231432Y0091884D01*
X0230151Y0091884D02*
X0230151Y0090683D01*
X0229550Y0090082D01*
X0227749Y0090082D01*
X0228950Y0090082D02*
X0230151Y0088881D01*
X0227749Y0088881D02*
X0227749Y0092484D01*
X0229550Y0092484D01*
X0230151Y0091884D01*
X0278646Y0093081D02*
X0278646Y0094883D01*
X0279246Y0095483D01*
X0280447Y0095483D01*
X0281048Y0094883D01*
X0281048Y0093081D01*
X0282249Y0093081D02*
X0278646Y0093081D01*
X0281048Y0094282D02*
X0282249Y0095483D01*
X0281648Y0096764D02*
X0282249Y0097365D01*
X0282249Y0098566D01*
X0281648Y0099166D01*
X0281048Y0099166D01*
X0280447Y0098566D01*
X0280447Y0096764D01*
X0281648Y0096764D01*
X0280447Y0096764D02*
X0279246Y0097965D01*
X0278646Y0099166D01*
X0278646Y0100447D02*
X0280447Y0100447D01*
X0279847Y0101648D01*
X0279847Y0102249D01*
X0280447Y0102849D01*
X0281648Y0102849D01*
X0282249Y0102249D01*
X0282249Y0101048D01*
X0281648Y0100447D01*
X0278646Y0100447D02*
X0278646Y0102849D01*
X0292946Y0101249D02*
X0294747Y0099447D01*
X0294747Y0101849D01*
X0292946Y0101249D02*
X0296549Y0101249D01*
X0295948Y0098166D02*
X0295348Y0098166D01*
X0294747Y0097566D01*
X0294747Y0095764D01*
X0295948Y0095764D01*
X0296549Y0096365D01*
X0296549Y0097566D01*
X0295948Y0098166D01*
X0293546Y0096965D02*
X0294747Y0095764D01*
X0294747Y0094483D02*
X0295348Y0093883D01*
X0295348Y0092081D01*
X0296549Y0092081D02*
X0292946Y0092081D01*
X0292946Y0093883D01*
X0293546Y0094483D01*
X0294747Y0094483D01*
X0295348Y0093282D02*
X0296549Y0094483D01*
X0293546Y0096965D02*
X0292946Y0098166D01*
X0368146Y0148365D02*
X0368146Y0150166D01*
X0368746Y0150767D01*
X0371148Y0150767D01*
X0371749Y0150166D01*
X0371749Y0148365D01*
X0368146Y0148365D01*
X0369347Y0152048D02*
X0368146Y0153249D01*
X0371749Y0153249D01*
X0371749Y0152048D02*
X0371749Y0154450D01*
X0369534Y0155931D02*
X0369534Y0159534D01*
X0367732Y0157733D01*
X0370134Y0157733D01*
X0366451Y0158934D02*
X0365850Y0159534D01*
X0364649Y0159534D01*
X0364049Y0158934D01*
X0364049Y0156532D01*
X0364649Y0155931D01*
X0365850Y0155931D01*
X0366451Y0156532D01*
X0399346Y0156949D02*
X0399946Y0157550D01*
X0402348Y0155148D01*
X0402949Y0155748D01*
X0402949Y0156949D01*
X0402348Y0157550D01*
X0399946Y0157550D01*
X0399346Y0156949D02*
X0399346Y0155748D01*
X0399946Y0155148D01*
X0402348Y0155148D01*
X0402949Y0153867D02*
X0402949Y0151465D01*
X0400547Y0153867D01*
X0399946Y0153867D01*
X0399346Y0153266D01*
X0399346Y0152065D01*
X0399946Y0151465D01*
X0399946Y0150184D02*
X0399346Y0149583D01*
X0399346Y0147782D01*
X0402949Y0147782D01*
X0402949Y0149583D01*
X0402348Y0150184D01*
X0399946Y0150184D01*
X0429396Y0145599D02*
X0429396Y0144398D01*
X0429996Y0143798D01*
X0430597Y0143798D01*
X0431197Y0144398D01*
X0431197Y0146200D01*
X0429996Y0146200D02*
X0429396Y0145599D01*
X0429996Y0146200D02*
X0432398Y0146200D01*
X0432999Y0145599D01*
X0432999Y0144398D01*
X0432398Y0143798D01*
X0431197Y0142517D02*
X0431197Y0140115D01*
X0429396Y0141916D01*
X0432999Y0141916D01*
X0432999Y0138834D02*
X0431798Y0137633D01*
X0431798Y0138233D02*
X0431798Y0136432D01*
X0432999Y0136432D02*
X0429396Y0136432D01*
X0429396Y0138233D01*
X0429996Y0138834D01*
X0431197Y0138834D01*
X0431798Y0138233D01*
X0499797Y0141769D02*
X0499797Y0144171D01*
X0553100Y0167431D02*
X0553100Y0171034D01*
X0551899Y0171034D02*
X0554301Y0171034D01*
X0555582Y0171034D02*
X0555582Y0168632D01*
X0556783Y0167431D01*
X0557984Y0168632D01*
X0557984Y0171034D01*
X0559265Y0170434D02*
X0559265Y0169833D01*
X0559866Y0169233D01*
X0561067Y0169233D01*
X0561667Y0168632D01*
X0561667Y0168032D01*
X0561067Y0167431D01*
X0559866Y0167431D01*
X0559265Y0168032D01*
X0559265Y0170434D02*
X0559866Y0171034D01*
X0561067Y0171034D01*
X0561667Y0170434D01*
X0562948Y0170434D02*
X0563549Y0171034D01*
X0564750Y0171034D01*
X0565350Y0170434D01*
X0565350Y0169833D01*
X0562948Y0167431D01*
X0565350Y0167431D01*
X0560534Y0172431D02*
X0559332Y0172431D01*
X0558732Y0173032D01*
X0558732Y0173632D01*
X0559332Y0174233D01*
X0560534Y0174233D01*
X0561134Y0173632D01*
X0561134Y0173032D01*
X0560534Y0172431D01*
X0560534Y0174233D02*
X0561134Y0174833D01*
X0561134Y0175434D01*
X0560534Y0176034D01*
X0559332Y0176034D01*
X0558732Y0175434D01*
X0558732Y0174833D01*
X0559332Y0174233D01*
X0557451Y0175434D02*
X0556850Y0176034D01*
X0555649Y0176034D01*
X0555049Y0175434D01*
X0555049Y0173032D01*
X0555649Y0172431D01*
X0556850Y0172431D01*
X0557451Y0173032D01*
X0546417Y0207431D02*
X0545216Y0207431D01*
X0544616Y0208032D01*
X0545216Y0209233D02*
X0546417Y0209233D01*
X0547018Y0208632D01*
X0547018Y0208032D01*
X0546417Y0207431D01*
X0545216Y0209233D02*
X0544616Y0209833D01*
X0544616Y0210434D01*
X0545216Y0211034D01*
X0546417Y0211034D01*
X0547018Y0210434D01*
X0547018Y0237431D02*
X0545817Y0238632D01*
X0546417Y0238632D02*
X0544616Y0238632D01*
X0544616Y0237431D02*
X0544616Y0241034D01*
X0546417Y0241034D01*
X0547018Y0240434D01*
X0547018Y0239233D01*
X0546417Y0238632D01*
X0362184Y0246132D02*
X0362184Y0246732D01*
X0361584Y0247333D01*
X0359782Y0247333D01*
X0359782Y0246132D01*
X0360382Y0245531D01*
X0361584Y0245531D01*
X0362184Y0246132D01*
X0360983Y0248534D02*
X0359782Y0247333D01*
X0360983Y0248534D02*
X0362184Y0249134D01*
X0358501Y0248534D02*
X0358501Y0246132D01*
X0357900Y0245531D01*
X0356699Y0245531D01*
X0356099Y0246132D01*
X0356099Y0248534D01*
X0356699Y0249134D01*
X0357900Y0249134D01*
X0358501Y0248534D01*
X0357300Y0246732D02*
X0358501Y0245531D01*
X0349084Y0246332D02*
X0348484Y0245731D01*
X0347282Y0245731D01*
X0346682Y0246332D01*
X0346682Y0247533D02*
X0347883Y0248133D01*
X0348484Y0248133D01*
X0349084Y0247533D01*
X0349084Y0246332D01*
X0346682Y0247533D02*
X0346682Y0249334D01*
X0349084Y0249334D01*
X0345401Y0248734D02*
X0345401Y0246332D01*
X0344800Y0245731D01*
X0343599Y0245731D01*
X0342999Y0246332D01*
X0342999Y0248734D01*
X0343599Y0249334D01*
X0344800Y0249334D01*
X0345401Y0248734D01*
X0344200Y0246932D02*
X0345401Y0245731D01*
X0328167Y0249832D02*
X0327567Y0249231D01*
X0326366Y0249231D01*
X0325765Y0249832D01*
X0328167Y0252234D01*
X0328167Y0249832D01*
X0328167Y0252234D02*
X0327567Y0252834D01*
X0326366Y0252834D01*
X0325765Y0252234D01*
X0325765Y0249832D01*
X0324484Y0249231D02*
X0322082Y0249231D01*
X0323283Y0249231D02*
X0323283Y0252834D01*
X0322082Y0251633D01*
X0320801Y0252234D02*
X0320200Y0252834D01*
X0318399Y0252834D01*
X0318399Y0249231D01*
X0320200Y0249231D01*
X0320801Y0249832D01*
X0320801Y0252234D01*
X0302367Y0252184D02*
X0301767Y0252784D01*
X0300566Y0252784D01*
X0299965Y0252184D01*
X0302367Y0252184D02*
X0302367Y0251583D01*
X0299965Y0249181D01*
X0302367Y0249181D01*
X0298684Y0249181D02*
X0296282Y0249181D01*
X0297483Y0249181D02*
X0297483Y0252784D01*
X0296282Y0251583D01*
X0295001Y0252184D02*
X0295001Y0249782D01*
X0294400Y0249181D01*
X0292599Y0249181D01*
X0292599Y0252784D01*
X0294400Y0252784D01*
X0295001Y0252184D01*
X0284498Y0225550D02*
X0285099Y0224949D01*
X0285099Y0223748D01*
X0284498Y0223148D01*
X0283297Y0223148D02*
X0282697Y0224349D01*
X0282697Y0224949D01*
X0283297Y0225550D01*
X0284498Y0225550D01*
X0283297Y0223148D02*
X0281496Y0223148D01*
X0281496Y0225550D01*
X0282096Y0221867D02*
X0282697Y0221867D01*
X0283297Y0221266D01*
X0283898Y0221867D01*
X0284498Y0221867D01*
X0285099Y0221266D01*
X0285099Y0220065D01*
X0284498Y0219465D01*
X0285099Y0218184D02*
X0283898Y0216983D01*
X0283898Y0217583D02*
X0283898Y0215782D01*
X0285099Y0215782D02*
X0281496Y0215782D01*
X0281496Y0217583D01*
X0282096Y0218184D01*
X0283297Y0218184D01*
X0283898Y0217583D01*
X0282096Y0219465D02*
X0281496Y0220065D01*
X0281496Y0221266D01*
X0282096Y0221867D01*
X0283297Y0221266D02*
X0283297Y0220666D01*
X0290299Y0208734D02*
X0289699Y0208134D01*
X0289699Y0205732D01*
X0290299Y0205131D01*
X0291500Y0205131D01*
X0292101Y0205732D01*
X0293382Y0205732D02*
X0293982Y0205131D01*
X0295184Y0205131D01*
X0295784Y0205732D01*
X0295784Y0206933D01*
X0295184Y0207533D01*
X0294583Y0207533D01*
X0293382Y0206933D01*
X0293382Y0208734D01*
X0295784Y0208734D01*
X0292101Y0208134D02*
X0291500Y0208734D01*
X0290299Y0208734D01*
X0305899Y0208984D02*
X0307100Y0208984D01*
X0306499Y0208984D02*
X0306499Y0205381D01*
X0305899Y0205381D02*
X0307100Y0205381D01*
X0308354Y0205982D02*
X0308354Y0208384D01*
X0308955Y0208984D01*
X0310156Y0208984D01*
X0310756Y0208384D01*
X0312037Y0207183D02*
X0313839Y0207183D01*
X0314439Y0206582D01*
X0314439Y0205982D01*
X0313839Y0205381D01*
X0312638Y0205381D01*
X0312037Y0205982D01*
X0312037Y0207183D01*
X0313238Y0208384D01*
X0314439Y0208984D01*
X0310756Y0205982D02*
X0310156Y0205381D01*
X0308955Y0205381D01*
X0308354Y0205982D01*
X0235884Y0189934D02*
X0235884Y0189333D01*
X0235284Y0188733D01*
X0235884Y0188132D01*
X0235884Y0187532D01*
X0235284Y0186931D01*
X0234082Y0186931D01*
X0233482Y0187532D01*
X0232201Y0187532D02*
X0231600Y0186931D01*
X0230399Y0186931D01*
X0229799Y0187532D01*
X0229799Y0189934D01*
X0230399Y0190534D01*
X0231600Y0190534D01*
X0232201Y0189934D01*
X0232201Y0187532D01*
X0232201Y0186931D02*
X0231000Y0188132D01*
X0233482Y0189934D02*
X0234082Y0190534D01*
X0235284Y0190534D01*
X0235884Y0189934D01*
X0235284Y0188733D02*
X0234683Y0188733D01*
X0235134Y0161184D02*
X0233932Y0161184D01*
X0233332Y0160584D01*
X0232051Y0160584D02*
X0232051Y0158182D01*
X0231450Y0157581D01*
X0230249Y0157581D01*
X0229649Y0158182D01*
X0229649Y0160584D01*
X0230249Y0161184D01*
X0231450Y0161184D01*
X0232051Y0160584D01*
X0230850Y0158782D02*
X0232051Y0157581D01*
X0233332Y0157581D02*
X0235734Y0159983D01*
X0235734Y0160584D01*
X0235134Y0161184D01*
X0235734Y0157581D02*
X0233332Y0157581D01*
X0231800Y0251781D02*
X0229398Y0251781D01*
X0230599Y0251781D02*
X0230599Y0255384D01*
X0229398Y0254183D01*
X0228117Y0254784D02*
X0227517Y0255384D01*
X0226316Y0255384D01*
X0225715Y0254784D01*
X0225715Y0254183D01*
X0226316Y0253583D01*
X0227517Y0253583D01*
X0228117Y0252982D01*
X0228117Y0252382D01*
X0227517Y0251781D01*
X0226316Y0251781D01*
X0225715Y0252382D01*
X0224434Y0252982D02*
X0224434Y0255384D01*
X0224434Y0252982D02*
X0223233Y0251781D01*
X0222032Y0252982D01*
X0222032Y0255384D01*
X0220751Y0255384D02*
X0218349Y0255384D01*
X0219550Y0255384D02*
X0219550Y0251781D01*
X0200034Y0272431D02*
X0198832Y0272431D01*
X0198232Y0273032D01*
X0196951Y0273032D02*
X0196350Y0272431D01*
X0195149Y0272431D01*
X0194549Y0273032D01*
X0194549Y0275434D01*
X0195149Y0276034D01*
X0196350Y0276034D01*
X0196951Y0275434D01*
X0198232Y0275434D02*
X0198832Y0276034D01*
X0200034Y0276034D01*
X0200634Y0275434D01*
X0200634Y0274833D01*
X0200034Y0274233D01*
X0200634Y0273632D01*
X0200634Y0273032D01*
X0200034Y0272431D01*
X0200034Y0274233D02*
X0199433Y0274233D01*
X0172299Y0255149D02*
X0172299Y0253948D01*
X0171698Y0253348D01*
X0170497Y0253948D02*
X0169897Y0253348D01*
X0169296Y0253348D01*
X0168696Y0253948D01*
X0168696Y0255149D01*
X0169296Y0255750D01*
X0170497Y0255149D02*
X0171098Y0255750D01*
X0171698Y0255750D01*
X0172299Y0255149D01*
X0170497Y0255149D02*
X0170497Y0253948D01*
X0142299Y0253348D02*
X0138696Y0253348D01*
X0138696Y0255149D01*
X0139296Y0255750D01*
X0140497Y0255750D01*
X0141098Y0255149D01*
X0141098Y0253348D01*
X0141098Y0254549D02*
X0142299Y0255750D01*
X0528549Y0110634D02*
X0529149Y0111234D01*
X0530350Y0111234D01*
X0530951Y0110634D01*
X0530951Y0108232D01*
X0530350Y0107631D01*
X0529149Y0107631D01*
X0528549Y0108232D01*
X0528549Y0110634D01*
X0529750Y0108832D02*
X0530951Y0107631D01*
X0532232Y0107631D02*
X0532232Y0108232D01*
X0534634Y0110634D01*
X0534634Y0111234D01*
X0532232Y0111234D01*
D14*
X0537537Y0109181D02*
X0538349Y0109181D01*
X0537537Y0109181D02*
X0537537Y0089981D01*
X0538349Y0089981D01*
X0532199Y0086381D02*
X0528999Y0086381D01*
X0524699Y0083981D02*
X0524699Y0080781D01*
X0528199Y0080781D01*
X0532999Y0080781D02*
X0536499Y0080781D01*
X0536499Y0082381D01*
X0536499Y0083981D01*
X0535298Y0083681D02*
X0535294Y0083613D01*
X0535295Y0083544D01*
X0535299Y0083476D01*
X0535307Y0083408D01*
X0535318Y0083340D01*
X0535334Y0083273D01*
X0535354Y0083207D01*
X0535377Y0083143D01*
X0535404Y0083080D01*
X0535434Y0083018D01*
X0535468Y0082959D01*
X0535505Y0082901D01*
X0535546Y0082846D01*
X0535589Y0082793D01*
X0535636Y0082742D01*
X0535685Y0082695D01*
X0535737Y0082650D01*
X0535792Y0082608D01*
X0535848Y0082569D01*
X0535907Y0082534D01*
X0535968Y0082502D01*
X0536030Y0082474D01*
X0536095Y0082449D01*
X0536160Y0082428D01*
X0536226Y0082411D01*
X0536294Y0082398D01*
X0536361Y0082388D01*
X0536430Y0082383D01*
X0536498Y0082381D01*
X0537537Y0082631D02*
X0538349Y0082631D01*
X0537537Y0082631D02*
X0537537Y0063431D01*
X0538349Y0063431D01*
X0547749Y0063431D02*
X0548561Y0063431D01*
X0548561Y0082631D01*
X0547749Y0082631D01*
X0549387Y0082681D02*
X0550199Y0082681D01*
X0549387Y0082681D02*
X0549387Y0063481D01*
X0550199Y0063481D01*
X0559599Y0063481D02*
X0560411Y0063481D01*
X0560411Y0082681D01*
X0559599Y0082681D01*
X0559599Y0089981D02*
X0560411Y0089981D01*
X0560411Y0109181D01*
X0559599Y0109181D01*
X0550199Y0109181D02*
X0549387Y0109181D01*
X0549387Y0089981D01*
X0550199Y0089981D01*
X0548561Y0089981D02*
X0547749Y0089981D01*
X0548561Y0089981D02*
X0548561Y0109181D01*
X0547749Y0109181D01*
X0532199Y0102631D02*
X0528999Y0102631D01*
X0524699Y0100231D02*
X0524699Y0097031D01*
X0528199Y0097031D01*
X0532999Y0097031D02*
X0536499Y0097031D01*
X0536499Y0098631D01*
X0536499Y0100231D01*
X0535298Y0099931D02*
X0535294Y0099863D01*
X0535295Y0099794D01*
X0535299Y0099726D01*
X0535307Y0099658D01*
X0535318Y0099590D01*
X0535334Y0099523D01*
X0535354Y0099457D01*
X0535377Y0099393D01*
X0535404Y0099330D01*
X0535434Y0099268D01*
X0535468Y0099209D01*
X0535505Y0099151D01*
X0535546Y0099096D01*
X0535589Y0099043D01*
X0535636Y0098992D01*
X0535685Y0098945D01*
X0535737Y0098900D01*
X0535792Y0098858D01*
X0535848Y0098819D01*
X0535907Y0098784D01*
X0535968Y0098752D01*
X0536030Y0098724D01*
X0536095Y0098699D01*
X0536160Y0098678D01*
X0536226Y0098661D01*
X0536294Y0098648D01*
X0536361Y0098638D01*
X0536430Y0098633D01*
X0536498Y0098631D01*
X0495349Y0095731D02*
X0495349Y0104631D01*
X0483349Y0100331D02*
X0483349Y0093531D01*
X0488049Y0093531D02*
X0490649Y0093531D01*
X0457399Y0091831D02*
X0457399Y0085031D01*
X0452699Y0091831D02*
X0450099Y0091831D01*
X0445399Y0089631D02*
X0445399Y0080731D01*
X0483699Y0060181D02*
X0483699Y0033181D01*
X0483701Y0033121D01*
X0483706Y0033060D01*
X0483715Y0033001D01*
X0483728Y0032942D01*
X0483744Y0032883D01*
X0483764Y0032826D01*
X0483787Y0032771D01*
X0483814Y0032716D01*
X0483843Y0032664D01*
X0483876Y0032613D01*
X0483912Y0032564D01*
X0483950Y0032518D01*
X0483992Y0032474D01*
X0484036Y0032432D01*
X0484082Y0032394D01*
X0484131Y0032358D01*
X0484182Y0032325D01*
X0484234Y0032296D01*
X0484289Y0032269D01*
X0484344Y0032246D01*
X0484401Y0032226D01*
X0484460Y0032210D01*
X0484519Y0032197D01*
X0484578Y0032188D01*
X0484639Y0032183D01*
X0484699Y0032181D01*
X0526699Y0032181D01*
X0526759Y0032183D01*
X0526820Y0032188D01*
X0526879Y0032197D01*
X0526938Y0032210D01*
X0526997Y0032226D01*
X0527054Y0032246D01*
X0527109Y0032269D01*
X0527164Y0032296D01*
X0527216Y0032325D01*
X0527267Y0032358D01*
X0527316Y0032394D01*
X0527362Y0032432D01*
X0527406Y0032474D01*
X0527448Y0032518D01*
X0527486Y0032564D01*
X0527522Y0032613D01*
X0527555Y0032664D01*
X0527584Y0032716D01*
X0527611Y0032771D01*
X0527634Y0032826D01*
X0527654Y0032883D01*
X0527670Y0032942D01*
X0527683Y0033001D01*
X0527692Y0033060D01*
X0527697Y0033121D01*
X0527699Y0033181D01*
X0527699Y0060181D01*
X0527697Y0060241D01*
X0527692Y0060302D01*
X0527683Y0060361D01*
X0527670Y0060420D01*
X0527654Y0060479D01*
X0527634Y0060536D01*
X0527611Y0060591D01*
X0527584Y0060646D01*
X0527555Y0060698D01*
X0527522Y0060749D01*
X0527486Y0060798D01*
X0527448Y0060844D01*
X0527406Y0060888D01*
X0527362Y0060930D01*
X0527316Y0060968D01*
X0527267Y0061004D01*
X0527216Y0061037D01*
X0527164Y0061066D01*
X0527109Y0061093D01*
X0527054Y0061116D01*
X0526997Y0061136D01*
X0526938Y0061152D01*
X0526879Y0061165D01*
X0526820Y0061174D01*
X0526759Y0061179D01*
X0526699Y0061181D01*
X0484699Y0061181D01*
X0484639Y0061179D01*
X0484578Y0061174D01*
X0484519Y0061165D01*
X0484460Y0061152D01*
X0484401Y0061136D01*
X0484344Y0061116D01*
X0484289Y0061093D01*
X0484234Y0061066D01*
X0484182Y0061037D01*
X0484131Y0061004D01*
X0484082Y0060968D01*
X0484036Y0060930D01*
X0483992Y0060888D01*
X0483950Y0060844D01*
X0483912Y0060798D01*
X0483876Y0060749D01*
X0483843Y0060698D01*
X0483814Y0060646D01*
X0483787Y0060591D01*
X0483764Y0060536D01*
X0483744Y0060479D01*
X0483728Y0060420D01*
X0483715Y0060361D01*
X0483706Y0060302D01*
X0483701Y0060241D01*
X0483699Y0060181D01*
X0482749Y0051031D02*
X0482149Y0051031D01*
X0482749Y0051031D02*
X0482749Y0037831D01*
X0482149Y0037831D01*
X0470149Y0037831D02*
X0469549Y0037831D01*
X0469549Y0043231D01*
X0469618Y0043233D01*
X0469686Y0043239D01*
X0469754Y0043249D01*
X0469821Y0043262D01*
X0469887Y0043280D01*
X0469952Y0043301D01*
X0470016Y0043326D01*
X0470078Y0043354D01*
X0470139Y0043386D01*
X0470198Y0043421D01*
X0470254Y0043460D01*
X0470309Y0043502D01*
X0470360Y0043547D01*
X0470410Y0043595D01*
X0470456Y0043645D01*
X0470499Y0043698D01*
X0470540Y0043754D01*
X0470577Y0043811D01*
X0470610Y0043871D01*
X0470641Y0043933D01*
X0470667Y0043996D01*
X0470690Y0044060D01*
X0470710Y0044126D01*
X0470725Y0044193D01*
X0470737Y0044260D01*
X0470745Y0044328D01*
X0470749Y0044397D01*
X0470749Y0044465D01*
X0470745Y0044534D01*
X0470737Y0044602D01*
X0470725Y0044669D01*
X0470710Y0044736D01*
X0470690Y0044802D01*
X0470667Y0044866D01*
X0470641Y0044929D01*
X0470610Y0044991D01*
X0470577Y0045051D01*
X0470540Y0045108D01*
X0470499Y0045164D01*
X0470456Y0045217D01*
X0470410Y0045267D01*
X0470360Y0045315D01*
X0470309Y0045360D01*
X0470254Y0045402D01*
X0470198Y0045441D01*
X0470139Y0045476D01*
X0470078Y0045508D01*
X0470016Y0045536D01*
X0469952Y0045561D01*
X0469887Y0045582D01*
X0469821Y0045600D01*
X0469754Y0045613D01*
X0469686Y0045623D01*
X0469618Y0045629D01*
X0469549Y0045631D01*
X0469549Y0051031D01*
X0470149Y0051031D01*
X0448749Y0055181D02*
X0448749Y0044381D01*
X0433949Y0048781D02*
X0431449Y0045281D01*
X0431449Y0048781D01*
X0433949Y0048781D01*
X0433835Y0048622D02*
X0431449Y0048622D01*
X0431449Y0048023D02*
X0433407Y0048023D01*
X0432980Y0047425D02*
X0431449Y0047425D01*
X0431449Y0046826D02*
X0432552Y0046826D01*
X0432125Y0046228D02*
X0431449Y0046228D01*
X0431449Y0045629D02*
X0431697Y0045629D01*
X0429149Y0044381D02*
X0429149Y0048581D01*
X0429218Y0048583D01*
X0429286Y0048589D01*
X0429354Y0048599D01*
X0429421Y0048612D01*
X0429487Y0048630D01*
X0429552Y0048651D01*
X0429616Y0048676D01*
X0429678Y0048704D01*
X0429739Y0048736D01*
X0429798Y0048771D01*
X0429854Y0048810D01*
X0429909Y0048852D01*
X0429960Y0048897D01*
X0430010Y0048945D01*
X0430056Y0048995D01*
X0430099Y0049048D01*
X0430140Y0049104D01*
X0430177Y0049161D01*
X0430210Y0049221D01*
X0430241Y0049283D01*
X0430267Y0049346D01*
X0430290Y0049410D01*
X0430310Y0049476D01*
X0430325Y0049543D01*
X0430337Y0049610D01*
X0430345Y0049678D01*
X0430349Y0049747D01*
X0430349Y0049815D01*
X0430345Y0049884D01*
X0430337Y0049952D01*
X0430325Y0050019D01*
X0430310Y0050086D01*
X0430290Y0050152D01*
X0430267Y0050216D01*
X0430241Y0050279D01*
X0430210Y0050341D01*
X0430177Y0050401D01*
X0430140Y0050458D01*
X0430099Y0050514D01*
X0430056Y0050567D01*
X0430010Y0050617D01*
X0429960Y0050665D01*
X0429909Y0050710D01*
X0429854Y0050752D01*
X0429798Y0050791D01*
X0429739Y0050826D01*
X0429678Y0050858D01*
X0429616Y0050886D01*
X0429552Y0050911D01*
X0429487Y0050932D01*
X0429421Y0050950D01*
X0429354Y0050963D01*
X0429286Y0050973D01*
X0429218Y0050979D01*
X0429149Y0050981D01*
X0429149Y0055181D01*
X0429149Y0050981D02*
X0429218Y0050979D01*
X0429286Y0050973D01*
X0429354Y0050963D01*
X0429421Y0050950D01*
X0429487Y0050932D01*
X0429552Y0050911D01*
X0429616Y0050886D01*
X0429678Y0050858D01*
X0429739Y0050826D01*
X0429798Y0050791D01*
X0429854Y0050752D01*
X0429909Y0050710D01*
X0429960Y0050665D01*
X0430010Y0050617D01*
X0430056Y0050567D01*
X0430099Y0050514D01*
X0430140Y0050458D01*
X0430177Y0050401D01*
X0430210Y0050341D01*
X0430241Y0050279D01*
X0430267Y0050216D01*
X0430290Y0050152D01*
X0430310Y0050086D01*
X0430325Y0050019D01*
X0430337Y0049952D01*
X0430345Y0049884D01*
X0430349Y0049815D01*
X0430349Y0049747D01*
X0430345Y0049678D01*
X0430337Y0049610D01*
X0430325Y0049543D01*
X0430310Y0049476D01*
X0430290Y0049410D01*
X0430267Y0049346D01*
X0430241Y0049283D01*
X0430210Y0049221D01*
X0430177Y0049161D01*
X0430140Y0049104D01*
X0430099Y0049048D01*
X0430056Y0048995D01*
X0430010Y0048945D01*
X0429960Y0048897D01*
X0429909Y0048852D01*
X0429854Y0048810D01*
X0429798Y0048771D01*
X0429739Y0048736D01*
X0429678Y0048704D01*
X0429616Y0048676D01*
X0429552Y0048651D01*
X0429487Y0048630D01*
X0429421Y0048612D01*
X0429354Y0048599D01*
X0429286Y0048589D01*
X0429218Y0048583D01*
X0429149Y0048581D01*
X0388399Y0069581D02*
X0384399Y0069581D01*
X0388399Y0069581D02*
X0388399Y0073581D01*
X0351199Y0069581D02*
X0347199Y0069581D01*
X0347199Y0073581D01*
X0295449Y0073281D02*
X0295449Y0066481D01*
X0283449Y0062181D02*
X0283449Y0071081D01*
X0288149Y0073281D02*
X0290749Y0073281D01*
X0263499Y0086281D02*
X0263499Y0047281D01*
X0250599Y0047281D01*
X0250599Y0086281D01*
X0255849Y0086281D01*
X0255851Y0086212D01*
X0255857Y0086144D01*
X0255867Y0086076D01*
X0255880Y0086009D01*
X0255898Y0085943D01*
X0255919Y0085878D01*
X0255944Y0085814D01*
X0255972Y0085752D01*
X0256004Y0085691D01*
X0256039Y0085632D01*
X0256078Y0085576D01*
X0256120Y0085521D01*
X0256165Y0085470D01*
X0256213Y0085420D01*
X0256263Y0085374D01*
X0256316Y0085331D01*
X0256372Y0085290D01*
X0256429Y0085253D01*
X0256489Y0085220D01*
X0256551Y0085189D01*
X0256614Y0085163D01*
X0256678Y0085140D01*
X0256744Y0085120D01*
X0256811Y0085105D01*
X0256878Y0085093D01*
X0256946Y0085085D01*
X0257015Y0085081D01*
X0257083Y0085081D01*
X0257152Y0085085D01*
X0257220Y0085093D01*
X0257287Y0085105D01*
X0257354Y0085120D01*
X0257420Y0085140D01*
X0257484Y0085163D01*
X0257547Y0085189D01*
X0257609Y0085220D01*
X0257669Y0085253D01*
X0257726Y0085290D01*
X0257782Y0085331D01*
X0257835Y0085374D01*
X0257885Y0085420D01*
X0257933Y0085470D01*
X0257978Y0085521D01*
X0258020Y0085576D01*
X0258059Y0085632D01*
X0258094Y0085691D01*
X0258126Y0085752D01*
X0258154Y0085814D01*
X0258179Y0085878D01*
X0258200Y0085943D01*
X0258218Y0086009D01*
X0258231Y0086076D01*
X0258241Y0086144D01*
X0258247Y0086212D01*
X0258249Y0086281D01*
X0263499Y0086281D01*
X0263499Y0087531D02*
X0263499Y0126531D01*
X0258249Y0126531D01*
X0258247Y0126462D01*
X0258241Y0126394D01*
X0258231Y0126326D01*
X0258218Y0126259D01*
X0258200Y0126193D01*
X0258179Y0126128D01*
X0258154Y0126064D01*
X0258126Y0126002D01*
X0258094Y0125941D01*
X0258059Y0125882D01*
X0258020Y0125826D01*
X0257978Y0125771D01*
X0257933Y0125720D01*
X0257885Y0125670D01*
X0257835Y0125624D01*
X0257782Y0125581D01*
X0257726Y0125540D01*
X0257669Y0125503D01*
X0257609Y0125470D01*
X0257547Y0125439D01*
X0257484Y0125413D01*
X0257420Y0125390D01*
X0257354Y0125370D01*
X0257287Y0125355D01*
X0257220Y0125343D01*
X0257152Y0125335D01*
X0257083Y0125331D01*
X0257015Y0125331D01*
X0256946Y0125335D01*
X0256878Y0125343D01*
X0256811Y0125355D01*
X0256744Y0125370D01*
X0256678Y0125390D01*
X0256614Y0125413D01*
X0256551Y0125439D01*
X0256489Y0125470D01*
X0256429Y0125503D01*
X0256372Y0125540D01*
X0256316Y0125581D01*
X0256263Y0125624D01*
X0256213Y0125670D01*
X0256165Y0125720D01*
X0256120Y0125771D01*
X0256078Y0125826D01*
X0256039Y0125882D01*
X0256004Y0125941D01*
X0255972Y0126002D01*
X0255944Y0126064D01*
X0255919Y0126128D01*
X0255898Y0126193D01*
X0255880Y0126259D01*
X0255867Y0126326D01*
X0255857Y0126394D01*
X0255851Y0126462D01*
X0255849Y0126531D01*
X0250599Y0126531D01*
X0250599Y0087531D01*
X0263499Y0087531D01*
X0255299Y0084281D02*
X0251799Y0084281D01*
X0255299Y0081781D01*
X0255299Y0084281D01*
X0255299Y0083934D02*
X0252285Y0083934D01*
X0253123Y0083335D02*
X0255299Y0083335D01*
X0255299Y0082737D02*
X0253961Y0082737D01*
X0254799Y0082138D02*
X0255299Y0082138D01*
X0211769Y0085595D02*
X0211769Y0067367D01*
X0186729Y0067367D01*
X0186729Y0085595D01*
X0207769Y0085595D01*
X0211769Y0085595D01*
X0211769Y0089317D02*
X0186729Y0089317D01*
X0186729Y0107545D01*
X0207769Y0107545D01*
X0211769Y0107545D01*
X0211769Y0089317D01*
X0209499Y0093431D02*
X0205999Y0095931D01*
X0205999Y0093431D01*
X0209499Y0093431D01*
X0209388Y0093510D02*
X0205999Y0093510D01*
X0205999Y0094108D02*
X0208551Y0094108D01*
X0207713Y0094707D02*
X0205999Y0094707D01*
X0205999Y0095305D02*
X0206875Y0095305D01*
X0206037Y0095904D02*
X0205999Y0095904D01*
X0211769Y0109067D02*
X0186729Y0109067D01*
X0186729Y0127295D01*
X0207769Y0127295D01*
X0211769Y0127295D01*
X0211769Y0109067D01*
X0209499Y0113181D02*
X0205999Y0115681D01*
X0205999Y0113181D01*
X0209499Y0113181D01*
X0209387Y0113261D02*
X0205999Y0113261D01*
X0205999Y0113859D02*
X0208549Y0113859D01*
X0207711Y0114458D02*
X0205999Y0114458D01*
X0205999Y0115056D02*
X0206874Y0115056D01*
X0206036Y0115655D02*
X0205999Y0115655D01*
X0237149Y0133381D02*
X0237149Y0135581D01*
X0237149Y0133381D02*
X0251749Y0133381D01*
X0251749Y0159781D01*
X0237149Y0159781D01*
X0237149Y0157581D01*
X0237149Y0162531D02*
X0237149Y0164731D01*
X0237149Y0162531D02*
X0251749Y0162531D01*
X0251749Y0188931D01*
X0237149Y0188931D01*
X0237149Y0186731D01*
X0213749Y0185481D02*
X0209249Y0185481D01*
X0209249Y0165481D01*
X0211749Y0165481D01*
X0211749Y0163981D01*
X0205499Y0163981D01*
X0205499Y0162981D01*
X0213749Y0162981D01*
X0213749Y0165481D01*
X0213749Y0185481D01*
X0189249Y0185481D02*
X0184749Y0185481D01*
X0184749Y0165481D01*
X0184749Y0162981D01*
X0192999Y0162981D01*
X0192999Y0163981D01*
X0186749Y0163981D01*
X0186749Y0165481D01*
X0184749Y0165481D02*
X0189249Y0165481D01*
X0189249Y0185481D01*
X0163499Y0181831D02*
X0162499Y0181831D01*
X0158999Y0176831D02*
X0157999Y0176831D01*
X0157999Y0161831D01*
X0163499Y0161831D01*
X0152999Y0161831D02*
X0147499Y0161831D01*
X0152999Y0161831D02*
X0152999Y0176831D01*
X0151999Y0176831D01*
X0148499Y0181831D02*
X0147499Y0181831D01*
X0151999Y0186831D02*
X0152999Y0186831D01*
X0152999Y0201831D01*
X0147499Y0201831D01*
X0157999Y0201831D02*
X0163499Y0201831D01*
X0157999Y0201831D02*
X0157999Y0186831D01*
X0158999Y0186831D01*
X0126449Y0185481D02*
X0121949Y0185481D01*
X0121949Y0165481D01*
X0124449Y0165481D01*
X0124449Y0163981D01*
X0118199Y0163981D01*
X0118199Y0162981D01*
X0126449Y0162981D01*
X0126449Y0165481D01*
X0126449Y0185481D01*
X0101949Y0185481D02*
X0097449Y0185481D01*
X0097449Y0165481D01*
X0097449Y0162981D01*
X0105699Y0162981D01*
X0105699Y0163981D01*
X0099449Y0163981D01*
X0099449Y0165481D01*
X0097449Y0165481D02*
X0101949Y0165481D01*
X0101949Y0185481D01*
X0124449Y0165481D02*
X0126449Y0165481D01*
X0129665Y0156800D02*
X0115949Y0156800D01*
X0107949Y0156800D02*
X0094232Y0156800D01*
X0094232Y0259162D01*
X0107949Y0259162D01*
X0105699Y0252981D02*
X0097449Y0252981D01*
X0097449Y0250481D01*
X0097449Y0230481D01*
X0101949Y0230481D01*
X0101949Y0250481D01*
X0099449Y0250481D01*
X0099449Y0251981D01*
X0105699Y0251981D01*
X0105699Y0252981D01*
X0099449Y0250481D02*
X0097449Y0250481D01*
X0115949Y0259162D02*
X0129665Y0259162D01*
X0129665Y0156800D01*
X0146149Y0135743D02*
X0146149Y0134931D01*
X0146149Y0135743D02*
X0165349Y0135743D01*
X0165349Y0134931D01*
X0165349Y0125531D02*
X0165349Y0124719D01*
X0146149Y0124719D01*
X0146149Y0125531D01*
X0146149Y0123793D02*
X0146149Y0122981D01*
X0146149Y0123793D02*
X0165349Y0123793D01*
X0165349Y0122981D01*
X0165349Y0113581D02*
X0165349Y0112769D01*
X0146149Y0112769D01*
X0146149Y0113581D01*
X0076861Y0105881D02*
X0076049Y0105881D01*
X0076861Y0105881D02*
X0076861Y0125081D01*
X0076049Y0125081D01*
X0066649Y0125081D02*
X0065837Y0125081D01*
X0065837Y0105881D01*
X0066649Y0105881D01*
X0064661Y0105881D02*
X0063849Y0105881D01*
X0064661Y0105881D02*
X0064661Y0125081D01*
X0063849Y0125081D01*
X0054449Y0125081D02*
X0053637Y0125081D01*
X0053637Y0105881D01*
X0054449Y0105881D01*
X0054449Y0132181D02*
X0053637Y0132181D01*
X0053637Y0151381D01*
X0054449Y0151381D01*
X0063849Y0151381D02*
X0064661Y0151381D01*
X0064661Y0132181D01*
X0063849Y0132181D01*
X0065837Y0132181D02*
X0066649Y0132181D01*
X0065837Y0132181D02*
X0065837Y0151381D01*
X0066649Y0151381D01*
X0076049Y0151381D02*
X0076861Y0151381D01*
X0076861Y0132181D01*
X0076049Y0132181D01*
X0037914Y0159858D02*
X0001300Y0159858D01*
X0001300Y0035173D01*
X0148149Y0037381D02*
X0148149Y0038193D01*
X0167349Y0038193D01*
X0167349Y0037381D01*
X0167349Y0039169D02*
X0167349Y0039981D01*
X0167349Y0039169D02*
X0148149Y0039169D01*
X0148149Y0039981D01*
X0148149Y0049381D02*
X0148149Y0050193D01*
X0167349Y0050193D01*
X0167349Y0049381D01*
X0186729Y0047367D02*
X0211769Y0047367D01*
X0211769Y0065595D01*
X0207769Y0065595D01*
X0186729Y0065595D01*
X0186729Y0047367D01*
X0205999Y0051481D02*
X0205999Y0053981D01*
X0209499Y0051481D01*
X0205999Y0051481D01*
X0205999Y0051614D02*
X0209313Y0051614D01*
X0208475Y0052213D02*
X0205999Y0052213D01*
X0205999Y0052811D02*
X0207637Y0052811D01*
X0206799Y0053410D02*
X0205999Y0053410D01*
X0205999Y0071481D02*
X0205999Y0073981D01*
X0209499Y0071481D01*
X0205999Y0071481D01*
X0205999Y0071963D02*
X0208823Y0071963D01*
X0207986Y0072562D02*
X0205999Y0072562D01*
X0205999Y0073161D02*
X0207148Y0073161D01*
X0206310Y0073759D02*
X0205999Y0073759D01*
X0167349Y0027981D02*
X0167349Y0027169D01*
X0148149Y0027169D01*
X0148149Y0027981D01*
X0251799Y0124531D02*
X0255299Y0122031D01*
X0255299Y0124531D01*
X0251799Y0124531D01*
X0252495Y0124034D02*
X0255299Y0124034D01*
X0255299Y0123435D02*
X0253333Y0123435D01*
X0254171Y0122837D02*
X0255299Y0122837D01*
X0255299Y0122238D02*
X0255009Y0122238D01*
X0290899Y0133381D02*
X0290899Y0159781D01*
X0305499Y0159781D01*
X0305499Y0157581D01*
X0305599Y0162531D02*
X0305599Y0164731D01*
X0305599Y0162531D02*
X0290999Y0162531D01*
X0290999Y0188931D01*
X0305599Y0188931D01*
X0305599Y0186731D01*
X0337849Y0183381D02*
X0355449Y0183381D01*
X0378049Y0183331D02*
X0395649Y0183331D01*
X0389849Y0168081D02*
X0393349Y0165581D01*
X0389849Y0165581D01*
X0389849Y0168081D01*
X0389849Y0167725D02*
X0390347Y0167725D01*
X0389849Y0167127D02*
X0391185Y0167127D01*
X0392023Y0166528D02*
X0389849Y0166528D01*
X0389849Y0165930D02*
X0392861Y0165930D01*
X0395649Y0163331D02*
X0388049Y0163331D01*
X0388047Y0163400D01*
X0388041Y0163468D01*
X0388031Y0163536D01*
X0388018Y0163603D01*
X0388000Y0163669D01*
X0387979Y0163734D01*
X0387954Y0163798D01*
X0387926Y0163860D01*
X0387894Y0163921D01*
X0387859Y0163980D01*
X0387820Y0164036D01*
X0387778Y0164091D01*
X0387733Y0164142D01*
X0387685Y0164192D01*
X0387635Y0164238D01*
X0387582Y0164281D01*
X0387526Y0164322D01*
X0387469Y0164359D01*
X0387409Y0164392D01*
X0387347Y0164423D01*
X0387284Y0164449D01*
X0387220Y0164472D01*
X0387154Y0164492D01*
X0387087Y0164507D01*
X0387020Y0164519D01*
X0386952Y0164527D01*
X0386883Y0164531D01*
X0386815Y0164531D01*
X0386746Y0164527D01*
X0386678Y0164519D01*
X0386611Y0164507D01*
X0386544Y0164492D01*
X0386478Y0164472D01*
X0386414Y0164449D01*
X0386351Y0164423D01*
X0386289Y0164392D01*
X0386229Y0164359D01*
X0386172Y0164322D01*
X0386116Y0164281D01*
X0386063Y0164238D01*
X0386013Y0164192D01*
X0385965Y0164142D01*
X0385920Y0164091D01*
X0385878Y0164036D01*
X0385839Y0163980D01*
X0385804Y0163921D01*
X0385772Y0163860D01*
X0385744Y0163798D01*
X0385719Y0163734D01*
X0385698Y0163669D01*
X0385680Y0163603D01*
X0385667Y0163536D01*
X0385657Y0163468D01*
X0385651Y0163400D01*
X0385649Y0163331D01*
X0378049Y0163331D01*
X0375099Y0157431D02*
X0372899Y0157431D01*
X0372899Y0154231D01*
X0362399Y0154281D02*
X0362399Y0157481D01*
X0360199Y0157481D01*
X0353399Y0157481D02*
X0351199Y0157481D01*
X0351199Y0154281D01*
X0344899Y0154281D02*
X0344899Y0157481D01*
X0342699Y0157481D01*
X0335899Y0157481D02*
X0333699Y0157481D01*
X0333699Y0154281D01*
X0337849Y0163381D02*
X0345449Y0163381D01*
X0345451Y0163450D01*
X0345457Y0163518D01*
X0345467Y0163586D01*
X0345480Y0163653D01*
X0345498Y0163719D01*
X0345519Y0163784D01*
X0345544Y0163848D01*
X0345572Y0163910D01*
X0345604Y0163971D01*
X0345639Y0164030D01*
X0345678Y0164086D01*
X0345720Y0164141D01*
X0345765Y0164192D01*
X0345813Y0164242D01*
X0345863Y0164288D01*
X0345916Y0164331D01*
X0345972Y0164372D01*
X0346029Y0164409D01*
X0346089Y0164442D01*
X0346151Y0164473D01*
X0346214Y0164499D01*
X0346278Y0164522D01*
X0346344Y0164542D01*
X0346411Y0164557D01*
X0346478Y0164569D01*
X0346546Y0164577D01*
X0346615Y0164581D01*
X0346683Y0164581D01*
X0346752Y0164577D01*
X0346820Y0164569D01*
X0346887Y0164557D01*
X0346954Y0164542D01*
X0347020Y0164522D01*
X0347084Y0164499D01*
X0347147Y0164473D01*
X0347209Y0164442D01*
X0347269Y0164409D01*
X0347326Y0164372D01*
X0347382Y0164331D01*
X0347435Y0164288D01*
X0347485Y0164242D01*
X0347533Y0164192D01*
X0347578Y0164141D01*
X0347620Y0164086D01*
X0347659Y0164030D01*
X0347694Y0163971D01*
X0347726Y0163910D01*
X0347754Y0163848D01*
X0347779Y0163784D01*
X0347800Y0163719D01*
X0347818Y0163653D01*
X0347831Y0163586D01*
X0347841Y0163518D01*
X0347847Y0163450D01*
X0347849Y0163381D01*
X0355449Y0163381D01*
X0353149Y0165631D02*
X0349649Y0168131D01*
X0349649Y0165631D01*
X0353149Y0165631D01*
X0352731Y0165930D02*
X0349649Y0165930D01*
X0349649Y0166528D02*
X0351893Y0166528D01*
X0351055Y0167127D02*
X0349649Y0167127D01*
X0349649Y0167725D02*
X0350217Y0167725D01*
X0381899Y0157431D02*
X0384099Y0157431D01*
X0384099Y0154231D01*
X0387149Y0154231D02*
X0387149Y0157431D01*
X0389349Y0157431D01*
X0396149Y0157431D02*
X0398349Y0157431D01*
X0398349Y0154231D01*
X0439368Y0161565D02*
X0439368Y0175281D01*
X0445549Y0173031D02*
X0446549Y0173031D01*
X0446549Y0166781D01*
X0448049Y0166781D01*
X0448049Y0169281D01*
X0468049Y0169281D01*
X0468049Y0164781D01*
X0448049Y0164781D01*
X0445549Y0164781D01*
X0445549Y0173031D01*
X0448049Y0166781D02*
X0448049Y0164781D01*
X0439368Y0161565D02*
X0541730Y0161565D01*
X0541730Y0175281D01*
X0544696Y0172368D02*
X0544696Y0164494D01*
X0550602Y0164494D02*
X0550602Y0172368D01*
X0541730Y0183281D02*
X0541730Y0196998D01*
X0439368Y0196998D01*
X0439368Y0183281D01*
X0445549Y0185531D02*
X0446549Y0185531D01*
X0446549Y0191781D01*
X0448049Y0191781D01*
X0448049Y0193781D02*
X0445549Y0193781D01*
X0445549Y0185531D01*
X0448049Y0189281D02*
X0468049Y0189281D01*
X0468049Y0193781D01*
X0448049Y0193781D01*
X0448049Y0189281D01*
X0396399Y0207881D02*
X0396399Y0213131D01*
X0396330Y0213133D01*
X0396262Y0213139D01*
X0396194Y0213149D01*
X0396127Y0213162D01*
X0396061Y0213180D01*
X0395996Y0213201D01*
X0395932Y0213226D01*
X0395870Y0213254D01*
X0395809Y0213286D01*
X0395750Y0213321D01*
X0395694Y0213360D01*
X0395639Y0213402D01*
X0395588Y0213447D01*
X0395538Y0213495D01*
X0395492Y0213545D01*
X0395449Y0213598D01*
X0395408Y0213654D01*
X0395371Y0213711D01*
X0395338Y0213771D01*
X0395307Y0213833D01*
X0395281Y0213896D01*
X0395258Y0213960D01*
X0395238Y0214026D01*
X0395223Y0214093D01*
X0395211Y0214160D01*
X0395203Y0214228D01*
X0395199Y0214297D01*
X0395199Y0214365D01*
X0395203Y0214434D01*
X0395211Y0214502D01*
X0395223Y0214569D01*
X0395238Y0214636D01*
X0395258Y0214702D01*
X0395281Y0214766D01*
X0395307Y0214829D01*
X0395338Y0214891D01*
X0395371Y0214951D01*
X0395408Y0215008D01*
X0395449Y0215064D01*
X0395492Y0215117D01*
X0395538Y0215167D01*
X0395588Y0215215D01*
X0395639Y0215260D01*
X0395694Y0215302D01*
X0395750Y0215341D01*
X0395809Y0215376D01*
X0395870Y0215408D01*
X0395932Y0215436D01*
X0395996Y0215461D01*
X0396061Y0215482D01*
X0396127Y0215500D01*
X0396194Y0215513D01*
X0396262Y0215523D01*
X0396330Y0215529D01*
X0396399Y0215531D01*
X0396399Y0220781D01*
X0357399Y0220781D01*
X0357399Y0207881D01*
X0396399Y0207881D01*
X0394399Y0216081D02*
X0391899Y0216081D01*
X0394399Y0219581D01*
X0394399Y0216081D01*
X0394399Y0216205D02*
X0391987Y0216205D01*
X0392415Y0216803D02*
X0394399Y0216803D01*
X0394399Y0217402D02*
X0392842Y0217402D01*
X0393270Y0218000D02*
X0394399Y0218000D01*
X0394399Y0218599D02*
X0393697Y0218599D01*
X0394125Y0219197D02*
X0394399Y0219197D01*
X0419899Y0229581D02*
X0422399Y0232831D01*
X0424649Y0229581D01*
X0419899Y0229581D01*
X0420198Y0229970D02*
X0424379Y0229970D01*
X0423965Y0230569D02*
X0420659Y0230569D01*
X0421119Y0231168D02*
X0423551Y0231168D01*
X0423136Y0231766D02*
X0421580Y0231766D01*
X0422040Y0232365D02*
X0422722Y0232365D01*
X0408499Y0239181D02*
X0408499Y0240381D01*
X0408499Y0239181D02*
X0377699Y0239181D01*
X0377699Y0240381D01*
X0361149Y0241181D02*
X0361149Y0244681D01*
X0359549Y0244681D01*
X0357949Y0244681D01*
X0358249Y0243481D02*
X0358317Y0243477D01*
X0358386Y0243478D01*
X0358454Y0243482D01*
X0358522Y0243490D01*
X0358590Y0243501D01*
X0358657Y0243517D01*
X0358723Y0243537D01*
X0358787Y0243560D01*
X0358850Y0243587D01*
X0358912Y0243617D01*
X0358971Y0243651D01*
X0359029Y0243688D01*
X0359084Y0243729D01*
X0359137Y0243772D01*
X0359188Y0243819D01*
X0359235Y0243868D01*
X0359280Y0243920D01*
X0359322Y0243975D01*
X0359361Y0244031D01*
X0359396Y0244090D01*
X0359428Y0244151D01*
X0359456Y0244213D01*
X0359481Y0244278D01*
X0359502Y0244343D01*
X0359519Y0244409D01*
X0359532Y0244477D01*
X0359542Y0244544D01*
X0359547Y0244613D01*
X0359549Y0244681D01*
X0355549Y0240381D02*
X0355549Y0237181D01*
X0361149Y0236381D02*
X0361149Y0232881D01*
X0357949Y0232881D01*
X0347749Y0232931D02*
X0347749Y0236431D01*
X0347749Y0241231D02*
X0347749Y0244731D01*
X0346149Y0244731D01*
X0344549Y0244731D01*
X0344849Y0243531D02*
X0344917Y0243527D01*
X0344986Y0243528D01*
X0345054Y0243532D01*
X0345122Y0243540D01*
X0345190Y0243551D01*
X0345257Y0243567D01*
X0345323Y0243587D01*
X0345387Y0243610D01*
X0345450Y0243637D01*
X0345512Y0243667D01*
X0345571Y0243701D01*
X0345629Y0243738D01*
X0345684Y0243779D01*
X0345737Y0243822D01*
X0345788Y0243869D01*
X0345835Y0243918D01*
X0345880Y0243970D01*
X0345922Y0244025D01*
X0345961Y0244081D01*
X0345996Y0244140D01*
X0346028Y0244201D01*
X0346056Y0244263D01*
X0346081Y0244328D01*
X0346102Y0244393D01*
X0346119Y0244459D01*
X0346132Y0244527D01*
X0346142Y0244594D01*
X0346147Y0244663D01*
X0346149Y0244731D01*
X0342149Y0240431D02*
X0342149Y0237231D01*
X0332799Y0237419D02*
X0332799Y0238231D01*
X0332799Y0237419D02*
X0313599Y0237419D01*
X0313599Y0238231D01*
X0313599Y0236693D02*
X0313599Y0235881D01*
X0313599Y0236693D02*
X0332799Y0236693D01*
X0332799Y0235881D01*
X0344549Y0232931D02*
X0347749Y0232931D01*
X0332799Y0226481D02*
X0332799Y0225669D01*
X0313599Y0225669D01*
X0313599Y0226481D01*
X0313399Y0222131D02*
X0306599Y0222131D01*
X0306299Y0225669D02*
X0306299Y0226481D01*
X0306299Y0225669D02*
X0287099Y0225669D01*
X0287099Y0226481D01*
X0276406Y0226846D02*
X0276406Y0212602D01*
X0276406Y0206650D02*
X0276406Y0205350D01*
X0246091Y0205350D01*
X0246091Y0206650D01*
X0246091Y0212602D02*
X0246091Y0226846D01*
X0246091Y0232681D02*
X0246091Y0236768D01*
X0246091Y0242524D02*
X0246091Y0246807D01*
X0246091Y0252524D02*
X0246091Y0256807D01*
X0246091Y0262524D02*
X0246091Y0265193D01*
X0276406Y0265193D01*
X0276406Y0262524D01*
X0276406Y0256807D02*
X0276406Y0252524D01*
X0276406Y0246807D02*
X0276406Y0242524D01*
X0276406Y0236768D02*
X0276406Y0232681D01*
X0287099Y0235881D02*
X0287099Y0236693D01*
X0306299Y0236693D01*
X0306299Y0235881D01*
X0306299Y0237419D02*
X0306299Y0238231D01*
X0306299Y0237419D02*
X0287099Y0237419D01*
X0287099Y0238231D01*
X0287099Y0247631D02*
X0287099Y0248443D01*
X0306299Y0248443D01*
X0306299Y0247631D01*
X0313599Y0247631D02*
X0313599Y0248443D01*
X0332799Y0248443D01*
X0332799Y0247631D01*
X0306599Y0217431D02*
X0306599Y0214831D01*
X0308799Y0210131D02*
X0317699Y0210131D01*
X0226402Y0239144D02*
X0226402Y0247018D01*
X0220496Y0247018D02*
X0220496Y0239144D01*
X0213749Y0230481D02*
X0209249Y0230481D01*
X0209249Y0250481D01*
X0213749Y0250481D01*
X0213749Y0252981D01*
X0205499Y0252981D01*
X0205499Y0251981D01*
X0211749Y0251981D01*
X0211749Y0250481D01*
X0213749Y0250481D02*
X0213749Y0230481D01*
X0189249Y0230481D02*
X0184749Y0230481D01*
X0184749Y0250481D01*
X0184749Y0252981D01*
X0192999Y0252981D01*
X0192999Y0251981D01*
X0186749Y0251981D01*
X0186749Y0250481D01*
X0189249Y0250481D01*
X0189249Y0230481D01*
X0186749Y0250481D02*
X0184749Y0250481D01*
X0181532Y0259162D02*
X0195249Y0259162D01*
X0203249Y0259162D02*
X0216965Y0259162D01*
X0216965Y0156800D01*
X0203249Y0156800D01*
X0195249Y0156800D02*
X0181532Y0156800D01*
X0181532Y0259162D01*
X0126449Y0252981D02*
X0126449Y0250481D01*
X0121949Y0250481D01*
X0121949Y0230481D01*
X0126449Y0230481D01*
X0126449Y0250481D01*
X0124449Y0250481D02*
X0124449Y0251981D01*
X0118199Y0251981D01*
X0118199Y0252981D01*
X0126449Y0252981D01*
X0211749Y0165481D02*
X0213749Y0165481D01*
X0290899Y0133381D02*
X0305499Y0133381D01*
X0305499Y0135581D01*
X0347199Y0110781D02*
X0351199Y0110781D01*
X0347199Y0110781D02*
X0347199Y0106781D01*
X0384399Y0110781D02*
X0388399Y0110781D01*
X0388399Y0106781D01*
X0384399Y0110781D01*
X0384912Y0110268D02*
X0388399Y0110268D01*
X0388399Y0109670D02*
X0385510Y0109670D01*
X0386109Y0109071D02*
X0388399Y0109071D01*
X0388399Y0108473D02*
X0386707Y0108473D01*
X0387306Y0107874D02*
X0388399Y0107874D01*
X0388399Y0107276D02*
X0387904Y0107276D01*
X0463699Y0115631D02*
X0463699Y0154631D01*
X0468949Y0154631D01*
X0468951Y0154562D01*
X0468957Y0154494D01*
X0468967Y0154426D01*
X0468980Y0154359D01*
X0468998Y0154293D01*
X0469019Y0154228D01*
X0469044Y0154164D01*
X0469072Y0154102D01*
X0469104Y0154041D01*
X0469139Y0153982D01*
X0469178Y0153926D01*
X0469220Y0153871D01*
X0469265Y0153820D01*
X0469313Y0153770D01*
X0469363Y0153724D01*
X0469416Y0153681D01*
X0469472Y0153640D01*
X0469529Y0153603D01*
X0469589Y0153570D01*
X0469651Y0153539D01*
X0469714Y0153513D01*
X0469778Y0153490D01*
X0469844Y0153470D01*
X0469911Y0153455D01*
X0469978Y0153443D01*
X0470046Y0153435D01*
X0470115Y0153431D01*
X0470183Y0153431D01*
X0470252Y0153435D01*
X0470320Y0153443D01*
X0470387Y0153455D01*
X0470454Y0153470D01*
X0470520Y0153490D01*
X0470584Y0153513D01*
X0470647Y0153539D01*
X0470709Y0153570D01*
X0470769Y0153603D01*
X0470826Y0153640D01*
X0470882Y0153681D01*
X0470935Y0153724D01*
X0470985Y0153770D01*
X0471033Y0153820D01*
X0471078Y0153871D01*
X0471120Y0153926D01*
X0471159Y0153982D01*
X0471194Y0154041D01*
X0471226Y0154102D01*
X0471254Y0154164D01*
X0471279Y0154228D01*
X0471300Y0154293D01*
X0471318Y0154359D01*
X0471331Y0154426D01*
X0471341Y0154494D01*
X0471347Y0154562D01*
X0471349Y0154631D01*
X0476599Y0154631D01*
X0476599Y0115631D01*
X0463699Y0115631D01*
X0503318Y0122124D02*
X0504617Y0122124D01*
X0503318Y0122124D02*
X0503318Y0152439D01*
X0504617Y0152439D01*
X0510570Y0152439D02*
X0524814Y0152439D01*
X0530649Y0152439D02*
X0534735Y0152439D01*
X0540491Y0152439D02*
X0544775Y0152439D01*
X0550491Y0152439D02*
X0554775Y0152439D01*
X0560491Y0152439D02*
X0563161Y0152439D01*
X0563161Y0122124D01*
X0560491Y0122124D01*
X0554775Y0122124D02*
X0550491Y0122124D01*
X0544775Y0122124D02*
X0540491Y0122124D01*
X0534735Y0122124D02*
X0530649Y0122124D01*
X0524814Y0122124D02*
X0510570Y0122124D01*
X0468399Y0150131D02*
X0464899Y0152631D01*
X0468399Y0152631D01*
X0468399Y0150131D01*
X0468399Y0150368D02*
X0468066Y0150368D01*
X0468399Y0150967D02*
X0467229Y0150967D01*
X0466391Y0151566D02*
X0468399Y0151566D01*
X0468399Y0152164D02*
X0465553Y0152164D01*
X0513049Y0164781D02*
X0513049Y0169281D01*
X0533049Y0169281D01*
X0533049Y0164781D01*
X0535549Y0164781D01*
X0535549Y0173031D01*
X0534549Y0173031D01*
X0534549Y0166781D01*
X0533049Y0166781D01*
X0533049Y0164781D02*
X0513049Y0164781D01*
X0534549Y0185531D02*
X0535549Y0185531D01*
X0535549Y0193781D01*
X0533049Y0193781D01*
X0513049Y0193781D01*
X0513049Y0189281D01*
X0533049Y0189281D01*
X0533049Y0191781D01*
X0534549Y0191781D01*
X0534549Y0185531D01*
X0533049Y0191781D02*
X0533049Y0193781D01*
X0493099Y0216231D02*
X0493099Y0221731D01*
X0478099Y0221731D01*
X0478099Y0220731D01*
X0473099Y0217231D02*
X0473099Y0216231D01*
X0468099Y0220731D02*
X0468099Y0221731D01*
X0453099Y0221731D01*
X0453099Y0216231D01*
X0453099Y0226731D02*
X0453099Y0232231D01*
X0453099Y0226731D02*
X0468099Y0226731D01*
X0468099Y0227731D01*
X0473099Y0231231D02*
X0473099Y0232231D01*
X0478099Y0227731D02*
X0478099Y0226731D01*
X0493099Y0226731D01*
X0493099Y0232231D01*
X0513049Y0253931D02*
X0513049Y0258431D01*
X0533049Y0258431D01*
X0533049Y0253931D01*
X0535549Y0253931D01*
X0535549Y0262181D01*
X0534549Y0262181D01*
X0534549Y0255931D01*
X0533049Y0255931D01*
X0533049Y0253931D02*
X0513049Y0253931D01*
X0541730Y0250715D02*
X0541730Y0264431D01*
X0541730Y0272431D02*
X0541730Y0286148D01*
X0439368Y0286148D01*
X0439368Y0272431D01*
X0445549Y0274681D02*
X0446549Y0274681D01*
X0446549Y0280931D01*
X0448049Y0280931D01*
X0448049Y0282931D02*
X0445549Y0282931D01*
X0445549Y0274681D01*
X0448049Y0278431D02*
X0468049Y0278431D01*
X0468049Y0282931D01*
X0448049Y0282931D01*
X0448049Y0278431D01*
X0439368Y0264431D02*
X0439368Y0250715D01*
X0541730Y0250715D01*
X0535549Y0274681D02*
X0534549Y0274681D01*
X0534549Y0280931D01*
X0533049Y0280931D01*
X0533049Y0278431D01*
X0513049Y0278431D01*
X0513049Y0282931D01*
X0533049Y0282931D01*
X0535549Y0282931D01*
X0535549Y0274681D01*
X0533049Y0280931D02*
X0533049Y0282931D01*
X0468049Y0258431D02*
X0468049Y0253931D01*
X0448049Y0253931D01*
X0445549Y0253931D01*
X0445549Y0262181D01*
X0446549Y0262181D01*
X0446549Y0255931D01*
X0448049Y0255931D01*
X0448049Y0258431D01*
X0468049Y0258431D01*
X0448049Y0255931D02*
X0448049Y0253931D01*
X0408499Y0285181D02*
X0408499Y0286381D01*
X0394299Y0286381D01*
X0394297Y0286312D01*
X0394291Y0286244D01*
X0394281Y0286176D01*
X0394268Y0286109D01*
X0394250Y0286043D01*
X0394229Y0285978D01*
X0394204Y0285914D01*
X0394176Y0285852D01*
X0394144Y0285791D01*
X0394109Y0285732D01*
X0394070Y0285676D01*
X0394028Y0285621D01*
X0393983Y0285570D01*
X0393935Y0285520D01*
X0393885Y0285474D01*
X0393832Y0285431D01*
X0393776Y0285390D01*
X0393719Y0285353D01*
X0393659Y0285320D01*
X0393597Y0285289D01*
X0393534Y0285263D01*
X0393470Y0285240D01*
X0393404Y0285220D01*
X0393337Y0285205D01*
X0393270Y0285193D01*
X0393202Y0285185D01*
X0393133Y0285181D01*
X0393065Y0285181D01*
X0392996Y0285185D01*
X0392928Y0285193D01*
X0392861Y0285205D01*
X0392794Y0285220D01*
X0392728Y0285240D01*
X0392664Y0285263D01*
X0392601Y0285289D01*
X0392539Y0285320D01*
X0392479Y0285353D01*
X0392422Y0285390D01*
X0392366Y0285431D01*
X0392313Y0285474D01*
X0392263Y0285520D01*
X0392215Y0285570D01*
X0392170Y0285621D01*
X0392128Y0285676D01*
X0392089Y0285732D01*
X0392054Y0285791D01*
X0392022Y0285852D01*
X0391994Y0285914D01*
X0391969Y0285978D01*
X0391948Y0286043D01*
X0391930Y0286109D01*
X0391917Y0286176D01*
X0391907Y0286244D01*
X0391901Y0286312D01*
X0391899Y0286381D01*
X0377699Y0286381D01*
X0377699Y0285181D01*
X0380049Y0282831D02*
X0383549Y0280331D01*
X0383549Y0282831D01*
X0380049Y0282831D01*
X0380317Y0282639D02*
X0383549Y0282639D01*
X0383549Y0282041D02*
X0381155Y0282041D01*
X0381993Y0281442D02*
X0383549Y0281442D01*
X0383549Y0280844D02*
X0382831Y0280844D01*
X0505699Y0052681D02*
X0505699Y0048481D01*
X0505699Y0044981D02*
X0505699Y0040681D01*
D15*
X0399199Y0073548D02*
X0399199Y0074282D01*
X0398832Y0074649D01*
X0398098Y0075391D02*
X0398098Y0076859D01*
X0398832Y0077601D02*
X0399199Y0077601D01*
X0398832Y0077601D02*
X0397364Y0079069D01*
X0396997Y0079069D01*
X0396997Y0077601D01*
X0396997Y0076492D02*
X0398098Y0075391D01*
X0397364Y0074649D02*
X0396997Y0074282D01*
X0396997Y0073548D01*
X0397364Y0073181D01*
X0398832Y0073181D01*
X0399199Y0073548D01*
X0399199Y0076492D02*
X0396997Y0076492D01*
X0397414Y0080481D02*
X0398882Y0080481D01*
X0399249Y0080848D01*
X0399249Y0081582D01*
X0398882Y0081949D01*
X0399249Y0082691D02*
X0399249Y0084159D01*
X0399249Y0083425D02*
X0397047Y0083425D01*
X0397781Y0082691D01*
X0397414Y0081949D02*
X0397047Y0081582D01*
X0397047Y0080848D01*
X0397414Y0080481D01*
X0397414Y0084901D02*
X0397047Y0085268D01*
X0397047Y0086002D01*
X0397414Y0086369D01*
X0397781Y0086369D01*
X0398148Y0086002D01*
X0398515Y0086369D01*
X0398882Y0086369D01*
X0399249Y0086002D01*
X0399249Y0085268D01*
X0398882Y0084901D01*
X0398148Y0085635D02*
X0398148Y0086002D01*
X0395582Y0089651D02*
X0395949Y0090018D01*
X0395949Y0090752D01*
X0395582Y0091119D01*
X0394848Y0091861D02*
X0394848Y0093329D01*
X0394848Y0094071D02*
X0394848Y0095172D01*
X0395215Y0095539D01*
X0395582Y0095539D01*
X0395949Y0095172D01*
X0395949Y0094438D01*
X0395582Y0094071D01*
X0394848Y0094071D01*
X0394114Y0094805D01*
X0393747Y0095539D01*
X0393747Y0092962D02*
X0394848Y0091861D01*
X0394114Y0091119D02*
X0393747Y0090752D01*
X0393747Y0090018D01*
X0394114Y0089651D01*
X0395582Y0089651D01*
X0395949Y0092962D02*
X0393747Y0092962D01*
X0416399Y0094148D02*
X0416766Y0093781D01*
X0417500Y0093781D01*
X0417867Y0094148D01*
X0418609Y0093781D02*
X0420077Y0093781D01*
X0419343Y0093781D02*
X0419343Y0095983D01*
X0418609Y0095249D01*
X0417867Y0095616D02*
X0417500Y0095983D01*
X0416766Y0095983D01*
X0416399Y0095616D01*
X0416399Y0094148D01*
X0420819Y0094882D02*
X0422286Y0094882D01*
X0421920Y0093781D02*
X0421920Y0095983D01*
X0420819Y0094882D01*
X0419810Y0098831D02*
X0419810Y0101033D01*
X0418709Y0099932D01*
X0420177Y0099932D01*
X0420919Y0099932D02*
X0422386Y0099932D01*
X0422020Y0098831D02*
X0422020Y0101033D01*
X0420919Y0099932D01*
X0417967Y0099198D02*
X0417600Y0098831D01*
X0416866Y0098831D01*
X0416499Y0099198D01*
X0416499Y0100666D01*
X0416866Y0101033D01*
X0417600Y0101033D01*
X0417967Y0100666D01*
X0380186Y0116598D02*
X0380186Y0116965D01*
X0379820Y0117332D01*
X0379453Y0117332D01*
X0379820Y0117332D02*
X0380186Y0117699D01*
X0380186Y0118066D01*
X0379820Y0118433D01*
X0379086Y0118433D01*
X0378719Y0118066D01*
X0377977Y0118066D02*
X0377977Y0117699D01*
X0377610Y0117332D01*
X0377977Y0116965D01*
X0377977Y0116598D01*
X0377610Y0116231D01*
X0376876Y0116231D01*
X0376509Y0116598D01*
X0375767Y0116598D02*
X0375400Y0116231D01*
X0374666Y0116231D01*
X0374299Y0116598D01*
X0374299Y0118066D01*
X0374666Y0118433D01*
X0375400Y0118433D01*
X0375767Y0118066D01*
X0376509Y0118066D02*
X0376876Y0118433D01*
X0377610Y0118433D01*
X0377977Y0118066D01*
X0377610Y0117332D02*
X0377243Y0117332D01*
X0378719Y0116598D02*
X0379086Y0116231D01*
X0379820Y0116231D01*
X0380186Y0116598D01*
X0363736Y0116281D02*
X0362269Y0116281D01*
X0363736Y0117749D01*
X0363736Y0118116D01*
X0363370Y0118483D01*
X0362636Y0118483D01*
X0362269Y0118116D01*
X0361527Y0118116D02*
X0361527Y0117749D01*
X0361160Y0117382D01*
X0361527Y0117015D01*
X0361527Y0116648D01*
X0361160Y0116281D01*
X0360426Y0116281D01*
X0360059Y0116648D01*
X0359317Y0116648D02*
X0358950Y0116281D01*
X0358216Y0116281D01*
X0357849Y0116648D01*
X0357849Y0118116D01*
X0358216Y0118483D01*
X0358950Y0118483D01*
X0359317Y0118116D01*
X0360059Y0118116D02*
X0360426Y0118483D01*
X0361160Y0118483D01*
X0361527Y0118116D01*
X0361160Y0117382D02*
X0360793Y0117382D01*
X0354636Y0116231D02*
X0353169Y0116231D01*
X0353903Y0116231D02*
X0353903Y0118433D01*
X0353169Y0117699D01*
X0352427Y0117699D02*
X0352060Y0117332D01*
X0352427Y0116965D01*
X0352427Y0116598D01*
X0352060Y0116231D01*
X0351326Y0116231D01*
X0350959Y0116598D01*
X0350217Y0116598D02*
X0349850Y0116231D01*
X0349116Y0116231D01*
X0348749Y0116598D01*
X0348749Y0118066D01*
X0349116Y0118433D01*
X0349850Y0118433D01*
X0350217Y0118066D01*
X0350959Y0118066D02*
X0351326Y0118433D01*
X0352060Y0118433D01*
X0352427Y0118066D01*
X0352427Y0117699D01*
X0352060Y0117332D02*
X0351693Y0117332D01*
X0345036Y0123548D02*
X0344670Y0123181D01*
X0343936Y0123181D01*
X0343569Y0123548D01*
X0345036Y0125016D01*
X0345036Y0123548D01*
X0343569Y0123548D02*
X0343569Y0125016D01*
X0343936Y0125383D01*
X0344670Y0125383D01*
X0345036Y0125016D01*
X0342827Y0125016D02*
X0342827Y0124649D01*
X0342460Y0124282D01*
X0342827Y0123915D01*
X0342827Y0123548D01*
X0342460Y0123181D01*
X0341726Y0123181D01*
X0341359Y0123548D01*
X0340617Y0123548D02*
X0340250Y0123181D01*
X0339516Y0123181D01*
X0339149Y0123548D01*
X0339149Y0125016D01*
X0339516Y0125383D01*
X0340250Y0125383D01*
X0340617Y0125016D01*
X0341359Y0125016D02*
X0341726Y0125383D01*
X0342460Y0125383D01*
X0342827Y0125016D01*
X0342460Y0124282D02*
X0342093Y0124282D01*
X0331257Y0124898D02*
X0331257Y0126366D01*
X0330890Y0126733D01*
X0330156Y0126733D01*
X0329789Y0126366D01*
X0329789Y0125999D01*
X0330156Y0125632D01*
X0331257Y0125632D01*
X0331257Y0124898D02*
X0330890Y0124531D01*
X0330156Y0124531D01*
X0329789Y0124898D01*
X0329047Y0124531D02*
X0327579Y0124531D01*
X0328313Y0124531D02*
X0328313Y0126733D01*
X0327579Y0125999D01*
X0326837Y0126366D02*
X0326470Y0126733D01*
X0325736Y0126733D01*
X0325369Y0126366D01*
X0325369Y0124898D01*
X0325736Y0124531D01*
X0326470Y0124531D01*
X0326837Y0124898D01*
X0327476Y0122983D02*
X0327109Y0122616D01*
X0327476Y0122983D02*
X0328210Y0122983D01*
X0328577Y0122616D01*
X0328577Y0122249D01*
X0327109Y0120781D01*
X0328577Y0120781D01*
X0329319Y0121148D02*
X0330786Y0122616D01*
X0330786Y0121148D01*
X0330420Y0120781D01*
X0329686Y0120781D01*
X0329319Y0121148D01*
X0329319Y0122616D01*
X0329686Y0122983D01*
X0330420Y0122983D01*
X0330786Y0122616D01*
X0326367Y0122616D02*
X0326000Y0122983D01*
X0325266Y0122983D01*
X0324899Y0122616D01*
X0324899Y0121148D01*
X0325266Y0120781D01*
X0326000Y0120781D01*
X0326367Y0121148D01*
X0338397Y0107839D02*
X0338397Y0106371D01*
X0339498Y0106371D01*
X0339131Y0107105D01*
X0339131Y0107472D01*
X0339498Y0107839D01*
X0340232Y0107839D01*
X0340599Y0107472D01*
X0340599Y0106738D01*
X0340232Y0106371D01*
X0339498Y0105629D02*
X0339498Y0104161D01*
X0338397Y0105262D01*
X0340599Y0105262D01*
X0340232Y0103419D02*
X0340599Y0103052D01*
X0340599Y0102318D01*
X0340232Y0101951D01*
X0338764Y0101951D01*
X0338397Y0102318D01*
X0338397Y0103052D01*
X0338764Y0103419D01*
X0338547Y0096019D02*
X0338914Y0095285D01*
X0339648Y0094551D01*
X0339648Y0095652D01*
X0340015Y0096019D01*
X0340382Y0096019D01*
X0340749Y0095652D01*
X0340749Y0094918D01*
X0340382Y0094551D01*
X0339648Y0094551D01*
X0340749Y0093809D02*
X0340749Y0092341D01*
X0340749Y0093075D02*
X0338547Y0093075D01*
X0339281Y0092341D01*
X0338914Y0091599D02*
X0338547Y0091232D01*
X0338547Y0090498D01*
X0338914Y0090131D01*
X0340382Y0090131D01*
X0340749Y0090498D01*
X0340749Y0091232D01*
X0340382Y0091599D01*
X0321923Y0083033D02*
X0321923Y0080831D01*
X0321189Y0080831D02*
X0322657Y0080831D01*
X0321189Y0082299D02*
X0321923Y0083033D01*
X0320686Y0084081D02*
X0319219Y0084081D01*
X0320686Y0085549D01*
X0320686Y0085916D01*
X0320320Y0086283D01*
X0319586Y0086283D01*
X0319219Y0085916D01*
X0318477Y0085182D02*
X0317009Y0085182D01*
X0318110Y0086283D01*
X0318110Y0084081D01*
X0317870Y0083033D02*
X0317136Y0083033D01*
X0316769Y0082666D01*
X0316769Y0081198D01*
X0317136Y0080831D01*
X0317870Y0080831D01*
X0318237Y0081198D01*
X0318979Y0080831D02*
X0320447Y0080831D01*
X0319713Y0080831D02*
X0319713Y0083033D01*
X0318979Y0082299D01*
X0318237Y0082666D02*
X0317870Y0083033D01*
X0316267Y0084448D02*
X0315900Y0084081D01*
X0315166Y0084081D01*
X0314799Y0084448D01*
X0314799Y0085916D01*
X0315166Y0086283D01*
X0315900Y0086283D01*
X0316267Y0085916D01*
X0315536Y0078283D02*
X0314803Y0077916D01*
X0314069Y0077182D01*
X0315170Y0077182D01*
X0315536Y0076815D01*
X0315536Y0076448D01*
X0315170Y0076081D01*
X0314436Y0076081D01*
X0314069Y0076448D01*
X0314069Y0077182D01*
X0313327Y0076815D02*
X0313327Y0076448D01*
X0312960Y0076081D01*
X0312226Y0076081D01*
X0311859Y0076448D01*
X0311117Y0076448D02*
X0310750Y0076081D01*
X0310016Y0076081D01*
X0309649Y0076448D01*
X0309649Y0077916D01*
X0310016Y0078283D01*
X0310750Y0078283D01*
X0311117Y0077916D01*
X0311859Y0077916D02*
X0312226Y0078283D01*
X0312960Y0078283D01*
X0313327Y0077916D01*
X0313327Y0077549D01*
X0312960Y0077182D01*
X0313327Y0076815D01*
X0312960Y0077182D02*
X0312593Y0077182D01*
X0308182Y0094851D02*
X0306714Y0094851D01*
X0306347Y0095218D01*
X0306347Y0095952D01*
X0306714Y0096319D01*
X0307448Y0097061D02*
X0306347Y0098162D01*
X0308549Y0098162D01*
X0307448Y0098529D02*
X0307448Y0097061D01*
X0308182Y0096319D02*
X0308549Y0095952D01*
X0308549Y0095218D01*
X0308182Y0094851D01*
X0308182Y0099271D02*
X0308549Y0099638D01*
X0308549Y0100372D01*
X0308182Y0100739D01*
X0307815Y0100739D01*
X0307448Y0100372D01*
X0307448Y0100005D01*
X0307448Y0100372D02*
X0307081Y0100739D01*
X0306714Y0100739D01*
X0306347Y0100372D01*
X0306347Y0099638D01*
X0306714Y0099271D01*
X0378299Y0061566D02*
X0378299Y0060098D01*
X0378666Y0059731D01*
X0379400Y0059731D01*
X0379767Y0060098D01*
X0380509Y0060832D02*
X0381977Y0060832D01*
X0382719Y0061199D02*
X0383086Y0060832D01*
X0384186Y0060832D01*
X0384186Y0060098D02*
X0384186Y0061566D01*
X0383820Y0061933D01*
X0383086Y0061933D01*
X0382719Y0061566D01*
X0382719Y0061199D01*
X0382719Y0060098D02*
X0383086Y0059731D01*
X0383820Y0059731D01*
X0384186Y0060098D01*
X0381610Y0059731D02*
X0381610Y0061933D01*
X0380509Y0060832D01*
X0379767Y0061566D02*
X0379400Y0061933D01*
X0378666Y0061933D01*
X0378299Y0061566D01*
X0377710Y0140831D02*
X0376976Y0140831D01*
X0376609Y0141198D01*
X0375867Y0141198D02*
X0375500Y0140831D01*
X0374766Y0140831D01*
X0374399Y0141198D01*
X0374399Y0142666D01*
X0374766Y0143033D01*
X0375500Y0143033D01*
X0375867Y0142666D01*
X0376609Y0142666D02*
X0376976Y0143033D01*
X0377710Y0143033D01*
X0378077Y0142666D01*
X0378077Y0142299D01*
X0377710Y0141932D01*
X0378077Y0141565D01*
X0378077Y0141198D01*
X0377710Y0140831D01*
X0377710Y0141932D02*
X0377343Y0141932D01*
X0378819Y0142299D02*
X0379186Y0141932D01*
X0380286Y0141932D01*
X0380286Y0141198D02*
X0380286Y0142666D01*
X0379920Y0143033D01*
X0379186Y0143033D01*
X0378819Y0142666D01*
X0378819Y0142299D01*
X0378819Y0141198D02*
X0379186Y0140831D01*
X0379920Y0140831D01*
X0380286Y0141198D01*
X0380799Y0141198D02*
X0381166Y0140831D01*
X0381900Y0140831D01*
X0382267Y0141198D01*
X0383009Y0141932D02*
X0384477Y0141932D01*
X0385219Y0141198D02*
X0386686Y0142666D01*
X0386686Y0141198D01*
X0386320Y0140831D01*
X0385586Y0140831D01*
X0385219Y0141198D01*
X0385219Y0142666D01*
X0385586Y0143033D01*
X0386320Y0143033D01*
X0386686Y0142666D01*
X0384110Y0143033D02*
X0383009Y0141932D01*
X0382267Y0142666D02*
X0381900Y0143033D01*
X0381166Y0143033D01*
X0380799Y0142666D01*
X0380799Y0141198D01*
X0384110Y0140831D02*
X0384110Y0143033D01*
X0357836Y0142616D02*
X0357836Y0142249D01*
X0357470Y0141882D01*
X0356736Y0141882D01*
X0356369Y0142249D01*
X0356369Y0142616D01*
X0356736Y0142983D01*
X0357470Y0142983D01*
X0357836Y0142616D01*
X0357470Y0141882D02*
X0357836Y0141515D01*
X0357836Y0141148D01*
X0357470Y0140781D01*
X0356736Y0140781D01*
X0356369Y0141148D01*
X0356369Y0141515D01*
X0356736Y0141882D01*
X0355627Y0141515D02*
X0355627Y0141148D01*
X0355260Y0140781D01*
X0354526Y0140781D01*
X0354159Y0141148D01*
X0353417Y0141148D02*
X0353050Y0140781D01*
X0352316Y0140781D01*
X0351949Y0141148D01*
X0351949Y0142616D01*
X0352316Y0142983D01*
X0353050Y0142983D01*
X0353417Y0142616D01*
X0354159Y0142616D02*
X0354526Y0142983D01*
X0355260Y0142983D01*
X0355627Y0142616D01*
X0355627Y0142249D01*
X0355260Y0141882D01*
X0355627Y0141515D01*
X0355260Y0141882D02*
X0354893Y0141882D01*
X0351286Y0142616D02*
X0349819Y0141148D01*
X0349819Y0140781D01*
X0349077Y0140781D02*
X0347609Y0140781D01*
X0348343Y0140781D02*
X0348343Y0142983D01*
X0347609Y0142249D01*
X0346867Y0142616D02*
X0346500Y0142983D01*
X0345766Y0142983D01*
X0345399Y0142616D01*
X0345399Y0141148D01*
X0345766Y0140781D01*
X0346500Y0140781D01*
X0346867Y0141148D01*
X0349819Y0142983D02*
X0351286Y0142983D01*
X0351286Y0142616D01*
X0470049Y0179281D02*
X0511049Y0179281D01*
X0334686Y0205032D02*
X0333219Y0205032D01*
X0334320Y0206133D01*
X0334320Y0203931D01*
X0332477Y0204298D02*
X0332110Y0203931D01*
X0331376Y0203931D01*
X0331009Y0204298D01*
X0330267Y0203931D02*
X0329533Y0204665D01*
X0329900Y0204665D02*
X0328799Y0204665D01*
X0328799Y0203931D02*
X0328799Y0206133D01*
X0329900Y0206133D01*
X0330267Y0205766D01*
X0330267Y0205032D01*
X0329900Y0204665D01*
X0331009Y0205766D02*
X0331376Y0206133D01*
X0332110Y0206133D01*
X0332477Y0205766D01*
X0332477Y0205399D01*
X0332110Y0205032D01*
X0332477Y0204665D01*
X0332477Y0204298D01*
X0332110Y0205032D02*
X0331743Y0205032D01*
X0313136Y0224831D02*
X0311669Y0224831D01*
X0312403Y0224831D02*
X0312403Y0227033D01*
X0311669Y0226299D01*
X0310927Y0224831D02*
X0309459Y0224831D01*
X0310193Y0224831D02*
X0310193Y0227033D01*
X0309459Y0226299D01*
X0308717Y0226666D02*
X0308350Y0227033D01*
X0307249Y0227033D01*
X0307249Y0224831D01*
X0308350Y0224831D01*
X0308717Y0225198D01*
X0308717Y0226666D01*
X0333399Y0235881D02*
X0333399Y0238083D01*
X0334500Y0238083D01*
X0334867Y0237716D01*
X0334867Y0236248D01*
X0334500Y0235881D01*
X0333399Y0235881D01*
X0335609Y0236248D02*
X0335976Y0235881D01*
X0336710Y0235881D01*
X0337077Y0236248D01*
X0337077Y0237716D01*
X0336710Y0238083D01*
X0335976Y0238083D01*
X0335609Y0237716D01*
X0335609Y0237349D01*
X0335976Y0236982D01*
X0337077Y0236982D01*
X0199249Y0228481D02*
X0199249Y0187481D01*
X0111949Y0187481D02*
X0111949Y0228481D01*
X0470049Y0268431D02*
X0511049Y0268431D01*
D16*
X0209499Y0229231D03*
X0188999Y0229231D03*
X0122199Y0229231D03*
X0101699Y0229231D03*
X0101699Y0186731D03*
X0122199Y0186731D03*
X0188999Y0186731D03*
X0209499Y0186731D03*
D17*
X0199249Y0186731D03*
X0199249Y0229231D03*
X0111949Y0229231D03*
X0111949Y0186731D03*
D18*
X0121449Y0207981D03*
X0102449Y0207981D03*
X0189749Y0207981D03*
X0208749Y0207981D03*
D19*
X0207749Y0175981D03*
X0190749Y0175981D03*
X0120449Y0175981D03*
X0103449Y0175981D03*
X0103449Y0239981D03*
X0120449Y0239981D03*
X0190749Y0239981D03*
X0207749Y0239981D03*
D20*
X0290199Y0238175D03*
X0303199Y0235937D03*
X0316699Y0235937D03*
X0329699Y0238175D03*
X0329699Y0247687D03*
X0290199Y0247687D03*
X0303199Y0226425D03*
X0316699Y0226425D03*
X0149249Y0134987D03*
X0149249Y0125475D03*
X0162249Y0123037D03*
X0162249Y0113525D03*
X0164249Y0049437D03*
X0164249Y0039925D03*
X0151249Y0037437D03*
X0151249Y0027925D03*
D21*
X0547649Y0169309D03*
X0223449Y0242203D03*
D22*
X0159249Y0186831D02*
X0162499Y0181831D01*
X0151749Y0186831D02*
X0148499Y0181831D01*
X0026497Y0045000D02*
X0021576Y0046969D01*
X0021576Y0043032D01*
X0026497Y0045000D01*
X0025624Y0044651D02*
X0021576Y0044651D01*
X0021576Y0043653D02*
X0023128Y0043653D01*
X0021576Y0045650D02*
X0024873Y0045650D01*
X0022377Y0046648D02*
X0021576Y0046648D01*
X0473099Y0217231D02*
X0478099Y0220481D01*
X0478099Y0227981D02*
X0473099Y0231231D01*
D23*
X0418249Y0242031D02*
X0417249Y0242031D01*
X0417249Y0243531D01*
X0418249Y0243531D01*
X0418249Y0242031D01*
X0418249Y0242096D02*
X0417249Y0242096D01*
X0417249Y0242194D02*
X0418249Y0242194D01*
X0418249Y0242293D02*
X0417249Y0242293D01*
X0417249Y0242391D02*
X0418249Y0242391D01*
X0418249Y0242490D02*
X0417249Y0242490D01*
X0417249Y0242588D02*
X0418249Y0242588D01*
X0418249Y0242687D02*
X0417249Y0242687D01*
X0417249Y0242785D02*
X0418249Y0242785D01*
X0418249Y0242884D02*
X0417249Y0242884D01*
X0417249Y0242982D02*
X0418249Y0242982D01*
X0418249Y0243081D02*
X0417249Y0243081D01*
X0417249Y0243179D02*
X0418249Y0243179D01*
X0418249Y0243278D02*
X0417249Y0243278D01*
X0417249Y0243376D02*
X0418249Y0243376D01*
X0418249Y0243475D02*
X0417249Y0243475D01*
X0365596Y0117581D02*
X0365596Y0116581D01*
X0364096Y0116581D01*
X0364096Y0117581D01*
X0365596Y0117581D01*
X0365596Y0117577D02*
X0364096Y0117577D01*
X0364096Y0117479D02*
X0365596Y0117479D01*
X0365596Y0117380D02*
X0364096Y0117380D01*
X0364096Y0117282D02*
X0365596Y0117282D01*
X0365596Y0117183D02*
X0364096Y0117183D01*
X0364096Y0117085D02*
X0365596Y0117085D01*
X0365596Y0116986D02*
X0364096Y0116986D01*
X0364096Y0116888D02*
X0365596Y0116888D01*
X0365596Y0116789D02*
X0364096Y0116789D01*
X0364096Y0116691D02*
X0365596Y0116691D01*
X0365596Y0116592D02*
X0364096Y0116592D01*
X0341399Y0099789D02*
X0341399Y0098289D01*
X0340399Y0098289D01*
X0340399Y0099789D01*
X0341399Y0099789D01*
X0341399Y0099747D02*
X0340399Y0099747D01*
X0340399Y0099648D02*
X0341399Y0099648D01*
X0341399Y0099550D02*
X0340399Y0099550D01*
X0340399Y0099451D02*
X0341399Y0099451D01*
X0341399Y0099353D02*
X0340399Y0099353D01*
X0340399Y0099254D02*
X0341399Y0099254D01*
X0341399Y0099156D02*
X0340399Y0099156D01*
X0340399Y0099057D02*
X0341399Y0099057D01*
X0341399Y0098959D02*
X0340399Y0098959D01*
X0340399Y0098860D02*
X0341399Y0098860D01*
X0341399Y0098762D02*
X0340399Y0098762D01*
X0340399Y0098663D02*
X0341399Y0098663D01*
X0341399Y0098565D02*
X0340399Y0098565D01*
X0340399Y0098466D02*
X0341399Y0098466D01*
X0341399Y0098368D02*
X0340399Y0098368D01*
X0340399Y0080104D02*
X0340399Y0078604D01*
X0341399Y0078604D01*
X0341399Y0080104D01*
X0340399Y0080104D01*
X0340399Y0080044D02*
X0341399Y0080044D01*
X0341399Y0079946D02*
X0340399Y0079946D01*
X0340399Y0079847D02*
X0341399Y0079847D01*
X0341399Y0079749D02*
X0340399Y0079749D01*
X0340399Y0079650D02*
X0341399Y0079650D01*
X0341399Y0079552D02*
X0340399Y0079552D01*
X0340399Y0079453D02*
X0341399Y0079453D01*
X0341399Y0079355D02*
X0340399Y0079355D01*
X0340399Y0079256D02*
X0341399Y0079256D01*
X0341399Y0079158D02*
X0340399Y0079158D01*
X0340399Y0079059D02*
X0341399Y0079059D01*
X0341399Y0078961D02*
X0340399Y0078961D01*
X0340399Y0078862D02*
X0341399Y0078862D01*
X0341399Y0078764D02*
X0340399Y0078764D01*
X0340399Y0078665D02*
X0341399Y0078665D01*
X0366065Y0063781D02*
X0367565Y0063781D01*
X0367565Y0062781D01*
X0366065Y0062781D01*
X0366065Y0063781D01*
X0366065Y0063692D02*
X0367565Y0063692D01*
X0367565Y0063593D02*
X0366065Y0063593D01*
X0366065Y0063495D02*
X0367565Y0063495D01*
X0367565Y0063396D02*
X0366065Y0063396D01*
X0366065Y0063298D02*
X0367565Y0063298D01*
X0367565Y0063199D02*
X0366065Y0063199D01*
X0366065Y0063101D02*
X0367565Y0063101D01*
X0367565Y0063002D02*
X0366065Y0063002D01*
X0366065Y0062903D02*
X0367565Y0062903D01*
X0367565Y0062805D02*
X0366065Y0062805D01*
X0394199Y0076636D02*
X0394199Y0078136D01*
X0395199Y0078136D01*
X0395199Y0076636D01*
X0394199Y0076636D01*
X0394199Y0076695D02*
X0395199Y0076695D01*
X0395199Y0076794D02*
X0394199Y0076794D01*
X0394199Y0076892D02*
X0395199Y0076892D01*
X0395199Y0076991D02*
X0394199Y0076991D01*
X0394199Y0077089D02*
X0395199Y0077089D01*
X0395199Y0077188D02*
X0394199Y0077188D01*
X0394199Y0077286D02*
X0395199Y0077286D01*
X0395199Y0077385D02*
X0394199Y0077385D01*
X0394199Y0077483D02*
X0395199Y0077483D01*
X0395199Y0077582D02*
X0394199Y0077582D01*
X0394199Y0077680D02*
X0395199Y0077680D01*
X0395199Y0077779D02*
X0394199Y0077779D01*
X0394199Y0077877D02*
X0395199Y0077877D01*
X0395199Y0077976D02*
X0394199Y0077976D01*
X0394199Y0078074D02*
X0395199Y0078074D01*
X0395199Y0096321D02*
X0394199Y0096321D01*
X0394199Y0097821D01*
X0395199Y0097821D01*
X0395199Y0096321D01*
X0395199Y0096397D02*
X0394199Y0096397D01*
X0394199Y0096496D02*
X0395199Y0096496D01*
X0395199Y0096594D02*
X0394199Y0096594D01*
X0394199Y0096693D02*
X0395199Y0096693D01*
X0395199Y0096791D02*
X0394199Y0096791D01*
X0394199Y0096890D02*
X0395199Y0096890D01*
X0395199Y0096988D02*
X0394199Y0096988D01*
X0394199Y0097087D02*
X0395199Y0097087D01*
X0395199Y0097185D02*
X0394199Y0097185D01*
X0394199Y0097284D02*
X0395199Y0097284D01*
X0395199Y0097382D02*
X0394199Y0097382D01*
X0394199Y0097481D02*
X0395199Y0097481D01*
X0395199Y0097579D02*
X0394199Y0097579D01*
X0394199Y0097678D02*
X0395199Y0097678D01*
X0395199Y0097777D02*
X0394199Y0097777D01*
D24*
X0422399Y0233443D03*
D25*
X0538293Y0106081D03*
X0547805Y0106081D03*
X0550143Y0093081D03*
X0559655Y0093081D03*
X0559655Y0079581D03*
X0550143Y0079581D03*
X0547805Y0066531D03*
X0538293Y0066531D03*
X0076105Y0108981D03*
X0066593Y0108981D03*
X0063905Y0121981D03*
X0054393Y0121981D03*
X0054393Y0135281D03*
X0063905Y0135281D03*
X0066593Y0148281D03*
X0076105Y0148281D03*
D26*
X0469299Y0169031D03*
X0469299Y0189531D03*
X0511799Y0189531D03*
X0511799Y0169031D03*
X0511799Y0258181D03*
X0511799Y0278681D03*
X0469299Y0278681D03*
X0469299Y0258181D03*
D27*
X0469299Y0268431D03*
X0511799Y0268431D03*
X0511799Y0179281D03*
X0469299Y0179281D03*
D28*
X0490549Y0169781D03*
X0490549Y0188781D03*
X0490549Y0258931D03*
X0490549Y0277931D03*
D29*
X0522549Y0276931D03*
X0522549Y0259931D03*
X0458549Y0259931D03*
X0458549Y0276931D03*
X0458549Y0187781D03*
X0458549Y0170781D03*
X0522549Y0170781D03*
X0522549Y0187781D03*
D30*
X0454449Y0048406D03*
D31*
X0454449Y0057031D03*
D32*
X0395790Y0044806D03*
X0372168Y0044806D03*
X0348546Y0044806D03*
X0324924Y0044806D03*
X0301302Y0044806D03*
X0277680Y0044806D03*
X0254057Y0044806D03*
X0254057Y0194806D03*
X0277680Y0194806D03*
X0301302Y0194806D03*
X0324924Y0194806D03*
X0348546Y0194806D03*
X0372168Y0194806D03*
X0395790Y0194806D03*
D33*
X0424924Y0167050D03*
X0424924Y0143428D03*
X0424924Y0119806D03*
X0424924Y0096184D03*
X0424924Y0072562D03*
X0224924Y0072562D03*
X0224924Y0096184D03*
X0224924Y0119806D03*
X0224924Y0143428D03*
X0224924Y0167050D03*
D34*
X0235750Y0194806D03*
X0414097Y0194806D03*
X0414097Y0044806D03*
X0235750Y0044806D03*
D35*
X0502699Y0044981D02*
X0505699Y0044981D01*
X0508699Y0044981D01*
X0508699Y0048481D02*
X0505699Y0048481D01*
X0502699Y0048481D01*
M02*
